solid ascii
 facet normal -1 0 0
  outer loop
   vertex -0.9924 -0.541667 1.16667
   vertex -0.9924 -0.391667 0.541667
   vertex -0.9924 -0.541667 0.541667
  endloop
 endfacet
 facet normal -1 0 0
  outer loop
   vertex -0.9924 -0.391667 1.16667
   vertex -0.9924 -0.391667 0.541667
   vertex -0.9924 -0.541667 1.16667
  endloop
 endfacet
 facet normal 0 -1 0
  outer loop
   vertex -0.9924 -0.391667 1.16667
   vertex -1.1424 -0.391667 0.541667
   vertex -0.9924 -0.391667 0.541667
  endloop
 endfacet
 facet normal 0 -1 0
  outer loop
   vertex -1.1424 -0.391667 1.16667
   vertex -1.1424 -0.391667 0.541667
   vertex -0.9924 -0.391667 1.16667
  endloop
 endfacet
 facet normal 1 0 0
  outer loop
   vertex -1.1424 -0.391667 1.16667
   vertex -1.1424 -0.541667 0.541667
   vertex -1.1424 -0.391667 0.541667
  endloop
 endfacet
 facet normal 1 0 0
  outer loop
   vertex -1.1424 -0.541667 1.16667
   vertex -1.1424 -0.541667 0.541667
   vertex -1.1424 -0.391667 1.16667
  endloop
 endfacet
 facet normal 0 -1 0
  outer loop
   vertex -1.1424 -0.541667 1.16667
   vertex -3.15907 -0.541667 0.541667
   vertex -1.1424 -0.541667 0.541667
  endloop
 endfacet
 facet normal 0 -1 0
  outer loop
   vertex -3.15907 -0.541667 1.16667
   vertex -3.15907 -0.541667 0.541667
   vertex -1.1424 -0.541667 1.16667
  endloop
 endfacet
 facet normal -1 0 0
  outer loop
   vertex -3.15907 -0.541667 1.16667
   vertex -3.15907 -0.391667 0.541667
   vertex -3.15907 -0.541667 0.541667
  endloop
 endfacet
 facet normal -1 0 0
  outer loop
   vertex -3.15907 -0.391667 1.16667
   vertex -3.15907 -0.391667 0.541667
   vertex -3.15907 -0.541667 1.16667
  endloop
 endfacet
 facet normal 0 -1 0
  outer loop
   vertex -3.15907 -0.391667 1.16667
   vertex -3.30907 -0.391667 0.541667
   vertex -3.15907 -0.391667 0.541667
  endloop
 endfacet
 facet normal 0 -1 0
  outer loop
   vertex -3.30907 -0.391667 1.16667
   vertex -3.30907 -0.391667 0.541667
   vertex -3.15907 -0.391667 1.16667
  endloop
 endfacet
 facet normal 1 0 0
  outer loop
   vertex -3.30907 -0.391667 1.16667
   vertex -3.30907 -0.541667 0.541667
   vertex -3.30907 -0.391667 0.541667
  endloop
 endfacet
 facet normal 1 0 0
  outer loop
   vertex -3.30907 -0.541667 1.16667
   vertex -3.30907 -0.541667 0.541667
   vertex -3.30907 -0.391667 1.16667
  endloop
 endfacet
 facet normal 0 -1 0
  outer loop
   vertex -3.30907 -0.541667 1.16667
   vertex -5.32573 -0.541667 0.541667
   vertex -3.30907 -0.541667 0.541667
  endloop
 endfacet
 facet normal 0 -1 0
  outer loop
   vertex -5.32573 -0.541667 1.16667
   vertex -5.32573 -0.541667 0.541667
   vertex -3.30907 -0.541667 1.16667
  endloop
 endfacet
 facet normal -1 0 0
  outer loop
   vertex -5.32573 -0.541667 1.16667
   vertex -5.32573 -0.391667 0.541667
   vertex -5.32573 -0.541667 0.541667
  endloop
 endfacet
 facet normal -1 0 0
  outer loop
   vertex -5.32573 -0.391667 1.16667
   vertex -5.32573 -0.391667 0.541667
   vertex -5.32573 -0.541667 1.16667
  endloop
 endfacet
 facet normal 0 -1 0
  outer loop
   vertex -5.32573 -0.391667 1.16667
   vertex -5.47573 -0.391667 0.541667
   vertex -5.32573 -0.391667 0.541667
  endloop
 endfacet
 facet normal 0 -1 0
  outer loop
   vertex -5.47573 -0.391667 1.16667
   vertex -5.47573 -0.391667 0.541667
   vertex -5.32573 -0.391667 1.16667
  endloop
 endfacet
 facet normal 1 0 0
  outer loop
   vertex -5.47573 -0.391667 1.16667
   vertex -5.47573 -0.541667 0.541667
   vertex -5.47573 -0.391667 0.541667
  endloop
 endfacet
 facet normal 1 0 0
  outer loop
   vertex -5.47573 -0.541667 1.16667
   vertex -5.47573 -0.541667 0.541667
   vertex -5.47573 -0.391667 1.16667
  endloop
 endfacet
 facet normal 0 -1 0
  outer loop
   vertex -5.47573 -0.541667 1.16667
   vertex -7.4924 -0.541667 0.541667
   vertex -5.47573 -0.541667 0.541667
  endloop
 endfacet
 facet normal 0 -1 0
  outer loop
   vertex -7.4924 -0.541667 1.16667
   vertex -7.4924 -0.541667 0.541667
   vertex -5.47573 -0.541667 1.16667
  endloop
 endfacet
 facet normal -1 0 0
  outer loop
   vertex -7.4924 -0.541667 1.16667
   vertex -7.4924 -0.391667 0.541667
   vertex -7.4924 -0.541667 0.541667
  endloop
 endfacet
 facet normal -1 0 0
  outer loop
   vertex -7.4924 -0.391667 1.16667
   vertex -7.4924 -0.391667 0.541667
   vertex -7.4924 -0.541667 1.16667
  endloop
 endfacet
 facet normal 0 -1 0
  outer loop
   vertex -7.4924 -0.391667 1.16667
   vertex -7.6424 -0.391667 0.541667
   vertex -7.4924 -0.391667 0.541667
  endloop
 endfacet
 facet normal 0 -1 0
  outer loop
   vertex -7.6424 -0.391667 1.16667
   vertex -7.6424 -0.391667 0.541667
   vertex -7.4924 -0.391667 1.16667
  endloop
 endfacet
 facet normal 1 0 0
  outer loop
   vertex -7.6424 -0.391667 1.16667
   vertex -7.6424 -0.541667 0.541667
   vertex -7.6424 -0.391667 0.541667
  endloop
 endfacet
 facet normal 1 0 0
  outer loop
   vertex -7.6424 -0.541667 1.16667
   vertex -7.6424 -0.541667 0.541667
   vertex -7.6424 -0.391667 1.16667
  endloop
 endfacet
 facet normal 0 -1 0
  outer loop
   vertex -7.6424 -0.541667 1.16667
   vertex -9.65907 -0.541667 0.541667
   vertex -7.6424 -0.541667 0.541667
  endloop
 endfacet
 facet normal 0 -1 0
  outer loop
   vertex -9.65907 -0.541667 1.16667
   vertex -9.65907 -0.541667 0.541667
   vertex -7.6424 -0.541667 1.16667
  endloop
 endfacet
 facet normal -1 0 0
  outer loop
   vertex -9.65907 -0.541667 1.16667
   vertex -9.65907 -0.391667 0.541667
   vertex -9.65907 -0.541667 0.541667
  endloop
 endfacet
 facet normal -1 0 0
  outer loop
   vertex -9.65907 -0.391667 1.16667
   vertex -9.65907 -0.391667 0.541667
   vertex -9.65907 -0.541667 1.16667
  endloop
 endfacet
 facet normal 0 -1 0
  outer loop
   vertex -9.65907 -0.391667 1.16667
   vertex -9.80907 -0.391667 0.541667
   vertex -9.65907 -0.391667 0.541667
  endloop
 endfacet
 facet normal 0 -1 0
  outer loop
   vertex -9.80907 -0.391667 1.16667
   vertex -9.80907 -0.391667 0.541667
   vertex -9.65907 -0.391667 1.16667
  endloop
 endfacet
 facet normal 1 0 0
  outer loop
   vertex -9.80907 -0.391667 1.16667
   vertex -9.80907 -0.541667 0.541667
   vertex -9.80907 -0.391667 0.541667
  endloop
 endfacet
 facet normal 1 0 0
  outer loop
   vertex -9.80907 -0.541667 1.16667
   vertex -9.80907 -0.541667 0.541667
   vertex -9.80907 -0.391667 1.16667
  endloop
 endfacet
 facet normal 0 -1 0
  outer loop
   vertex -9.80907 -0.541667 1.16667
   vertex -11.8257 -0.541667 0.541667
   vertex -9.80907 -0.541667 0.541667
  endloop
 endfacet
 facet normal 0 -1 0
  outer loop
   vertex -11.8257 -0.541667 1.16667
   vertex -11.8257 -0.541667 0.541667
   vertex -9.80907 -0.541667 1.16667
  endloop
 endfacet
 facet normal -1 0 0
  outer loop
   vertex -11.8257 -0.541667 1.16667
   vertex -11.8257 -0.391667 0.541667
   vertex -11.8257 -0.541667 0.541667
  endloop
 endfacet
 facet normal -1 0 0
  outer loop
   vertex -11.8257 -0.391667 1.16667
   vertex -11.8257 -0.391667 0.541667
   vertex -11.8257 -0.541667 1.16667
  endloop
 endfacet
 facet normal 0 -1 0
  outer loop
   vertex -11.8257 -0.391667 1.16667
   vertex -11.9757 -0.391667 0.541667
   vertex -11.8257 -0.391667 0.541667
  endloop
 endfacet
 facet normal 0 -1 0
  outer loop
   vertex -11.9757 -0.391667 1.16667
   vertex -11.9757 -0.391667 0.541667
   vertex -11.8257 -0.391667 1.16667
  endloop
 endfacet
 facet normal 1 0 0
  outer loop
   vertex -11.9757 -0.391667 1.16667
   vertex -11.9757 -0.541667 0.541667
   vertex -11.9757 -0.391667 0.541667
  endloop
 endfacet
 facet normal 1 0 0
  outer loop
   vertex -11.9757 -0.541667 1.16667
   vertex -11.9757 -0.541667 0.541667
   vertex -11.9757 -0.391667 1.16667
  endloop
 endfacet
 facet normal 0 -1 0
  outer loop
   vertex -11.9757 -0.541667 1.16667
   vertex -13.9924 -0.541667 0.541667
   vertex -11.9757 -0.541667 0.541667
  endloop
 endfacet
 facet normal 0 -1 0
  outer loop
   vertex -13.9924 -0.541667 1.16667
   vertex -13.9924 -0.541667 0.541667
   vertex -11.9757 -0.541667 1.16667
  endloop
 endfacet
 facet normal -1 0 0
  outer loop
   vertex -13.9924 -0.541667 1.16667
   vertex -13.9924 -0.391667 0.541667
   vertex -13.9924 -0.541667 0.541667
  endloop
 endfacet
 facet normal -1 0 0
  outer loop
   vertex -13.9924 -0.391667 1.16667
   vertex -13.9924 -0.391667 0.541667
   vertex -13.9924 -0.541667 1.16667
  endloop
 endfacet
 facet normal 0 -1 0
  outer loop
   vertex -13.9924 -0.391667 1.16667
   vertex -14.1424 -0.391667 0.541667
   vertex -13.9924 -0.391667 0.541667
  endloop
 endfacet
 facet normal 0 -1 0
  outer loop
   vertex -14.1424 -0.391667 1.16667
   vertex -14.1424 -0.391667 0.541667
   vertex -13.9924 -0.391667 1.16667
  endloop
 endfacet
 facet normal 1 0 0
  outer loop
   vertex -14.1424 -0.391667 1.16667
   vertex -14.1424 -0.541667 0.541667
   vertex -14.1424 -0.391667 0.541667
  endloop
 endfacet
 facet normal 1 0 0
  outer loop
   vertex -14.1424 -0.541667 1.16667
   vertex -14.1424 -0.541667 0.541667
   vertex -14.1424 -0.391667 1.16667
  endloop
 endfacet
 facet normal 0 -1 0
  outer loop
   vertex -14.1424 -0.541667 1.16667
   vertex -16.1591 -0.541667 0.541667
   vertex -14.1424 -0.541667 0.541667
  endloop
 endfacet
 facet normal 0 -1 0
  outer loop
   vertex -16.1591 -0.541667 1.16667
   vertex -16.1591 -0.541667 0.541667
   vertex -14.1424 -0.541667 1.16667
  endloop
 endfacet
 facet normal -1 0 0
  outer loop
   vertex -16.1591 -0.541667 1.16667
   vertex -16.1591 -0.391667 0.541667
   vertex -16.1591 -0.541667 0.541667
  endloop
 endfacet
 facet normal -1 0 0
  outer loop
   vertex -16.1591 -0.391667 1.16667
   vertex -16.1591 -0.391667 0.541667
   vertex -16.1591 -0.541667 1.16667
  endloop
 endfacet
 facet normal 0 -1 0
  outer loop
   vertex -16.1591 -0.391667 1.16667
   vertex -16.3091 -0.391667 0.541667
   vertex -16.1591 -0.391667 0.541667
  endloop
 endfacet
 facet normal 0 -1 0
  outer loop
   vertex -16.3091 -0.391667 1.16667
   vertex -16.3091 -0.391667 0.541667
   vertex -16.1591 -0.391667 1.16667
  endloop
 endfacet
 facet normal 1 0 0
  outer loop
   vertex -16.3091 -0.391667 1.16667
   vertex -16.3091 -0.541667 0.541667
   vertex -16.3091 -0.391667 0.541667
  endloop
 endfacet
 facet normal 1 0 0
  outer loop
   vertex -16.3091 -0.541667 1.16667
   vertex -16.3091 -0.541667 0.541667
   vertex -16.3091 -0.391667 1.16667
  endloop
 endfacet
 facet normal 0 -1 0
  outer loop
   vertex -16.3091 -0.541667 1.16667
   vertex -17.2424 -0.541667 0.541667
   vertex -16.3091 -0.541667 0.541667
  endloop
 endfacet
 facet normal 0 -1 0
  outer loop
   vertex -17.2424 -0.541667 1.16667
   vertex -17.2424 -0.541667 0.541667
   vertex -16.3091 -0.541667 1.16667
  endloop
 endfacet
 facet normal -1 0 0
  outer loop
   vertex -17.2424 -0.541667 1.16667
   vertex -17.2424 -0.391667 0.541667
   vertex -17.2424 -0.541667 0.541667
  endloop
 endfacet
 facet normal -1 0 0
  outer loop
   vertex -17.2424 -0.391667 1.16667
   vertex -17.2424 -0.391667 0.541667
   vertex -17.2424 -0.541667 1.16667
  endloop
 endfacet
 facet normal 0 -1 0
  outer loop
   vertex -17.2424 -0.391667 1.16667
   vertex -17.3924 -0.391667 0.541667
   vertex -17.2424 -0.391667 0.541667
  endloop
 endfacet
 facet normal 0 -1 0
  outer loop
   vertex -17.3924 -0.391667 1.16667
   vertex -17.3924 -0.391667 0.541667
   vertex -17.2424 -0.391667 1.16667
  endloop
 endfacet
 facet normal 1 0 0
  outer loop
   vertex -17.3924 -0.391667 1.16667
   vertex -17.3924 -0.541667 0.541667
   vertex -17.3924 -0.391667 0.541667
  endloop
 endfacet
 facet normal 1 0 0
  outer loop
   vertex -17.3924 -0.541667 1.16667
   vertex -17.3924 -0.541667 0.541667
   vertex -17.3924 -0.391667 1.16667
  endloop
 endfacet
 facet normal 0 0 1
  outer loop
   vertex -3.15907 -0.391667 1.16667
   vertex -3.15907 -0.541667 1.16667
   vertex -1.1424 -0.391667 1.16667
  endloop
 endfacet
 facet normal 0 0 1
  outer loop
   vertex -1.1424 -0.541667 1.16667
   vertex -1.1424 -0.391667 1.16667
   vertex -3.15907 -0.541667 1.16667
  endloop
 endfacet
 facet normal 0 0 1
  outer loop
   vertex -5.32573 -0.391667 1.16667
   vertex -5.32573 -0.541667 1.16667
   vertex -3.30907 -0.391667 1.16667
  endloop
 endfacet
 facet normal 0 0 1
  outer loop
   vertex -3.30907 -0.541667 1.16667
   vertex -3.30907 -0.391667 1.16667
   vertex -5.32573 -0.541667 1.16667
  endloop
 endfacet
 facet normal 0 0 1
  outer loop
   vertex -7.4924 -0.391667 1.16667
   vertex -7.4924 -0.541667 1.16667
   vertex -5.47573 -0.391667 1.16667
  endloop
 endfacet
 facet normal 0 0 1
  outer loop
   vertex -5.47573 -0.541667 1.16667
   vertex -5.47573 -0.391667 1.16667
   vertex -7.4924 -0.541667 1.16667
  endloop
 endfacet
 facet normal 0 0 1
  outer loop
   vertex -9.65907 -0.391667 1.16667
   vertex -9.65907 -0.541667 1.16667
   vertex -7.6424 -0.391667 1.16667
  endloop
 endfacet
 facet normal 0 0 1
  outer loop
   vertex -7.6424 -0.541667 1.16667
   vertex -7.6424 -0.391667 1.16667
   vertex -9.65907 -0.541667 1.16667
  endloop
 endfacet
 facet normal 0 0 1
  outer loop
   vertex -11.8257 -0.391667 1.16667
   vertex -11.8257 -0.541667 1.16667
   vertex -9.80907 -0.391667 1.16667
  endloop
 endfacet
 facet normal 0 0 1
  outer loop
   vertex -9.80907 -0.541667 1.16667
   vertex -9.80907 -0.391667 1.16667
   vertex -11.8257 -0.541667 1.16667
  endloop
 endfacet
 facet normal 0 0 1
  outer loop
   vertex -13.9924 -0.391667 1.16667
   vertex -13.9924 -0.541667 1.16667
   vertex -11.9757 -0.391667 1.16667
  endloop
 endfacet
 facet normal 0 0 1
  outer loop
   vertex -11.9757 -0.541667 1.16667
   vertex -11.9757 -0.391667 1.16667
   vertex -13.9924 -0.541667 1.16667
  endloop
 endfacet
 facet normal 0 0 1
  outer loop
   vertex -16.1591 -0.391667 1.16667
   vertex -16.1591 -0.541667 1.16667
   vertex -14.1424 -0.391667 1.16667
  endloop
 endfacet
 facet normal 0 0 1
  outer loop
   vertex -14.1424 -0.541667 1.16667
   vertex -14.1424 -0.391667 1.16667
   vertex -16.1591 -0.541667 1.16667
  endloop
 endfacet
 facet normal 0 0 1
  outer loop
   vertex -17.2424 -0.391667 1.16667
   vertex -17.2424 -0.541667 1.16667
   vertex -16.3091 -0.391667 1.16667
  endloop
 endfacet
 facet normal 0 0 1
  outer loop
   vertex -16.3091 -0.541667 1.16667
   vertex -16.3091 -0.391667 1.16667
   vertex -17.2424 -0.541667 1.16667
  endloop
 endfacet
 facet normal -1 -0 0
  outer loop
   vertex -0.9924 -0.541667 -0.541667
   vertex -0.9924 -0.391667 -0.541667
   vertex -0.9924 -0.541667 -1.16667
  endloop
 endfacet
 facet normal -1 0 -0
  outer loop
   vertex -0.9924 -0.541667 -1.16667
   vertex -0.9924 -0.391667 -0.541667
   vertex -0.9924 -0.391667 -1.16667
  endloop
 endfacet
 facet normal 0 -1 0
  outer loop
   vertex -0.9924 -0.391667 -0.541667
   vertex -1.1424 -0.391667 -0.541667
   vertex -0.9924 -0.391667 -1.16667
  endloop
 endfacet
 facet normal 0 -1 0
  outer loop
   vertex -0.9924 -0.391667 -1.16667
   vertex -1.1424 -0.391667 -0.541667
   vertex -1.1424 -0.391667 -1.16667
  endloop
 endfacet
 facet normal 1 -0 0
  outer loop
   vertex -1.1424 -0.391667 -0.541667
   vertex -1.1424 -0.541667 -0.541667
   vertex -1.1424 -0.391667 -1.16667
  endloop
 endfacet
 facet normal 1 0 0
  outer loop
   vertex -1.1424 -0.391667 -1.16667
   vertex -1.1424 -0.541667 -0.541667
   vertex -1.1424 -0.541667 -1.16667
  endloop
 endfacet
 facet normal 0 -1 0
  outer loop
   vertex -1.1424 -0.541667 -0.541667
   vertex -2.07573 -0.541667 -0.541667
   vertex -1.1424 -0.541667 -1.16667
  endloop
 endfacet
 facet normal 0 -1 0
  outer loop
   vertex -1.1424 -0.541667 -1.16667
   vertex -2.07573 -0.541667 -0.541667
   vertex -2.07573 -0.541667 -1.16667
  endloop
 endfacet
 facet normal -1 -0 0
  outer loop
   vertex -2.07573 -0.541667 -0.541667
   vertex -2.07573 -0.391667 -0.541667
   vertex -2.07573 -0.541667 -1.16667
  endloop
 endfacet
 facet normal -1 0 -0
  outer loop
   vertex -2.07573 -0.541667 -1.16667
   vertex -2.07573 -0.391667 -0.541667
   vertex -2.07573 -0.391667 -1.16667
  endloop
 endfacet
 facet normal 0 -1 0
  outer loop
   vertex -2.07573 -0.391667 -0.541667
   vertex -2.22573 -0.391667 -0.541667
   vertex -2.07573 -0.391667 -1.16667
  endloop
 endfacet
 facet normal 0 -1 0
  outer loop
   vertex -2.07573 -0.391667 -1.16667
   vertex -2.22573 -0.391667 -0.541667
   vertex -2.22573 -0.391667 -1.16667
  endloop
 endfacet
 facet normal 1 -0 0
  outer loop
   vertex -2.22573 -0.391667 -0.541667
   vertex -2.22573 -0.541667 -0.541667
   vertex -2.22573 -0.391667 -1.16667
  endloop
 endfacet
 facet normal 1 0 0
  outer loop
   vertex -2.22573 -0.391667 -1.16667
   vertex -2.22573 -0.541667 -0.541667
   vertex -2.22573 -0.541667 -1.16667
  endloop
 endfacet
 facet normal 0 -1 0
  outer loop
   vertex -2.22573 -0.541667 -0.541667
   vertex -4.2424 -0.541667 -0.541667
   vertex -2.22573 -0.541667 -1.16667
  endloop
 endfacet
 facet normal 0 -1 0
  outer loop
   vertex -2.22573 -0.541667 -1.16667
   vertex -4.2424 -0.541667 -0.541667
   vertex -4.2424 -0.541667 -1.16667
  endloop
 endfacet
 facet normal -1 -0 0
  outer loop
   vertex -4.2424 -0.541667 -0.541667
   vertex -4.2424 -0.391667 -0.541667
   vertex -4.2424 -0.541667 -1.16667
  endloop
 endfacet
 facet normal -1 0 -0
  outer loop
   vertex -4.2424 -0.541667 -1.16667
   vertex -4.2424 -0.391667 -0.541667
   vertex -4.2424 -0.391667 -1.16667
  endloop
 endfacet
 facet normal 0 -1 0
  outer loop
   vertex -4.2424 -0.391667 -0.541667
   vertex -4.3924 -0.391667 -0.541667
   vertex -4.2424 -0.391667 -1.16667
  endloop
 endfacet
 facet normal 0 -1 0
  outer loop
   vertex -4.2424 -0.391667 -1.16667
   vertex -4.3924 -0.391667 -0.541667
   vertex -4.3924 -0.391667 -1.16667
  endloop
 endfacet
 facet normal 1 -0 0
  outer loop
   vertex -4.3924 -0.391667 -0.541667
   vertex -4.3924 -0.541667 -0.541667
   vertex -4.3924 -0.391667 -1.16667
  endloop
 endfacet
 facet normal 1 0 0
  outer loop
   vertex -4.3924 -0.391667 -1.16667
   vertex -4.3924 -0.541667 -0.541667
   vertex -4.3924 -0.541667 -1.16667
  endloop
 endfacet
 facet normal 0 -1 0
  outer loop
   vertex -4.3924 -0.541667 -0.541667
   vertex -6.40907 -0.541667 -0.541667
   vertex -4.3924 -0.541667 -1.16667
  endloop
 endfacet
 facet normal 0 -1 0
  outer loop
   vertex -4.3924 -0.541667 -1.16667
   vertex -6.40907 -0.541667 -0.541667
   vertex -6.40907 -0.541667 -1.16667
  endloop
 endfacet
 facet normal -1 -0 0
  outer loop
   vertex -6.40907 -0.541667 -0.541667
   vertex -6.40907 -0.391667 -0.541667
   vertex -6.40907 -0.541667 -1.16667
  endloop
 endfacet
 facet normal -1 0 -0
  outer loop
   vertex -6.40907 -0.541667 -1.16667
   vertex -6.40907 -0.391667 -0.541667
   vertex -6.40907 -0.391667 -1.16667
  endloop
 endfacet
 facet normal 0 -1 0
  outer loop
   vertex -6.40907 -0.391667 -0.541667
   vertex -6.55907 -0.391667 -0.541667
   vertex -6.40907 -0.391667 -1.16667
  endloop
 endfacet
 facet normal 0 -1 0
  outer loop
   vertex -6.40907 -0.391667 -1.16667
   vertex -6.55907 -0.391667 -0.541667
   vertex -6.55907 -0.391667 -1.16667
  endloop
 endfacet
 facet normal 1 -0 0
  outer loop
   vertex -6.55907 -0.391667 -0.541667
   vertex -6.55907 -0.541667 -0.541667
   vertex -6.55907 -0.391667 -1.16667
  endloop
 endfacet
 facet normal 1 0 0
  outer loop
   vertex -6.55907 -0.391667 -1.16667
   vertex -6.55907 -0.541667 -0.541667
   vertex -6.55907 -0.541667 -1.16667
  endloop
 endfacet
 facet normal 0 -1 0
  outer loop
   vertex -6.55907 -0.541667 -0.541667
   vertex -8.57573 -0.541667 -0.541667
   vertex -6.55907 -0.541667 -1.16667
  endloop
 endfacet
 facet normal 0 -1 0
  outer loop
   vertex -6.55907 -0.541667 -1.16667
   vertex -8.57573 -0.541667 -0.541667
   vertex -8.57573 -0.541667 -1.16667
  endloop
 endfacet
 facet normal -1 -0 0
  outer loop
   vertex -8.57573 -0.541667 -0.541667
   vertex -8.57573 -0.391667 -0.541667
   vertex -8.57573 -0.541667 -1.16667
  endloop
 endfacet
 facet normal -1 0 -0
  outer loop
   vertex -8.57573 -0.541667 -1.16667
   vertex -8.57573 -0.391667 -0.541667
   vertex -8.57573 -0.391667 -1.16667
  endloop
 endfacet
 facet normal 0 -1 0
  outer loop
   vertex -8.57573 -0.391667 -0.541667
   vertex -8.72573 -0.391667 -0.541667
   vertex -8.57573 -0.391667 -1.16667
  endloop
 endfacet
 facet normal 0 -1 0
  outer loop
   vertex -8.57573 -0.391667 -1.16667
   vertex -8.72573 -0.391667 -0.541667
   vertex -8.72573 -0.391667 -1.16667
  endloop
 endfacet
 facet normal 1 -0 0
  outer loop
   vertex -8.72573 -0.391667 -0.541667
   vertex -8.72573 -0.541667 -0.541667
   vertex -8.72573 -0.391667 -1.16667
  endloop
 endfacet
 facet normal 1 0 0
  outer loop
   vertex -8.72573 -0.391667 -1.16667
   vertex -8.72573 -0.541667 -0.541667
   vertex -8.72573 -0.541667 -1.16667
  endloop
 endfacet
 facet normal 0 -1 0
  outer loop
   vertex -8.72573 -0.541667 -0.541667
   vertex -10.7424 -0.541667 -0.541667
   vertex -8.72573 -0.541667 -1.16667
  endloop
 endfacet
 facet normal 0 -1 0
  outer loop
   vertex -8.72573 -0.541667 -1.16667
   vertex -10.7424 -0.541667 -0.541667
   vertex -10.7424 -0.541667 -1.16667
  endloop
 endfacet
 facet normal -1 -0 0
  outer loop
   vertex -10.7424 -0.541667 -0.541667
   vertex -10.7424 -0.391667 -0.541667
   vertex -10.7424 -0.541667 -1.16667
  endloop
 endfacet
 facet normal -1 0 -0
  outer loop
   vertex -10.7424 -0.541667 -1.16667
   vertex -10.7424 -0.391667 -0.541667
   vertex -10.7424 -0.391667 -1.16667
  endloop
 endfacet
 facet normal 0 -1 0
  outer loop
   vertex -10.7424 -0.391667 -0.541667
   vertex -10.8924 -0.391667 -0.541667
   vertex -10.7424 -0.391667 -1.16667
  endloop
 endfacet
 facet normal 0 -1 0
  outer loop
   vertex -10.7424 -0.391667 -1.16667
   vertex -10.8924 -0.391667 -0.541667
   vertex -10.8924 -0.391667 -1.16667
  endloop
 endfacet
 facet normal 1 -0 0
  outer loop
   vertex -10.8924 -0.391667 -0.541667
   vertex -10.8924 -0.541667 -0.541667
   vertex -10.8924 -0.391667 -1.16667
  endloop
 endfacet
 facet normal 1 0 0
  outer loop
   vertex -10.8924 -0.391667 -1.16667
   vertex -10.8924 -0.541667 -0.541667
   vertex -10.8924 -0.541667 -1.16667
  endloop
 endfacet
 facet normal 0 -1 0
  outer loop
   vertex -10.8924 -0.541667 -0.541667
   vertex -12.9091 -0.541667 -0.541667
   vertex -10.8924 -0.541667 -1.16667
  endloop
 endfacet
 facet normal 0 -1 0
  outer loop
   vertex -10.8924 -0.541667 -1.16667
   vertex -12.9091 -0.541667 -0.541667
   vertex -12.9091 -0.541667 -1.16667
  endloop
 endfacet
 facet normal -1 -0 0
  outer loop
   vertex -12.9091 -0.541667 -0.541667
   vertex -12.9091 -0.391667 -0.541667
   vertex -12.9091 -0.541667 -1.16667
  endloop
 endfacet
 facet normal -1 0 -0
  outer loop
   vertex -12.9091 -0.541667 -1.16667
   vertex -12.9091 -0.391667 -0.541667
   vertex -12.9091 -0.391667 -1.16667
  endloop
 endfacet
 facet normal 0 -1 0
  outer loop
   vertex -12.9091 -0.391667 -0.541667
   vertex -13.0591 -0.391667 -0.541667
   vertex -12.9091 -0.391667 -1.16667
  endloop
 endfacet
 facet normal 0 -1 0
  outer loop
   vertex -12.9091 -0.391667 -1.16667
   vertex -13.0591 -0.391667 -0.541667
   vertex -13.0591 -0.391667 -1.16667
  endloop
 endfacet
 facet normal 1 -0 0
  outer loop
   vertex -13.0591 -0.391667 -0.541667
   vertex -13.0591 -0.541667 -0.541667
   vertex -13.0591 -0.391667 -1.16667
  endloop
 endfacet
 facet normal 1 0 0
  outer loop
   vertex -13.0591 -0.391667 -1.16667
   vertex -13.0591 -0.541667 -0.541667
   vertex -13.0591 -0.541667 -1.16667
  endloop
 endfacet
 facet normal 0 -1 0
  outer loop
   vertex -13.0591 -0.541667 -0.541667
   vertex -15.0757 -0.541667 -0.541667
   vertex -13.0591 -0.541667 -1.16667
  endloop
 endfacet
 facet normal 0 -1 0
  outer loop
   vertex -13.0591 -0.541667 -1.16667
   vertex -15.0757 -0.541667 -0.541667
   vertex -15.0757 -0.541667 -1.16667
  endloop
 endfacet
 facet normal -1 -0 0
  outer loop
   vertex -15.0757 -0.541667 -0.541667
   vertex -15.0757 -0.391667 -0.541667
   vertex -15.0757 -0.541667 -1.16667
  endloop
 endfacet
 facet normal -1 0 -0
  outer loop
   vertex -15.0757 -0.541667 -1.16667
   vertex -15.0757 -0.391667 -0.541667
   vertex -15.0757 -0.391667 -1.16667
  endloop
 endfacet
 facet normal 0 -1 0
  outer loop
   vertex -15.0757 -0.391667 -0.541667
   vertex -15.2257 -0.391667 -0.541667
   vertex -15.0757 -0.391667 -1.16667
  endloop
 endfacet
 facet normal 0 -1 0
  outer loop
   vertex -15.0757 -0.391667 -1.16667
   vertex -15.2257 -0.391667 -0.541667
   vertex -15.2257 -0.391667 -1.16667
  endloop
 endfacet
 facet normal 1 -0 0
  outer loop
   vertex -15.2257 -0.391667 -0.541667
   vertex -15.2257 -0.541667 -0.541667
   vertex -15.2257 -0.391667 -1.16667
  endloop
 endfacet
 facet normal 1 0 0
  outer loop
   vertex -15.2257 -0.391667 -1.16667
   vertex -15.2257 -0.541667 -0.541667
   vertex -15.2257 -0.541667 -1.16667
  endloop
 endfacet
 facet normal 0 -1 0
  outer loop
   vertex -15.2257 -0.541667 -0.541667
   vertex -17.2424 -0.541667 -0.541667
   vertex -15.2257 -0.541667 -1.16667
  endloop
 endfacet
 facet normal 0 -1 0
  outer loop
   vertex -15.2257 -0.541667 -1.16667
   vertex -17.2424 -0.541667 -0.541667
   vertex -17.2424 -0.541667 -1.16667
  endloop
 endfacet
 facet normal -1 -0 0
  outer loop
   vertex -17.2424 -0.541667 -0.541667
   vertex -17.2424 -0.391667 -0.541667
   vertex -17.2424 -0.541667 -1.16667
  endloop
 endfacet
 facet normal -1 0 -0
  outer loop
   vertex -17.2424 -0.541667 -1.16667
   vertex -17.2424 -0.391667 -0.541667
   vertex -17.2424 -0.391667 -1.16667
  endloop
 endfacet
 facet normal 0 -1 0
  outer loop
   vertex -17.2424 -0.391667 -0.541667
   vertex -17.3924 -0.391667 -0.541667
   vertex -17.2424 -0.391667 -1.16667
  endloop
 endfacet
 facet normal 0 -1 0
  outer loop
   vertex -17.2424 -0.391667 -1.16667
   vertex -17.3924 -0.391667 -0.541667
   vertex -17.3924 -0.391667 -1.16667
  endloop
 endfacet
 facet normal 1 -0 0
  outer loop
   vertex -17.3924 -0.391667 -0.541667
   vertex -17.3924 -0.541667 -0.541667
   vertex -17.3924 -0.391667 -1.16667
  endloop
 endfacet
 facet normal 1 0 0
  outer loop
   vertex -17.3924 -0.391667 -1.16667
   vertex -17.3924 -0.541667 -0.541667
   vertex -17.3924 -0.541667 -1.16667
  endloop
 endfacet
 facet normal 0 0 -1
  outer loop
   vertex -15.2257 -0.391667 -1.16667
   vertex -15.2257 -0.541667 -1.16667
   vertex -17.2424 -0.391667 -1.16667
  endloop
 endfacet
 facet normal 0 0 -1
  outer loop
   vertex -17.2424 -0.541667 -1.16667
   vertex -17.2424 -0.391667 -1.16667
   vertex -15.2257 -0.541667 -1.16667
  endloop
 endfacet
 facet normal 0 0 -1
  outer loop
   vertex -13.0591 -0.391667 -1.16667
   vertex -13.0591 -0.541667 -1.16667
   vertex -15.0757 -0.391667 -1.16667
  endloop
 endfacet
 facet normal 0 0 -1
  outer loop
   vertex -15.0757 -0.541667 -1.16667
   vertex -15.0757 -0.391667 -1.16667
   vertex -13.0591 -0.541667 -1.16667
  endloop
 endfacet
 facet normal 0 0 -1
  outer loop
   vertex -10.8924 -0.391667 -1.16667
   vertex -10.8924 -0.541667 -1.16667
   vertex -12.9091 -0.391667 -1.16667
  endloop
 endfacet
 facet normal 0 0 -1
  outer loop
   vertex -12.9091 -0.541667 -1.16667
   vertex -12.9091 -0.391667 -1.16667
   vertex -10.8924 -0.541667 -1.16667
  endloop
 endfacet
 facet normal 0 0 -1
  outer loop
   vertex -8.72573 -0.391667 -1.16667
   vertex -8.72573 -0.541667 -1.16667
   vertex -10.7424 -0.391667 -1.16667
  endloop
 endfacet
 facet normal 0 0 -1
  outer loop
   vertex -10.7424 -0.541667 -1.16667
   vertex -10.7424 -0.391667 -1.16667
   vertex -8.72573 -0.541667 -1.16667
  endloop
 endfacet
 facet normal 0 0 -1
  outer loop
   vertex -6.55907 -0.391667 -1.16667
   vertex -6.55907 -0.541667 -1.16667
   vertex -8.57573 -0.391667 -1.16667
  endloop
 endfacet
 facet normal 0 0 -1
  outer loop
   vertex -8.57573 -0.541667 -1.16667
   vertex -8.57573 -0.391667 -1.16667
   vertex -6.55907 -0.541667 -1.16667
  endloop
 endfacet
 facet normal 0 0 -1
  outer loop
   vertex -4.3924 -0.391667 -1.16667
   vertex -4.3924 -0.541667 -1.16667
   vertex -6.40907 -0.391667 -1.16667
  endloop
 endfacet
 facet normal 0 0 -1
  outer loop
   vertex -6.40907 -0.541667 -1.16667
   vertex -6.40907 -0.391667 -1.16667
   vertex -4.3924 -0.541667 -1.16667
  endloop
 endfacet
 facet normal 0 0 -1
  outer loop
   vertex -2.22573 -0.391667 -1.16667
   vertex -2.22573 -0.541667 -1.16667
   vertex -4.2424 -0.391667 -1.16667
  endloop
 endfacet
 facet normal 0 0 -1
  outer loop
   vertex -4.2424 -0.541667 -1.16667
   vertex -4.2424 -0.391667 -1.16667
   vertex -2.22573 -0.541667 -1.16667
  endloop
 endfacet
 facet normal 0 0 -1
  outer loop
   vertex -1.1424 -0.391667 -1.16667
   vertex -1.1424 -0.541667 -1.16667
   vertex -2.07573 -0.391667 -1.16667
  endloop
 endfacet
 facet normal 0 0 -1
  outer loop
   vertex -2.07573 -0.541667 -1.16667
   vertex -2.07573 -0.391667 -1.16667
   vertex -1.1424 -0.541667 -1.16667
  endloop
 endfacet
 facet normal 0 0 -1
  outer loop
   vertex -0.525733 0 0.541667
   vertex -0.9924 -0.391667 0.541667
   vertex -0.959067 0.433333 0.541667
  endloop
 endfacet
 facet normal 0 0 -1
  outer loop
   vertex -0.959067 0.433333 0.541667
   vertex -0.9924 -0.391667 0.541667
   vertex -1.3924 0 0.541667
  endloop
 endfacet
 facet normal 0 0 -1
  outer loop
   vertex -1.1424 -0.391667 0.541667
   vertex -1.3924 0 0.541667
   vertex -0.9924 -0.391667 0.541667
  endloop
 endfacet
 facet normal 0 0 -1
  outer loop
   vertex -1.82573 0.433333 0.541667
   vertex -1.3924 0 0.541667
   vertex -2.25907 0 0.541667
  endloop
 endfacet
 facet normal 0 0 -1
  outer loop
   vertex -1.1424 -0.391667 0.541667
   vertex -2.25907 0 0.541667
   vertex -1.3924 0 0.541667
  endloop
 endfacet
 facet normal 0 -0 -1
  outer loop
   vertex -3.15907 -0.541667 0.541667
   vertex -2.25907 0 0.541667
   vertex -1.1424 -0.541667 0.541667
  endloop
 endfacet
 facet normal 0 0 -1
  outer loop
   vertex -1.1424 -0.391667 0.541667
   vertex -1.1424 -0.541667 0.541667
   vertex -2.25907 0 0.541667
  endloop
 endfacet
 facet normal 0 0 -1
  outer loop
   vertex -2.6924 0.433333 0.541667
   vertex -2.25907 0 0.541667
   vertex -3.12573 0 0.541667
  endloop
 endfacet
 facet normal 0 0 -1
  outer loop
   vertex -2.25907 0 0.541667
   vertex -3.15907 -0.541667 0.541667
   vertex -3.12573 0 0.541667
  endloop
 endfacet
 facet normal 0 0 -1
  outer loop
   vertex -3.15907 -0.391667 0.541667
   vertex -3.12573 0 0.541667
   vertex -3.15907 -0.541667 0.541667
  endloop
 endfacet
 facet normal 0 -0 -1
  outer loop
   vertex -3.9924 0 0.541667
   vertex -3.55907 0.433333 0.541667
   vertex -3.30907 -0.391667 0.541667
  endloop
 endfacet
 facet normal -0 0 -1
  outer loop
   vertex -3.55907 0.433333 0.541667
   vertex -3.12573 0 0.541667
   vertex -3.30907 -0.391667 0.541667
  endloop
 endfacet
 facet normal 0 0 -1
  outer loop
   vertex -3.15907 -0.391667 0.541667
   vertex -3.30907 -0.391667 0.541667
   vertex -3.12573 0 0.541667
  endloop
 endfacet
 facet normal -0 0 -1
  outer loop
   vertex -4.85907 0 0.541667
   vertex -3.9924 0 0.541667
   vertex -5.32573 -0.391667 0.541667
  endloop
 endfacet
 facet normal 0 0 -1
  outer loop
   vertex -3.9924 0 0.541667
   vertex -3.30907 -0.391667 0.541667
   vertex -5.32573 -0.391667 0.541667
  endloop
 endfacet
 facet normal 0 0 -1
  outer loop
   vertex -5.32573 -0.541667 0.541667
   vertex -5.32573 -0.391667 0.541667
   vertex -3.30907 -0.541667 0.541667
  endloop
 endfacet
 facet normal 0 0 -1
  outer loop
   vertex -3.30907 -0.391667 0.541667
   vertex -3.30907 -0.541667 0.541667
   vertex -5.32573 -0.391667 0.541667
  endloop
 endfacet
 facet normal 0 -0 -1
  outer loop
   vertex -4.85907 0 0.541667
   vertex -4.42573 0.433333 0.541667
   vertex -3.9924 0 0.541667
  endloop
 endfacet
 facet normal 0 0 -1
  outer loop
   vertex -4.85907 0 0.541667
   vertex -5.32573 -0.391667 0.541667
   vertex -5.2924 0.433333 0.541667
  endloop
 endfacet
 facet normal 0 0 -1
  outer loop
   vertex -5.2924 0.433333 0.541667
   vertex -5.32573 -0.391667 0.541667
   vertex -5.72573 0 0.541667
  endloop
 endfacet
 facet normal 0 0 -1
  outer loop
   vertex -5.47573 -0.391667 0.541667
   vertex -5.72573 0 0.541667
   vertex -5.32573 -0.391667 0.541667
  endloop
 endfacet
 facet normal 0 0 -1
  outer loop
   vertex -6.15907 0.433333 0.541667
   vertex -5.72573 0 0.541667
   vertex -6.5924 0 0.541667
  endloop
 endfacet
 facet normal 0 0 -1
  outer loop
   vertex -5.47573 -0.391667 0.541667
   vertex -6.5924 0 0.541667
   vertex -5.72573 0 0.541667
  endloop
 endfacet
 facet normal 0 -0 -1
  outer loop
   vertex -7.4924 -0.541667 0.541667
   vertex -6.5924 0 0.541667
   vertex -5.47573 -0.541667 0.541667
  endloop
 endfacet
 facet normal 0 0 -1
  outer loop
   vertex -5.47573 -0.391667 0.541667
   vertex -5.47573 -0.541667 0.541667
   vertex -6.5924 0 0.541667
  endloop
 endfacet
 facet normal 0 0 -1
  outer loop
   vertex -7.02573 0.433333 0.541667
   vertex -6.5924 0 0.541667
   vertex -7.45907 0 0.541667
  endloop
 endfacet
 facet normal 0 0 -1
  outer loop
   vertex -6.5924 0 0.541667
   vertex -7.4924 -0.541667 0.541667
   vertex -7.45907 0 0.541667
  endloop
 endfacet
 facet normal 0 0 -1
  outer loop
   vertex -7.4924 -0.391667 0.541667
   vertex -7.45907 0 0.541667
   vertex -7.4924 -0.541667 0.541667
  endloop
 endfacet
 facet normal 0 -0 -1
  outer loop
   vertex -8.32573 0 0.541667
   vertex -7.8924 0.433333 0.541667
   vertex -7.6424 -0.391667 0.541667
  endloop
 endfacet
 facet normal -0 0 -1
  outer loop
   vertex -7.8924 0.433333 0.541667
   vertex -7.45907 0 0.541667
   vertex -7.6424 -0.391667 0.541667
  endloop
 endfacet
 facet normal 0 0 -1
  outer loop
   vertex -7.4924 -0.391667 0.541667
   vertex -7.6424 -0.391667 0.541667
   vertex -7.45907 0 0.541667
  endloop
 endfacet
 facet normal -0 0 -1
  outer loop
   vertex -9.1924 0 0.541667
   vertex -8.32573 0 0.541667
   vertex -9.65907 -0.391667 0.541667
  endloop
 endfacet
 facet normal 0 0 -1
  outer loop
   vertex -8.32573 0 0.541667
   vertex -7.6424 -0.391667 0.541667
   vertex -9.65907 -0.391667 0.541667
  endloop
 endfacet
 facet normal 0 0 -1
  outer loop
   vertex -9.65907 -0.541667 0.541667
   vertex -9.65907 -0.391667 0.541667
   vertex -7.6424 -0.541667 0.541667
  endloop
 endfacet
 facet normal 0 0 -1
  outer loop
   vertex -7.6424 -0.391667 0.541667
   vertex -7.6424 -0.541667 0.541667
   vertex -9.65907 -0.391667 0.541667
  endloop
 endfacet
 facet normal 0 -0 -1
  outer loop
   vertex -9.1924 0 0.541667
   vertex -8.75907 0.433333 0.541667
   vertex -8.32573 0 0.541667
  endloop
 endfacet
 facet normal 0 0 -1
  outer loop
   vertex -9.1924 0 0.541667
   vertex -9.65907 -0.391667 0.541667
   vertex -9.62573 0.433333 0.541667
  endloop
 endfacet
 facet normal 0 0 -1
  outer loop
   vertex -9.62573 0.433333 0.541667
   vertex -9.65907 -0.391667 0.541667
   vertex -10.0591 0 0.541667
  endloop
 endfacet
 facet normal 0 0 -1
  outer loop
   vertex -9.80907 -0.391667 0.541667
   vertex -10.0591 0 0.541667
   vertex -9.65907 -0.391667 0.541667
  endloop
 endfacet
 facet normal 0 0 -1
  outer loop
   vertex -10.4924 0.433333 0.541667
   vertex -10.0591 0 0.541667
   vertex -10.9257 0 0.541667
  endloop
 endfacet
 facet normal 0 0 -1
  outer loop
   vertex -9.80907 -0.391667 0.541667
   vertex -10.9257 0 0.541667
   vertex -10.0591 0 0.541667
  endloop
 endfacet
 facet normal 0 -0 -1
  outer loop
   vertex -11.8257 -0.541667 0.541667
   vertex -10.9257 0 0.541667
   vertex -9.80907 -0.541667 0.541667
  endloop
 endfacet
 facet normal 0 0 -1
  outer loop
   vertex -9.80907 -0.391667 0.541667
   vertex -9.80907 -0.541667 0.541667
   vertex -10.9257 0 0.541667
  endloop
 endfacet
 facet normal 0 0 -1
  outer loop
   vertex -11.3591 0.433333 0.541667
   vertex -10.9257 0 0.541667
   vertex -11.7924 0 0.541667
  endloop
 endfacet
 facet normal 0 0 -1
  outer loop
   vertex -10.9257 0 0.541667
   vertex -11.8257 -0.541667 0.541667
   vertex -11.7924 0 0.541667
  endloop
 endfacet
 facet normal 0 0 -1
  outer loop
   vertex -11.8257 -0.391667 0.541667
   vertex -11.7924 0 0.541667
   vertex -11.8257 -0.541667 0.541667
  endloop
 endfacet
 facet normal 0 -0 -1
  outer loop
   vertex -12.6591 0 0.541667
   vertex -12.2257 0.433333 0.541667
   vertex -11.9757 -0.391667 0.541667
  endloop
 endfacet
 facet normal -0 0 -1
  outer loop
   vertex -12.2257 0.433333 0.541667
   vertex -11.7924 0 0.541667
   vertex -11.9757 -0.391667 0.541667
  endloop
 endfacet
 facet normal 0 0 -1
  outer loop
   vertex -11.8257 -0.391667 0.541667
   vertex -11.9757 -0.391667 0.541667
   vertex -11.7924 0 0.541667
  endloop
 endfacet
 facet normal -0 0 -1
  outer loop
   vertex -13.5257 0 0.541667
   vertex -12.6591 0 0.541667
   vertex -13.9924 -0.391667 0.541667
  endloop
 endfacet
 facet normal 0 0 -1
  outer loop
   vertex -12.6591 0 0.541667
   vertex -11.9757 -0.391667 0.541667
   vertex -13.9924 -0.391667 0.541667
  endloop
 endfacet
 facet normal 0 0 -1
  outer loop
   vertex -13.9924 -0.541667 0.541667
   vertex -13.9924 -0.391667 0.541667
   vertex -11.9757 -0.541667 0.541667
  endloop
 endfacet
 facet normal 0 0 -1
  outer loop
   vertex -11.9757 -0.391667 0.541667
   vertex -11.9757 -0.541667 0.541667
   vertex -13.9924 -0.391667 0.541667
  endloop
 endfacet
 facet normal 0 -0 -1
  outer loop
   vertex -13.5257 0 0.541667
   vertex -13.0924 0.433333 0.541667
   vertex -12.6591 0 0.541667
  endloop
 endfacet
 facet normal 0 0 -1
  outer loop
   vertex -13.5257 0 0.541667
   vertex -13.9924 -0.391667 0.541667
   vertex -13.9591 0.433333 0.541667
  endloop
 endfacet
 facet normal 0 0 -1
  outer loop
   vertex -13.9591 0.433333 0.541667
   vertex -13.9924 -0.391667 0.541667
   vertex -14.3924 0 0.541667
  endloop
 endfacet
 facet normal 0 0 -1
  outer loop
   vertex -14.1424 -0.391667 0.541667
   vertex -14.3924 0 0.541667
   vertex -13.9924 -0.391667 0.541667
  endloop
 endfacet
 facet normal 0 0 -1
  outer loop
   vertex -14.8257 0.433333 0.541667
   vertex -14.3924 0 0.541667
   vertex -15.2591 0 0.541667
  endloop
 endfacet
 facet normal 0 0 -1
  outer loop
   vertex -14.1424 -0.391667 0.541667
   vertex -15.2591 0 0.541667
   vertex -14.3924 0 0.541667
  endloop
 endfacet
 facet normal 0 -0 -1
  outer loop
   vertex -16.1591 -0.541667 0.541667
   vertex -15.2591 0 0.541667
   vertex -14.1424 -0.541667 0.541667
  endloop
 endfacet
 facet normal 0 0 -1
  outer loop
   vertex -14.1424 -0.391667 0.541667
   vertex -14.1424 -0.541667 0.541667
   vertex -15.2591 0 0.541667
  endloop
 endfacet
 facet normal 0 0 -1
  outer loop
   vertex -15.6924 0.433333 0.541667
   vertex -15.2591 0 0.541667
   vertex -16.1257 0 0.541667
  endloop
 endfacet
 facet normal 0 0 -1
  outer loop
   vertex -15.2591 0 0.541667
   vertex -16.1591 -0.541667 0.541667
   vertex -16.1257 0 0.541667
  endloop
 endfacet
 facet normal 0 0 -1
  outer loop
   vertex -16.1591 -0.391667 0.541667
   vertex -16.1257 0 0.541667
   vertex -16.1591 -0.541667 0.541667
  endloop
 endfacet
 facet normal -0 0 -1
  outer loop
   vertex -16.5591 0.433333 0.541667
   vertex -16.1257 0 0.541667
   vertex -16.3091 -0.391667 0.541667
  endloop
 endfacet
 facet normal 0 0 -1
  outer loop
   vertex -16.1591 -0.391667 0.541667
   vertex -16.3091 -0.391667 0.541667
   vertex -16.1257 0 0.541667
  endloop
 endfacet
 facet normal 0 0 -1
  outer loop
   vertex -16.5591 0.433333 0.541667
   vertex -16.3091 -0.391667 0.541667
   vertex -16.9924 0 0.541667
  endloop
 endfacet
 facet normal 0 0 -1
  outer loop
   vertex -16.9924 0 0.541667
   vertex -16.3091 -0.391667 0.541667
   vertex -17.2424 -0.391667 0.541667
  endloop
 endfacet
 facet normal 0 0 -1
  outer loop
   vertex -16.3091 -0.541667 0.541667
   vertex -17.2424 -0.541667 0.541667
   vertex -16.3091 -0.391667 0.541667
  endloop
 endfacet
 facet normal -0 0 -1
  outer loop
   vertex -17.2424 -0.391667 0.541667
   vertex -16.3091 -0.391667 0.541667
   vertex -17.2424 -0.541667 0.541667
  endloop
 endfacet
 facet normal -0 0 -1
  outer loop
   vertex -17.4257 0.433333 0.541667
   vertex -16.9924 0 0.541667
   vertex -17.3924 -0.391667 0.541667
  endloop
 endfacet
 facet normal 0 0 -1
  outer loop
   vertex -17.2424 -0.391667 0.541667
   vertex -17.3924 -0.391667 0.541667
   vertex -16.9924 0 0.541667
  endloop
 endfacet
 facet normal 0 0 -1
  outer loop
   vertex -17.4257 0.433333 0.541667
   vertex -17.3924 -0.391667 0.541667
   vertex -17.8591 0 0.541667
  endloop
 endfacet
 facet normal 0 0 -1
  outer loop
   vertex -17.3924 -0.541667 0.541667
   vertex -17.8591 0 0.541667
   vertex -17.3924 -0.391667 0.541667
  endloop
 endfacet
 facet normal 0 0 1
  outer loop
   vertex -0.525733 0 -0.541667
   vertex -0.959067 0.433333 -0.541667
   vertex -0.9924 -0.391667 -0.541667
  endloop
 endfacet
 facet normal -0 0 1
  outer loop
   vertex -0.959067 0.433333 -0.541667
   vertex -1.3924 0 -0.541667
   vertex -0.9924 -0.391667 -0.541667
  endloop
 endfacet
 facet normal 0 0 1
  outer loop
   vertex -1.1424 -0.391667 -0.541667
   vertex -0.9924 -0.391667 -0.541667
   vertex -1.3924 0 -0.541667
  endloop
 endfacet
 facet normal 0 0 1
  outer loop
   vertex -1.3924 0 -0.541667
   vertex -2.07573 -0.391667 -0.541667
   vertex -1.1424 -0.391667 -0.541667
  endloop
 endfacet
 facet normal 0 0 1
  outer loop
   vertex -2.07573 -0.541667 -0.541667
   vertex -1.1424 -0.541667 -0.541667
   vertex -2.07573 -0.391667 -0.541667
  endloop
 endfacet
 facet normal -0 0 1
  outer loop
   vertex -1.1424 -0.391667 -0.541667
   vertex -2.07573 -0.391667 -0.541667
   vertex -1.1424 -0.541667 -0.541667
  endloop
 endfacet
 facet normal 0 0 1
  outer loop
   vertex -1.3924 0 -0.541667
   vertex -1.82573 0.433333 -0.541667
   vertex -2.07573 -0.391667 -0.541667
  endloop
 endfacet
 facet normal 0 -0 1
  outer loop
   vertex -2.25907 0 -0.541667
   vertex -2.07573 -0.391667 -0.541667
   vertex -1.82573 0.433333 -0.541667
  endloop
 endfacet
 facet normal 0 0 1
  outer loop
   vertex -3.12573 0 -0.541667
   vertex -2.22573 -0.391667 -0.541667
   vertex -2.6924 0.433333 -0.541667
  endloop
 endfacet
 facet normal 0 0 1
  outer loop
   vertex -2.07573 -0.391667 -0.541667
   vertex -2.25907 0 -0.541667
   vertex -2.22573 -0.391667 -0.541667
  endloop
 endfacet
 facet normal 0 0 1
  outer loop
   vertex -2.22573 -0.391667 -0.541667
   vertex -2.25907 0 -0.541667
   vertex -2.6924 0.433333 -0.541667
  endloop
 endfacet
 facet normal 0 0 1
  outer loop
   vertex -3.9924 0 -0.541667
   vertex -4.2424 -0.391667 -0.541667
   vertex -3.12573 0 -0.541667
  endloop
 endfacet
 facet normal 0 0 1
  outer loop
   vertex -3.12573 0 -0.541667
   vertex -4.2424 -0.391667 -0.541667
   vertex -2.22573 -0.391667 -0.541667
  endloop
 endfacet
 facet normal 0 0 1
  outer loop
   vertex -4.2424 -0.541667 -0.541667
   vertex -2.22573 -0.541667 -0.541667
   vertex -4.2424 -0.391667 -0.541667
  endloop
 endfacet
 facet normal -0 0 1
  outer loop
   vertex -2.22573 -0.391667 -0.541667
   vertex -4.2424 -0.391667 -0.541667
   vertex -2.22573 -0.541667 -0.541667
  endloop
 endfacet
 facet normal 0 0 1
  outer loop
   vertex -4.85907 0 -0.541667
   vertex -4.3924 -0.391667 -0.541667
   vertex -4.42573 0.433333 -0.541667
  endloop
 endfacet
 facet normal 0 -0 1
  outer loop
   vertex -4.42573 0.433333 -0.541667
   vertex -4.3924 -0.391667 -0.541667
   vertex -3.9924 0 -0.541667
  endloop
 endfacet
 facet normal 0 0 1
  outer loop
   vertex -4.2424 -0.391667 -0.541667
   vertex -3.9924 0 -0.541667
   vertex -4.3924 -0.391667 -0.541667
  endloop
 endfacet
 facet normal -0 0 1
  outer loop
   vertex -4.85907 0 -0.541667
   vertex -5.72573 0 -0.541667
   vertex -4.3924 -0.391667 -0.541667
  endloop
 endfacet
 facet normal 0 0 1
  outer loop
   vertex -5.72573 0 -0.541667
   vertex -6.40907 -0.391667 -0.541667
   vertex -4.3924 -0.391667 -0.541667
  endloop
 endfacet
 facet normal 0 0 1
  outer loop
   vertex -6.40907 -0.541667 -0.541667
   vertex -4.3924 -0.541667 -0.541667
   vertex -6.40907 -0.391667 -0.541667
  endloop
 endfacet
 facet normal -0 0 1
  outer loop
   vertex -4.3924 -0.391667 -0.541667
   vertex -6.40907 -0.391667 -0.541667
   vertex -4.3924 -0.541667 -0.541667
  endloop
 endfacet
 facet normal 0 0 1
  outer loop
   vertex -5.72573 0 -0.541667
   vertex -6.15907 0.433333 -0.541667
   vertex -6.40907 -0.391667 -0.541667
  endloop
 endfacet
 facet normal 0 -0 1
  outer loop
   vertex -6.5924 0 -0.541667
   vertex -6.40907 -0.391667 -0.541667
   vertex -6.15907 0.433333 -0.541667
  endloop
 endfacet
 facet normal 0 0 1
  outer loop
   vertex -7.45907 0 -0.541667
   vertex -6.55907 -0.391667 -0.541667
   vertex -7.02573 0.433333 -0.541667
  endloop
 endfacet
 facet normal 0 0 1
  outer loop
   vertex -6.40907 -0.391667 -0.541667
   vertex -6.5924 0 -0.541667
   vertex -6.55907 -0.391667 -0.541667
  endloop
 endfacet
 facet normal 0 0 1
  outer loop
   vertex -6.55907 -0.391667 -0.541667
   vertex -6.5924 0 -0.541667
   vertex -7.02573 0.433333 -0.541667
  endloop
 endfacet
 facet normal 0 0 1
  outer loop
   vertex -8.32573 0 -0.541667
   vertex -8.57573 -0.391667 -0.541667
   vertex -7.45907 0 -0.541667
  endloop
 endfacet
 facet normal 0 0 1
  outer loop
   vertex -7.45907 0 -0.541667
   vertex -8.57573 -0.391667 -0.541667
   vertex -6.55907 -0.391667 -0.541667
  endloop
 endfacet
 facet normal 0 0 1
  outer loop
   vertex -8.57573 -0.541667 -0.541667
   vertex -6.55907 -0.541667 -0.541667
   vertex -8.57573 -0.391667 -0.541667
  endloop
 endfacet
 facet normal -0 0 1
  outer loop
   vertex -6.55907 -0.391667 -0.541667
   vertex -8.57573 -0.391667 -0.541667
   vertex -6.55907 -0.541667 -0.541667
  endloop
 endfacet
 facet normal 0 0 1
  outer loop
   vertex -9.1924 0 -0.541667
   vertex -8.72573 -0.391667 -0.541667
   vertex -8.75907 0.433333 -0.541667
  endloop
 endfacet
 facet normal 0 -0 1
  outer loop
   vertex -8.75907 0.433333 -0.541667
   vertex -8.72573 -0.391667 -0.541667
   vertex -8.32573 0 -0.541667
  endloop
 endfacet
 facet normal 0 0 1
  outer loop
   vertex -8.57573 -0.391667 -0.541667
   vertex -8.32573 0 -0.541667
   vertex -8.72573 -0.391667 -0.541667
  endloop
 endfacet
 facet normal -0 0 1
  outer loop
   vertex -9.1924 0 -0.541667
   vertex -10.0591 0 -0.541667
   vertex -8.72573 -0.391667 -0.541667
  endloop
 endfacet
 facet normal 0 0 1
  outer loop
   vertex -10.0591 0 -0.541667
   vertex -10.7424 -0.391667 -0.541667
   vertex -8.72573 -0.391667 -0.541667
  endloop
 endfacet
 facet normal 0 0 1
  outer loop
   vertex -10.7424 -0.541667 -0.541667
   vertex -8.72573 -0.541667 -0.541667
   vertex -10.7424 -0.391667 -0.541667
  endloop
 endfacet
 facet normal -0 0 1
  outer loop
   vertex -8.72573 -0.391667 -0.541667
   vertex -10.7424 -0.391667 -0.541667
   vertex -8.72573 -0.541667 -0.541667
  endloop
 endfacet
 facet normal 0 0 1
  outer loop
   vertex -10.0591 0 -0.541667
   vertex -10.4924 0.433333 -0.541667
   vertex -10.7424 -0.391667 -0.541667
  endloop
 endfacet
 facet normal 0 -0 1
  outer loop
   vertex -10.9257 0 -0.541667
   vertex -10.7424 -0.391667 -0.541667
   vertex -10.4924 0.433333 -0.541667
  endloop
 endfacet
 facet normal 0 0 1
  outer loop
   vertex -11.7924 0 -0.541667
   vertex -10.8924 -0.391667 -0.541667
   vertex -11.3591 0.433333 -0.541667
  endloop
 endfacet
 facet normal 0 0 1
  outer loop
   vertex -10.7424 -0.391667 -0.541667
   vertex -10.9257 0 -0.541667
   vertex -10.8924 -0.391667 -0.541667
  endloop
 endfacet
 facet normal 0 0 1
  outer loop
   vertex -11.3591 0.433333 -0.541667
   vertex -10.8924 -0.391667 -0.541667
   vertex -10.9257 0 -0.541667
  endloop
 endfacet
 facet normal 0 0 1
  outer loop
   vertex -12.6591 0 -0.541667
   vertex -12.9091 -0.391667 -0.541667
   vertex -11.7924 0 -0.541667
  endloop
 endfacet
 facet normal 0 0 1
  outer loop
   vertex -11.7924 0 -0.541667
   vertex -12.9091 -0.391667 -0.541667
   vertex -10.8924 -0.391667 -0.541667
  endloop
 endfacet
 facet normal 0 0 1
  outer loop
   vertex -12.9091 -0.541667 -0.541667
   vertex -10.8924 -0.541667 -0.541667
   vertex -12.9091 -0.391667 -0.541667
  endloop
 endfacet
 facet normal -0 0 1
  outer loop
   vertex -10.8924 -0.391667 -0.541667
   vertex -12.9091 -0.391667 -0.541667
   vertex -10.8924 -0.541667 -0.541667
  endloop
 endfacet
 facet normal 0 0 1
  outer loop
   vertex -13.5257 0 -0.541667
   vertex -13.0591 -0.391667 -0.541667
   vertex -13.0924 0.433333 -0.541667
  endloop
 endfacet
 facet normal 0 -0 1
  outer loop
   vertex -13.0924 0.433333 -0.541667
   vertex -13.0591 -0.391667 -0.541667
   vertex -12.6591 0 -0.541667
  endloop
 endfacet
 facet normal 0 0 1
  outer loop
   vertex -12.9091 -0.391667 -0.541667
   vertex -12.6591 0 -0.541667
   vertex -13.0591 -0.391667 -0.541667
  endloop
 endfacet
 facet normal -0 0 1
  outer loop
   vertex -13.5257 0 -0.541667
   vertex -14.3924 0 -0.541667
   vertex -13.0591 -0.391667 -0.541667
  endloop
 endfacet
 facet normal 0 0 1
  outer loop
   vertex -14.3924 0 -0.541667
   vertex -15.0757 -0.391667 -0.541667
   vertex -13.0591 -0.391667 -0.541667
  endloop
 endfacet
 facet normal 0 0 1
  outer loop
   vertex -15.0757 -0.541667 -0.541667
   vertex -13.0591 -0.541667 -0.541667
   vertex -15.0757 -0.391667 -0.541667
  endloop
 endfacet
 facet normal -0 0 1
  outer loop
   vertex -13.0591 -0.391667 -0.541667
   vertex -15.0757 -0.391667 -0.541667
   vertex -13.0591 -0.541667 -0.541667
  endloop
 endfacet
 facet normal 0 0 1
  outer loop
   vertex -14.3924 0 -0.541667
   vertex -14.8257 0.433333 -0.541667
   vertex -15.0757 -0.391667 -0.541667
  endloop
 endfacet
 facet normal 0 -0 1
  outer loop
   vertex -15.2591 0 -0.541667
   vertex -15.0757 -0.391667 -0.541667
   vertex -14.8257 0.433333 -0.541667
  endloop
 endfacet
 facet normal 0 0 1
  outer loop
   vertex -16.1257 0 -0.541667
   vertex -15.2257 -0.391667 -0.541667
   vertex -15.6924 0.433333 -0.541667
  endloop
 endfacet
 facet normal 0 0 1
  outer loop
   vertex -15.0757 -0.391667 -0.541667
   vertex -15.2591 0 -0.541667
   vertex -15.2257 -0.391667 -0.541667
  endloop
 endfacet
 facet normal 0 0 1
  outer loop
   vertex -15.6924 0.433333 -0.541667
   vertex -15.2257 -0.391667 -0.541667
   vertex -15.2591 0 -0.541667
  endloop
 endfacet
 facet normal 0 0 1
  outer loop
   vertex -16.9924 0 -0.541667
   vertex -17.2424 -0.391667 -0.541667
   vertex -16.1257 0 -0.541667
  endloop
 endfacet
 facet normal 0 0 1
  outer loop
   vertex -16.1257 0 -0.541667
   vertex -17.2424 -0.391667 -0.541667
   vertex -15.2257 -0.391667 -0.541667
  endloop
 endfacet
 facet normal 0 0 1
  outer loop
   vertex -17.2424 -0.541667 -0.541667
   vertex -15.2257 -0.541667 -0.541667
   vertex -17.2424 -0.391667 -0.541667
  endloop
 endfacet
 facet normal -0 0 1
  outer loop
   vertex -15.2257 -0.391667 -0.541667
   vertex -17.2424 -0.391667 -0.541667
   vertex -15.2257 -0.541667 -0.541667
  endloop
 endfacet
 facet normal 0 -0 1
  outer loop
   vertex -17.4257 0.433333 -0.541667
   vertex -17.3924 -0.391667 -0.541667
   vertex -16.9924 0 -0.541667
  endloop
 endfacet
 facet normal 0 0 1
  outer loop
   vertex -17.2424 -0.391667 -0.541667
   vertex -16.9924 0 -0.541667
   vertex -17.3924 -0.391667 -0.541667
  endloop
 endfacet
 facet normal -0 0 1
  outer loop
   vertex -17.4257 0.433333 -0.541667
   vertex -17.8591 0 -0.541667
   vertex -17.3924 -0.391667 -0.541667
  endloop
 endfacet
 facet normal 0 0 1
  outer loop
   vertex -17.3924 -0.541667 -0.541667
   vertex -17.3924 -0.391667 -0.541667
   vertex -17.8591 0 -0.541667
  endloop
 endfacet
 facet normal 0 0 1
  outer loop
   vertex -16.1257 0 -0.541667
   vertex -16.5591 0.433333 -0.541667
   vertex -16.9924 0 -0.541667
  endloop
 endfacet
 facet normal 0 0 1
  outer loop
   vertex -13.5257 0 -0.541667
   vertex -13.9591 0.433333 -0.541667
   vertex -14.3924 0 -0.541667
  endloop
 endfacet
 facet normal 0 0 1
  outer loop
   vertex -11.7924 0 -0.541667
   vertex -12.2257 0.433333 -0.541667
   vertex -12.6591 0 -0.541667
  endloop
 endfacet
 facet normal 0 0 1
  outer loop
   vertex -9.1924 0 -0.541667
   vertex -9.62573 0.433333 -0.541667
   vertex -10.0591 0 -0.541667
  endloop
 endfacet
 facet normal 0 0 1
  outer loop
   vertex -7.45907 0 -0.541667
   vertex -7.8924 0.433333 -0.541667
   vertex -8.32573 0 -0.541667
  endloop
 endfacet
 facet normal 0 0 1
  outer loop
   vertex -4.85907 0 -0.541667
   vertex -5.2924 0.433333 -0.541667
   vertex -5.72573 0 -0.541667
  endloop
 endfacet
 facet normal 0 0 1
  outer loop
   vertex -3.12573 0 -0.541667
   vertex -3.55907 0.433333 -0.541667
   vertex -3.9924 0 -0.541667
  endloop
 endfacet
 facet normal -0.707107 -0.707107 0
  outer loop
   vertex -0.525733 0 0.541667
   vertex -0.959067 0.433333 -0.541667
   vertex -0.525733 0 -0.541667
  endloop
 endfacet
 facet normal -0.707107 -0.707107 0
  outer loop
   vertex -0.959067 0.433333 -0.541667
   vertex -0.525733 0 0.541667
   vertex -0.959067 0.433333 0.541667
  endloop
 endfacet
 facet normal 0.707107 -0.707107 0
  outer loop
   vertex -0.959067 0.433333 0.541667
   vertex -1.3924 0 -0.541667
   vertex -0.959067 0.433333 -0.541667
  endloop
 endfacet
 facet normal 0.707107 -0.707107 0
  outer loop
   vertex -1.3924 0 -0.541667
   vertex -0.959067 0.433333 0.541667
   vertex -1.3924 0 0.541667
  endloop
 endfacet
 facet normal -0.707107 -0.707107 0
  outer loop
   vertex -1.3924 0 0.541667
   vertex -1.82573 0.433333 -0.541667
   vertex -1.3924 0 -0.541667
  endloop
 endfacet
 facet normal -0.707107 -0.707107 0
  outer loop
   vertex -1.82573 0.433333 -0.541667
   vertex -1.3924 0 0.541667
   vertex -1.82573 0.433333 0.541667
  endloop
 endfacet
 facet normal 0.707107 -0.707107 0
  outer loop
   vertex -1.82573 0.433333 0.541667
   vertex -2.25907 0 -0.541667
   vertex -1.82573 0.433333 -0.541667
  endloop
 endfacet
 facet normal 0.707107 -0.707107 0
  outer loop
   vertex -2.25907 0 -0.541667
   vertex -1.82573 0.433333 0.541667
   vertex -2.25907 0 0.541667
  endloop
 endfacet
 facet normal -0.707107 -0.707107 0
  outer loop
   vertex -2.25907 0 0.541667
   vertex -2.6924 0.433333 -0.541667
   vertex -2.25907 0 -0.541667
  endloop
 endfacet
 facet normal -0.707107 -0.707107 0
  outer loop
   vertex -2.6924 0.433333 -0.541667
   vertex -2.25907 0 0.541667
   vertex -2.6924 0.433333 0.541667
  endloop
 endfacet
 facet normal 0.707107 -0.707107 0
  outer loop
   vertex -2.6924 0.433333 0.541667
   vertex -3.12573 0 -0.541667
   vertex -2.6924 0.433333 -0.541667
  endloop
 endfacet
 facet normal 0.707107 -0.707107 0
  outer loop
   vertex -3.12573 0 -0.541667
   vertex -2.6924 0.433333 0.541667
   vertex -3.12573 0 0.541667
  endloop
 endfacet
 facet normal -0.707107 -0.707107 0
  outer loop
   vertex -3.12573 0 0.541667
   vertex -3.55907 0.433333 -0.541667
   vertex -3.12573 0 -0.541667
  endloop
 endfacet
 facet normal -0.707107 -0.707107 0
  outer loop
   vertex -3.55907 0.433333 -0.541667
   vertex -3.12573 0 0.541667
   vertex -3.55907 0.433333 0.541667
  endloop
 endfacet
 facet normal 0.707107 -0.707107 0
  outer loop
   vertex -3.55907 0.433333 0.541667
   vertex -3.9924 0 -0.541667
   vertex -3.55907 0.433333 -0.541667
  endloop
 endfacet
 facet normal 0.707107 -0.707107 0
  outer loop
   vertex -3.9924 0 -0.541667
   vertex -3.55907 0.433333 0.541667
   vertex -3.9924 0 0.541667
  endloop
 endfacet
 facet normal -0.707107 -0.707107 0
  outer loop
   vertex -3.9924 0 0.541667
   vertex -4.42573 0.433333 -0.541667
   vertex -3.9924 0 -0.541667
  endloop
 endfacet
 facet normal -0.707107 -0.707107 0
  outer loop
   vertex -4.42573 0.433333 -0.541667
   vertex -3.9924 0 0.541667
   vertex -4.42573 0.433333 0.541667
  endloop
 endfacet
 facet normal 0.707107 -0.707106 0
  outer loop
   vertex -4.42573 0.433333 0.541667
   vertex -4.85907 0 -0.541667
   vertex -4.42573 0.433333 -0.541667
  endloop
 endfacet
 facet normal 0.707107 -0.707106 0
  outer loop
   vertex -4.85907 0 -0.541667
   vertex -4.42573 0.433333 0.541667
   vertex -4.85907 0 0.541667
  endloop
 endfacet
 facet normal -0.707107 -0.707107 0
  outer loop
   vertex -4.85907 0 0.541667
   vertex -5.2924 0.433333 -0.541667
   vertex -4.85907 0 -0.541667
  endloop
 endfacet
 facet normal -0.707107 -0.707107 0
  outer loop
   vertex -5.2924 0.433333 -0.541667
   vertex -4.85907 0 0.541667
   vertex -5.2924 0.433333 0.541667
  endloop
 endfacet
 facet normal 0.707107 -0.707107 0
  outer loop
   vertex -5.2924 0.433333 0.541667
   vertex -5.72573 0 -0.541667
   vertex -5.2924 0.433333 -0.541667
  endloop
 endfacet
 facet normal 0.707107 -0.707107 0
  outer loop
   vertex -5.72573 0 -0.541667
   vertex -5.2924 0.433333 0.541667
   vertex -5.72573 0 0.541667
  endloop
 endfacet
 facet normal -0.707107 -0.707107 0
  outer loop
   vertex -5.72573 0 0.541667
   vertex -6.15907 0.433333 -0.541667
   vertex -5.72573 0 -0.541667
  endloop
 endfacet
 facet normal -0.707107 -0.707107 0
  outer loop
   vertex -6.15907 0.433333 -0.541667
   vertex -5.72573 0 0.541667
   vertex -6.15907 0.433333 0.541667
  endloop
 endfacet
 facet normal 0.707107 -0.707107 0
  outer loop
   vertex -6.15907 0.433333 0.541667
   vertex -6.5924 0 -0.541667
   vertex -6.15907 0.433333 -0.541667
  endloop
 endfacet
 facet normal 0.707107 -0.707107 0
  outer loop
   vertex -6.5924 0 -0.541667
   vertex -6.15907 0.433333 0.541667
   vertex -6.5924 0 0.541667
  endloop
 endfacet
 facet normal -0.707107 -0.707107 0
  outer loop
   vertex -6.5924 0 0.541667
   vertex -7.02573 0.433333 -0.541667
   vertex -6.5924 0 -0.541667
  endloop
 endfacet
 facet normal -0.707107 -0.707107 0
  outer loop
   vertex -7.02573 0.433333 -0.541667
   vertex -6.5924 0 0.541667
   vertex -7.02573 0.433333 0.541667
  endloop
 endfacet
 facet normal 0.707107 -0.707107 0
  outer loop
   vertex -7.02573 0.433333 0.541667
   vertex -7.45907 0 -0.541667
   vertex -7.02573 0.433333 -0.541667
  endloop
 endfacet
 facet normal 0.707107 -0.707107 0
  outer loop
   vertex -7.45907 0 -0.541667
   vertex -7.02573 0.433333 0.541667
   vertex -7.45907 0 0.541667
  endloop
 endfacet
 facet normal -0.707107 -0.707106 0
  outer loop
   vertex -7.45907 0 0.541667
   vertex -7.8924 0.433333 -0.541667
   vertex -7.45907 0 -0.541667
  endloop
 endfacet
 facet normal -0.707107 -0.707106 0
  outer loop
   vertex -7.8924 0.433333 -0.541667
   vertex -7.45907 0 0.541667
   vertex -7.8924 0.433333 0.541667
  endloop
 endfacet
 facet normal 0.707107 -0.707107 0
  outer loop
   vertex -7.8924 0.433333 0.541667
   vertex -8.32573 0 -0.541667
   vertex -7.8924 0.433333 -0.541667
  endloop
 endfacet
 facet normal 0.707107 -0.707107 0
  outer loop
   vertex -8.32573 0 -0.541667
   vertex -7.8924 0.433333 0.541667
   vertex -8.32573 0 0.541667
  endloop
 endfacet
 facet normal -0.707107 -0.707107 0
  outer loop
   vertex -8.32573 0 0.541667
   vertex -8.75907 0.433333 -0.541667
   vertex -8.32573 0 -0.541667
  endloop
 endfacet
 facet normal -0.707107 -0.707107 0
  outer loop
   vertex -8.75907 0.433333 -0.541667
   vertex -8.32573 0 0.541667
   vertex -8.75907 0.433333 0.541667
  endloop
 endfacet
 facet normal 0.707107 -0.707107 0
  outer loop
   vertex -8.75907 0.433333 0.541667
   vertex -9.1924 0 -0.541667
   vertex -8.75907 0.433333 -0.541667
  endloop
 endfacet
 facet normal 0.707107 -0.707107 0
  outer loop
   vertex -9.1924 0 -0.541667
   vertex -8.75907 0.433333 0.541667
   vertex -9.1924 0 0.541667
  endloop
 endfacet
 facet normal -0.707107 -0.707107 0
  outer loop
   vertex -9.1924 0 0.541667
   vertex -9.62573 0.433333 -0.541667
   vertex -9.1924 0 -0.541667
  endloop
 endfacet
 facet normal -0.707107 -0.707107 0
  outer loop
   vertex -9.62573 0.433333 -0.541667
   vertex -9.1924 0 0.541667
   vertex -9.62573 0.433333 0.541667
  endloop
 endfacet
 facet normal 0.707107 -0.707107 0
  outer loop
   vertex -9.62573 0.433333 0.541667
   vertex -10.0591 0 -0.541667
   vertex -9.62573 0.433333 -0.541667
  endloop
 endfacet
 facet normal 0.707107 -0.707107 0
  outer loop
   vertex -10.0591 0 -0.541667
   vertex -9.62573 0.433333 0.541667
   vertex -10.0591 0 0.541667
  endloop
 endfacet
 facet normal -0.707107 -0.707107 0
  outer loop
   vertex -10.0591 0 0.541667
   vertex -10.4924 0.433333 -0.541667
   vertex -10.0591 0 -0.541667
  endloop
 endfacet
 facet normal -0.707107 -0.707107 0
  outer loop
   vertex -10.4924 0.433333 -0.541667
   vertex -10.0591 0 0.541667
   vertex -10.4924 0.433333 0.541667
  endloop
 endfacet
 facet normal 0.707107 -0.707107 0
  outer loop
   vertex -10.4924 0.433333 0.541667
   vertex -10.9257 0 -0.541667
   vertex -10.4924 0.433333 -0.541667
  endloop
 endfacet
 facet normal 0.707107 -0.707107 0
  outer loop
   vertex -10.9257 0 -0.541667
   vertex -10.4924 0.433333 0.541667
   vertex -10.9257 0 0.541667
  endloop
 endfacet
 facet normal -0.707107 -0.707107 0
  outer loop
   vertex -10.9257 0 0.541667
   vertex -11.3591 0.433333 -0.541667
   vertex -10.9257 0 -0.541667
  endloop
 endfacet
 facet normal -0.707107 -0.707107 0
  outer loop
   vertex -11.3591 0.433333 -0.541667
   vertex -10.9257 0 0.541667
   vertex -11.3591 0.433333 0.541667
  endloop
 endfacet
 facet normal 0.707107 -0.707107 0
  outer loop
   vertex -11.3591 0.433333 0.541667
   vertex -11.7924 0 -0.541667
   vertex -11.3591 0.433333 -0.541667
  endloop
 endfacet
 facet normal 0.707107 -0.707107 0
  outer loop
   vertex -11.7924 0 -0.541667
   vertex -11.3591 0.433333 0.541667
   vertex -11.7924 0 0.541667
  endloop
 endfacet
 facet normal -0.707107 -0.707107 0
  outer loop
   vertex -11.7924 0 0.541667
   vertex -12.2257 0.433333 -0.541667
   vertex -11.7924 0 -0.541667
  endloop
 endfacet
 facet normal -0.707107 -0.707107 0
  outer loop
   vertex -12.2257 0.433333 -0.541667
   vertex -11.7924 0 0.541667
   vertex -12.2257 0.433333 0.541667
  endloop
 endfacet
 facet normal 0.707108 -0.707106 0
  outer loop
   vertex -12.2257 0.433333 0.541667
   vertex -12.6591 0 -0.541667
   vertex -12.2257 0.433333 -0.541667
  endloop
 endfacet
 facet normal 0.707108 -0.707106 0
  outer loop
   vertex -12.6591 0 -0.541667
   vertex -12.2257 0.433333 0.541667
   vertex -12.6591 0 0.541667
  endloop
 endfacet
 facet normal -0.707107 -0.707107 0
  outer loop
   vertex -12.6591 0 0.541667
   vertex -13.0924 0.433333 -0.541667
   vertex -12.6591 0 -0.541667
  endloop
 endfacet
 facet normal -0.707107 -0.707107 0
  outer loop
   vertex -13.0924 0.433333 -0.541667
   vertex -12.6591 0 0.541667
   vertex -13.0924 0.433333 0.541667
  endloop
 endfacet
 facet normal 0.707107 -0.707107 0
  outer loop
   vertex -13.0924 0.433333 0.541667
   vertex -13.5257 0 -0.541667
   vertex -13.0924 0.433333 -0.541667
  endloop
 endfacet
 facet normal 0.707107 -0.707107 0
  outer loop
   vertex -13.5257 0 -0.541667
   vertex -13.0924 0.433333 0.541667
   vertex -13.5257 0 0.541667
  endloop
 endfacet
 facet normal -0.707107 -0.707107 0
  outer loop
   vertex -13.5257 0 0.541667
   vertex -13.9591 0.433333 -0.541667
   vertex -13.5257 0 -0.541667
  endloop
 endfacet
 facet normal -0.707107 -0.707107 0
  outer loop
   vertex -13.9591 0.433333 -0.541667
   vertex -13.5257 0 0.541667
   vertex -13.9591 0.433333 0.541667
  endloop
 endfacet
 facet normal 0.707107 -0.707107 0
  outer loop
   vertex -13.9591 0.433333 0.541667
   vertex -14.3924 0 -0.541667
   vertex -13.9591 0.433333 -0.541667
  endloop
 endfacet
 facet normal 0.707107 -0.707107 0
  outer loop
   vertex -14.3924 0 -0.541667
   vertex -13.9591 0.433333 0.541667
   vertex -14.3924 0 0.541667
  endloop
 endfacet
 facet normal -0.707107 -0.707107 0
  outer loop
   vertex -14.3924 0 0.541667
   vertex -14.8257 0.433333 -0.541667
   vertex -14.3924 0 -0.541667
  endloop
 endfacet
 facet normal -0.707107 -0.707107 0
  outer loop
   vertex -14.8257 0.433333 -0.541667
   vertex -14.3924 0 0.541667
   vertex -14.8257 0.433333 0.541667
  endloop
 endfacet
 facet normal 0.707107 -0.707107 0
  outer loop
   vertex -14.8257 0.433333 0.541667
   vertex -15.2591 0 -0.541667
   vertex -14.8257 0.433333 -0.541667
  endloop
 endfacet
 facet normal 0.707107 -0.707107 0
  outer loop
   vertex -15.2591 0 -0.541667
   vertex -14.8257 0.433333 0.541667
   vertex -15.2591 0 0.541667
  endloop
 endfacet
 facet normal -0.707107 -0.707107 0
  outer loop
   vertex -15.2591 0 0.541667
   vertex -15.6924 0.433333 -0.541667
   vertex -15.2591 0 -0.541667
  endloop
 endfacet
 facet normal -0.707107 -0.707107 0
  outer loop
   vertex -15.6924 0.433333 -0.541667
   vertex -15.2591 0 0.541667
   vertex -15.6924 0.433333 0.541667
  endloop
 endfacet
 facet normal 0.707108 -0.707106 0
  outer loop
   vertex -15.6924 0.433333 0.541667
   vertex -16.1257 0 -0.541667
   vertex -15.6924 0.433333 -0.541667
  endloop
 endfacet
 facet normal 0.707108 -0.707106 0
  outer loop
   vertex -16.1257 0 -0.541667
   vertex -15.6924 0.433333 0.541667
   vertex -16.1257 0 0.541667
  endloop
 endfacet
 facet normal -0.707106 -0.707108 0
  outer loop
   vertex -16.1257 0 0.541667
   vertex -16.5591 0.433333 -0.541667
   vertex -16.1257 0 -0.541667
  endloop
 endfacet
 facet normal -0.707106 -0.707108 0
  outer loop
   vertex -16.5591 0.433333 -0.541667
   vertex -16.1257 0 0.541667
   vertex -16.5591 0.433333 0.541667
  endloop
 endfacet
 facet normal 0.707108 -0.707106 0
  outer loop
   vertex -16.5591 0.433333 0.541667
   vertex -16.9924 0 -0.541667
   vertex -16.5591 0.433333 -0.541667
  endloop
 endfacet
 facet normal 0.707108 -0.707106 0
  outer loop
   vertex -16.9924 0 -0.541667
   vertex -16.5591 0.433333 0.541667
   vertex -16.9924 0 0.541667
  endloop
 endfacet
 facet normal -0.707106 -0.707108 0
  outer loop
   vertex -16.9924 0 0.541667
   vertex -17.4257 0.433333 -0.541667
   vertex -16.9924 0 -0.541667
  endloop
 endfacet
 facet normal -0.707106 -0.707108 0
  outer loop
   vertex -17.4257 0.433333 -0.541667
   vertex -16.9924 0 0.541667
   vertex -17.4257 0.433333 0.541667
  endloop
 endfacet
 facet normal 0.707108 -0.707106 0
  outer loop
   vertex -17.4257 0.433333 0.541667
   vertex -17.8591 0 -0.541667
   vertex -17.4257 0.433333 -0.541667
  endloop
 endfacet
 facet normal 0.707108 -0.707106 0
  outer loop
   vertex -17.8591 0 -0.541667
   vertex -17.4257 0.433333 0.541667
   vertex -17.8591 0 0.541667
  endloop
 endfacet
 facet normal 0 -1 0
  outer loop
   vertex -0.9924 -0.541667 0.541667
   vertex 0.224366 -0.541667 0.541667
   vertex 0.224366 -0.541667 1.03739
  endloop
 endfacet
 facet normal -0 -1 0
  outer loop
   vertex -0.9924 -0.541667 0.541667
   vertex 0.224366 -0.541667 1.03739
   vertex -0.9924 -0.541667 1.16667
  endloop
 endfacet
 facet normal 0 -1 0
  outer loop
   vertex 0.224366 -0.541667 1.16667
   vertex -0.9924 -0.541667 1.16667
   vertex 0.224366 -0.541667 1.03739
  endloop
 endfacet
 facet normal 0 0 1
  outer loop
   vertex 0.224366 -0.541667 1.16667
   vertex 0.0149092 -0.0359939 1.16667
   vertex -0.9924 -0.541667 1.16667
  endloop
 endfacet
 facet normal 0 0 1
  outer loop
   vertex -0.9924 -0.391667 1.16667
   vertex -0.9924 -0.541667 1.16667
   vertex 0.0149092 -0.0359939 1.16667
  endloop
 endfacet
 facet normal 0 -1 0
  outer loop
   vertex -0.9924 -0.541667 -0.541667
   vertex 0.224366 -0.541667 -1.03739
   vertex 0.224366 -0.541667 -0.541667
  endloop
 endfacet
 facet normal 0 -1 0
  outer loop
   vertex -0.9924 -0.541667 -0.541667
   vertex -0.9924 -0.541667 -1.16667
   vertex 0.224366 -0.541667 -1.03739
  endloop
 endfacet
 facet normal 0 -1 -0
  outer loop
   vertex 0.224366 -0.541667 -1.16667
   vertex 0.224366 -0.541667 -1.03739
   vertex -0.9924 -0.541667 -1.16667
  endloop
 endfacet
 facet normal 0 0 -1
  outer loop
   vertex 0.224366 -0.541667 -1.16667
   vertex -0.9924 -0.541667 -1.16667
   vertex 0.0149092 -0.0359939 -1.16667
  endloop
 endfacet
 facet normal 0 0 -1
  outer loop
   vertex -0.9924 -0.391667 -1.16667
   vertex 0.0149092 -0.0359939 -1.16667
   vertex -0.9924 -0.541667 -1.16667
  endloop
 endfacet
 facet normal 0 0 -1
  outer loop
   vertex 0.224366 -0.541667 0.541667
   vertex -0.9924 -0.541667 0.541667
   vertex -0.0356761 0.0861298 0.541667
  endloop
 endfacet
 facet normal 0 0 -1
  outer loop
   vertex -0.0356761 0.0861298 0.541667
   vertex -0.9924 -0.541667 0.541667
   vertex -0.525733 0 0.541667
  endloop
 endfacet
 facet normal 0 0 -1
  outer loop
   vertex -0.9924 -0.391667 0.541667
   vertex -0.525733 0 0.541667
   vertex -0.9924 -0.541667 0.541667
  endloop
 endfacet
 facet normal 0 -0 -1
  outer loop
   vertex -0.525733 0 0.541667
   vertex -0.153984 0.37175 0.541667
   vertex -0.0356761 0.0861298 0.541667
  endloop
 endfacet
 facet normal 0 0 1
  outer loop
   vertex 0.224366 -0.541667 -0.541667
   vertex -0.0356761 0.0861298 -0.541667
   vertex -0.9924 -0.541667 -0.541667
  endloop
 endfacet
 facet normal -0 0 1
  outer loop
   vertex -0.0356761 0.0861298 -0.541667
   vertex -0.525733 0 -0.541667
   vertex -0.9924 -0.541667 -0.541667
  endloop
 endfacet
 facet normal 0 0 1
  outer loop
   vertex -0.9924 -0.391667 -0.541667
   vertex -0.9924 -0.541667 -0.541667
   vertex -0.525733 0 -0.541667
  endloop
 endfacet
 facet normal 0 0 1
  outer loop
   vertex -0.525733 0 -0.541667
   vertex -0.0356761 0.0861298 -0.541667
   vertex -0.153984 0.37175 -0.541667
  endloop
 endfacet
 facet normal 0.707107 -0.707107 6.33528e-17
  outer loop
   vertex -0.525733 0 -0.541667
   vertex -0.153984 0.37175 -0.541667
   vertex -0.153984 0.37175 0.387707
  endloop
 endfacet
 facet normal 0.707107 -0.707107 0
  outer loop
   vertex -0.525733 0 -0.541667
   vertex -0.153984 0.37175 0.387707
   vertex -0.525733 0 0.541667
  endloop
 endfacet
 facet normal 0.707107 -0.707107 0
  outer loop
   vertex -0.153984 0.37175 0.541667
   vertex -0.525733 0 0.541667
   vertex -0.153984 0.37175 0.387707
  endloop
 endfacet
 facet normal 0.92388 0.382683 0
  outer loop
   vertex -0.414214 1 1.31667
   vertex -0.062132 0.15 1.31667
   vertex -0.153984 0.37175 0.541667
  endloop
 endfacet
 facet normal 0.92388 0.382683 0
  outer loop
   vertex -0.062132 0.15 1.16667
   vertex -0.153984 0.37175 0.541667
   vertex -0.062132 0.15 1.31201
  endloop
 endfacet
 facet normal 0.92388 0.382683 -1.37799e-15
  outer loop
   vertex -0.153984 0.37175 0.541667
   vertex -0.062132 0.15 1.31667
   vertex -0.062132 0.15 1.31201
  endloop
 endfacet
 facet normal 0.92388 0.382683 0
  outer loop
   vertex 0.224366 -0.541667 0.541667
   vertex -0.0356761 0.0861298 0.541667
   vertex 0.224366 -0.541667 1.03739
  endloop
 endfacet
 facet normal 0.92388 0.382683 0
  outer loop
   vertex -0.153984 0.37175 0.541667
   vertex -0.062132 0.15 1.16667
   vertex -0.0356761 0.0861298 0.541667
  endloop
 endfacet
 facet normal 0.92388 0.382683 -7.55917e-18
  outer loop
   vertex -0.0356761 0.0861298 0.541667
   vertex -0.062132 0.15 1.16667
   vertex 0.224366 -0.541667 1.03739
  endloop
 endfacet
 facet normal 0.92388 0.382683 -1.98362e-16
  outer loop
   vertex 0.224366 -0.541667 1.16667
   vertex 0.224366 -0.541667 1.03739
   vertex 0.0149092 -0.0359939 1.16667
  endloop
 endfacet
 facet normal 0.92388 0.382683 2.66624e-16
  outer loop
   vertex 0.224366 -0.541667 1.03739
   vertex -0.062132 0.15 1.16667
   vertex 0.0149092 -0.0359939 1.16667
  endloop
 endfacet
 facet normal 0.92388 0.382683 0
  outer loop
   vertex -0.153984 0.37175 -0.541667
   vertex -0.414214 1 -1.31667
   vertex -0.153984 0.37175 0.387707
  endloop
 endfacet
 facet normal 0.92388 0.382683 0
  outer loop
   vertex -0.414214 1 1.31667
   vertex -0.153984 0.37175 0.541667
   vertex -0.414214 1 1.17403
  endloop
 endfacet
 facet normal 0.92388 0.382683 1.66556e-16
  outer loop
   vertex -0.153984 0.37175 0.541667
   vertex -0.153984 0.37175 0.387707
   vertex -0.414214 1 1.17403
  endloop
 endfacet
 facet normal 0.92388 0.382683 0
  outer loop
   vertex -0.414214 1 -1.31667
   vertex -0.414214 1 -1.17403
   vertex -0.153984 0.37175 0.387707
  endloop
 endfacet
 facet normal 0.92388 0.382683 0
  outer loop
   vertex -0.414214 1 1.17403
   vertex -0.153984 0.37175 0.387707
   vertex -0.414214 1 1.16667
  endloop
 endfacet
 facet normal 0.92388 0.382683 0
  outer loop
   vertex -0.414214 1 1.16667
   vertex -0.153984 0.37175 0.387707
   vertex -0.414214 1 0.572354
  endloop
 endfacet
 facet normal 0.92388 0.382683 0
  outer loop
   vertex -0.414214 1 0.572354
   vertex -0.153984 0.37175 0.387707
   vertex -0.414214 1 0.541667
  endloop
 endfacet
 facet normal 0.92388 0.382683 0
  outer loop
   vertex -0.414214 1 0.541667
   vertex -0.153984 0.37175 0.387707
   vertex -0.414214 1 -0.517259
  endloop
 endfacet
 facet normal 0.92388 0.382683 0
  outer loop
   vertex -0.414214 1 -0.517259
   vertex -0.153984 0.37175 0.387707
   vertex -0.414214 1 -0.541667
  endloop
 endfacet
 facet normal 0.92388 0.382683 0
  outer loop
   vertex -0.414214 1 -0.541667
   vertex -0.153984 0.37175 0.387707
   vertex -0.414214 1 -0.572354
  endloop
 endfacet
 facet normal 0.92388 0.382683 0
  outer loop
   vertex -0.414214 1 -0.572354
   vertex -0.153984 0.37175 0.387707
   vertex -0.414214 1 -1.16667
  endloop
 endfacet
 facet normal 0.92388 0.382683 0
  outer loop
   vertex -0.414214 1 -1.17403
   vertex -0.414214 1 -1.16667
   vertex -0.153984 0.37175 0.387707
  endloop
 endfacet
 facet normal 0.92388 0.382683 -1.94632e-17
  outer loop
   vertex -0.414214 1 -1.31667
   vertex -0.153984 0.37175 -0.541667
   vertex -0.062132 0.15 -1.31667
  endloop
 endfacet
 facet normal 0.92388 0.382683 -4.4106e-17
  outer loop
   vertex -0.062132 0.15 -1.16667
   vertex -0.062132 0.15 -1.31201
   vertex -0.153984 0.37175 -0.541667
  endloop
 endfacet
 facet normal 0.92388 0.382683 0
  outer loop
   vertex -0.062132 0.15 -1.31667
   vertex -0.153984 0.37175 -0.541667
   vertex -0.062132 0.15 -1.31201
  endloop
 endfacet
 facet normal 0.92388 0.382683 -5.17277e-17
  outer loop
   vertex 0.224366 -0.541667 -0.541667
   vertex 0.224366 -0.541667 -1.03739
   vertex -0.0356761 0.0861298 -0.541667
  endloop
 endfacet
 facet normal 0.92388 0.382683 -8.97795e-18
  outer loop
   vertex -0.153984 0.37175 -0.541667
   vertex -0.0356761 0.0861298 -0.541667
   vertex -0.062132 0.15 -1.16667
  endloop
 endfacet
 facet normal 0.92388 0.382683 0
  outer loop
   vertex -0.0356761 0.0861298 -0.541667
   vertex 0.224366 -0.541667 -1.03739
   vertex -0.062132 0.15 -1.16667
  endloop
 endfacet
 facet normal 0.92388 0.382683 0
  outer loop
   vertex 0.224366 -0.541667 -1.16667
   vertex 0.0149092 -0.0359939 -1.16667
   vertex 0.224366 -0.541667 -1.03739
  endloop
 endfacet
 facet normal 0.92388 0.382683 0
  outer loop
   vertex 0.224366 -0.541667 -1.03739
   vertex 0.0149092 -0.0359939 -1.16667
   vertex -0.062132 0.15 -1.16667
  endloop
 endfacet
 facet normal 0 -1 0
  outer loop
   vertex -17.3924 -0.541667 1.16667
   vertex -18.6092 -0.541667 0.670939
   vertex -17.3924 -0.541667 0.541667
  endloop
 endfacet
 facet normal 0 -1 0
  outer loop
   vertex -17.3924 -0.541667 0.541667
   vertex -18.6092 -0.541667 0.670939
   vertex -18.6092 -0.541667 0.541667
  endloop
 endfacet
 facet normal 0 -1 0
  outer loop
   vertex -17.3924 -0.541667 1.16667
   vertex -18.6092 -0.541667 1.16667
   vertex -18.6092 -0.541667 0.670939
  endloop
 endfacet
 facet normal 0 0 1
  outer loop
   vertex -18.6092 -0.541667 1.16667
   vertex -17.3924 -0.541667 1.16667
   vertex -18.3997 -0.0359938 1.16667
  endloop
 endfacet
 facet normal 0 -0 1
  outer loop
   vertex -18.3997 -0.0359938 1.16667
   vertex -17.3924 -0.541667 1.16667
   vertex -17.3924 -0.391667 1.16667
  endloop
 endfacet
 facet normal 0 -1 -0
  outer loop
   vertex -17.3924 -0.541667 -1.16667
   vertex -17.3924 -0.541667 -0.541667
   vertex -18.6092 -0.541667 -0.670939
  endloop
 endfacet
 facet normal 0 -1 0
  outer loop
   vertex -17.3924 -0.541667 -0.541667
   vertex -18.6092 -0.541667 -0.541667
   vertex -18.6092 -0.541667 -0.670939
  endloop
 endfacet
 facet normal 0 -1 0
  outer loop
   vertex -17.3924 -0.541667 -1.16667
   vertex -18.6092 -0.541667 -0.670939
   vertex -18.6092 -0.541667 -1.16667
  endloop
 endfacet
 facet normal 0 -0 -1
  outer loop
   vertex -18.6092 -0.541667 -1.16667
   vertex -18.3997 -0.0359938 -1.16667
   vertex -17.3924 -0.541667 -1.16667
  endloop
 endfacet
 facet normal -0 -0 -1
  outer loop
   vertex -18.3997 -0.0359938 -1.16667
   vertex -17.3924 -0.391667 -1.16667
   vertex -17.3924 -0.541667 -1.16667
  endloop
 endfacet
 facet normal 0 -0 -1
  outer loop
   vertex -18.6092 -0.541667 0.541667
   vertex -18.2308 0.371749 0.541667
   vertex -17.3924 -0.541667 0.541667
  endloop
 endfacet
 facet normal -0 -0 -1
  outer loop
   vertex -18.2308 0.371749 0.541667
   vertex -17.8591 0 0.541667
   vertex -17.3924 -0.541667 0.541667
  endloop
 endfacet
 facet normal 0 0 1
  outer loop
   vertex -18.6092 -0.541667 -0.541667
   vertex -17.3924 -0.541667 -0.541667
   vertex -18.2308 0.371749 -0.541667
  endloop
 endfacet
 facet normal 0 0 1
  outer loop
   vertex -18.2308 0.371749 -0.541667
   vertex -17.3924 -0.541667 -0.541667
   vertex -17.8591 0 -0.541667
  endloop
 endfacet
 facet normal -0.707106 -0.707108 0
  outer loop
   vertex -17.8591 0 0.541667
   vertex -18.2308 0.371749 -0.387707
   vertex -17.8591 0 -0.541667
  endloop
 endfacet
 facet normal -0.707106 -0.707108 -0
  outer loop
   vertex -17.8591 0 -0.541667
   vertex -18.2308 0.371749 -0.387707
   vertex -18.2308 0.371749 -0.541667
  endloop
 endfacet
 facet normal -0.707106 -0.707108 -0
  outer loop
   vertex -17.8591 0 0.541667
   vertex -18.2308 0.371749 0.541667
   vertex -18.2308 0.371749 -0.387707
  endloop
 endfacet
 facet normal 0 0 1
  outer loop
   vertex -18.3997 -0.0359938 1.16667
   vertex -17.3924 -0.391667 1.16667
   vertex -18.3227 0.15 1.16667
  endloop
 endfacet
 facet normal 0 0 1
  outer loop
   vertex 0.0149092 -0.0359939 1.16667
   vertex -0.062132 0.15 1.16667
   vertex -0.9924 -0.391667 1.16667
  endloop
 endfacet
 facet normal 0 0 1
  outer loop
   vertex -17.3924 -0.391667 1.16667
   vertex -17.2424 -0.391667 1.16667
   vertex -18.3227 0.15 1.16667
  endloop
 endfacet
 facet normal 0 0 1
  outer loop
   vertex -17.2424 -0.391667 1.16667
   vertex -16.3091 -0.391667 1.16667
   vertex -18.3227 0.15 1.16667
  endloop
 endfacet
 facet normal 0 0 1
  outer loop
   vertex -0.9924 -0.391667 1.16667
   vertex -0.062132 0.15 1.16667
   vertex -1.1424 -0.391667 1.16667
  endloop
 endfacet
 facet normal 0 0 1
  outer loop
   vertex -1.1424 -0.391667 1.16667
   vertex -0.062132 0.15 1.16667
   vertex -3.15907 -0.391667 1.16667
  endloop
 endfacet
 facet normal -0 0 1
  outer loop
   vertex -0.062132 0.15 1.16667
   vertex -18.3227 0.15 1.16667
   vertex -3.15907 -0.391667 1.16667
  endloop
 endfacet
 facet normal 0 0 1
  outer loop
   vertex -16.3091 -0.391667 1.16667
   vertex -16.1591 -0.391667 1.16667
   vertex -18.3227 0.15 1.16667
  endloop
 endfacet
 facet normal 0 0 1
  outer loop
   vertex -16.1591 -0.391667 1.16667
   vertex -14.1424 -0.391667 1.16667
   vertex -18.3227 0.15 1.16667
  endloop
 endfacet
 facet normal 0 0 1
  outer loop
   vertex -14.1424 -0.391667 1.16667
   vertex -13.9924 -0.391667 1.16667
   vertex -18.3227 0.15 1.16667
  endloop
 endfacet
 facet normal 0 0 1
  outer loop
   vertex -13.9924 -0.391667 1.16667
   vertex -11.9757 -0.391667 1.16667
   vertex -18.3227 0.15 1.16667
  endloop
 endfacet
 facet normal 0 0 1
  outer loop
   vertex -11.9757 -0.391667 1.16667
   vertex -11.8257 -0.391667 1.16667
   vertex -18.3227 0.15 1.16667
  endloop
 endfacet
 facet normal 0 0 1
  outer loop
   vertex -11.8257 -0.391667 1.16667
   vertex -9.80907 -0.391667 1.16667
   vertex -18.3227 0.15 1.16667
  endloop
 endfacet
 facet normal 0 0 1
  outer loop
   vertex -9.80907 -0.391667 1.16667
   vertex -9.65907 -0.391667 1.16667
   vertex -18.3227 0.15 1.16667
  endloop
 endfacet
 facet normal 0 0 1
  outer loop
   vertex -9.65907 -0.391667 1.16667
   vertex -7.6424 -0.391667 1.16667
   vertex -18.3227 0.15 1.16667
  endloop
 endfacet
 facet normal 0 0 1
  outer loop
   vertex -7.6424 -0.391667 1.16667
   vertex -7.4924 -0.391667 1.16667
   vertex -18.3227 0.15 1.16667
  endloop
 endfacet
 facet normal 0 0 1
  outer loop
   vertex -7.4924 -0.391667 1.16667
   vertex -5.47573 -0.391667 1.16667
   vertex -18.3227 0.15 1.16667
  endloop
 endfacet
 facet normal 0 0 1
  outer loop
   vertex -5.47573 -0.391667 1.16667
   vertex -5.32573 -0.391667 1.16667
   vertex -18.3227 0.15 1.16667
  endloop
 endfacet
 facet normal 0 0 1
  outer loop
   vertex -5.32573 -0.391667 1.16667
   vertex -3.30907 -0.391667 1.16667
   vertex -18.3227 0.15 1.16667
  endloop
 endfacet
 facet normal 0 0 1
  outer loop
   vertex -3.15907 -0.391667 1.16667
   vertex -18.3227 0.15 1.16667
   vertex -3.30907 -0.391667 1.16667
  endloop
 endfacet
 facet normal -0 1 0
  outer loop
   vertex -0.414214 1 0.572354
   vertex -17.9706 1 1.13598
   vertex -0.414214 1 1.16667
  endloop
 endfacet
 facet normal 0 1 0
  outer loop
   vertex -17.9706 1 1.16667
   vertex -0.414214 1 1.16667
   vertex -17.9706 1 1.13598
  endloop
 endfacet
 facet normal 0 0 1
  outer loop
   vertex -18.3227 0.15 1.31667
   vertex -0.062132 0.15 1.31667
   vertex -17.9706 1 1.31667
  endloop
 endfacet
 facet normal 0 0 1
  outer loop
   vertex -0.062132 0.15 1.31667
   vertex -0.414214 1 1.31667
   vertex -17.9706 1 1.31667
  endloop
 endfacet
 facet normal -0 1 0
  outer loop
   vertex -0.414214 1 1.17403
   vertex -17.9706 1 1.3093
   vertex -0.414214 1 1.31667
  endloop
 endfacet
 facet normal 0 1 0
  outer loop
   vertex -17.9706 1 1.31667
   vertex -0.414214 1 1.31667
   vertex -17.9706 1 1.3093
  endloop
 endfacet
 facet normal -0 -1 0
  outer loop
   vertex -18.3227 0.15 1.17132
   vertex -0.062132 0.15 1.31201
   vertex -18.3227 0.15 1.31667
  endloop
 endfacet
 facet normal 0 -1 0
  outer loop
   vertex -0.062132 0.15 1.31667
   vertex -18.3227 0.15 1.31667
   vertex -0.062132 0.15 1.31201
  endloop
 endfacet
 facet normal 0 1 0
  outer loop
   vertex -17.9706 1 1.3093
   vertex -0.414214 1 1.17403
   vertex -17.9706 1 1.16667
  endloop
 endfacet
 facet normal 0 1 0
  outer loop
   vertex -0.414214 1 1.16667
   vertex -17.9706 1 1.16667
   vertex -0.414214 1 1.17403
  endloop
 endfacet
 facet normal 0 -1 0
  outer loop
   vertex -0.062132 0.15 1.31201
   vertex -18.3227 0.15 1.17132
   vertex -0.062132 0.15 1.16667
  endloop
 endfacet
 facet normal 0 -1 0
  outer loop
   vertex -18.3227 0.15 1.16667
   vertex -0.062132 0.15 1.16667
   vertex -18.3227 0.15 1.17132
  endloop
 endfacet
 facet normal 0 -0 -1
  outer loop
   vertex -18.3997 -0.0359938 -1.16667
   vertex -18.3227 0.15 -1.16667
   vertex -17.3924 -0.391667 -1.16667
  endloop
 endfacet
 facet normal 0 0 -1
  outer loop
   vertex 0.0149092 -0.0359939 -1.16667
   vertex -0.9924 -0.391667 -1.16667
   vertex -0.062132 0.15 -1.16667
  endloop
 endfacet
 facet normal 0 0 -1
  outer loop
   vertex -17.3924 -0.391667 -1.16667
   vertex -18.3227 0.15 -1.16667
   vertex -17.2424 -0.391667 -1.16667
  endloop
 endfacet
 facet normal 0 0 -1
  outer loop
   vertex -17.2424 -0.391667 -1.16667
   vertex -18.3227 0.15 -1.16667
   vertex -15.2257 -0.391667 -1.16667
  endloop
 endfacet
 facet normal 0 0 -1
  outer loop
   vertex -0.9924 -0.391667 -1.16667
   vertex -1.1424 -0.391667 -1.16667
   vertex -0.062132 0.15 -1.16667
  endloop
 endfacet
 facet normal 0 0 -1
  outer loop
   vertex -1.1424 -0.391667 -1.16667
   vertex -2.07573 -0.391667 -1.16667
   vertex -0.062132 0.15 -1.16667
  endloop
 endfacet
 facet normal -0 0 -1
  outer loop
   vertex -18.3227 0.15 -1.16667
   vertex -0.062132 0.15 -1.16667
   vertex -15.2257 -0.391667 -1.16667
  endloop
 endfacet
 facet normal 0 0 -1
  outer loop
   vertex -2.07573 -0.391667 -1.16667
   vertex -2.22573 -0.391667 -1.16667
   vertex -0.062132 0.15 -1.16667
  endloop
 endfacet
 facet normal 0 0 -1
  outer loop
   vertex -2.22573 -0.391667 -1.16667
   vertex -4.2424 -0.391667 -1.16667
   vertex -0.062132 0.15 -1.16667
  endloop
 endfacet
 facet normal 0 0 -1
  outer loop
   vertex -4.2424 -0.391667 -1.16667
   vertex -4.3924 -0.391667 -1.16667
   vertex -0.062132 0.15 -1.16667
  endloop
 endfacet
 facet normal 0 0 -1
  outer loop
   vertex -4.3924 -0.391667 -1.16667
   vertex -6.40907 -0.391667 -1.16667
   vertex -0.062132 0.15 -1.16667
  endloop
 endfacet
 facet normal 0 0 -1
  outer loop
   vertex -6.40907 -0.391667 -1.16667
   vertex -6.55907 -0.391667 -1.16667
   vertex -0.062132 0.15 -1.16667
  endloop
 endfacet
 facet normal 0 0 -1
  outer loop
   vertex -6.55907 -0.391667 -1.16667
   vertex -8.57573 -0.391667 -1.16667
   vertex -0.062132 0.15 -1.16667
  endloop
 endfacet
 facet normal 0 0 -1
  outer loop
   vertex -8.57573 -0.391667 -1.16667
   vertex -8.72573 -0.391667 -1.16667
   vertex -0.062132 0.15 -1.16667
  endloop
 endfacet
 facet normal 0 0 -1
  outer loop
   vertex -8.72573 -0.391667 -1.16667
   vertex -10.7424 -0.391667 -1.16667
   vertex -0.062132 0.15 -1.16667
  endloop
 endfacet
 facet normal 0 0 -1
  outer loop
   vertex -10.7424 -0.391667 -1.16667
   vertex -10.8924 -0.391667 -1.16667
   vertex -0.062132 0.15 -1.16667
  endloop
 endfacet
 facet normal 0 0 -1
  outer loop
   vertex -10.8924 -0.391667 -1.16667
   vertex -12.9091 -0.391667 -1.16667
   vertex -0.062132 0.15 -1.16667
  endloop
 endfacet
 facet normal 0 0 -1
  outer loop
   vertex -12.9091 -0.391667 -1.16667
   vertex -13.0591 -0.391667 -1.16667
   vertex -0.062132 0.15 -1.16667
  endloop
 endfacet
 facet normal 0 0 -1
  outer loop
   vertex -13.0591 -0.391667 -1.16667
   vertex -15.0757 -0.391667 -1.16667
   vertex -0.062132 0.15 -1.16667
  endloop
 endfacet
 facet normal 0 0 -1
  outer loop
   vertex -15.2257 -0.391667 -1.16667
   vertex -0.062132 0.15 -1.16667
   vertex -15.0757 -0.391667 -1.16667
  endloop
 endfacet
 facet normal 0 1 -0
  outer loop
   vertex -0.414214 1 -0.572354
   vertex -0.414214 1 -1.16667
   vertex -17.9706 1 -1.13598
  endloop
 endfacet
 facet normal 0 1 0
  outer loop
   vertex -17.9706 1 -1.16667
   vertex -17.9706 1 -1.13598
   vertex -0.414214 1 -1.16667
  endloop
 endfacet
 facet normal 0 -0 -1
  outer loop
   vertex -18.3227 0.15 -1.31667
   vertex -17.9706 1 -1.31667
   vertex -0.062132 0.15 -1.31667
  endloop
 endfacet
 facet normal 0 0 -1
  outer loop
   vertex -0.062132 0.15 -1.31667
   vertex -17.9706 1 -1.31667
   vertex -0.414214 1 -1.31667
  endloop
 endfacet
 facet normal 0 1 -0
  outer loop
   vertex -0.414214 1 -1.17403
   vertex -0.414214 1 -1.31667
   vertex -17.9706 1 -1.3093
  endloop
 endfacet
 facet normal 0 1 0
  outer loop
   vertex -17.9706 1 -1.31667
   vertex -17.9706 1 -1.3093
   vertex -0.414214 1 -1.31667
  endloop
 endfacet
 facet normal 0 -1 0
  outer loop
   vertex -18.3227 0.15 -1.17132
   vertex -18.3227 0.15 -1.31667
   vertex -0.062132 0.15 -1.31201
  endloop
 endfacet
 facet normal 0 -1 -0
  outer loop
   vertex -0.062132 0.15 -1.31667
   vertex -0.062132 0.15 -1.31201
   vertex -18.3227 0.15 -1.31667
  endloop
 endfacet
 facet normal 0 1 0
  outer loop
   vertex -17.9706 1 -1.3093
   vertex -17.9706 1 -1.16667
   vertex -0.414214 1 -1.17403
  endloop
 endfacet
 facet normal 0 1 -0
  outer loop
   vertex -0.414214 1 -1.16667
   vertex -0.414214 1 -1.17403
   vertex -17.9706 1 -1.16667
  endloop
 endfacet
 facet normal 0 -1 0
  outer loop
   vertex -0.062132 0.15 -1.31201
   vertex -0.062132 0.15 -1.16667
   vertex -18.3227 0.15 -1.17132
  endloop
 endfacet
 facet normal 0 -1 0
  outer loop
   vertex -18.3227 0.15 -1.16667
   vertex -18.3227 0.15 -1.17132
   vertex -0.062132 0.15 -1.16667
  endloop
 endfacet
 facet normal 0 1 0
  outer loop
   vertex -17.9706 1 1.13598
   vertex -0.414214 1 0.572354
   vertex -17.9706 1 0.541667
  endloop
 endfacet
 facet normal 0 1 0
  outer loop
   vertex -0.414214 1 0.541667
   vertex -17.9706 1 0.541667
   vertex -0.414214 1 0.572354
  endloop
 endfacet
 facet normal 0 1 0
  outer loop
   vertex -17.9706 1 -1.13598
   vertex -17.9706 1 -0.541667
   vertex -0.414214 1 -0.572354
  endloop
 endfacet
 facet normal 0 1 -0
  outer loop
   vertex -0.414214 1 -0.541667
   vertex -0.414214 1 -0.572354
   vertex -17.9706 1 -0.541667
  endloop
 endfacet
 facet normal 0 1 0
  outer loop
   vertex -17.9706 1 0.517259
   vertex -0.414214 1 -0.517259
   vertex -17.9706 1 -0.541667
  endloop
 endfacet
 facet normal 0 1 0
  outer loop
   vertex -0.414214 1 -0.541667
   vertex -17.9706 1 -0.541667
   vertex -0.414214 1 -0.517259
  endloop
 endfacet
 facet normal -0 1 0
  outer loop
   vertex -0.414214 1 -0.517259
   vertex -17.9706 1 0.517259
   vertex -0.414214 1 0.541667
  endloop
 endfacet
 facet normal 0 1 0
  outer loop
   vertex -17.9706 1 0.541667
   vertex -0.414214 1 0.541667
   vertex -17.9706 1 0.517259
  endloop
 endfacet
 facet normal -0.923879 0.382684 2.24588e-17
  outer loop
   vertex -18.2308 0.371749 -0.541667
   vertex -18.3227 0.15 -1.16667
   vertex -18.6092 -0.541667 -0.541667
  endloop
 endfacet
 facet normal -0.923879 0.382684 0
  outer loop
   vertex -18.6092 -0.541667 -1.16667
   vertex -18.6092 -0.541667 -0.670939
   vertex -18.3997 -0.0359938 -1.16667
  endloop
 endfacet
 facet normal -0.923879 0.382684 -3.97063e-15
  outer loop
   vertex -18.3227 0.15 -1.16667
   vertex -18.3997 -0.0359938 -1.16667
   vertex -18.6092 -0.541667 -0.541667
  endloop
 endfacet
 facet normal -0.923879 0.382684 0
  outer loop
   vertex -18.6092 -0.541667 -0.670939
   vertex -18.6092 -0.541667 -0.541667
   vertex -18.3997 -0.0359938 -1.16667
  endloop
 endfacet
 facet normal -0.923879 0.382684 1.22618e-15
  outer loop
   vertex -17.9706 1 -1.31667
   vertex -18.3227 0.15 -1.31667
   vertex -18.2308 0.371749 -0.541667
  endloop
 endfacet
 facet normal -0.923879 0.382684 0
  outer loop
   vertex -18.3227 0.15 -1.31667
   vertex -18.3227 0.15 -1.17132
   vertex -18.2308 0.371749 -0.541667
  endloop
 endfacet
 facet normal -0.923879 0.382684 0
  outer loop
   vertex -18.2308 0.371749 -0.541667
   vertex -18.3227 0.15 -1.17132
   vertex -18.3227 0.15 -1.16667
  endloop
 endfacet
 facet normal -0.923879 0.382684 0
  outer loop
   vertex -18.2308 0.371749 0.541667
   vertex -17.9706 1 1.31667
   vertex -18.2308 0.371749 -0.387707
  endloop
 endfacet
 facet normal -0.923879 0.382684 0
  outer loop
   vertex -18.2308 0.371749 -0.541667
   vertex -18.2308 0.371749 -0.387707
   vertex -17.9706 1 -1.31667
  endloop
 endfacet
 facet normal -0.923879 0.382684 4.48898e-13
  outer loop
   vertex -17.9706 1 -1.31667
   vertex -18.2308 0.371749 -0.387707
   vertex -17.9706 1 -1.3093
  endloop
 endfacet
 facet normal -0.923879 0.382684 0
  outer loop
   vertex -17.9706 1 -1.3093
   vertex -18.2308 0.371749 -0.387707
   vertex -17.9706 1 -1.16667
  endloop
 endfacet
 facet normal -0.923879 0.382684 0
  outer loop
   vertex -17.9706 1 -1.16667
   vertex -18.2308 0.371749 -0.387707
   vertex -17.9706 1 -1.13598
  endloop
 endfacet
 facet normal -0.923879 0.382684 0
  outer loop
   vertex -17.9706 1 -1.13598
   vertex -18.2308 0.371749 -0.387707
   vertex -17.9706 1 -0.541667
  endloop
 endfacet
 facet normal -0.923879 0.382684 0
  outer loop
   vertex -17.9706 1 -0.541667
   vertex -18.2308 0.371749 -0.387707
   vertex -17.9706 1 0.517259
  endloop
 endfacet
 facet normal -0.923879 0.382684 0
  outer loop
   vertex -17.9706 1 0.517259
   vertex -18.2308 0.371749 -0.387707
   vertex -17.9706 1 0.541667
  endloop
 endfacet
 facet normal -0.923879 0.382684 0
  outer loop
   vertex -17.9706 1 0.541667
   vertex -18.2308 0.371749 -0.387707
   vertex -17.9706 1 1.13598
  endloop
 endfacet
 facet normal -0.923879 0.382684 0
  outer loop
   vertex -17.9706 1 1.13598
   vertex -18.2308 0.371749 -0.387707
   vertex -17.9706 1 1.16667
  endloop
 endfacet
 facet normal -0.923879 0.382684 -2.18819e-14
  outer loop
   vertex -18.2308 0.371749 -0.387707
   vertex -17.9706 1 1.31667
   vertex -17.9706 1 1.16667
  endloop
 endfacet
 facet normal 0 1 -0
  outer loop
   vertex -17.9706 1 1.3093
   vertex -17.9706 1 1.16667
   vertex -17.9706 1 1.31667
  endloop
 endfacet
 facet normal -0.923879 0.382684 -1.23592e-15
  outer loop
   vertex -17.9706 1 1.31667
   vertex -18.2308 0.371749 0.541667
   vertex -18.3227 0.15 1.31667
  endloop
 endfacet
 facet normal -0.923879 0.382684 0
  outer loop
   vertex -18.3227 0.15 1.31667
   vertex -18.2308 0.371749 0.541667
   vertex -18.3227 0.15 1.17132
  endloop
 endfacet
 facet normal -0.923879 0.382684 0
  outer loop
   vertex -18.2308 0.371749 0.541667
   vertex -18.3227 0.15 1.16667
   vertex -18.3227 0.15 1.17132
  endloop
 endfacet
 facet normal -0.923879 0.382684 0
  outer loop
   vertex -18.2308 0.371749 0.541667
   vertex -18.6092 -0.541667 0.541667
   vertex -18.3227 0.15 1.16667
  endloop
 endfacet
 facet normal -0.923879 0.382684 0
  outer loop
   vertex -18.6092 -0.541667 1.16667
   vertex -18.3997 -0.0359938 1.16667
   vertex -18.6092 -0.541667 0.670939
  endloop
 endfacet
 facet normal -0.923879 0.382684 3.97063e-15
  outer loop
   vertex -18.3227 0.15 1.16667
   vertex -18.6092 -0.541667 0.541667
   vertex -18.3997 -0.0359938 1.16667
  endloop
 endfacet
 facet normal -0.923879 0.382684 0
  outer loop
   vertex -18.6092 -0.541667 0.670939
   vertex -18.3997 -0.0359938 1.16667
   vertex -18.6092 -0.541667 0.541667
  endloop
 endfacet
endsolid
