solid ascii
 facet normal 1 0 0
  outer loop
   vertex 0.466667 -0.541667 0.541667
   vertex 0.466667 -0.391667 0.541667
   vertex 0.466667 -0.541667 1.16667
  endloop
 endfacet
 facet normal 1 0 -0
  outer loop
   vertex 0.466667 -0.541667 1.16667
   vertex 0.466667 -0.391667 0.541667
   vertex 0.466667 -0.391667 1.16667
  endloop
 endfacet
 facet normal 0 -1 0
  outer loop
   vertex 0.466667 -0.391667 0.541667
   vertex 0.616667 -0.391667 0.541667
   vertex 0.466667 -0.391667 1.16667
  endloop
 endfacet
 facet normal 0 -1 0
  outer loop
   vertex 0.466667 -0.391667 1.16667
   vertex 0.616667 -0.391667 0.541667
   vertex 0.616667 -0.391667 1.16667
  endloop
 endfacet
 facet normal -1 0 0
  outer loop
   vertex 0.616667 -0.391667 0.541667
   vertex 0.616667 -0.541667 0.541667
   vertex 0.616667 -0.391667 1.16667
  endloop
 endfacet
 facet normal -1 0 0
  outer loop
   vertex 0.616667 -0.391667 1.16667
   vertex 0.616667 -0.541667 0.541667
   vertex 0.616667 -0.541667 1.16667
  endloop
 endfacet
 facet normal 0 -1 0
  outer loop
   vertex 0.616667 -0.541667 0.541667
   vertex 1.55 -0.541667 0.541667
   vertex 0.616667 -0.541667 1.16667
  endloop
 endfacet
 facet normal 0 -1 0
  outer loop
   vertex 0.616667 -0.541667 1.16667
   vertex 1.55 -0.541667 0.541667
   vertex 1.55 -0.541667 1.16667
  endloop
 endfacet
 facet normal 1 0 0
  outer loop
   vertex 1.55 -0.541667 0.541667
   vertex 1.55 -0.391667 0.541667
   vertex 1.55 -0.541667 1.16667
  endloop
 endfacet
 facet normal 1 0 -0
  outer loop
   vertex 1.55 -0.541667 1.16667
   vertex 1.55 -0.391667 0.541667
   vertex 1.55 -0.391667 1.16667
  endloop
 endfacet
 facet normal 0 -1 0
  outer loop
   vertex 1.55 -0.391667 0.541667
   vertex 1.7 -0.391667 0.541667
   vertex 1.55 -0.391667 1.16667
  endloop
 endfacet
 facet normal 0 -1 0
  outer loop
   vertex 1.55 -0.391667 1.16667
   vertex 1.7 -0.391667 0.541667
   vertex 1.7 -0.391667 1.16667
  endloop
 endfacet
 facet normal -1 0 0
  outer loop
   vertex 1.7 -0.391667 0.541667
   vertex 1.7 -0.541667 0.541667
   vertex 1.7 -0.391667 1.16667
  endloop
 endfacet
 facet normal -1 0 0
  outer loop
   vertex 1.7 -0.391667 1.16667
   vertex 1.7 -0.541667 0.541667
   vertex 1.7 -0.541667 1.16667
  endloop
 endfacet
 facet normal 0 -1 0
  outer loop
   vertex 1.7 -0.541667 0.541667
   vertex 2.63333 -0.541667 0.541667
   vertex 1.7 -0.541667 1.16667
  endloop
 endfacet
 facet normal 0 -1 0
  outer loop
   vertex 1.7 -0.541667 1.16667
   vertex 2.63333 -0.541667 0.541667
   vertex 2.63333 -0.541667 1.16667
  endloop
 endfacet
 facet normal 1 0 0
  outer loop
   vertex 2.63333 -0.541667 0.541667
   vertex 2.63333 -0.391667 0.541667
   vertex 2.63333 -0.541667 1.16667
  endloop
 endfacet
 facet normal 1 0 -0
  outer loop
   vertex 2.63333 -0.541667 1.16667
   vertex 2.63333 -0.391667 0.541667
   vertex 2.63333 -0.391667 1.16667
  endloop
 endfacet
 facet normal 0 -1 0
  outer loop
   vertex 2.63333 -0.391667 0.541667
   vertex 2.78333 -0.391667 0.541667
   vertex 2.63333 -0.391667 1.16667
  endloop
 endfacet
 facet normal 0 -1 0
  outer loop
   vertex 2.63333 -0.391667 1.16667
   vertex 2.78333 -0.391667 0.541667
   vertex 2.78333 -0.391667 1.16667
  endloop
 endfacet
 facet normal -1 0 0
  outer loop
   vertex 2.78333 -0.391667 0.541667
   vertex 2.78333 -0.541667 0.541667
   vertex 2.78333 -0.391667 1.16667
  endloop
 endfacet
 facet normal -1 0 0
  outer loop
   vertex 2.78333 -0.391667 1.16667
   vertex 2.78333 -0.541667 0.541667
   vertex 2.78333 -0.541667 1.16667
  endloop
 endfacet
 facet normal 0 -1 0
  outer loop
   vertex 2.78333 -0.541667 0.541667
   vertex 3.71667 -0.541667 0.541667
   vertex 2.78333 -0.541667 1.16667
  endloop
 endfacet
 facet normal 0 -1 0
  outer loop
   vertex 2.78333 -0.541667 1.16667
   vertex 3.71667 -0.541667 0.541667
   vertex 3.71667 -0.541667 1.16667
  endloop
 endfacet
 facet normal 1 0 0
  outer loop
   vertex 3.71667 -0.541667 0.541667
   vertex 3.71667 -0.391667 0.541667
   vertex 3.71667 -0.541667 1.16667
  endloop
 endfacet
 facet normal 1 0 -0
  outer loop
   vertex 3.71667 -0.541667 1.16667
   vertex 3.71667 -0.391667 0.541667
   vertex 3.71667 -0.391667 1.16667
  endloop
 endfacet
 facet normal 0 -1 0
  outer loop
   vertex 3.71667 -0.391667 0.541667
   vertex 3.86667 -0.391667 0.541667
   vertex 3.71667 -0.391667 1.16667
  endloop
 endfacet
 facet normal 0 -1 0
  outer loop
   vertex 3.71667 -0.391667 1.16667
   vertex 3.86667 -0.391667 0.541667
   vertex 3.86667 -0.391667 1.16667
  endloop
 endfacet
 facet normal -1 0 0
  outer loop
   vertex 3.86667 -0.391667 0.541667
   vertex 3.86667 -0.541667 0.541667
   vertex 3.86667 -0.391667 1.16667
  endloop
 endfacet
 facet normal -1 0 0
  outer loop
   vertex 3.86667 -0.391667 1.16667
   vertex 3.86667 -0.541667 0.541667
   vertex 3.86667 -0.541667 1.16667
  endloop
 endfacet
 facet normal 0 -1 0
  outer loop
   vertex 3.86667 -0.541667 0.541667
   vertex 4.8 -0.541667 0.541667
   vertex 3.86667 -0.541667 1.16667
  endloop
 endfacet
 facet normal 0 -1 0
  outer loop
   vertex 3.86667 -0.541667 1.16667
   vertex 4.8 -0.541667 0.541667
   vertex 4.8 -0.541667 1.16667
  endloop
 endfacet
 facet normal 1 0 0
  outer loop
   vertex 4.8 -0.541667 0.541667
   vertex 4.8 -0.391667 0.541667
   vertex 4.8 -0.541667 1.16667
  endloop
 endfacet
 facet normal 1 0 -0
  outer loop
   vertex 4.8 -0.541667 1.16667
   vertex 4.8 -0.391667 0.541667
   vertex 4.8 -0.391667 1.16667
  endloop
 endfacet
 facet normal 0 -1 0
  outer loop
   vertex 4.8 -0.391667 0.541667
   vertex 4.95 -0.391667 0.541667
   vertex 4.8 -0.391667 1.16667
  endloop
 endfacet
 facet normal 0 -1 0
  outer loop
   vertex 4.8 -0.391667 1.16667
   vertex 4.95 -0.391667 0.541667
   vertex 4.95 -0.391667 1.16667
  endloop
 endfacet
 facet normal -1 0 0
  outer loop
   vertex 4.95 -0.391667 0.541667
   vertex 4.95 -0.541667 0.541667
   vertex 4.95 -0.391667 1.16667
  endloop
 endfacet
 facet normal -1 0 0
  outer loop
   vertex 4.95 -0.391667 1.16667
   vertex 4.95 -0.541667 0.541667
   vertex 4.95 -0.541667 1.16667
  endloop
 endfacet
 facet normal 0 -1 0
  outer loop
   vertex 4.95 -0.541667 0.541667
   vertex 5.88333 -0.541667 0.541667
   vertex 4.95 -0.541667 1.16667
  endloop
 endfacet
 facet normal 0 -1 0
  outer loop
   vertex 4.95 -0.541667 1.16667
   vertex 5.88333 -0.541667 0.541667
   vertex 5.88333 -0.541667 1.16667
  endloop
 endfacet
 facet normal 1 0 0
  outer loop
   vertex 5.88333 -0.541667 0.541667
   vertex 5.88333 -0.391667 0.541667
   vertex 5.88333 -0.541667 1.16667
  endloop
 endfacet
 facet normal 1 0 -0
  outer loop
   vertex 5.88333 -0.541667 1.16667
   vertex 5.88333 -0.391667 0.541667
   vertex 5.88333 -0.391667 1.16667
  endloop
 endfacet
 facet normal 0 -1 0
  outer loop
   vertex 5.88333 -0.391667 0.541667
   vertex 6.03333 -0.391667 0.541667
   vertex 5.88333 -0.391667 1.16667
  endloop
 endfacet
 facet normal 0 -1 0
  outer loop
   vertex 5.88333 -0.391667 1.16667
   vertex 6.03333 -0.391667 0.541667
   vertex 6.03333 -0.391667 1.16667
  endloop
 endfacet
 facet normal -1 0 0
  outer loop
   vertex 6.03333 -0.391667 0.541667
   vertex 6.03333 -0.541667 0.541667
   vertex 6.03333 -0.391667 1.16667
  endloop
 endfacet
 facet normal -1 0 0
  outer loop
   vertex 6.03333 -0.391667 1.16667
   vertex 6.03333 -0.541667 0.541667
   vertex 6.03333 -0.541667 1.16667
  endloop
 endfacet
 facet normal 0 -1 0
  outer loop
   vertex 6.03333 -0.541667 0.541667
   vertex 6.96667 -0.541667 0.541667
   vertex 6.03333 -0.541667 1.16667
  endloop
 endfacet
 facet normal 0 -1 0
  outer loop
   vertex 6.03333 -0.541667 1.16667
   vertex 6.96667 -0.541667 0.541667
   vertex 6.96667 -0.541667 1.16667
  endloop
 endfacet
 facet normal 1 0 0
  outer loop
   vertex 6.96667 -0.541667 0.541667
   vertex 6.96667 -0.391667 0.541667
   vertex 6.96667 -0.541667 1.16667
  endloop
 endfacet
 facet normal 1 0 -0
  outer loop
   vertex 6.96667 -0.541667 1.16667
   vertex 6.96667 -0.391667 0.541667
   vertex 6.96667 -0.391667 1.16667
  endloop
 endfacet
 facet normal 0 -1 0
  outer loop
   vertex 6.96667 -0.391667 0.541667
   vertex 7.11667 -0.391667 0.541667
   vertex 6.96667 -0.391667 1.16667
  endloop
 endfacet
 facet normal 0 -1 0
  outer loop
   vertex 6.96667 -0.391667 1.16667
   vertex 7.11667 -0.391667 0.541667
   vertex 7.11667 -0.391667 1.16667
  endloop
 endfacet
 facet normal -1 0 0
  outer loop
   vertex 7.11667 -0.391667 0.541667
   vertex 7.11667 -0.541667 0.541667
   vertex 7.11667 -0.391667 1.16667
  endloop
 endfacet
 facet normal -1 0 0
  outer loop
   vertex 7.11667 -0.391667 1.16667
   vertex 7.11667 -0.541667 0.541667
   vertex 7.11667 -0.541667 1.16667
  endloop
 endfacet
 facet normal 0 -1 0
  outer loop
   vertex 7.11667 -0.541667 0.541667
   vertex 8.05 -0.541667 0.541667
   vertex 7.11667 -0.541667 1.16667
  endloop
 endfacet
 facet normal 0 -1 0
  outer loop
   vertex 7.11667 -0.541667 1.16667
   vertex 8.05 -0.541667 0.541667
   vertex 8.05 -0.541667 1.16667
  endloop
 endfacet
 facet normal 1 0 0
  outer loop
   vertex 8.05 -0.541667 0.541667
   vertex 8.05 -0.391667 0.541667
   vertex 8.05 -0.541667 1.16667
  endloop
 endfacet
 facet normal 1 0 -0
  outer loop
   vertex 8.05 -0.541667 1.16667
   vertex 8.05 -0.391667 0.541667
   vertex 8.05 -0.391667 1.16667
  endloop
 endfacet
 facet normal 0 -1 0
  outer loop
   vertex 8.05 -0.391667 0.541667
   vertex 8.2 -0.391667 0.541667
   vertex 8.05 -0.391667 1.16667
  endloop
 endfacet
 facet normal 0 -1 0
  outer loop
   vertex 8.05 -0.391667 1.16667
   vertex 8.2 -0.391667 0.541667
   vertex 8.2 -0.391667 1.16667
  endloop
 endfacet
 facet normal -1 0 0
  outer loop
   vertex 8.2 -0.391667 0.541667
   vertex 8.2 -0.541667 0.541667
   vertex 8.2 -0.391667 1.16667
  endloop
 endfacet
 facet normal -1 0 0
  outer loop
   vertex 8.2 -0.391667 1.16667
   vertex 8.2 -0.541667 0.541667
   vertex 8.2 -0.541667 1.16667
  endloop
 endfacet
 facet normal 0 -1 0
  outer loop
   vertex 8.2 -0.541667 0.541667
   vertex 9.13333 -0.541667 0.541667
   vertex 8.2 -0.541667 1.16667
  endloop
 endfacet
 facet normal 0 -1 0
  outer loop
   vertex 8.2 -0.541667 1.16667
   vertex 9.13333 -0.541667 0.541667
   vertex 9.13333 -0.541667 1.16667
  endloop
 endfacet
 facet normal 1 0 0
  outer loop
   vertex 9.13333 -0.541667 0.541667
   vertex 9.13333 -0.391667 0.541667
   vertex 9.13333 -0.541667 1.16667
  endloop
 endfacet
 facet normal 1 0 -0
  outer loop
   vertex 9.13333 -0.541667 1.16667
   vertex 9.13333 -0.391667 0.541667
   vertex 9.13333 -0.391667 1.16667
  endloop
 endfacet
 facet normal 0 -1 0
  outer loop
   vertex 9.13333 -0.391667 0.541667
   vertex 9.28333 -0.391667 0.541667
   vertex 9.13333 -0.391667 1.16667
  endloop
 endfacet
 facet normal 0 -1 0
  outer loop
   vertex 9.13333 -0.391667 1.16667
   vertex 9.28333 -0.391667 0.541667
   vertex 9.28333 -0.391667 1.16667
  endloop
 endfacet
 facet normal -1 0 0
  outer loop
   vertex 9.28333 -0.391667 0.541667
   vertex 9.28333 -0.541667 0.541667
   vertex 9.28333 -0.391667 1.16667
  endloop
 endfacet
 facet normal -1 0 0
  outer loop
   vertex 9.28333 -0.391667 1.16667
   vertex 9.28333 -0.541667 0.541667
   vertex 9.28333 -0.541667 1.16667
  endloop
 endfacet
 facet normal 0 -1 0
  outer loop
   vertex 9.28333 -0.541667 0.541667
   vertex 10.2167 -0.541667 0.541667
   vertex 9.28333 -0.541667 1.16667
  endloop
 endfacet
 facet normal 0 -1 0
  outer loop
   vertex 9.28333 -0.541667 1.16667
   vertex 10.2167 -0.541667 0.541667
   vertex 10.2167 -0.541667 1.16667
  endloop
 endfacet
 facet normal 1 0 0
  outer loop
   vertex 10.2167 -0.541667 0.541667
   vertex 10.2167 -0.391667 0.541667
   vertex 10.2167 -0.541667 1.16667
  endloop
 endfacet
 facet normal 1 0 -0
  outer loop
   vertex 10.2167 -0.541667 1.16667
   vertex 10.2167 -0.391667 0.541667
   vertex 10.2167 -0.391667 1.16667
  endloop
 endfacet
 facet normal 0 -1 0
  outer loop
   vertex 10.2167 -0.391667 0.541667
   vertex 10.3667 -0.391667 0.541667
   vertex 10.2167 -0.391667 1.16667
  endloop
 endfacet
 facet normal 0 -1 0
  outer loop
   vertex 10.2167 -0.391667 1.16667
   vertex 10.3667 -0.391667 0.541667
   vertex 10.3667 -0.391667 1.16667
  endloop
 endfacet
 facet normal -1 0 0
  outer loop
   vertex 10.3667 -0.391667 0.541667
   vertex 10.3667 -0.541667 0.541667
   vertex 10.3667 -0.391667 1.16667
  endloop
 endfacet
 facet normal -1 0 0
  outer loop
   vertex 10.3667 -0.391667 1.16667
   vertex 10.3667 -0.541667 0.541667
   vertex 10.3667 -0.541667 1.16667
  endloop
 endfacet
 facet normal 0 -1 0
  outer loop
   vertex 10.3667 -0.541667 0.541667
   vertex 11.375 -0.541667 0.541667
   vertex 10.3667 -0.541667 1.16667
  endloop
 endfacet
 facet normal 0 -1 0
  outer loop
   vertex 10.3667 -0.541667 1.16667
   vertex 11.375 -0.541667 0.541667
   vertex 11.375 -0.541667 1.16667
  endloop
 endfacet
 facet normal 0 -1 0
  outer loop
   vertex -0.541667 -0.541667 1.16667
   vertex 0.466667 -0.541667 0.541667
   vertex 0.466667 -0.541667 1.16667
  endloop
 endfacet
 facet normal 0 0 1
  outer loop
   vertex 0.616667 -0.391667 1.16667
   vertex 0.616667 -0.541667 1.16667
   vertex 1.55 -0.391667 1.16667
  endloop
 endfacet
 facet normal 0 0 1
  outer loop
   vertex 1.55 -0.541667 1.16667
   vertex 1.55 -0.391667 1.16667
   vertex 0.616667 -0.541667 1.16667
  endloop
 endfacet
 facet normal 0 0 1
  outer loop
   vertex 1.7 -0.391667 1.16667
   vertex 1.7 -0.541667 1.16667
   vertex 2.63333 -0.391667 1.16667
  endloop
 endfacet
 facet normal 0 0 1
  outer loop
   vertex 2.63333 -0.541667 1.16667
   vertex 2.63333 -0.391667 1.16667
   vertex 1.7 -0.541667 1.16667
  endloop
 endfacet
 facet normal 0 0 1
  outer loop
   vertex 2.78333 -0.391667 1.16667
   vertex 2.78333 -0.541667 1.16667
   vertex 3.71667 -0.391667 1.16667
  endloop
 endfacet
 facet normal 0 0 1
  outer loop
   vertex 3.71667 -0.541667 1.16667
   vertex 3.71667 -0.391667 1.16667
   vertex 2.78333 -0.541667 1.16667
  endloop
 endfacet
 facet normal 0 0 1
  outer loop
   vertex 3.86667 -0.391667 1.16667
   vertex 3.86667 -0.541667 1.16667
   vertex 4.8 -0.391667 1.16667
  endloop
 endfacet
 facet normal 0 0 1
  outer loop
   vertex 4.8 -0.541667 1.16667
   vertex 4.8 -0.391667 1.16667
   vertex 3.86667 -0.541667 1.16667
  endloop
 endfacet
 facet normal 0 0 1
  outer loop
   vertex 4.95 -0.391667 1.16667
   vertex 4.95 -0.541667 1.16667
   vertex 5.88333 -0.391667 1.16667
  endloop
 endfacet
 facet normal 0 0 1
  outer loop
   vertex 5.88333 -0.541667 1.16667
   vertex 5.88333 -0.391667 1.16667
   vertex 4.95 -0.541667 1.16667
  endloop
 endfacet
 facet normal 0 0 1
  outer loop
   vertex 6.03333 -0.391667 1.16667
   vertex 6.03333 -0.541667 1.16667
   vertex 6.96667 -0.391667 1.16667
  endloop
 endfacet
 facet normal 0 0 1
  outer loop
   vertex 6.96667 -0.541667 1.16667
   vertex 6.96667 -0.391667 1.16667
   vertex 6.03333 -0.541667 1.16667
  endloop
 endfacet
 facet normal 0 0 1
  outer loop
   vertex 7.11667 -0.391667 1.16667
   vertex 7.11667 -0.541667 1.16667
   vertex 8.05 -0.391667 1.16667
  endloop
 endfacet
 facet normal 0 0 1
  outer loop
   vertex 8.05 -0.541667 1.16667
   vertex 8.05 -0.391667 1.16667
   vertex 7.11667 -0.541667 1.16667
  endloop
 endfacet
 facet normal 0 0 1
  outer loop
   vertex 8.2 -0.391667 1.16667
   vertex 8.2 -0.541667 1.16667
   vertex 9.13333 -0.391667 1.16667
  endloop
 endfacet
 facet normal 0 0 1
  outer loop
   vertex 9.13333 -0.541667 1.16667
   vertex 9.13333 -0.391667 1.16667
   vertex 8.2 -0.541667 1.16667
  endloop
 endfacet
 facet normal 0 0 1
  outer loop
   vertex 9.28333 -0.391667 1.16667
   vertex 9.28333 -0.541667 1.16667
   vertex 10.2167 -0.391667 1.16667
  endloop
 endfacet
 facet normal 0 0 1
  outer loop
   vertex 10.2167 -0.541667 1.16667
   vertex 10.2167 -0.391667 1.16667
   vertex 9.28333 -0.541667 1.16667
  endloop
 endfacet
 facet normal -0 0 1
  outer loop
   vertex 11.375 0.15 1.16667
   vertex 10.3667 -0.391667 1.16667
   vertex 11.375 -0.541667 1.16667
  endloop
 endfacet
 facet normal 0 0 1
  outer loop
   vertex 10.3667 -0.541667 1.16667
   vertex 11.375 -0.541667 1.16667
   vertex 10.3667 -0.391667 1.16667
  endloop
 endfacet
 facet normal 1 -0 0
  outer loop
   vertex 11.375 1 1.16667
   vertex 11.375 0.15 1.16667
   vertex 11.375 1 0.541667
  endloop
 endfacet
 facet normal 1 0 0
  outer loop
   vertex 11.375 -0.541667 1.16667
   vertex 11.375 1 0.541667
   vertex 11.375 0.15 1.16667
  endloop
 endfacet
 facet normal 1 0 -0
  outer loop
   vertex 11.375 0.15 1.31667
   vertex 11.375 1 1.16667
   vertex 11.375 1 1.31667
  endloop
 endfacet
 facet normal 1 0 0
  outer loop
   vertex 11.375 0.15 1.16667
   vertex 11.375 1 1.16667
   vertex 11.375 0.15 1.31667
  endloop
 endfacet
 facet normal 1 0 0
  outer loop
   vertex 0.466667 -0.541667 -1.16667
   vertex 0.466667 -0.391667 -0.541667
   vertex 0.466667 -0.541667 -0.541667
  endloop
 endfacet
 facet normal 1 0 0
  outer loop
   vertex 0.466667 -0.391667 -1.16667
   vertex 0.466667 -0.391667 -0.541667
   vertex 0.466667 -0.541667 -1.16667
  endloop
 endfacet
 facet normal -0 -1 0
  outer loop
   vertex 0.466667 -0.391667 -1.16667
   vertex 0.616667 -0.391667 -0.541667
   vertex 0.466667 -0.391667 -0.541667
  endloop
 endfacet
 facet normal 0 -1 -0
  outer loop
   vertex 0.616667 -0.391667 -1.16667
   vertex 0.616667 -0.391667 -0.541667
   vertex 0.466667 -0.391667 -1.16667
  endloop
 endfacet
 facet normal -1 0 0
  outer loop
   vertex 0.616667 -0.391667 -1.16667
   vertex 0.616667 -0.541667 -0.541667
   vertex 0.616667 -0.391667 -0.541667
  endloop
 endfacet
 facet normal -1 0 0
  outer loop
   vertex 0.616667 -0.541667 -1.16667
   vertex 0.616667 -0.541667 -0.541667
   vertex 0.616667 -0.391667 -1.16667
  endloop
 endfacet
 facet normal -0 -1 0
  outer loop
   vertex 0.616667 -0.541667 -1.16667
   vertex 1.55 -0.541667 -0.541667
   vertex 0.616667 -0.541667 -0.541667
  endloop
 endfacet
 facet normal 0 -1 -0
  outer loop
   vertex 1.55 -0.541667 -1.16667
   vertex 1.55 -0.541667 -0.541667
   vertex 0.616667 -0.541667 -1.16667
  endloop
 endfacet
 facet normal 1 0 0
  outer loop
   vertex 1.55 -0.541667 -1.16667
   vertex 1.55 -0.391667 -0.541667
   vertex 1.55 -0.541667 -0.541667
  endloop
 endfacet
 facet normal 1 0 0
  outer loop
   vertex 1.55 -0.391667 -1.16667
   vertex 1.55 -0.391667 -0.541667
   vertex 1.55 -0.541667 -1.16667
  endloop
 endfacet
 facet normal -0 -1 0
  outer loop
   vertex 1.55 -0.391667 -1.16667
   vertex 1.7 -0.391667 -0.541667
   vertex 1.55 -0.391667 -0.541667
  endloop
 endfacet
 facet normal 0 -1 -0
  outer loop
   vertex 1.7 -0.391667 -1.16667
   vertex 1.7 -0.391667 -0.541667
   vertex 1.55 -0.391667 -1.16667
  endloop
 endfacet
 facet normal -1 0 0
  outer loop
   vertex 1.7 -0.391667 -1.16667
   vertex 1.7 -0.541667 -0.541667
   vertex 1.7 -0.391667 -0.541667
  endloop
 endfacet
 facet normal -1 0 0
  outer loop
   vertex 1.7 -0.541667 -1.16667
   vertex 1.7 -0.541667 -0.541667
   vertex 1.7 -0.391667 -1.16667
  endloop
 endfacet
 facet normal -0 -1 0
  outer loop
   vertex 1.7 -0.541667 -1.16667
   vertex 2.63333 -0.541667 -0.541667
   vertex 1.7 -0.541667 -0.541667
  endloop
 endfacet
 facet normal 0 -1 -0
  outer loop
   vertex 2.63333 -0.541667 -1.16667
   vertex 2.63333 -0.541667 -0.541667
   vertex 1.7 -0.541667 -1.16667
  endloop
 endfacet
 facet normal 1 0 0
  outer loop
   vertex 2.63333 -0.541667 -1.16667
   vertex 2.63333 -0.391667 -0.541667
   vertex 2.63333 -0.541667 -0.541667
  endloop
 endfacet
 facet normal 1 0 0
  outer loop
   vertex 2.63333 -0.391667 -1.16667
   vertex 2.63333 -0.391667 -0.541667
   vertex 2.63333 -0.541667 -1.16667
  endloop
 endfacet
 facet normal -0 -1 0
  outer loop
   vertex 2.63333 -0.391667 -1.16667
   vertex 2.78333 -0.391667 -0.541667
   vertex 2.63333 -0.391667 -0.541667
  endloop
 endfacet
 facet normal 0 -1 -0
  outer loop
   vertex 2.78333 -0.391667 -1.16667
   vertex 2.78333 -0.391667 -0.541667
   vertex 2.63333 -0.391667 -1.16667
  endloop
 endfacet
 facet normal -1 0 0
  outer loop
   vertex 2.78333 -0.391667 -1.16667
   vertex 2.78333 -0.541667 -0.541667
   vertex 2.78333 -0.391667 -0.541667
  endloop
 endfacet
 facet normal -1 0 0
  outer loop
   vertex 2.78333 -0.541667 -1.16667
   vertex 2.78333 -0.541667 -0.541667
   vertex 2.78333 -0.391667 -1.16667
  endloop
 endfacet
 facet normal -0 -1 0
  outer loop
   vertex 2.78333 -0.541667 -1.16667
   vertex 3.71667 -0.541667 -0.541667
   vertex 2.78333 -0.541667 -0.541667
  endloop
 endfacet
 facet normal 0 -1 -0
  outer loop
   vertex 3.71667 -0.541667 -1.16667
   vertex 3.71667 -0.541667 -0.541667
   vertex 2.78333 -0.541667 -1.16667
  endloop
 endfacet
 facet normal 1 0 0
  outer loop
   vertex 3.71667 -0.541667 -1.16667
   vertex 3.71667 -0.391667 -0.541667
   vertex 3.71667 -0.541667 -0.541667
  endloop
 endfacet
 facet normal 1 0 0
  outer loop
   vertex 3.71667 -0.391667 -1.16667
   vertex 3.71667 -0.391667 -0.541667
   vertex 3.71667 -0.541667 -1.16667
  endloop
 endfacet
 facet normal -0 -1 0
  outer loop
   vertex 3.71667 -0.391667 -1.16667
   vertex 3.86667 -0.391667 -0.541667
   vertex 3.71667 -0.391667 -0.541667
  endloop
 endfacet
 facet normal 0 -1 -0
  outer loop
   vertex 3.86667 -0.391667 -1.16667
   vertex 3.86667 -0.391667 -0.541667
   vertex 3.71667 -0.391667 -1.16667
  endloop
 endfacet
 facet normal -1 0 0
  outer loop
   vertex 3.86667 -0.391667 -1.16667
   vertex 3.86667 -0.541667 -0.541667
   vertex 3.86667 -0.391667 -0.541667
  endloop
 endfacet
 facet normal -1 0 0
  outer loop
   vertex 3.86667 -0.541667 -1.16667
   vertex 3.86667 -0.541667 -0.541667
   vertex 3.86667 -0.391667 -1.16667
  endloop
 endfacet
 facet normal -0 -1 0
  outer loop
   vertex 3.86667 -0.541667 -1.16667
   vertex 4.8 -0.541667 -0.541667
   vertex 3.86667 -0.541667 -0.541667
  endloop
 endfacet
 facet normal 0 -1 -0
  outer loop
   vertex 4.8 -0.541667 -1.16667
   vertex 4.8 -0.541667 -0.541667
   vertex 3.86667 -0.541667 -1.16667
  endloop
 endfacet
 facet normal 1 0 0
  outer loop
   vertex 4.8 -0.541667 -1.16667
   vertex 4.8 -0.391667 -0.541667
   vertex 4.8 -0.541667 -0.541667
  endloop
 endfacet
 facet normal 1 0 0
  outer loop
   vertex 4.8 -0.391667 -1.16667
   vertex 4.8 -0.391667 -0.541667
   vertex 4.8 -0.541667 -1.16667
  endloop
 endfacet
 facet normal -0 -1 0
  outer loop
   vertex 4.8 -0.391667 -1.16667
   vertex 4.95 -0.391667 -0.541667
   vertex 4.8 -0.391667 -0.541667
  endloop
 endfacet
 facet normal 0 -1 -0
  outer loop
   vertex 4.95 -0.391667 -1.16667
   vertex 4.95 -0.391667 -0.541667
   vertex 4.8 -0.391667 -1.16667
  endloop
 endfacet
 facet normal -1 0 0
  outer loop
   vertex 4.95 -0.391667 -1.16667
   vertex 4.95 -0.541667 -0.541667
   vertex 4.95 -0.391667 -0.541667
  endloop
 endfacet
 facet normal -1 0 0
  outer loop
   vertex 4.95 -0.541667 -1.16667
   vertex 4.95 -0.541667 -0.541667
   vertex 4.95 -0.391667 -1.16667
  endloop
 endfacet
 facet normal -0 -1 0
  outer loop
   vertex 4.95 -0.541667 -1.16667
   vertex 5.88333 -0.541667 -0.541667
   vertex 4.95 -0.541667 -0.541667
  endloop
 endfacet
 facet normal 0 -1 -0
  outer loop
   vertex 5.88333 -0.541667 -1.16667
   vertex 5.88333 -0.541667 -0.541667
   vertex 4.95 -0.541667 -1.16667
  endloop
 endfacet
 facet normal 1 0 0
  outer loop
   vertex 5.88333 -0.541667 -1.16667
   vertex 5.88333 -0.391667 -0.541667
   vertex 5.88333 -0.541667 -0.541667
  endloop
 endfacet
 facet normal 1 0 0
  outer loop
   vertex 5.88333 -0.391667 -1.16667
   vertex 5.88333 -0.391667 -0.541667
   vertex 5.88333 -0.541667 -1.16667
  endloop
 endfacet
 facet normal -0 -1 0
  outer loop
   vertex 5.88333 -0.391667 -1.16667
   vertex 6.03333 -0.391667 -0.541667
   vertex 5.88333 -0.391667 -0.541667
  endloop
 endfacet
 facet normal 0 -1 -0
  outer loop
   vertex 6.03333 -0.391667 -1.16667
   vertex 6.03333 -0.391667 -0.541667
   vertex 5.88333 -0.391667 -1.16667
  endloop
 endfacet
 facet normal -1 0 0
  outer loop
   vertex 6.03333 -0.391667 -1.16667
   vertex 6.03333 -0.541667 -0.541667
   vertex 6.03333 -0.391667 -0.541667
  endloop
 endfacet
 facet normal -1 0 0
  outer loop
   vertex 6.03333 -0.541667 -1.16667
   vertex 6.03333 -0.541667 -0.541667
   vertex 6.03333 -0.391667 -1.16667
  endloop
 endfacet
 facet normal -0 -1 0
  outer loop
   vertex 6.03333 -0.541667 -1.16667
   vertex 6.96667 -0.541667 -0.541667
   vertex 6.03333 -0.541667 -0.541667
  endloop
 endfacet
 facet normal 0 -1 -0
  outer loop
   vertex 6.96667 -0.541667 -1.16667
   vertex 6.96667 -0.541667 -0.541667
   vertex 6.03333 -0.541667 -1.16667
  endloop
 endfacet
 facet normal 1 0 0
  outer loop
   vertex 6.96667 -0.541667 -1.16667
   vertex 6.96667 -0.391667 -0.541667
   vertex 6.96667 -0.541667 -0.541667
  endloop
 endfacet
 facet normal 1 0 0
  outer loop
   vertex 6.96667 -0.391667 -1.16667
   vertex 6.96667 -0.391667 -0.541667
   vertex 6.96667 -0.541667 -1.16667
  endloop
 endfacet
 facet normal -0 -1 0
  outer loop
   vertex 6.96667 -0.391667 -1.16667
   vertex 7.11667 -0.391667 -0.541667
   vertex 6.96667 -0.391667 -0.541667
  endloop
 endfacet
 facet normal 0 -1 -0
  outer loop
   vertex 7.11667 -0.391667 -1.16667
   vertex 7.11667 -0.391667 -0.541667
   vertex 6.96667 -0.391667 -1.16667
  endloop
 endfacet
 facet normal -1 0 0
  outer loop
   vertex 7.11667 -0.391667 -1.16667
   vertex 7.11667 -0.541667 -0.541667
   vertex 7.11667 -0.391667 -0.541667
  endloop
 endfacet
 facet normal -1 0 0
  outer loop
   vertex 7.11667 -0.541667 -1.16667
   vertex 7.11667 -0.541667 -0.541667
   vertex 7.11667 -0.391667 -1.16667
  endloop
 endfacet
 facet normal -0 -1 0
  outer loop
   vertex 7.11667 -0.541667 -1.16667
   vertex 8.05 -0.541667 -0.541667
   vertex 7.11667 -0.541667 -0.541667
  endloop
 endfacet
 facet normal 0 -1 -0
  outer loop
   vertex 8.05 -0.541667 -1.16667
   vertex 8.05 -0.541667 -0.541667
   vertex 7.11667 -0.541667 -1.16667
  endloop
 endfacet
 facet normal 1 0 0
  outer loop
   vertex 8.05 -0.541667 -1.16667
   vertex 8.05 -0.391667 -0.541667
   vertex 8.05 -0.541667 -0.541667
  endloop
 endfacet
 facet normal 1 0 0
  outer loop
   vertex 8.05 -0.391667 -1.16667
   vertex 8.05 -0.391667 -0.541667
   vertex 8.05 -0.541667 -1.16667
  endloop
 endfacet
 facet normal -0 -1 0
  outer loop
   vertex 8.05 -0.391667 -1.16667
   vertex 8.2 -0.391667 -0.541667
   vertex 8.05 -0.391667 -0.541667
  endloop
 endfacet
 facet normal 0 -1 -0
  outer loop
   vertex 8.2 -0.391667 -1.16667
   vertex 8.2 -0.391667 -0.541667
   vertex 8.05 -0.391667 -1.16667
  endloop
 endfacet
 facet normal -1 0 0
  outer loop
   vertex 8.2 -0.391667 -1.16667
   vertex 8.2 -0.541667 -0.541667
   vertex 8.2 -0.391667 -0.541667
  endloop
 endfacet
 facet normal -1 0 0
  outer loop
   vertex 8.2 -0.541667 -1.16667
   vertex 8.2 -0.541667 -0.541667
   vertex 8.2 -0.391667 -1.16667
  endloop
 endfacet
 facet normal -0 -1 0
  outer loop
   vertex 8.2 -0.541667 -1.16667
   vertex 9.13333 -0.541667 -0.541667
   vertex 8.2 -0.541667 -0.541667
  endloop
 endfacet
 facet normal 0 -1 -0
  outer loop
   vertex 9.13333 -0.541667 -1.16667
   vertex 9.13333 -0.541667 -0.541667
   vertex 8.2 -0.541667 -1.16667
  endloop
 endfacet
 facet normal 1 0 0
  outer loop
   vertex 9.13333 -0.541667 -1.16667
   vertex 9.13333 -0.391667 -0.541667
   vertex 9.13333 -0.541667 -0.541667
  endloop
 endfacet
 facet normal 1 0 0
  outer loop
   vertex 9.13333 -0.391667 -1.16667
   vertex 9.13333 -0.391667 -0.541667
   vertex 9.13333 -0.541667 -1.16667
  endloop
 endfacet
 facet normal -0 -1 0
  outer loop
   vertex 9.13333 -0.391667 -1.16667
   vertex 9.28333 -0.391667 -0.541667
   vertex 9.13333 -0.391667 -0.541667
  endloop
 endfacet
 facet normal 0 -1 -0
  outer loop
   vertex 9.28333 -0.391667 -1.16667
   vertex 9.28333 -0.391667 -0.541667
   vertex 9.13333 -0.391667 -1.16667
  endloop
 endfacet
 facet normal -1 0 0
  outer loop
   vertex 9.28333 -0.391667 -1.16667
   vertex 9.28333 -0.541667 -0.541667
   vertex 9.28333 -0.391667 -0.541667
  endloop
 endfacet
 facet normal -1 0 0
  outer loop
   vertex 9.28333 -0.541667 -1.16667
   vertex 9.28333 -0.541667 -0.541667
   vertex 9.28333 -0.391667 -1.16667
  endloop
 endfacet
 facet normal -0 -1 0
  outer loop
   vertex 9.28333 -0.541667 -1.16667
   vertex 10.2167 -0.541667 -0.541667
   vertex 9.28333 -0.541667 -0.541667
  endloop
 endfacet
 facet normal 0 -1 -0
  outer loop
   vertex 10.2167 -0.541667 -1.16667
   vertex 10.2167 -0.541667 -0.541667
   vertex 9.28333 -0.541667 -1.16667
  endloop
 endfacet
 facet normal 1 0 0
  outer loop
   vertex 10.2167 -0.541667 -1.16667
   vertex 10.2167 -0.391667 -0.541667
   vertex 10.2167 -0.541667 -0.541667
  endloop
 endfacet
 facet normal 1 0 0
  outer loop
   vertex 10.2167 -0.391667 -1.16667
   vertex 10.2167 -0.391667 -0.541667
   vertex 10.2167 -0.541667 -1.16667
  endloop
 endfacet
 facet normal -0 -1 0
  outer loop
   vertex 10.2167 -0.391667 -1.16667
   vertex 10.3667 -0.391667 -0.541667
   vertex 10.2167 -0.391667 -0.541667
  endloop
 endfacet
 facet normal 0 -1 -0
  outer loop
   vertex 10.3667 -0.391667 -1.16667
   vertex 10.3667 -0.391667 -0.541667
   vertex 10.2167 -0.391667 -1.16667
  endloop
 endfacet
 facet normal -1 0 0
  outer loop
   vertex 10.3667 -0.391667 -1.16667
   vertex 10.3667 -0.541667 -0.541667
   vertex 10.3667 -0.391667 -0.541667
  endloop
 endfacet
 facet normal -1 0 0
  outer loop
   vertex 10.3667 -0.541667 -1.16667
   vertex 10.3667 -0.541667 -0.541667
   vertex 10.3667 -0.391667 -1.16667
  endloop
 endfacet
 facet normal -0 -1 0
  outer loop
   vertex 10.3667 -0.541667 -1.16667
   vertex 11.375 -0.541667 -0.541667
   vertex 10.3667 -0.541667 -0.541667
  endloop
 endfacet
 facet normal 0 -1 -0
  outer loop
   vertex 11.375 -0.541667 -1.16667
   vertex 11.375 -0.541667 -0.541667
   vertex 10.3667 -0.541667 -1.16667
  endloop
 endfacet
 facet normal 0 -1 -0
  outer loop
   vertex 0.466667 -0.541667 -1.16667
   vertex 0.466667 -0.541667 -0.541667
   vertex -0.541667 -0.541667 -1.16667
  endloop
 endfacet
 facet normal 0 0 -1
  outer loop
   vertex 11.375 0.15 -1.16667
   vertex 11.375 -0.541667 -1.16667
   vertex 10.3667 -0.391667 -1.16667
  endloop
 endfacet
 facet normal 0 0 -1
  outer loop
   vertex 10.3667 -0.541667 -1.16667
   vertex 10.3667 -0.391667 -1.16667
   vertex 11.375 -0.541667 -1.16667
  endloop
 endfacet
 facet normal 0 0 -1
  outer loop
   vertex 10.2167 -0.391667 -1.16667
   vertex 10.2167 -0.541667 -1.16667
   vertex 9.28333 -0.391667 -1.16667
  endloop
 endfacet
 facet normal 0 0 -1
  outer loop
   vertex 9.28333 -0.541667 -1.16667
   vertex 9.28333 -0.391667 -1.16667
   vertex 10.2167 -0.541667 -1.16667
  endloop
 endfacet
 facet normal 0 0 -1
  outer loop
   vertex 9.13333 -0.391667 -1.16667
   vertex 9.13333 -0.541667 -1.16667
   vertex 8.2 -0.391667 -1.16667
  endloop
 endfacet
 facet normal 0 0 -1
  outer loop
   vertex 8.2 -0.541667 -1.16667
   vertex 8.2 -0.391667 -1.16667
   vertex 9.13333 -0.541667 -1.16667
  endloop
 endfacet
 facet normal 0 0 -1
  outer loop
   vertex 8.05 -0.391667 -1.16667
   vertex 8.05 -0.541667 -1.16667
   vertex 7.11667 -0.391667 -1.16667
  endloop
 endfacet
 facet normal 0 0 -1
  outer loop
   vertex 7.11667 -0.541667 -1.16667
   vertex 7.11667 -0.391667 -1.16667
   vertex 8.05 -0.541667 -1.16667
  endloop
 endfacet
 facet normal 0 0 -1
  outer loop
   vertex 6.96667 -0.391667 -1.16667
   vertex 6.96667 -0.541667 -1.16667
   vertex 6.03333 -0.391667 -1.16667
  endloop
 endfacet
 facet normal 0 0 -1
  outer loop
   vertex 6.03333 -0.541667 -1.16667
   vertex 6.03333 -0.391667 -1.16667
   vertex 6.96667 -0.541667 -1.16667
  endloop
 endfacet
 facet normal 0 0 -1
  outer loop
   vertex 5.88333 -0.391667 -1.16667
   vertex 5.88333 -0.541667 -1.16667
   vertex 4.95 -0.391667 -1.16667
  endloop
 endfacet
 facet normal 0 0 -1
  outer loop
   vertex 4.95 -0.541667 -1.16667
   vertex 4.95 -0.391667 -1.16667
   vertex 5.88333 -0.541667 -1.16667
  endloop
 endfacet
 facet normal 0 0 -1
  outer loop
   vertex 4.8 -0.391667 -1.16667
   vertex 4.8 -0.541667 -1.16667
   vertex 3.86667 -0.391667 -1.16667
  endloop
 endfacet
 facet normal 0 0 -1
  outer loop
   vertex 3.86667 -0.541667 -1.16667
   vertex 3.86667 -0.391667 -1.16667
   vertex 4.8 -0.541667 -1.16667
  endloop
 endfacet
 facet normal 0 0 -1
  outer loop
   vertex 3.71667 -0.391667 -1.16667
   vertex 3.71667 -0.541667 -1.16667
   vertex 2.78333 -0.391667 -1.16667
  endloop
 endfacet
 facet normal 0 0 -1
  outer loop
   vertex 2.78333 -0.541667 -1.16667
   vertex 2.78333 -0.391667 -1.16667
   vertex 3.71667 -0.541667 -1.16667
  endloop
 endfacet
 facet normal 0 0 -1
  outer loop
   vertex 2.63333 -0.391667 -1.16667
   vertex 2.63333 -0.541667 -1.16667
   vertex 1.7 -0.391667 -1.16667
  endloop
 endfacet
 facet normal 0 0 -1
  outer loop
   vertex 1.7 -0.541667 -1.16667
   vertex 1.7 -0.391667 -1.16667
   vertex 2.63333 -0.541667 -1.16667
  endloop
 endfacet
 facet normal 0 0 -1
  outer loop
   vertex 1.55 -0.391667 -1.16667
   vertex 1.55 -0.541667 -1.16667
   vertex 0.616667 -0.391667 -1.16667
  endloop
 endfacet
 facet normal 0 0 -1
  outer loop
   vertex 0.616667 -0.541667 -1.16667
   vertex 0.616667 -0.391667 -1.16667
   vertex 1.55 -0.541667 -1.16667
  endloop
 endfacet
 facet normal 1 0 0
  outer loop
   vertex 11.375 1 -1.16667
   vertex 11.375 1 -0.541667
   vertex 11.375 0.15 -1.16667
  endloop
 endfacet
 facet normal 1 0 -0
  outer loop
   vertex 11.375 -0.541667 -1.16667
   vertex 11.375 0.15 -1.16667
   vertex 11.375 1 -0.541667
  endloop
 endfacet
 facet normal 1 0 0
  outer loop
   vertex 11.375 1 -1.31667
   vertex 11.375 1 -1.16667
   vertex 11.375 0.15 -1.31667
  endloop
 endfacet
 facet normal 1 0 0
  outer loop
   vertex 11.375 0.15 -1.31667
   vertex 11.375 1 -1.16667
   vertex 11.375 0.15 -1.16667
  endloop
 endfacet
 facet normal -1.0366e-07 1.0366e-07 -1
  outer loop
   vertex 0.866667 0.433333 0.541667
   vertex 0.616667 -0.391667 0.541667
   vertex 0.433333 0 0.541667
  endloop
 endfacet
 facet normal 0 1.52182e-07 -1
  outer loop
   vertex 0.466667 -0.391667 0.541667
   vertex 0.433333 0 0.541667
   vertex 0.616667 -0.391667 0.541667
  endloop
 endfacet
 facet normal 5.54462e-08 5.54462e-08 -1
  outer loop
   vertex 0.866667 0.433333 0.541667
   vertex 1.3 0 0.541667
   vertex 0.616667 -0.391667 0.541667
  endloop
 endfacet
 facet normal 0 1.52182e-07 -1
  outer loop
   vertex 1.3 0 0.541667
   vertex 1.55 -0.391667 0.541667
   vertex 0.616667 -0.391667 0.541667
  endloop
 endfacet
 facet normal 0 0 -1
  outer loop
   vertex 0.616667 -0.541667 0.541667
   vertex 0.616667 -0.391667 0.541667
   vertex 1.55 -0.541667 0.541667
  endloop
 endfacet
 facet normal 0 0 -1
  outer loop
   vertex 1.55 -0.391667 0.541667
   vertex 1.55 -0.541667 0.541667
   vertex 0.616667 -0.391667 0.541667
  endloop
 endfacet
 facet normal 6.94423e-08 6.94423e-08 -1
  outer loop
   vertex 2.16667 0 0.541667
   vertex 1.7 -0.391667 0.541667
   vertex 1.73333 0.433333 0.541667
  endloop
 endfacet
 facet normal -7.52901e-08 7.52901e-08 -1
  outer loop
   vertex 1.73333 0.433333 0.541667
   vertex 1.7 -0.391667 0.541667
   vertex 1.3 0 0.541667
  endloop
 endfacet
 facet normal 0 1.52182e-07 -1
  outer loop
   vertex 1.55 -0.391667 0.541667
   vertex 1.3 0 0.541667
   vertex 1.7 -0.391667 0.541667
  endloop
 endfacet
 facet normal 0 1.52182e-07 -1
  outer loop
   vertex 2.16667 0 0.541667
   vertex 2.63333 -0.391667 0.541667
   vertex 1.7 -0.391667 0.541667
  endloop
 endfacet
 facet normal 0 0 -1
  outer loop
   vertex 2.63333 -0.541667 0.541667
   vertex 1.7 -0.541667 0.541667
   vertex 2.63333 -0.391667 0.541667
  endloop
 endfacet
 facet normal -0 0 -1
  outer loop
   vertex 1.7 -0.391667 0.541667
   vertex 2.63333 -0.391667 0.541667
   vertex 1.7 -0.541667 0.541667
  endloop
 endfacet
 facet normal -6.94423e-08 6.94423e-08 -1
  outer loop
   vertex 2.16667 0 0.541667
   vertex 2.6 0.433333 0.541667
   vertex 2.63333 -0.391667 0.541667
  endloop
 endfacet
 facet normal 7.52901e-08 7.52901e-08 -1
  outer loop
   vertex 2.6 0.433333 0.541667
   vertex 3.03333 0 0.541667
   vertex 2.63333 -0.391667 0.541667
  endloop
 endfacet
 facet normal 0 1.52182e-07 -1
  outer loop
   vertex 2.78333 -0.391667 0.541667
   vertex 2.63333 -0.391667 0.541667
   vertex 3.03333 0 0.541667
  endloop
 endfacet
 facet normal 0 0 -1
  outer loop
   vertex 3.46667 0.433333 0.541667
   vertex 3.9 0 0.541667
   vertex 3.03333 0 0.541667
  endloop
 endfacet
 facet normal 0 1.52182e-07 -1
  outer loop
   vertex 2.78333 -0.391667 0.541667
   vertex 3.03333 0 0.541667
   vertex 3.71667 -0.391667 0.541667
  endloop
 endfacet
 facet normal 0 1.52182e-07 -1
  outer loop
   vertex 3.03333 0 0.541667
   vertex 3.9 0 0.541667
   vertex 3.71667 -0.391667 0.541667
  endloop
 endfacet
 facet normal 0 1.52182e-07 -1
  outer loop
   vertex 3.86667 -0.391667 0.541667
   vertex 3.71667 -0.391667 0.541667
   vertex 3.9 0 0.541667
  endloop
 endfacet
 facet normal 0 0 -1
  outer loop
   vertex 4.33333 0.433333 0.541667
   vertex 4.76667 0 0.541667
   vertex 3.9 0 0.541667
  endloop
 endfacet
 facet normal 0 1.52182e-07 -1
  outer loop
   vertex 4.76667 0 0.541667
   vertex 4.8 -0.391667 0.541667
   vertex 3.9 0 0.541667
  endloop
 endfacet
 facet normal 0 1.52182e-07 -1
  outer loop
   vertex 3.9 0 0.541667
   vertex 4.8 -0.391667 0.541667
   vertex 3.86667 -0.391667 0.541667
  endloop
 endfacet
 facet normal 0 0 -1
  outer loop
   vertex 4.8 -0.541667 0.541667
   vertex 3.86667 -0.541667 0.541667
   vertex 4.8 -0.391667 0.541667
  endloop
 endfacet
 facet normal -0 0 -1
  outer loop
   vertex 3.86667 -0.391667 0.541667
   vertex 4.8 -0.391667 0.541667
   vertex 3.86667 -0.541667 0.541667
  endloop
 endfacet
 facet normal -1.0366e-07 1.0366e-07 -1
  outer loop
   vertex 5.2 0.433333 0.541667
   vertex 4.95 -0.391667 0.541667
   vertex 4.76667 0 0.541667
  endloop
 endfacet
 facet normal 0 1.52182e-07 -1
  outer loop
   vertex 4.8 -0.391667 0.541667
   vertex 4.76667 0 0.541667
   vertex 4.95 -0.391667 0.541667
  endloop
 endfacet
 facet normal 5.54462e-08 5.54462e-08 -1
  outer loop
   vertex 5.2 0.433333 0.541667
   vertex 5.63333 0 0.541667
   vertex 4.95 -0.391667 0.541667
  endloop
 endfacet
 facet normal 0 1.52182e-07 -1
  outer loop
   vertex 5.63333 0 0.541667
   vertex 5.88333 -0.391667 0.541667
   vertex 4.95 -0.391667 0.541667
  endloop
 endfacet
 facet normal 0 0 -1
  outer loop
   vertex 4.95 -0.541667 0.541667
   vertex 4.95 -0.391667 0.541667
   vertex 5.88333 -0.541667 0.541667
  endloop
 endfacet
 facet normal 0 0 -1
  outer loop
   vertex 5.88333 -0.391667 0.541667
   vertex 5.88333 -0.541667 0.541667
   vertex 4.95 -0.391667 0.541667
  endloop
 endfacet
 facet normal 6.94423e-08 6.94423e-08 -1
  outer loop
   vertex 6.5 0 0.541667
   vertex 6.03333 -0.391667 0.541667
   vertex 6.06667 0.433333 0.541667
  endloop
 endfacet
 facet normal -7.52901e-08 7.52901e-08 -1
  outer loop
   vertex 6.06667 0.433333 0.541667
   vertex 6.03333 -0.391667 0.541667
   vertex 5.63333 0 0.541667
  endloop
 endfacet
 facet normal 0 1.52182e-07 -1
  outer loop
   vertex 5.88333 -0.391667 0.541667
   vertex 5.63333 0 0.541667
   vertex 6.03333 -0.391667 0.541667
  endloop
 endfacet
 facet normal 0 1.52182e-07 -1
  outer loop
   vertex 6.5 0 0.541667
   vertex 6.96667 -0.391667 0.541667
   vertex 6.03333 -0.391667 0.541667
  endloop
 endfacet
 facet normal 0 0 -1
  outer loop
   vertex 6.96667 -0.541667 0.541667
   vertex 6.03333 -0.541667 0.541667
   vertex 6.96667 -0.391667 0.541667
  endloop
 endfacet
 facet normal -0 0 -1
  outer loop
   vertex 6.03333 -0.391667 0.541667
   vertex 6.96667 -0.391667 0.541667
   vertex 6.03333 -0.541667 0.541667
  endloop
 endfacet
 facet normal -6.94423e-08 6.94423e-08 -1
  outer loop
   vertex 6.5 0 0.541667
   vertex 6.93333 0.433333 0.541667
   vertex 6.96667 -0.391667 0.541667
  endloop
 endfacet
 facet normal 7.52901e-08 7.52901e-08 -1
  outer loop
   vertex 6.93333 0.433333 0.541667
   vertex 7.36667 0 0.541667
   vertex 6.96667 -0.391667 0.541667
  endloop
 endfacet
 facet normal 0 1.52182e-07 -1
  outer loop
   vertex 7.11667 -0.391667 0.541667
   vertex 6.96667 -0.391667 0.541667
   vertex 7.36667 0 0.541667
  endloop
 endfacet
 facet normal 0 0 -1
  outer loop
   vertex 7.8 0.433333 0.541667
   vertex 8.23333 0 0.541667
   vertex 7.36667 0 0.541667
  endloop
 endfacet
 facet normal 0 1.52182e-07 -1
  outer loop
   vertex 7.11667 -0.391667 0.541667
   vertex 7.36667 0 0.541667
   vertex 8.05 -0.391667 0.541667
  endloop
 endfacet
 facet normal 0 1.52182e-07 -1
  outer loop
   vertex 7.36667 0 0.541667
   vertex 8.23333 0 0.541667
   vertex 8.05 -0.391667 0.541667
  endloop
 endfacet
 facet normal 0 1.52182e-07 -1
  outer loop
   vertex 8.05 -0.391667 0.541667
   vertex 8.23333 0 0.541667
   vertex 8.2 -0.391667 0.541667
  endloop
 endfacet
 facet normal 0 0 -1
  outer loop
   vertex 8.66667 0.433333 0.541667
   vertex 9.1 0 0.541667
   vertex 8.23333 0 0.541667
  endloop
 endfacet
 facet normal 0 1.52182e-07 -1
  outer loop
   vertex 9.1 0 0.541667
   vertex 9.13333 -0.391667 0.541667
   vertex 8.23333 0 0.541667
  endloop
 endfacet
 facet normal 0 1.52182e-07 -1
  outer loop
   vertex 8.23333 0 0.541667
   vertex 9.13333 -0.391667 0.541667
   vertex 8.2 -0.391667 0.541667
  endloop
 endfacet
 facet normal 0 0 -1
  outer loop
   vertex 9.13333 -0.541667 0.541667
   vertex 8.2 -0.541667 0.541667
   vertex 9.13333 -0.391667 0.541667
  endloop
 endfacet
 facet normal -0 0 -1
  outer loop
   vertex 8.2 -0.391667 0.541667
   vertex 9.13333 -0.391667 0.541667
   vertex 8.2 -0.541667 0.541667
  endloop
 endfacet
 facet normal -1.0366e-07 1.0366e-07 -1
  outer loop
   vertex 9.53333 0.433333 0.541667
   vertex 9.28333 -0.391667 0.541667
   vertex 9.1 0 0.541667
  endloop
 endfacet
 facet normal 0 1.52182e-07 -1
  outer loop
   vertex 9.13333 -0.391667 0.541667
   vertex 9.1 0 0.541667
   vertex 9.28333 -0.391667 0.541667
  endloop
 endfacet
 facet normal 5.54463e-08 5.54462e-08 -1
  outer loop
   vertex 9.53333 0.433333 0.541667
   vertex 9.96667 0 0.541667
   vertex 9.28333 -0.391667 0.541667
  endloop
 endfacet
 facet normal 0 1.52182e-07 -1
  outer loop
   vertex 9.96667 0 0.541667
   vertex 10.2167 -0.391667 0.541667
   vertex 9.28333 -0.391667 0.541667
  endloop
 endfacet
 facet normal 0 0 -1
  outer loop
   vertex 9.28333 -0.541667 0.541667
   vertex 9.28333 -0.391667 0.541667
   vertex 10.2167 -0.541667 0.541667
  endloop
 endfacet
 facet normal 0 0 -1
  outer loop
   vertex 10.2167 -0.391667 0.541667
   vertex 10.2167 -0.541667 0.541667
   vertex 9.28333 -0.391667 0.541667
  endloop
 endfacet
 facet normal -7.529e-08 7.529e-08 -1
  outer loop
   vertex 10.4 0.433333 0.541667
   vertex 10.3667 -0.391667 0.541667
   vertex 9.96667 0 0.541667
  endloop
 endfacet
 facet normal 0 1.52182e-07 -1
  outer loop
   vertex 10.2167 -0.391667 0.541667
   vertex 9.96667 0 0.541667
   vertex 10.3667 -0.391667 0.541667
  endloop
 endfacet
 facet normal 6.94423e-08 6.94423e-08 -1
  outer loop
   vertex 10.4 0.433333 0.541667
   vertex 10.8333 0 0.541667
   vertex 10.3667 -0.391667 0.541667
  endloop
 endfacet
 facet normal 1.27724e-07 0 -1
  outer loop
   vertex 10.3667 -0.541667 0.541667
   vertex 10.3667 -0.391667 0.541667
   vertex 10.8333 0 0.541667
  endloop
 endfacet
 facet normal 0 1.10039e-07 -1
  outer loop
   vertex 10.3667 -0.541667 0.541667
   vertex 10.8333 0 0.541667
   vertex 11.375 -0.541667 0.541667
  endloop
 endfacet
 facet normal -1.10039e-07 0 -1
  outer loop
   vertex 11.375 -0.541667 0.541667
   vertex 10.8333 0 0.541667
   vertex 11.375 0.325 0.541667
  endloop
 endfacet
 facet normal -2.75098e-07 2.75098e-07 -1
  outer loop
   vertex 10.8333 0 0.541667
   vertex 11.2667 0.433333 0.541667
   vertex 11.375 0.325 0.541667
  endloop
 endfacet
 facet normal 0 0 -1
  outer loop
   vertex 8.05 -0.391667 0.541667
   vertex 8.05 -0.541667 0.541667
   vertex 7.11667 -0.391667 0.541667
  endloop
 endfacet
 facet normal 0 0 -1
  outer loop
   vertex 7.11667 -0.541667 0.541667
   vertex 7.11667 -0.391667 0.541667
   vertex 8.05 -0.541667 0.541667
  endloop
 endfacet
 facet normal 0 0 -1
  outer loop
   vertex 3.71667 -0.391667 0.541667
   vertex 3.71667 -0.541667 0.541667
   vertex 2.78333 -0.391667 0.541667
  endloop
 endfacet
 facet normal 0 0 -1
  outer loop
   vertex 2.78333 -0.541667 0.541667
   vertex 2.78333 -0.391667 0.541667
   vertex 3.71667 -0.541667 0.541667
  endloop
 endfacet
 facet normal -0 0 1
  outer loop
   vertex 0.866667 0.433333 -0.541667
   vertex 0.433333 0 -0.541667
   vertex 0.616667 -0.391667 -0.541667
  endloop
 endfacet
 facet normal 0 0 1
  outer loop
   vertex 0.466667 -0.391667 -0.541667
   vertex 0.616667 -0.391667 -0.541667
   vertex 0.433333 0 -0.541667
  endloop
 endfacet
 facet normal 0 0 1
  outer loop
   vertex 0.866667 0.433333 -0.541667
   vertex 0.616667 -0.391667 -0.541667
   vertex 1.3 0 -0.541667
  endloop
 endfacet
 facet normal 0 0 1
  outer loop
   vertex 1.3 0 -0.541667
   vertex 0.616667 -0.391667 -0.541667
   vertex 1.55 -0.391667 -0.541667
  endloop
 endfacet
 facet normal 0 0 1
  outer loop
   vertex 0.616667 -0.541667 -0.541667
   vertex 1.55 -0.541667 -0.541667
   vertex 0.616667 -0.391667 -0.541667
  endloop
 endfacet
 facet normal -0 0 1
  outer loop
   vertex 1.55 -0.391667 -0.541667
   vertex 0.616667 -0.391667 -0.541667
   vertex 1.55 -0.541667 -0.541667
  endloop
 endfacet
 facet normal 0 0 1
  outer loop
   vertex 2.16667 0 -0.541667
   vertex 1.73333 0.433333 -0.541667
   vertex 1.7 -0.391667 -0.541667
  endloop
 endfacet
 facet normal -0 0 1
  outer loop
   vertex 1.73333 0.433333 -0.541667
   vertex 1.3 0 -0.541667
   vertex 1.7 -0.391667 -0.541667
  endloop
 endfacet
 facet normal 0 0 1
  outer loop
   vertex 1.55 -0.391667 -0.541667
   vertex 1.7 -0.391667 -0.541667
   vertex 1.3 0 -0.541667
  endloop
 endfacet
 facet normal 0 0 1
  outer loop
   vertex 2.16667 0 -0.541667
   vertex 1.7 -0.391667 -0.541667
   vertex 2.63333 -0.391667 -0.541667
  endloop
 endfacet
 facet normal 0 0 1
  outer loop
   vertex 2.63333 -0.541667 -0.541667
   vertex 2.63333 -0.391667 -0.541667
   vertex 1.7 -0.541667 -0.541667
  endloop
 endfacet
 facet normal 0 0 1
  outer loop
   vertex 1.7 -0.391667 -0.541667
   vertex 1.7 -0.541667 -0.541667
   vertex 2.63333 -0.391667 -0.541667
  endloop
 endfacet
 facet normal 0 0 1
  outer loop
   vertex 2.16667 0 -0.541667
   vertex 2.63333 -0.391667 -0.541667
   vertex 2.6 0.433333 -0.541667
  endloop
 endfacet
 facet normal 0 -0 1
  outer loop
   vertex 2.6 0.433333 -0.541667
   vertex 2.63333 -0.391667 -0.541667
   vertex 3.03333 0 -0.541667
  endloop
 endfacet
 facet normal 0 0 1
  outer loop
   vertex 2.78333 -0.391667 -0.541667
   vertex 3.03333 0 -0.541667
   vertex 2.63333 -0.391667 -0.541667
  endloop
 endfacet
 facet normal 0 0 1
  outer loop
   vertex 3.03333 0 -0.541667
   vertex 2.78333 -0.391667 -0.541667
   vertex 3.71667 -0.391667 -0.541667
  endloop
 endfacet
 facet normal 0 0 1
  outer loop
   vertex 3.71667 -0.541667 -0.541667
   vertex 3.71667 -0.391667 -0.541667
   vertex 2.78333 -0.541667 -0.541667
  endloop
 endfacet
 facet normal 0 0 1
  outer loop
   vertex 2.78333 -0.391667 -0.541667
   vertex 2.78333 -0.541667 -0.541667
   vertex 3.71667 -0.391667 -0.541667
  endloop
 endfacet
 facet normal 0 0 1
  outer loop
   vertex 3.03333 0 -0.541667
   vertex 3.71667 -0.391667 -0.541667
   vertex 3.46667 0.433333 -0.541667
  endloop
 endfacet
 facet normal 0 -0 1
  outer loop
   vertex 3.46667 0.433333 -0.541667
   vertex 3.71667 -0.391667 -0.541667
   vertex 3.9 0 -0.541667
  endloop
 endfacet
 facet normal 0 0 1
  outer loop
   vertex 3.86667 -0.391667 -0.541667
   vertex 3.9 0 -0.541667
   vertex 3.71667 -0.391667 -0.541667
  endloop
 endfacet
 facet normal 0 0 1
  outer loop
   vertex 4.33333 0.433333 -0.541667
   vertex 3.9 0 -0.541667
   vertex 4.76667 0 -0.541667
  endloop
 endfacet
 facet normal -0 0 1
  outer loop
   vertex 4.76667 0 -0.541667
   vertex 3.9 0 -0.541667
   vertex 4.8 -0.391667 -0.541667
  endloop
 endfacet
 facet normal 0 0 1
  outer loop
   vertex 3.9 0 -0.541667
   vertex 3.86667 -0.391667 -0.541667
   vertex 4.8 -0.391667 -0.541667
  endloop
 endfacet
 facet normal 0 0 1
  outer loop
   vertex 4.8 -0.541667 -0.541667
   vertex 4.8 -0.391667 -0.541667
   vertex 3.86667 -0.541667 -0.541667
  endloop
 endfacet
 facet normal 0 0 1
  outer loop
   vertex 3.86667 -0.391667 -0.541667
   vertex 3.86667 -0.541667 -0.541667
   vertex 4.8 -0.391667 -0.541667
  endloop
 endfacet
 facet normal -0 0 1
  outer loop
   vertex 5.2 0.433333 -0.541667
   vertex 4.76667 0 -0.541667
   vertex 4.95 -0.391667 -0.541667
  endloop
 endfacet
 facet normal 0 0 1
  outer loop
   vertex 4.8 -0.391667 -0.541667
   vertex 4.95 -0.391667 -0.541667
   vertex 4.76667 0 -0.541667
  endloop
 endfacet
 facet normal 0 0 1
  outer loop
   vertex 5.2 0.433333 -0.541667
   vertex 4.95 -0.391667 -0.541667
   vertex 5.63333 0 -0.541667
  endloop
 endfacet
 facet normal 0 0 1
  outer loop
   vertex 5.63333 0 -0.541667
   vertex 4.95 -0.391667 -0.541667
   vertex 5.88333 -0.391667 -0.541667
  endloop
 endfacet
 facet normal 0 0 1
  outer loop
   vertex 4.95 -0.541667 -0.541667
   vertex 5.88333 -0.541667 -0.541667
   vertex 4.95 -0.391667 -0.541667
  endloop
 endfacet
 facet normal -0 0 1
  outer loop
   vertex 5.88333 -0.391667 -0.541667
   vertex 4.95 -0.391667 -0.541667
   vertex 5.88333 -0.541667 -0.541667
  endloop
 endfacet
 facet normal 0 0 1
  outer loop
   vertex 6.5 0 -0.541667
   vertex 6.06667 0.433333 -0.541667
   vertex 6.03333 -0.391667 -0.541667
  endloop
 endfacet
 facet normal -0 0 1
  outer loop
   vertex 6.06667 0.433333 -0.541667
   vertex 5.63333 0 -0.541667
   vertex 6.03333 -0.391667 -0.541667
  endloop
 endfacet
 facet normal 0 0 1
  outer loop
   vertex 5.88333 -0.391667 -0.541667
   vertex 6.03333 -0.391667 -0.541667
   vertex 5.63333 0 -0.541667
  endloop
 endfacet
 facet normal 0 0 1
  outer loop
   vertex 6.5 0 -0.541667
   vertex 6.03333 -0.391667 -0.541667
   vertex 6.96667 -0.391667 -0.541667
  endloop
 endfacet
 facet normal 0 0 1
  outer loop
   vertex 6.96667 -0.541667 -0.541667
   vertex 6.96667 -0.391667 -0.541667
   vertex 6.03333 -0.541667 -0.541667
  endloop
 endfacet
 facet normal 0 0 1
  outer loop
   vertex 6.03333 -0.391667 -0.541667
   vertex 6.03333 -0.541667 -0.541667
   vertex 6.96667 -0.391667 -0.541667
  endloop
 endfacet
 facet normal 0 0 1
  outer loop
   vertex 6.5 0 -0.541667
   vertex 6.96667 -0.391667 -0.541667
   vertex 6.93333 0.433333 -0.541667
  endloop
 endfacet
 facet normal 0 -0 1
  outer loop
   vertex 6.93333 0.433333 -0.541667
   vertex 6.96667 -0.391667 -0.541667
   vertex 7.36667 0 -0.541667
  endloop
 endfacet
 facet normal 0 0 1
  outer loop
   vertex 7.11667 -0.391667 -0.541667
   vertex 7.36667 0 -0.541667
   vertex 6.96667 -0.391667 -0.541667
  endloop
 endfacet
 facet normal 0 0 1
  outer loop
   vertex 7.36667 0 -0.541667
   vertex 7.11667 -0.391667 -0.541667
   vertex 8.05 -0.391667 -0.541667
  endloop
 endfacet
 facet normal 0 0 1
  outer loop
   vertex 8.05 -0.541667 -0.541667
   vertex 8.05 -0.391667 -0.541667
   vertex 7.11667 -0.541667 -0.541667
  endloop
 endfacet
 facet normal 0 0 1
  outer loop
   vertex 7.11667 -0.391667 -0.541667
   vertex 7.11667 -0.541667 -0.541667
   vertex 8.05 -0.391667 -0.541667
  endloop
 endfacet
 facet normal 0 0 1
  outer loop
   vertex 7.36667 0 -0.541667
   vertex 8.05 -0.391667 -0.541667
   vertex 7.8 0.433333 -0.541667
  endloop
 endfacet
 facet normal 0 -0 1
  outer loop
   vertex 7.8 0.433333 -0.541667
   vertex 8.05 -0.391667 -0.541667
   vertex 8.23333 0 -0.541667
  endloop
 endfacet
 facet normal 0 0 1
  outer loop
   vertex 8.2 -0.391667 -0.541667
   vertex 8.23333 0 -0.541667
   vertex 8.05 -0.391667 -0.541667
  endloop
 endfacet
 facet normal 0 0 1
  outer loop
   vertex 8.66667 0.433333 -0.541667
   vertex 8.23333 0 -0.541667
   vertex 9.1 0 -0.541667
  endloop
 endfacet
 facet normal -0 0 1
  outer loop
   vertex 9.1 0 -0.541667
   vertex 8.23333 0 -0.541667
   vertex 9.13333 -0.391667 -0.541667
  endloop
 endfacet
 facet normal 0 0 1
  outer loop
   vertex 8.23333 0 -0.541667
   vertex 8.2 -0.391667 -0.541667
   vertex 9.13333 -0.391667 -0.541667
  endloop
 endfacet
 facet normal 0 0 1
  outer loop
   vertex 9.13333 -0.541667 -0.541667
   vertex 9.13333 -0.391667 -0.541667
   vertex 8.2 -0.541667 -0.541667
  endloop
 endfacet
 facet normal 0 0 1
  outer loop
   vertex 8.2 -0.391667 -0.541667
   vertex 8.2 -0.541667 -0.541667
   vertex 9.13333 -0.391667 -0.541667
  endloop
 endfacet
 facet normal -0 0 1
  outer loop
   vertex 9.53333 0.433333 -0.541667
   vertex 9.1 0 -0.541667
   vertex 9.28333 -0.391667 -0.541667
  endloop
 endfacet
 facet normal 0 0 1
  outer loop
   vertex 9.13333 -0.391667 -0.541667
   vertex 9.28333 -0.391667 -0.541667
   vertex 9.1 0 -0.541667
  endloop
 endfacet
 facet normal 0 0 1
  outer loop
   vertex 9.53333 0.433333 -0.541667
   vertex 9.28333 -0.391667 -0.541667
   vertex 9.96667 0 -0.541667
  endloop
 endfacet
 facet normal 0 0 1
  outer loop
   vertex 9.96667 0 -0.541667
   vertex 9.28333 -0.391667 -0.541667
   vertex 10.2167 -0.391667 -0.541667
  endloop
 endfacet
 facet normal 0 0 1
  outer loop
   vertex 9.28333 -0.541667 -0.541667
   vertex 10.2167 -0.541667 -0.541667
   vertex 9.28333 -0.391667 -0.541667
  endloop
 endfacet
 facet normal -0 0 1
  outer loop
   vertex 10.2167 -0.391667 -0.541667
   vertex 9.28333 -0.391667 -0.541667
   vertex 10.2167 -0.541667 -0.541667
  endloop
 endfacet
 facet normal -0 0 1
  outer loop
   vertex 10.4 0.433333 -0.541667
   vertex 9.96667 0 -0.541667
   vertex 10.3667 -0.391667 -0.541667
  endloop
 endfacet
 facet normal 0 0 1
  outer loop
   vertex 10.2167 -0.391667 -0.541667
   vertex 10.3667 -0.391667 -0.541667
   vertex 9.96667 0 -0.541667
  endloop
 endfacet
 facet normal 0 0 1
  outer loop
   vertex 10.4 0.433333 -0.541667
   vertex 10.3667 -0.391667 -0.541667
   vertex 10.8333 0 -0.541667
  endloop
 endfacet
 facet normal 0 0 1
  outer loop
   vertex 10.3667 -0.541667 -0.541667
   vertex 10.8333 0 -0.541667
   vertex 10.3667 -0.391667 -0.541667
  endloop
 endfacet
 facet normal 0 0 1
  outer loop
   vertex 10.3667 -0.541667 -0.541667
   vertex 11.375 -0.541667 -0.541667
   vertex 10.8333 0 -0.541667
  endloop
 endfacet
 facet normal 0 0 1
  outer loop
   vertex 11.375 -0.541667 -0.541667
   vertex 11.375 0.325 -0.541667
   vertex 10.8333 0 -0.541667
  endloop
 endfacet
 facet normal 0 0 1
  outer loop
   vertex 11.2667 0.433333 -0.541667
   vertex 10.8333 0 -0.541667
   vertex 11.375 0.325 -0.541667
  endloop
 endfacet
 facet normal 1 0 0
  outer loop
   vertex 11.375 -0.541667 0.541667
   vertex 11.375 0.325 0.541667
   vertex 11.375 -0.541667 1.16667
  endloop
 endfacet
 facet normal 1 0 -0
  outer loop
   vertex 11.375 -0.541667 1.16667
   vertex 11.375 0.325 0.541667
   vertex 11.375 1 0.541667
  endloop
 endfacet
 facet normal 1 0 0
  outer loop
   vertex 11.375 -0.541667 -0.541667
   vertex 11.375 -0.541667 -1.16667
   vertex 11.375 0.325 -0.541667
  endloop
 endfacet
 facet normal 1 -0 0
  outer loop
   vertex 11.375 1 -0.541667
   vertex 11.375 0.325 -0.541667
   vertex 11.375 -0.541667 -1.16667
  endloop
 endfacet
 facet normal 0.707107 -0.707107 0
  outer loop
   vertex 0.433333 0 -0.541667
   vertex 0.866667 0.433333 -0.541667
   vertex 0.433333 0 0.541667
  endloop
 endfacet
 facet normal 0.707107 -0.707107 0
  outer loop
   vertex 0.866667 0.433333 0.541667
   vertex 0.433333 0 0.541667
   vertex 0.866667 0.433333 -0.541667
  endloop
 endfacet
 facet normal -0.707107 -0.707107 0
  outer loop
   vertex 0.866667 0.433333 -0.541667
   vertex 1.3 0 -0.541667
   vertex 0.866667 0.433333 0.541667
  endloop
 endfacet
 facet normal -0.707107 -0.707107 0
  outer loop
   vertex 1.3 0 0.541667
   vertex 0.866667 0.433333 0.541667
   vertex 1.3 0 -0.541667
  endloop
 endfacet
 facet normal 0.707107 -0.707107 0
  outer loop
   vertex 1.3 0 -0.541667
   vertex 1.73333 0.433333 -0.541667
   vertex 1.3 0 0.541667
  endloop
 endfacet
 facet normal 0.707107 -0.707107 0
  outer loop
   vertex 1.73333 0.433333 0.541667
   vertex 1.3 0 0.541667
   vertex 1.73333 0.433333 -0.541667
  endloop
 endfacet
 facet normal -0.707107 -0.707107 0
  outer loop
   vertex 1.73333 0.433333 -0.541667
   vertex 2.16667 0 -0.541667
   vertex 1.73333 0.433333 0.541667
  endloop
 endfacet
 facet normal -0.707107 -0.707107 0
  outer loop
   vertex 2.16667 0 0.541667
   vertex 1.73333 0.433333 0.541667
   vertex 2.16667 0 -0.541667
  endloop
 endfacet
 facet normal 0.707107 -0.707107 0
  outer loop
   vertex 2.16667 0 -0.541667
   vertex 2.6 0.433333 -0.541667
   vertex 2.16667 0 0.541667
  endloop
 endfacet
 facet normal 0.707107 -0.707107 0
  outer loop
   vertex 2.6 0.433333 0.541667
   vertex 2.16667 0 0.541667
   vertex 2.6 0.433333 -0.541667
  endloop
 endfacet
 facet normal -0.707107 -0.707107 0
  outer loop
   vertex 2.6 0.433333 -0.541667
   vertex 3.03333 0 -0.541667
   vertex 2.6 0.433333 0.541667
  endloop
 endfacet
 facet normal -0.707107 -0.707107 0
  outer loop
   vertex 3.03333 0 0.541667
   vertex 2.6 0.433333 0.541667
   vertex 3.03333 0 -0.541667
  endloop
 endfacet
 facet normal 0.707107 -0.707107 0
  outer loop
   vertex 3.03333 0 -0.541667
   vertex 3.46667 0.433333 -0.541667
   vertex 3.03333 0 0.541667
  endloop
 endfacet
 facet normal 0.707107 -0.707107 0
  outer loop
   vertex 3.46667 0.433333 0.541667
   vertex 3.03333 0 0.541667
   vertex 3.46667 0.433333 -0.541667
  endloop
 endfacet
 facet normal -0.707107 -0.707107 0
  outer loop
   vertex 3.46667 0.433333 -0.541667
   vertex 3.9 0 -0.541667
   vertex 3.46667 0.433333 0.541667
  endloop
 endfacet
 facet normal -0.707107 -0.707107 0
  outer loop
   vertex 3.9 0 0.541667
   vertex 3.46667 0.433333 0.541667
   vertex 3.9 0 -0.541667
  endloop
 endfacet
 facet normal 0.707107 -0.707107 0
  outer loop
   vertex 3.9 0 -0.541667
   vertex 4.33333 0.433333 -0.541667
   vertex 3.9 0 0.541667
  endloop
 endfacet
 facet normal 0.707107 -0.707107 0
  outer loop
   vertex 4.33333 0.433333 0.541667
   vertex 3.9 0 0.541667
   vertex 4.33333 0.433333 -0.541667
  endloop
 endfacet
 facet normal -0.707107 -0.707107 0
  outer loop
   vertex 4.33333 0.433333 -0.541667
   vertex 4.76667 0 -0.541667
   vertex 4.33333 0.433333 0.541667
  endloop
 endfacet
 facet normal -0.707107 -0.707107 0
  outer loop
   vertex 4.76667 0 0.541667
   vertex 4.33333 0.433333 0.541667
   vertex 4.76667 0 -0.541667
  endloop
 endfacet
 facet normal 0.707107 -0.707106 0
  outer loop
   vertex 4.76667 0 -0.541667
   vertex 5.2 0.433333 -0.541667
   vertex 4.76667 0 0.541667
  endloop
 endfacet
 facet normal 0.707107 -0.707106 0
  outer loop
   vertex 5.2 0.433333 0.541667
   vertex 4.76667 0 0.541667
   vertex 5.2 0.433333 -0.541667
  endloop
 endfacet
 facet normal -0.707107 -0.707107 0
  outer loop
   vertex 5.2 0.433333 -0.541667
   vertex 5.63333 0 -0.541667
   vertex 5.2 0.433333 0.541667
  endloop
 endfacet
 facet normal -0.707107 -0.707107 0
  outer loop
   vertex 5.63333 0 0.541667
   vertex 5.2 0.433333 0.541667
   vertex 5.63333 0 -0.541667
  endloop
 endfacet
 facet normal 0.707107 -0.707107 0
  outer loop
   vertex 5.63333 0 -0.541667
   vertex 6.06667 0.433333 -0.541667
   vertex 5.63333 0 0.541667
  endloop
 endfacet
 facet normal 0.707107 -0.707107 0
  outer loop
   vertex 6.06667 0.433333 0.541667
   vertex 5.63333 0 0.541667
   vertex 6.06667 0.433333 -0.541667
  endloop
 endfacet
 facet normal -0.707107 -0.707107 0
  outer loop
   vertex 6.06667 0.433333 -0.541667
   vertex 6.5 0 -0.541667
   vertex 6.06667 0.433333 0.541667
  endloop
 endfacet
 facet normal -0.707107 -0.707107 0
  outer loop
   vertex 6.5 0 0.541667
   vertex 6.06667 0.433333 0.541667
   vertex 6.5 0 -0.541667
  endloop
 endfacet
 facet normal 0.707107 -0.707107 0
  outer loop
   vertex 6.5 0 -0.541667
   vertex 6.93333 0.433333 -0.541667
   vertex 6.5 0 0.541667
  endloop
 endfacet
 facet normal 0.707107 -0.707107 0
  outer loop
   vertex 6.93333 0.433333 0.541667
   vertex 6.5 0 0.541667
   vertex 6.93333 0.433333 -0.541667
  endloop
 endfacet
 facet normal -0.707107 -0.707107 0
  outer loop
   vertex 6.93333 0.433333 -0.541667
   vertex 7.36667 0 -0.541667
   vertex 6.93333 0.433333 0.541667
  endloop
 endfacet
 facet normal -0.707107 -0.707107 0
  outer loop
   vertex 7.36667 0 0.541667
   vertex 6.93333 0.433333 0.541667
   vertex 7.36667 0 -0.541667
  endloop
 endfacet
 facet normal 0.707107 -0.707107 0
  outer loop
   vertex 7.36667 0 -0.541667
   vertex 7.8 0.433333 -0.541667
   vertex 7.36667 0 0.541667
  endloop
 endfacet
 facet normal 0.707107 -0.707107 0
  outer loop
   vertex 7.8 0.433333 0.541667
   vertex 7.36667 0 0.541667
   vertex 7.8 0.433333 -0.541667
  endloop
 endfacet
 facet normal -0.707107 -0.707107 0
  outer loop
   vertex 7.8 0.433333 -0.541667
   vertex 8.23333 0 -0.541667
   vertex 7.8 0.433333 0.541667
  endloop
 endfacet
 facet normal -0.707107 -0.707107 0
  outer loop
   vertex 8.23333 0 0.541667
   vertex 7.8 0.433333 0.541667
   vertex 8.23333 0 -0.541667
  endloop
 endfacet
 facet normal 0.707107 -0.707107 0
  outer loop
   vertex 8.23333 0 -0.541667
   vertex 8.66667 0.433333 -0.541667
   vertex 8.23333 0 0.541667
  endloop
 endfacet
 facet normal 0.707107 -0.707107 0
  outer loop
   vertex 8.66667 0.433333 0.541667
   vertex 8.23333 0 0.541667
   vertex 8.66667 0.433333 -0.541667
  endloop
 endfacet
 facet normal -0.707107 -0.707107 0
  outer loop
   vertex 8.66667 0.433333 -0.541667
   vertex 9.1 0 -0.541667
   vertex 8.66667 0.433333 0.541667
  endloop
 endfacet
 facet normal -0.707107 -0.707107 0
  outer loop
   vertex 9.1 0 0.541667
   vertex 8.66667 0.433333 0.541667
   vertex 9.1 0 -0.541667
  endloop
 endfacet
 facet normal 0.707107 -0.707107 0
  outer loop
   vertex 9.1 0 -0.541667
   vertex 9.53333 0.433333 -0.541667
   vertex 9.1 0 0.541667
  endloop
 endfacet
 facet normal 0.707107 -0.707107 0
  outer loop
   vertex 9.53333 0.433333 0.541667
   vertex 9.1 0 0.541667
   vertex 9.53333 0.433333 -0.541667
  endloop
 endfacet
 facet normal -0.707108 -0.707106 0
  outer loop
   vertex 9.53333 0.433333 -0.541667
   vertex 9.96667 0 -0.541667
   vertex 9.53333 0.433333 0.541667
  endloop
 endfacet
 facet normal -0.707108 -0.707106 0
  outer loop
   vertex 9.96667 0 0.541667
   vertex 9.53333 0.433333 0.541667
   vertex 9.96667 0 -0.541667
  endloop
 endfacet
 facet normal 0.707107 -0.707107 0
  outer loop
   vertex 9.96667 0 -0.541667
   vertex 10.4 0.433333 -0.541667
   vertex 9.96667 0 0.541667
  endloop
 endfacet
 facet normal 0.707107 -0.707107 0
  outer loop
   vertex 10.4 0.433333 0.541667
   vertex 9.96667 0 0.541667
   vertex 10.4 0.433333 -0.541667
  endloop
 endfacet
 facet normal -0.707107 -0.707107 0
  outer loop
   vertex 10.4 0.433333 -0.541667
   vertex 10.8333 0 -0.541667
   vertex 10.4 0.433333 0.541667
  endloop
 endfacet
 facet normal -0.707107 -0.707107 0
  outer loop
   vertex 10.8333 0 0.541667
   vertex 10.4 0.433333 0.541667
   vertex 10.8333 0 -0.541667
  endloop
 endfacet
 facet normal 0.707107 -0.707107 0
  outer loop
   vertex 10.8333 0 -0.541667
   vertex 11.2667 0.433333 -0.541667
   vertex 10.8333 0 0.541667
  endloop
 endfacet
 facet normal 0.707107 -0.707107 0
  outer loop
   vertex 11.2667 0.433333 0.541667
   vertex 10.8333 0 0.541667
   vertex 11.2667 0.433333 -0.541667
  endloop
 endfacet
 facet normal -0.707106 -0.707108 0
  outer loop
   vertex 11.2667 0.433333 -0.541667
   vertex 11.375 0.325 -0.541667
   vertex 11.2667 0.433333 0.541667
  endloop
 endfacet
 facet normal -0.707106 -0.707108 2.50843e-16
  outer loop
   vertex 11.375 0.325 0.541667
   vertex 11.2667 0.433333 0.541667
   vertex 11.375 0.325 -0.541667
  endloop
 endfacet
 facet normal 1 0 0
  outer loop
   vertex 11.375 0.325 -0.541667
   vertex 11.375 1 -0.541667
   vertex 11.375 0.325 0.541667
  endloop
 endfacet
 facet normal 1 -0 0
  outer loop
   vertex 11.375 1 0.541667
   vertex 11.375 0.325 0.541667
   vertex 11.375 1 -0.541667
  endloop
 endfacet
 facet normal 0 -1 0
  outer loop
   vertex -0.541667 -0.541667 1.16667
   vertex -0.541667 -0.541667 0.541667
   vertex 0.466667 -0.541667 0.541667
  endloop
 endfacet
 facet normal 0 0 1
  outer loop
   vertex -0.541667 -0.541667 1.16667
   vertex 0.466667 -0.541667 1.16667
   vertex -0.0917115 -0.0917115 1.16667
  endloop
 endfacet
 facet normal 0 0 1
  outer loop
   vertex 0.466667 -0.391667 1.16667
   vertex -0.0917115 -0.0917115 1.16667
   vertex 0.466667 -0.541667 1.16667
  endloop
 endfacet
 facet normal 0 0 1
  outer loop
   vertex -0.0917115 -0.0917115 1.16667
   vertex 0.466667 -0.391667 1.16667
   vertex 0.15 0.15 1.16667
  endloop
 endfacet
 facet normal 0 0 1
  outer loop
   vertex 0.466667 -0.391667 1.16667
   vertex 0.616667 -0.391667 1.16667
   vertex 0.15 0.15 1.16667
  endloop
 endfacet
 facet normal 0 0 1
  outer loop
   vertex 0.616667 -0.391667 1.16667
   vertex 1.55 -0.391667 1.16667
   vertex 0.15 0.15 1.16667
  endloop
 endfacet
 facet normal 0 0 1
  outer loop
   vertex 10.3667 -0.391667 1.16667
   vertex 11.375 0.15 1.16667
   vertex 10.2167 -0.391667 1.16667
  endloop
 endfacet
 facet normal 0 0 1
  outer loop
   vertex 10.2167 -0.391667 1.16667
   vertex 11.375 0.15 1.16667
   vertex 9.28333 -0.391667 1.16667
  endloop
 endfacet
 facet normal -0 0 1
  outer loop
   vertex 11.375 0.15 1.16667
   vertex 0.15 0.15 1.16667
   vertex 9.28333 -0.391667 1.16667
  endloop
 endfacet
 facet normal 0 0 1
  outer loop
   vertex 1.55 -0.391667 1.16667
   vertex 1.7 -0.391667 1.16667
   vertex 0.15 0.15 1.16667
  endloop
 endfacet
 facet normal 0 0 1
  outer loop
   vertex 1.7 -0.391667 1.16667
   vertex 2.63333 -0.391667 1.16667
   vertex 0.15 0.15 1.16667
  endloop
 endfacet
 facet normal 0 0 1
  outer loop
   vertex 2.63333 -0.391667 1.16667
   vertex 2.78333 -0.391667 1.16667
   vertex 0.15 0.15 1.16667
  endloop
 endfacet
 facet normal 0 0 1
  outer loop
   vertex 2.78333 -0.391667 1.16667
   vertex 3.71667 -0.391667 1.16667
   vertex 0.15 0.15 1.16667
  endloop
 endfacet
 facet normal 0 0 1
  outer loop
   vertex 3.71667 -0.391667 1.16667
   vertex 3.86667 -0.391667 1.16667
   vertex 0.15 0.15 1.16667
  endloop
 endfacet
 facet normal 0 0 1
  outer loop
   vertex 3.86667 -0.391667 1.16667
   vertex 4.8 -0.391667 1.16667
   vertex 0.15 0.15 1.16667
  endloop
 endfacet
 facet normal 0 0 1
  outer loop
   vertex 4.8 -0.391667 1.16667
   vertex 4.95 -0.391667 1.16667
   vertex 0.15 0.15 1.16667
  endloop
 endfacet
 facet normal 0 0 1
  outer loop
   vertex 4.95 -0.391667 1.16667
   vertex 5.88333 -0.391667 1.16667
   vertex 0.15 0.15 1.16667
  endloop
 endfacet
 facet normal 0 0 1
  outer loop
   vertex 5.88333 -0.391667 1.16667
   vertex 6.03333 -0.391667 1.16667
   vertex 0.15 0.15 1.16667
  endloop
 endfacet
 facet normal 0 0 1
  outer loop
   vertex 6.03333 -0.391667 1.16667
   vertex 6.96667 -0.391667 1.16667
   vertex 0.15 0.15 1.16667
  endloop
 endfacet
 facet normal 0 0 1
  outer loop
   vertex 6.96667 -0.391667 1.16667
   vertex 7.11667 -0.391667 1.16667
   vertex 0.15 0.15 1.16667
  endloop
 endfacet
 facet normal 0 0 1
  outer loop
   vertex 7.11667 -0.391667 1.16667
   vertex 8.05 -0.391667 1.16667
   vertex 0.15 0.15 1.16667
  endloop
 endfacet
 facet normal 0 0 1
  outer loop
   vertex 8.05 -0.391667 1.16667
   vertex 8.2 -0.391667 1.16667
   vertex 0.15 0.15 1.16667
  endloop
 endfacet
 facet normal 0 0 1
  outer loop
   vertex 8.2 -0.391667 1.16667
   vertex 9.13333 -0.391667 1.16667
   vertex 0.15 0.15 1.16667
  endloop
 endfacet
 facet normal 0 0 1
  outer loop
   vertex 9.28333 -0.391667 1.16667
   vertex 0.15 0.15 1.16667
   vertex 9.13333 -0.391667 1.16667
  endloop
 endfacet
 facet normal -0 1 0
  outer loop
   vertex 1 1 0.622523
   vertex 1 1 1.16667
   vertex 11.375 1 1.16667
  endloop
 endfacet
 facet normal -0 0 1
  outer loop
   vertex 11.375 1 1.31667
   vertex 1 1 1.31667
   vertex 11.375 0.15 1.31667
  endloop
 endfacet
 facet normal 0 0 1
  outer loop
   vertex 11.375 0.15 1.31667
   vertex 1 1 1.31667
   vertex 0.15 0.15 1.31667
  endloop
 endfacet
 facet normal -0 1 0
  outer loop
   vertex 1 1 1.18607
   vertex 1 1 1.31667
   vertex 11.375 1 1.31667
  endloop
 endfacet
 facet normal 0 -1 -0
  outer loop
   vertex 11.375 0.15 1.16667
   vertex 11.375 0.15 1.31667
   vertex 0.15 0.15 1.30796
  endloop
 endfacet
 facet normal 0 -1 0
  outer loop
   vertex 11.375 0.15 1.31667
   vertex 0.15 0.15 1.31667
   vertex 0.15 0.15 1.30796
  endloop
 endfacet
 facet normal 0 1 -0
  outer loop
   vertex 11.375 1 1.31667
   vertex 11.375 1 1.16667
   vertex 1 1 1.18607
  endloop
 endfacet
 facet normal 0 1 0
  outer loop
   vertex 1 1 1.16667
   vertex 1 1 1.18607
   vertex 11.375 1 1.16667
  endloop
 endfacet
 facet normal 0 -1 0
  outer loop
   vertex 0.15 0.15 1.30796
   vertex 0.15 0.15 1.16667
   vertex 11.375 0.15 1.16667
  endloop
 endfacet
 facet normal 0 -1 0
  outer loop
   vertex -0.541667 -0.541667 -0.541667
   vertex -0.541667 -0.541667 -1.16667
   vertex 0.466667 -0.541667 -0.541667
  endloop
 endfacet
 facet normal 0 -0 -1
  outer loop
   vertex -0.0917115 -0.0917115 -1.16667
   vertex 0.15 0.15 -1.16667
   vertex 0.466667 -0.391667 -1.16667
  endloop
 endfacet
 facet normal 0 0 -1
  outer loop
   vertex 0.466667 -0.391667 -1.16667
   vertex 0.15 0.15 -1.16667
   vertex 0.616667 -0.391667 -1.16667
  endloop
 endfacet
 facet normal 0 0 -1
  outer loop
   vertex 0.616667 -0.391667 -1.16667
   vertex 0.15 0.15 -1.16667
   vertex 1.55 -0.391667 -1.16667
  endloop
 endfacet
 facet normal 0 0 -1
  outer loop
   vertex 10.3667 -0.391667 -1.16667
   vertex 10.2167 -0.391667 -1.16667
   vertex 11.375 0.15 -1.16667
  endloop
 endfacet
 facet normal 0 0 -1
  outer loop
   vertex 10.2167 -0.391667 -1.16667
   vertex 9.28333 -0.391667 -1.16667
   vertex 11.375 0.15 -1.16667
  endloop
 endfacet
 facet normal 0 0 -1
  outer loop
   vertex 11.375 0.15 -1.16667
   vertex 9.28333 -0.391667 -1.16667
   vertex 0.15 0.15 -1.16667
  endloop
 endfacet
 facet normal 0 0 -1
  outer loop
   vertex 1.55 -0.391667 -1.16667
   vertex 0.15 0.15 -1.16667
   vertex 1.7 -0.391667 -1.16667
  endloop
 endfacet
 facet normal 0 0 -1
  outer loop
   vertex 1.7 -0.391667 -1.16667
   vertex 0.15 0.15 -1.16667
   vertex 2.63333 -0.391667 -1.16667
  endloop
 endfacet
 facet normal 0 0 -1
  outer loop
   vertex 2.63333 -0.391667 -1.16667
   vertex 0.15 0.15 -1.16667
   vertex 2.78333 -0.391667 -1.16667
  endloop
 endfacet
 facet normal 0 0 -1
  outer loop
   vertex 2.78333 -0.391667 -1.16667
   vertex 0.15 0.15 -1.16667
   vertex 3.71667 -0.391667 -1.16667
  endloop
 endfacet
 facet normal 0 0 -1
  outer loop
   vertex 3.71667 -0.391667 -1.16667
   vertex 0.15 0.15 -1.16667
   vertex 3.86667 -0.391667 -1.16667
  endloop
 endfacet
 facet normal 0 0 -1
  outer loop
   vertex 3.86667 -0.391667 -1.16667
   vertex 0.15 0.15 -1.16667
   vertex 4.8 -0.391667 -1.16667
  endloop
 endfacet
 facet normal 0 0 -1
  outer loop
   vertex 4.8 -0.391667 -1.16667
   vertex 0.15 0.15 -1.16667
   vertex 4.95 -0.391667 -1.16667
  endloop
 endfacet
 facet normal 0 0 -1
  outer loop
   vertex 4.95 -0.391667 -1.16667
   vertex 0.15 0.15 -1.16667
   vertex 5.88333 -0.391667 -1.16667
  endloop
 endfacet
 facet normal 0 0 -1
  outer loop
   vertex 5.88333 -0.391667 -1.16667
   vertex 0.15 0.15 -1.16667
   vertex 6.03333 -0.391667 -1.16667
  endloop
 endfacet
 facet normal 0 0 -1
  outer loop
   vertex 6.03333 -0.391667 -1.16667
   vertex 0.15 0.15 -1.16667
   vertex 6.96667 -0.391667 -1.16667
  endloop
 endfacet
 facet normal 0 0 -1
  outer loop
   vertex 6.96667 -0.391667 -1.16667
   vertex 0.15 0.15 -1.16667
   vertex 7.11667 -0.391667 -1.16667
  endloop
 endfacet
 facet normal 0 0 -1
  outer loop
   vertex 7.11667 -0.391667 -1.16667
   vertex 0.15 0.15 -1.16667
   vertex 8.05 -0.391667 -1.16667
  endloop
 endfacet
 facet normal 0 0 -1
  outer loop
   vertex 8.05 -0.391667 -1.16667
   vertex 0.15 0.15 -1.16667
   vertex 8.2 -0.391667 -1.16667
  endloop
 endfacet
 facet normal 0 0 -1
  outer loop
   vertex 8.2 -0.391667 -1.16667
   vertex 0.15 0.15 -1.16667
   vertex 9.13333 -0.391667 -1.16667
  endloop
 endfacet
 facet normal 0 0 -1
  outer loop
   vertex 9.28333 -0.391667 -1.16667
   vertex 9.13333 -0.391667 -1.16667
   vertex 0.15 0.15 -1.16667
  endloop
 endfacet
 facet normal 0 -0 -1
  outer loop
   vertex -0.541667 -0.541667 -1.16667
   vertex -0.0917115 -0.0917115 -1.16667
   vertex 0.466667 -0.541667 -1.16667
  endloop
 endfacet
 facet normal 0 0 -1
  outer loop
   vertex 0.466667 -0.391667 -1.16667
   vertex 0.466667 -0.541667 -1.16667
   vertex -0.0917115 -0.0917115 -1.16667
  endloop
 endfacet
 facet normal 0 1 0
  outer loop
   vertex 1 1 -1.16667
   vertex 1 1 -0.622523
   vertex 11.375 1 -1.16667
  endloop
 endfacet
 facet normal 0 0 -1
  outer loop
   vertex 11.375 1 -1.31667
   vertex 11.375 0.15 -1.31667
   vertex 1 1 -1.31667
  endloop
 endfacet
 facet normal 0 0 -1
  outer loop
   vertex 11.375 0.15 -1.31667
   vertex 0.15 0.15 -1.31667
   vertex 1 1 -1.31667
  endloop
 endfacet
 facet normal 0 1 0
  outer loop
   vertex 1 1 -1.31667
   vertex 1 1 -1.18607
   vertex 11.375 1 -1.31667
  endloop
 endfacet
 facet normal 0 -1 0
  outer loop
   vertex 11.375 0.15 -1.16667
   vertex 0.15 0.15 -1.30796
   vertex 11.375 0.15 -1.31667
  endloop
 endfacet
 facet normal 0 -1 0
  outer loop
   vertex 11.375 0.15 -1.31667
   vertex 0.15 0.15 -1.30796
   vertex 0.15 0.15 -1.31667
  endloop
 endfacet
 facet normal -0 1 0
  outer loop
   vertex 11.375 1 -1.31667
   vertex 1 1 -1.18607
   vertex 11.375 1 -1.16667
  endloop
 endfacet
 facet normal 0 1 0
  outer loop
   vertex 1 1 -1.16667
   vertex 11.375 1 -1.16667
   vertex 1 1 -1.18607
  endloop
 endfacet
 facet normal 0 -1 0
  outer loop
   vertex 0.15 0.15 -1.16667
   vertex 0.15 0.15 -1.30796
   vertex 11.375 0.15 -1.16667
  endloop
 endfacet
 facet normal 0 7.85995e-08 -1
  outer loop
   vertex -0.541667 -0.541667 0.541667
   vertex 0.216667 0.216667 0.541667
   vertex 0.466667 -0.541667 0.541667
  endloop
 endfacet
 facet normal 1.66339e-07 1.66339e-07 -1
  outer loop
   vertex 0.433333 0 0.541667
   vertex 0.466667 -0.391667 0.541667
   vertex 0.216667 0.216667 0.541667
  endloop
 endfacet
 facet normal -2.38419e-07 0 -1
  outer loop
   vertex 0.466667 -0.541667 0.541667
   vertex 0.216667 0.216667 0.541667
   vertex 0.466667 -0.391667 0.541667
  endloop
 endfacet
 facet normal 0 0 1
  outer loop
   vertex -0.541667 -0.541667 -0.541667
   vertex 0.466667 -0.541667 -0.541667
   vertex 0.216667 0.216667 -0.541667
  endloop
 endfacet
 facet normal 0 0 1
  outer loop
   vertex 0.433333 0 -0.541667
   vertex 0.216667 0.216667 -0.541667
   vertex 0.466667 -0.391667 -0.541667
  endloop
 endfacet
 facet normal 0 0 1
  outer loop
   vertex 0.466667 -0.541667 -0.541667
   vertex 0.466667 -0.391667 -0.541667
   vertex 0.216667 0.216667 -0.541667
  endloop
 endfacet
 facet normal 0 1 -0
  outer loop
   vertex 11.375 1 1.16667
   vertex 11.375 1 0.541667
   vertex 1 1 0.622523
  endloop
 endfacet
 facet normal 0 1 0
  outer loop
   vertex 1 1 0.541667
   vertex 1 1 0.622523
   vertex 11.375 1 0.541667
  endloop
 endfacet
 facet normal -0 1 0
  outer loop
   vertex 11.375 1 -1.16667
   vertex 1 1 -0.622523
   vertex 11.375 1 -0.541667
  endloop
 endfacet
 facet normal 0 1 0
  outer loop
   vertex 1 1 -0.541667
   vertex 11.375 1 -0.541667
   vertex 1 1 -0.622523
  endloop
 endfacet
 facet normal -0.707107 -0.707107 0
  outer loop
   vertex 0.216667 0.216667 2.98023e-08
   vertex 0.216667 0.216667 -0.541667
   vertex 0.433333 0 -0.541667
  endloop
 endfacet
 facet normal -0.707107 -0.707107 0
  outer loop
   vertex 0.216667 0.216667 0.541667
   vertex 0.216667 0.216667 2.98023e-08
   vertex 0.433333 0 0.541667
  endloop
 endfacet
 facet normal -0.707107 -0.707107 -0
  outer loop
   vertex 0.433333 0 -0.541667
   vertex 0.433333 0 0.541667
   vertex 0.216667 0.216667 2.98023e-08
  endloop
 endfacet
 facet normal 0 1 -0
  outer loop
   vertex 11.375 1 0.541667
   vertex 11.375 1 -0.541667
   vertex 1 1 -0.446429
  endloop
 endfacet
 facet normal 0 1 0
  outer loop
   vertex 1 1 -0.541667
   vertex 1 1 -0.446429
   vertex 11.375 1 -0.541667
  endloop
 endfacet
 facet normal -0 1 0
  outer loop
   vertex 1 1 -0.446429
   vertex 1 1 0.541667
   vertex 11.375 1 0.541667
  endloop
 endfacet
 facet normal -0.707107 0.707107 0
  outer loop
   vertex 1 1 1.31667
   vertex 0.216667 0.216667 0.541667
   vertex 0.15 0.15 1.31667
  endloop
 endfacet
 facet normal -0.707107 0.707107 0
  outer loop
   vertex 0.15 0.15 1.16667
   vertex 0.15 0.15 1.30796
   vertex 0.216667 0.216667 0.541667
  endloop
 endfacet
 facet normal -0.707107 0.707107 0
  outer loop
   vertex 0.15 0.15 1.31667
   vertex 0.216667 0.216667 0.541667
   vertex 0.15 0.15 1.30796
  endloop
 endfacet
 facet normal -0.707107 0.707107 0
  outer loop
   vertex -0.541667 -0.541667 1.16667
   vertex -0.0917115 -0.0917115 1.16667
   vertex -0.541667 -0.541667 0.541667
  endloop
 endfacet
 facet normal -0.707107 0.707107 0
  outer loop
   vertex -0.541667 -0.541667 0.541667
   vertex -0.0917115 -0.0917115 1.16667
   vertex 0.216667 0.216667 0.541667
  endloop
 endfacet
 facet normal -0.707107 0.707107 0
  outer loop
   vertex 0.15 0.15 1.16667
   vertex 0.216667 0.216667 0.541667
   vertex -0.0917115 -0.0917115 1.16667
  endloop
 endfacet
 facet normal -0.707107 0.707107 0
  outer loop
   vertex 0.216667 0.216667 0.541667
   vertex 1 1 1.31667
   vertex 0.216667 0.216667 2.98023e-08
  endloop
 endfacet
 facet normal -0.707107 0.707107 0
  outer loop
   vertex 0.216667 0.216667 -0.541667
   vertex 0.216667 0.216667 2.98023e-08
   vertex 1 1 -1.31667
  endloop
 endfacet
 facet normal -0.707107 0.707107 0
  outer loop
   vertex 1 1 1.31667
   vertex 1 1 1.18607
   vertex 0.216667 0.216667 2.98023e-08
  endloop
 endfacet
 facet normal -0.707107 0.707107 0
  outer loop
   vertex 1 1 -1.31667
   vertex 0.216667 0.216667 2.98023e-08
   vertex 1 1 -1.18607
  endloop
 endfacet
 facet normal -0.707107 0.707107 0
  outer loop
   vertex 1 1 1.18607
   vertex 1 1 1.16667
   vertex 0.216667 0.216667 2.98023e-08
  endloop
 endfacet
 facet normal -0.707107 0.707107 0
  outer loop
   vertex 1 1 1.16667
   vertex 1 1 0.622523
   vertex 0.216667 0.216667 2.98023e-08
  endloop
 endfacet
 facet normal -0.707107 0.707107 0
  outer loop
   vertex 1 1 0.622523
   vertex 1 1 0.541667
   vertex 0.216667 0.216667 2.98023e-08
  endloop
 endfacet
 facet normal -0.707107 0.707107 0
  outer loop
   vertex 1 1 0.541667
   vertex 1 1 -0.446429
   vertex 0.216667 0.216667 2.98023e-08
  endloop
 endfacet
 facet normal -0.707107 0.707107 0
  outer loop
   vertex 1 1 -0.446429
   vertex 1 1 -0.541667
   vertex 0.216667 0.216667 2.98023e-08
  endloop
 endfacet
 facet normal -0.707107 0.707107 0
  outer loop
   vertex 1 1 -0.541667
   vertex 1 1 -0.622523
   vertex 0.216667 0.216667 2.98023e-08
  endloop
 endfacet
 facet normal -0.707107 0.707107 0
  outer loop
   vertex 1 1 -0.622523
   vertex 1 1 -1.16667
   vertex 0.216667 0.216667 2.98023e-08
  endloop
 endfacet
 facet normal -0.707107 0.707107 0
  outer loop
   vertex 1 1 -1.18607
   vertex 0.216667 0.216667 2.98023e-08
   vertex 1 1 -1.16667
  endloop
 endfacet
 facet normal -0.707107 0.707107 0
  outer loop
   vertex 1 1 -1.31667
   vertex 0.15 0.15 -1.31667
   vertex 0.216667 0.216667 -0.541667
  endloop
 endfacet
 facet normal -0.707107 0.707107 0
  outer loop
   vertex 0.15 0.15 -1.16667
   vertex 0.216667 0.216667 -0.541667
   vertex 0.15 0.15 -1.30796
  endloop
 endfacet
 facet normal -0.707107 0.707107 0
  outer loop
   vertex 0.15 0.15 -1.31667
   vertex 0.15 0.15 -1.30796
   vertex 0.216667 0.216667 -0.541667
  endloop
 endfacet
 facet normal -0.707107 0.707107 0
  outer loop
   vertex -0.541667 -0.541667 -1.16667
   vertex -0.541667 -0.541667 -0.541667
   vertex -0.0917115 -0.0917115 -1.16667
  endloop
 endfacet
 facet normal -0.707107 0.707107 0
  outer loop
   vertex -0.541667 -0.541667 -0.541667
   vertex 0.216667 0.216667 -0.541667
   vertex -0.0917115 -0.0917115 -1.16667
  endloop
 endfacet
 facet normal -0.707107 0.707107 0
  outer loop
   vertex 0.15 0.15 -1.16667
   vertex -0.0917115 -0.0917115 -1.16667
   vertex 0.216667 0.216667 -0.541667
  endloop
 endfacet
endsolid
