solid ascii
 facet normal 1 0 0
  outer loop
   vertex 0.466667 -0.541667 0.541667
   vertex 0.466667 -0.391667 0.541667
   vertex 0.466667 -0.541667 1.16667
  endloop
 endfacet
 facet normal 1 0 -0
  outer loop
   vertex 0.466667 -0.541667 1.16667
   vertex 0.466667 -0.391667 0.541667
   vertex 0.466667 -0.391667 1.16667
  endloop
 endfacet
 facet normal 0 -1 0
  outer loop
   vertex 0.466667 -0.391667 0.541667
   vertex 0.616667 -0.391667 0.541667
   vertex 0.466667 -0.391667 1.16667
  endloop
 endfacet
 facet normal 0 -1 0
  outer loop
   vertex 0.466667 -0.391667 1.16667
   vertex 0.616667 -0.391667 0.541667
   vertex 0.616667 -0.391667 1.16667
  endloop
 endfacet
 facet normal -1 0 0
  outer loop
   vertex 0.616667 -0.391667 0.541667
   vertex 0.616667 -0.541667 0.541667
   vertex 0.616667 -0.391667 1.16667
  endloop
 endfacet
 facet normal -1 0 0
  outer loop
   vertex 0.616667 -0.391667 1.16667
   vertex 0.616667 -0.541667 0.541667
   vertex 0.616667 -0.541667 1.16667
  endloop
 endfacet
 facet normal 0 -1 0
  outer loop
   vertex 0.616667 -0.541667 0.541667
   vertex 1.55 -0.541667 0.541667
   vertex 0.616667 -0.541667 1.16667
  endloop
 endfacet
 facet normal 0 -1 0
  outer loop
   vertex 0.616667 -0.541667 1.16667
   vertex 1.55 -0.541667 0.541667
   vertex 1.55 -0.541667 1.16667
  endloop
 endfacet
 facet normal 1 0 0
  outer loop
   vertex 1.55 -0.541667 0.541667
   vertex 1.55 -0.391667 0.541667
   vertex 1.55 -0.541667 1.16667
  endloop
 endfacet
 facet normal 1 0 -0
  outer loop
   vertex 1.55 -0.541667 1.16667
   vertex 1.55 -0.391667 0.541667
   vertex 1.55 -0.391667 1.16667
  endloop
 endfacet
 facet normal 0 -1 0
  outer loop
   vertex 1.55 -0.391667 0.541667
   vertex 1.7 -0.391667 0.541667
   vertex 1.55 -0.391667 1.16667
  endloop
 endfacet
 facet normal 0 -1 0
  outer loop
   vertex 1.55 -0.391667 1.16667
   vertex 1.7 -0.391667 0.541667
   vertex 1.7 -0.391667 1.16667
  endloop
 endfacet
 facet normal -1 0 0
  outer loop
   vertex 1.7 -0.391667 0.541667
   vertex 1.7 -0.541667 0.541667
   vertex 1.7 -0.391667 1.16667
  endloop
 endfacet
 facet normal -1 0 0
  outer loop
   vertex 1.7 -0.391667 1.16667
   vertex 1.7 -0.541667 0.541667
   vertex 1.7 -0.541667 1.16667
  endloop
 endfacet
 facet normal 0 -1 0
  outer loop
   vertex 1.7 -0.541667 0.541667
   vertex 2.63333 -0.541667 0.541667
   vertex 1.7 -0.541667 1.16667
  endloop
 endfacet
 facet normal 0 -1 0
  outer loop
   vertex 1.7 -0.541667 1.16667
   vertex 2.63333 -0.541667 0.541667
   vertex 2.63333 -0.541667 1.16667
  endloop
 endfacet
 facet normal 1 0 0
  outer loop
   vertex 2.63333 -0.541667 0.541667
   vertex 2.63333 -0.391667 0.541667
   vertex 2.63333 -0.541667 1.16667
  endloop
 endfacet
 facet normal 1 0 -0
  outer loop
   vertex 2.63333 -0.541667 1.16667
   vertex 2.63333 -0.391667 0.541667
   vertex 2.63333 -0.391667 1.16667
  endloop
 endfacet
 facet normal 0 -1 0
  outer loop
   vertex 2.63333 -0.391667 0.541667
   vertex 2.78333 -0.391667 0.541667
   vertex 2.63333 -0.391667 1.16667
  endloop
 endfacet
 facet normal 0 -1 0
  outer loop
   vertex 2.63333 -0.391667 1.16667
   vertex 2.78333 -0.391667 0.541667
   vertex 2.78333 -0.391667 1.16667
  endloop
 endfacet
 facet normal -1 0 0
  outer loop
   vertex 2.78333 -0.391667 0.541667
   vertex 2.78333 -0.541667 0.541667
   vertex 2.78333 -0.391667 1.16667
  endloop
 endfacet
 facet normal -1 0 0
  outer loop
   vertex 2.78333 -0.391667 1.16667
   vertex 2.78333 -0.541667 0.541667
   vertex 2.78333 -0.541667 1.16667
  endloop
 endfacet
 facet normal 0 -1 0
  outer loop
   vertex 2.78333 -0.541667 0.541667
   vertex 3.71667 -0.541667 0.541667
   vertex 2.78333 -0.541667 1.16667
  endloop
 endfacet
 facet normal 0 -1 0
  outer loop
   vertex 2.78333 -0.541667 1.16667
   vertex 3.71667 -0.541667 0.541667
   vertex 3.71667 -0.541667 1.16667
  endloop
 endfacet
 facet normal 1 0 0
  outer loop
   vertex 3.71667 -0.541667 0.541667
   vertex 3.71667 -0.391667 0.541667
   vertex 3.71667 -0.541667 1.16667
  endloop
 endfacet
 facet normal 1 0 -0
  outer loop
   vertex 3.71667 -0.541667 1.16667
   vertex 3.71667 -0.391667 0.541667
   vertex 3.71667 -0.391667 1.16667
  endloop
 endfacet
 facet normal 0 -1 0
  outer loop
   vertex 3.71667 -0.391667 0.541667
   vertex 3.86667 -0.391667 0.541667
   vertex 3.71667 -0.391667 1.16667
  endloop
 endfacet
 facet normal 0 -1 0
  outer loop
   vertex 3.71667 -0.391667 1.16667
   vertex 3.86667 -0.391667 0.541667
   vertex 3.86667 -0.391667 1.16667
  endloop
 endfacet
 facet normal -1 0 0
  outer loop
   vertex 3.86667 -0.391667 0.541667
   vertex 3.86667 -0.541667 0.541667
   vertex 3.86667 -0.391667 1.16667
  endloop
 endfacet
 facet normal -1 0 0
  outer loop
   vertex 3.86667 -0.391667 1.16667
   vertex 3.86667 -0.541667 0.541667
   vertex 3.86667 -0.541667 1.16667
  endloop
 endfacet
 facet normal 0 -1 0
  outer loop
   vertex 3.86667 -0.541667 0.541667
   vertex 4.8 -0.541667 0.541667
   vertex 3.86667 -0.541667 1.16667
  endloop
 endfacet
 facet normal 0 -1 0
  outer loop
   vertex 3.86667 -0.541667 1.16667
   vertex 4.8 -0.541667 0.541667
   vertex 4.8 -0.541667 1.16667
  endloop
 endfacet
 facet normal 1 0 0
  outer loop
   vertex 4.8 -0.541667 0.541667
   vertex 4.8 -0.391667 0.541667
   vertex 4.8 -0.541667 1.16667
  endloop
 endfacet
 facet normal 1 0 -0
  outer loop
   vertex 4.8 -0.541667 1.16667
   vertex 4.8 -0.391667 0.541667
   vertex 4.8 -0.391667 1.16667
  endloop
 endfacet
 facet normal 0 -1 0
  outer loop
   vertex 4.8 -0.391667 0.541667
   vertex 4.95 -0.391667 0.541667
   vertex 4.8 -0.391667 1.16667
  endloop
 endfacet
 facet normal 0 -1 0
  outer loop
   vertex 4.8 -0.391667 1.16667
   vertex 4.95 -0.391667 0.541667
   vertex 4.95 -0.391667 1.16667
  endloop
 endfacet
 facet normal -1 0 0
  outer loop
   vertex 4.95 -0.391667 0.541667
   vertex 4.95 -0.541667 0.541667
   vertex 4.95 -0.391667 1.16667
  endloop
 endfacet
 facet normal -1 0 0
  outer loop
   vertex 4.95 -0.391667 1.16667
   vertex 4.95 -0.541667 0.541667
   vertex 4.95 -0.541667 1.16667
  endloop
 endfacet
 facet normal 0 -1 0
  outer loop
   vertex 4.95 -0.541667 0.541667
   vertex 5.88333 -0.541667 0.541667
   vertex 4.95 -0.541667 1.16667
  endloop
 endfacet
 facet normal 0 -1 0
  outer loop
   vertex 4.95 -0.541667 1.16667
   vertex 5.88333 -0.541667 0.541667
   vertex 5.88333 -0.541667 1.16667
  endloop
 endfacet
 facet normal 1 0 0
  outer loop
   vertex 5.88333 -0.541667 0.541667
   vertex 5.88333 -0.391667 0.541667
   vertex 5.88333 -0.541667 1.16667
  endloop
 endfacet
 facet normal 1 0 -0
  outer loop
   vertex 5.88333 -0.541667 1.16667
   vertex 5.88333 -0.391667 0.541667
   vertex 5.88333 -0.391667 1.16667
  endloop
 endfacet
 facet normal 0 -1 0
  outer loop
   vertex 5.88333 -0.391667 0.541667
   vertex 6.03333 -0.391667 0.541667
   vertex 5.88333 -0.391667 1.16667
  endloop
 endfacet
 facet normal 0 -1 0
  outer loop
   vertex 5.88333 -0.391667 1.16667
   vertex 6.03333 -0.391667 0.541667
   vertex 6.03333 -0.391667 1.16667
  endloop
 endfacet
 facet normal -1 0 0
  outer loop
   vertex 6.03333 -0.391667 0.541667
   vertex 6.03333 -0.541667 0.541667
   vertex 6.03333 -0.391667 1.16667
  endloop
 endfacet
 facet normal -1 0 0
  outer loop
   vertex 6.03333 -0.391667 1.16667
   vertex 6.03333 -0.541667 0.541667
   vertex 6.03333 -0.541667 1.16667
  endloop
 endfacet
 facet normal 0 -1 0
  outer loop
   vertex 6.03333 -0.541667 0.541667
   vertex 8.58333 -0.541667 0.541667
   vertex 6.03333 -0.541667 1.16667
  endloop
 endfacet
 facet normal 0 0 1
  outer loop
   vertex 0.616667 -0.391667 1.16667
   vertex 0.616667 -0.541667 1.16667
   vertex 1.55 -0.391667 1.16667
  endloop
 endfacet
 facet normal 0 0 1
  outer loop
   vertex 1.55 -0.541667 1.16667
   vertex 1.55 -0.391667 1.16667
   vertex 0.616667 -0.541667 1.16667
  endloop
 endfacet
 facet normal 0 0 1
  outer loop
   vertex 1.7 -0.391667 1.16667
   vertex 1.7 -0.541667 1.16667
   vertex 2.63333 -0.391667 1.16667
  endloop
 endfacet
 facet normal 0 0 1
  outer loop
   vertex 2.63333 -0.541667 1.16667
   vertex 2.63333 -0.391667 1.16667
   vertex 1.7 -0.541667 1.16667
  endloop
 endfacet
 facet normal 0 0 1
  outer loop
   vertex 2.78333 -0.391667 1.16667
   vertex 2.78333 -0.541667 1.16667
   vertex 3.71667 -0.391667 1.16667
  endloop
 endfacet
 facet normal 0 0 1
  outer loop
   vertex 3.71667 -0.541667 1.16667
   vertex 3.71667 -0.391667 1.16667
   vertex 2.78333 -0.541667 1.16667
  endloop
 endfacet
 facet normal 0 0 1
  outer loop
   vertex 3.86667 -0.391667 1.16667
   vertex 3.86667 -0.541667 1.16667
   vertex 4.8 -0.391667 1.16667
  endloop
 endfacet
 facet normal 0 0 1
  outer loop
   vertex 4.8 -0.541667 1.16667
   vertex 4.8 -0.391667 1.16667
   vertex 3.86667 -0.541667 1.16667
  endloop
 endfacet
 facet normal 0 0 1
  outer loop
   vertex 4.95 -0.391667 1.16667
   vertex 4.95 -0.541667 1.16667
   vertex 5.88333 -0.391667 1.16667
  endloop
 endfacet
 facet normal 0 0 1
  outer loop
   vertex 5.88333 -0.541667 1.16667
   vertex 5.88333 -0.391667 1.16667
   vertex 4.95 -0.541667 1.16667
  endloop
 endfacet
 facet normal -0 0 1
  outer loop
   vertex 7.73333 0.15 1.16667
   vertex 6.03333 -0.391667 1.16667
   vertex 7.73333 -0.541667 1.16667
  endloop
 endfacet
 facet normal 0 0 1
  outer loop
   vertex 6.03333 -0.541667 1.16667
   vertex 7.73333 -0.541667 1.16667
   vertex 6.03333 -0.391667 1.16667
  endloop
 endfacet
 facet normal 1 -0 0
  outer loop
   vertex 8.58333 1 1.16667
   vertex 8.58333 -0.541667 1.16667
   vertex 8.58333 1 0.541667
  endloop
 endfacet
 facet normal 0 -1 0
  outer loop
   vertex 8.58333 -0.541667 1.16667
   vertex 7.73333 -0.541667 1.16667
   vertex 8.58333 -0.541667 0.541667
  endloop
 endfacet
 facet normal -0 -1 -0
  outer loop
   vertex 8.58333 -0.541667 0.541667
   vertex 7.73333 -0.541667 1.16667
   vertex 6.03333 -0.541667 1.16667
  endloop
 endfacet
 facet normal -1 0 0
  outer loop
   vertex 7.73333 0.15 1.31667
   vertex 7.73333 -0.541667 1.16667
   vertex 7.73333 -0.541667 1.31667
  endloop
 endfacet
 facet normal 0 -1 0
  outer loop
   vertex 7.73333 -0.541667 1.31667
   vertex 8.58333 -0.541667 1.16667
   vertex 8.58333 -0.541667 1.31667
  endloop
 endfacet
 facet normal 1 0 -0
  outer loop
   vertex 8.58333 -0.541667 1.31667
   vertex 8.58333 1 1.16667
   vertex 8.58333 1 1.31667
  endloop
 endfacet
 facet normal -1 0 0
  outer loop
   vertex 7.73333 0.15 1.16667
   vertex 7.73333 -0.541667 1.16667
   vertex 7.73333 0.15 1.31667
  endloop
 endfacet
 facet normal 0 -1 0
  outer loop
   vertex 7.73333 -0.541667 1.16667
   vertex 8.58333 -0.541667 1.16667
   vertex 7.73333 -0.541667 1.31667
  endloop
 endfacet
 facet normal 1 0 0
  outer loop
   vertex 8.58333 -0.541667 1.16667
   vertex 8.58333 1 1.16667
   vertex 8.58333 -0.541667 1.31667
  endloop
 endfacet
 facet normal 1 0 0
  outer loop
   vertex 0.466667 -0.541667 -1.16667
   vertex 0.466667 -0.391667 -0.541667
   vertex 0.466667 -0.541667 -0.541667
  endloop
 endfacet
 facet normal 1 0 0
  outer loop
   vertex 0.466667 -0.391667 -1.16667
   vertex 0.466667 -0.391667 -0.541667
   vertex 0.466667 -0.541667 -1.16667
  endloop
 endfacet
 facet normal -0 -1 0
  outer loop
   vertex 0.466667 -0.391667 -1.16667
   vertex 0.616667 -0.391667 -0.541667
   vertex 0.466667 -0.391667 -0.541667
  endloop
 endfacet
 facet normal 0 -1 -0
  outer loop
   vertex 0.616667 -0.391667 -1.16667
   vertex 0.616667 -0.391667 -0.541667
   vertex 0.466667 -0.391667 -1.16667
  endloop
 endfacet
 facet normal -1 0 0
  outer loop
   vertex 0.616667 -0.391667 -1.16667
   vertex 0.616667 -0.541667 -0.541667
   vertex 0.616667 -0.391667 -0.541667
  endloop
 endfacet
 facet normal -1 0 0
  outer loop
   vertex 0.616667 -0.541667 -1.16667
   vertex 0.616667 -0.541667 -0.541667
   vertex 0.616667 -0.391667 -1.16667
  endloop
 endfacet
 facet normal -0 -1 0
  outer loop
   vertex 0.616667 -0.541667 -1.16667
   vertex 1.55 -0.541667 -0.541667
   vertex 0.616667 -0.541667 -0.541667
  endloop
 endfacet
 facet normal 0 -1 -0
  outer loop
   vertex 1.55 -0.541667 -1.16667
   vertex 1.55 -0.541667 -0.541667
   vertex 0.616667 -0.541667 -1.16667
  endloop
 endfacet
 facet normal 1 0 0
  outer loop
   vertex 1.55 -0.541667 -1.16667
   vertex 1.55 -0.391667 -0.541667
   vertex 1.55 -0.541667 -0.541667
  endloop
 endfacet
 facet normal 1 0 0
  outer loop
   vertex 1.55 -0.391667 -1.16667
   vertex 1.55 -0.391667 -0.541667
   vertex 1.55 -0.541667 -1.16667
  endloop
 endfacet
 facet normal -0 -1 0
  outer loop
   vertex 1.55 -0.391667 -1.16667
   vertex 1.7 -0.391667 -0.541667
   vertex 1.55 -0.391667 -0.541667
  endloop
 endfacet
 facet normal 0 -1 -0
  outer loop
   vertex 1.7 -0.391667 -1.16667
   vertex 1.7 -0.391667 -0.541667
   vertex 1.55 -0.391667 -1.16667
  endloop
 endfacet
 facet normal -1 0 0
  outer loop
   vertex 1.7 -0.391667 -1.16667
   vertex 1.7 -0.541667 -0.541667
   vertex 1.7 -0.391667 -0.541667
  endloop
 endfacet
 facet normal -1 0 0
  outer loop
   vertex 1.7 -0.541667 -1.16667
   vertex 1.7 -0.541667 -0.541667
   vertex 1.7 -0.391667 -1.16667
  endloop
 endfacet
 facet normal -0 -1 0
  outer loop
   vertex 1.7 -0.541667 -1.16667
   vertex 2.63333 -0.541667 -0.541667
   vertex 1.7 -0.541667 -0.541667
  endloop
 endfacet
 facet normal 0 -1 -0
  outer loop
   vertex 2.63333 -0.541667 -1.16667
   vertex 2.63333 -0.541667 -0.541667
   vertex 1.7 -0.541667 -1.16667
  endloop
 endfacet
 facet normal 1 0 0
  outer loop
   vertex 2.63333 -0.541667 -1.16667
   vertex 2.63333 -0.391667 -0.541667
   vertex 2.63333 -0.541667 -0.541667
  endloop
 endfacet
 facet normal 1 0 0
  outer loop
   vertex 2.63333 -0.391667 -1.16667
   vertex 2.63333 -0.391667 -0.541667
   vertex 2.63333 -0.541667 -1.16667
  endloop
 endfacet
 facet normal -0 -1 0
  outer loop
   vertex 2.63333 -0.391667 -1.16667
   vertex 2.78333 -0.391667 -0.541667
   vertex 2.63333 -0.391667 -0.541667
  endloop
 endfacet
 facet normal 0 -1 -0
  outer loop
   vertex 2.78333 -0.391667 -1.16667
   vertex 2.78333 -0.391667 -0.541667
   vertex 2.63333 -0.391667 -1.16667
  endloop
 endfacet
 facet normal -1 0 0
  outer loop
   vertex 2.78333 -0.391667 -1.16667
   vertex 2.78333 -0.541667 -0.541667
   vertex 2.78333 -0.391667 -0.541667
  endloop
 endfacet
 facet normal -1 0 0
  outer loop
   vertex 2.78333 -0.541667 -1.16667
   vertex 2.78333 -0.541667 -0.541667
   vertex 2.78333 -0.391667 -1.16667
  endloop
 endfacet
 facet normal -0 -1 0
  outer loop
   vertex 2.78333 -0.541667 -1.16667
   vertex 3.71667 -0.541667 -0.541667
   vertex 2.78333 -0.541667 -0.541667
  endloop
 endfacet
 facet normal 0 -1 -0
  outer loop
   vertex 3.71667 -0.541667 -1.16667
   vertex 3.71667 -0.541667 -0.541667
   vertex 2.78333 -0.541667 -1.16667
  endloop
 endfacet
 facet normal 1 0 0
  outer loop
   vertex 3.71667 -0.541667 -1.16667
   vertex 3.71667 -0.391667 -0.541667
   vertex 3.71667 -0.541667 -0.541667
  endloop
 endfacet
 facet normal 1 0 0
  outer loop
   vertex 3.71667 -0.391667 -1.16667
   vertex 3.71667 -0.391667 -0.541667
   vertex 3.71667 -0.541667 -1.16667
  endloop
 endfacet
 facet normal -0 -1 0
  outer loop
   vertex 3.71667 -0.391667 -1.16667
   vertex 3.86667 -0.391667 -0.541667
   vertex 3.71667 -0.391667 -0.541667
  endloop
 endfacet
 facet normal 0 -1 -0
  outer loop
   vertex 3.86667 -0.391667 -1.16667
   vertex 3.86667 -0.391667 -0.541667
   vertex 3.71667 -0.391667 -1.16667
  endloop
 endfacet
 facet normal -1 0 0
  outer loop
   vertex 3.86667 -0.391667 -1.16667
   vertex 3.86667 -0.541667 -0.541667
   vertex 3.86667 -0.391667 -0.541667
  endloop
 endfacet
 facet normal -1 0 0
  outer loop
   vertex 3.86667 -0.541667 -1.16667
   vertex 3.86667 -0.541667 -0.541667
   vertex 3.86667 -0.391667 -1.16667
  endloop
 endfacet
 facet normal -0 -1 0
  outer loop
   vertex 3.86667 -0.541667 -1.16667
   vertex 4.8 -0.541667 -0.541667
   vertex 3.86667 -0.541667 -0.541667
  endloop
 endfacet
 facet normal 0 -1 -0
  outer loop
   vertex 4.8 -0.541667 -1.16667
   vertex 4.8 -0.541667 -0.541667
   vertex 3.86667 -0.541667 -1.16667
  endloop
 endfacet
 facet normal 1 0 0
  outer loop
   vertex 4.8 -0.541667 -1.16667
   vertex 4.8 -0.391667 -0.541667
   vertex 4.8 -0.541667 -0.541667
  endloop
 endfacet
 facet normal 1 0 0
  outer loop
   vertex 4.8 -0.391667 -1.16667
   vertex 4.8 -0.391667 -0.541667
   vertex 4.8 -0.541667 -1.16667
  endloop
 endfacet
 facet normal -0 -1 0
  outer loop
   vertex 4.8 -0.391667 -1.16667
   vertex 4.95 -0.391667 -0.541667
   vertex 4.8 -0.391667 -0.541667
  endloop
 endfacet
 facet normal 0 -1 -0
  outer loop
   vertex 4.95 -0.391667 -1.16667
   vertex 4.95 -0.391667 -0.541667
   vertex 4.8 -0.391667 -1.16667
  endloop
 endfacet
 facet normal -1 0 0
  outer loop
   vertex 4.95 -0.391667 -1.16667
   vertex 4.95 -0.541667 -0.541667
   vertex 4.95 -0.391667 -0.541667
  endloop
 endfacet
 facet normal -1 0 0
  outer loop
   vertex 4.95 -0.541667 -1.16667
   vertex 4.95 -0.541667 -0.541667
   vertex 4.95 -0.391667 -1.16667
  endloop
 endfacet
 facet normal -0 -1 0
  outer loop
   vertex 4.95 -0.541667 -1.16667
   vertex 5.88333 -0.541667 -0.541667
   vertex 4.95 -0.541667 -0.541667
  endloop
 endfacet
 facet normal 0 -1 -0
  outer loop
   vertex 5.88333 -0.541667 -1.16667
   vertex 5.88333 -0.541667 -0.541667
   vertex 4.95 -0.541667 -1.16667
  endloop
 endfacet
 facet normal 1 0 0
  outer loop
   vertex 5.88333 -0.541667 -1.16667
   vertex 5.88333 -0.391667 -0.541667
   vertex 5.88333 -0.541667 -0.541667
  endloop
 endfacet
 facet normal 1 0 0
  outer loop
   vertex 5.88333 -0.391667 -1.16667
   vertex 5.88333 -0.391667 -0.541667
   vertex 5.88333 -0.541667 -1.16667
  endloop
 endfacet
 facet normal -0 -1 0
  outer loop
   vertex 5.88333 -0.391667 -1.16667
   vertex 6.03333 -0.391667 -0.541667
   vertex 5.88333 -0.391667 -0.541667
  endloop
 endfacet
 facet normal 0 -1 -0
  outer loop
   vertex 6.03333 -0.391667 -1.16667
   vertex 6.03333 -0.391667 -0.541667
   vertex 5.88333 -0.391667 -1.16667
  endloop
 endfacet
 facet normal -1 0 0
  outer loop
   vertex 6.03333 -0.391667 -1.16667
   vertex 6.03333 -0.541667 -0.541667
   vertex 6.03333 -0.391667 -0.541667
  endloop
 endfacet
 facet normal -1 0 0
  outer loop
   vertex 6.03333 -0.541667 -1.16667
   vertex 6.03333 -0.541667 -0.541667
   vertex 6.03333 -0.391667 -1.16667
  endloop
 endfacet
 facet normal -0 -1 0
  outer loop
   vertex 6.03333 -0.541667 -1.16667
   vertex 8.58333 -0.541667 -0.541667
   vertex 6.03333 -0.541667 -0.541667
  endloop
 endfacet
 facet normal 0 0 -1
  outer loop
   vertex 7.73333 0.15 -1.16667
   vertex 7.73333 -0.541667 -1.16667
   vertex 6.03333 -0.391667 -1.16667
  endloop
 endfacet
 facet normal 0 0 -1
  outer loop
   vertex 6.03333 -0.541667 -1.16667
   vertex 6.03333 -0.391667 -1.16667
   vertex 7.73333 -0.541667 -1.16667
  endloop
 endfacet
 facet normal 0 0 -1
  outer loop
   vertex 5.88333 -0.391667 -1.16667
   vertex 5.88333 -0.541667 -1.16667
   vertex 4.95 -0.391667 -1.16667
  endloop
 endfacet
 facet normal 0 0 -1
  outer loop
   vertex 4.95 -0.541667 -1.16667
   vertex 4.95 -0.391667 -1.16667
   vertex 5.88333 -0.541667 -1.16667
  endloop
 endfacet
 facet normal 0 0 -1
  outer loop
   vertex 4.8 -0.391667 -1.16667
   vertex 4.8 -0.541667 -1.16667
   vertex 3.86667 -0.391667 -1.16667
  endloop
 endfacet
 facet normal 0 0 -1
  outer loop
   vertex 3.86667 -0.541667 -1.16667
   vertex 3.86667 -0.391667 -1.16667
   vertex 4.8 -0.541667 -1.16667
  endloop
 endfacet
 facet normal 0 0 -1
  outer loop
   vertex 3.71667 -0.391667 -1.16667
   vertex 3.71667 -0.541667 -1.16667
   vertex 2.78333 -0.391667 -1.16667
  endloop
 endfacet
 facet normal 0 0 -1
  outer loop
   vertex 2.78333 -0.541667 -1.16667
   vertex 2.78333 -0.391667 -1.16667
   vertex 3.71667 -0.541667 -1.16667
  endloop
 endfacet
 facet normal 0 0 -1
  outer loop
   vertex 2.63333 -0.391667 -1.16667
   vertex 2.63333 -0.541667 -1.16667
   vertex 1.7 -0.391667 -1.16667
  endloop
 endfacet
 facet normal 0 0 -1
  outer loop
   vertex 1.7 -0.541667 -1.16667
   vertex 1.7 -0.391667 -1.16667
   vertex 2.63333 -0.541667 -1.16667
  endloop
 endfacet
 facet normal 0 0 -1
  outer loop
   vertex 1.55 -0.391667 -1.16667
   vertex 1.55 -0.541667 -1.16667
   vertex 0.616667 -0.391667 -1.16667
  endloop
 endfacet
 facet normal 0 0 -1
  outer loop
   vertex 0.616667 -0.541667 -1.16667
   vertex 0.616667 -0.391667 -1.16667
   vertex 1.55 -0.541667 -1.16667
  endloop
 endfacet
 facet normal 1 0 -0
  outer loop
   vertex 8.58333 -0.541667 -1.16667
   vertex 8.58333 1 -1.16667
   vertex 8.58333 1 -0.541667
  endloop
 endfacet
 facet normal 0 -1 -0
  outer loop
   vertex 8.58333 -0.541667 -1.16667
   vertex 8.58333 -0.541667 -0.541667
   vertex 7.73333 -0.541667 -1.16667
  endloop
 endfacet
 facet normal 0 -1 0
  outer loop
   vertex 8.58333 -0.541667 -0.541667
   vertex 6.03333 -0.541667 -1.16667
   vertex 7.73333 -0.541667 -1.16667
  endloop
 endfacet
 facet normal -1 0 0
  outer loop
   vertex 7.73333 -0.541667 -1.31667
   vertex 7.73333 -0.541667 -1.16667
   vertex 7.73333 0.15 -1.31667
  endloop
 endfacet
 facet normal 0 -1 -0
  outer loop
   vertex 8.58333 -0.541667 -1.31667
   vertex 8.58333 -0.541667 -1.16667
   vertex 7.73333 -0.541667 -1.31667
  endloop
 endfacet
 facet normal 1 0 0
  outer loop
   vertex 8.58333 1 -1.31667
   vertex 8.58333 1 -1.16667
   vertex 8.58333 -0.541667 -1.31667
  endloop
 endfacet
 facet normal -1 0 0
  outer loop
   vertex 7.73333 0.15 -1.31667
   vertex 7.73333 -0.541667 -1.16667
   vertex 7.73333 0.15 -1.16667
  endloop
 endfacet
 facet normal -0 -1 0
  outer loop
   vertex 7.73333 -0.541667 -1.31667
   vertex 8.58333 -0.541667 -1.16667
   vertex 7.73333 -0.541667 -1.16667
  endloop
 endfacet
 facet normal 1 0 0
  outer loop
   vertex 8.58333 -0.541667 -1.31667
   vertex 8.58333 1 -1.16667
   vertex 8.58333 -0.541667 -1.16667
  endloop
 endfacet
 facet normal 0 0 -1
  outer loop
   vertex 0.866667 0.433333 0.541667
   vertex 0.616667 -0.391667 0.541667
   vertex 0.433333 0 0.541667
  endloop
 endfacet
 facet normal 0 0 -1
  outer loop
   vertex 0.466667 -0.391667 0.541667
   vertex 0.433333 0 0.541667
   vertex 0.616667 -0.391667 0.541667
  endloop
 endfacet
 facet normal -0 0 -1
  outer loop
   vertex 0.866667 0.433333 0.541667
   vertex 1.3 0 0.541667
   vertex 0.616667 -0.391667 0.541667
  endloop
 endfacet
 facet normal 0 0 -1
  outer loop
   vertex 1.3 0 0.541667
   vertex 1.55 -0.391667 0.541667
   vertex 0.616667 -0.391667 0.541667
  endloop
 endfacet
 facet normal 0 0 -1
  outer loop
   vertex 0.616667 -0.541667 0.541667
   vertex 0.616667 -0.391667 0.541667
   vertex 1.55 -0.541667 0.541667
  endloop
 endfacet
 facet normal 0 0 -1
  outer loop
   vertex 1.55 -0.391667 0.541667
   vertex 1.55 -0.541667 0.541667
   vertex 0.616667 -0.391667 0.541667
  endloop
 endfacet
 facet normal 0 0 -1
  outer loop
   vertex 2.16667 0 0.541667
   vertex 1.7 -0.391667 0.541667
   vertex 1.73333 0.433333 0.541667
  endloop
 endfacet
 facet normal 0 0 -1
  outer loop
   vertex 1.73333 0.433333 0.541667
   vertex 1.7 -0.391667 0.541667
   vertex 1.3 0 0.541667
  endloop
 endfacet
 facet normal 0 0 -1
  outer loop
   vertex 1.55 -0.391667 0.541667
   vertex 1.3 0 0.541667
   vertex 1.7 -0.391667 0.541667
  endloop
 endfacet
 facet normal 0 0 -1
  outer loop
   vertex 2.16667 0 0.541667
   vertex 2.63333 -0.391667 0.541667
   vertex 1.7 -0.391667 0.541667
  endloop
 endfacet
 facet normal 0 0 -1
  outer loop
   vertex 2.63333 -0.541667 0.541667
   vertex 1.7 -0.541667 0.541667
   vertex 2.63333 -0.391667 0.541667
  endloop
 endfacet
 facet normal -0 0 -1
  outer loop
   vertex 1.7 -0.391667 0.541667
   vertex 2.63333 -0.391667 0.541667
   vertex 1.7 -0.541667 0.541667
  endloop
 endfacet
 facet normal 0 -0 -1
  outer loop
   vertex 2.16667 0 0.541667
   vertex 2.6 0.433333 0.541667
   vertex 2.63333 -0.391667 0.541667
  endloop
 endfacet
 facet normal -0 0 -1
  outer loop
   vertex 2.6 0.433333 0.541667
   vertex 3.03333 0 0.541667
   vertex 2.63333 -0.391667 0.541667
  endloop
 endfacet
 facet normal 0 0 -1
  outer loop
   vertex 2.78333 -0.391667 0.541667
   vertex 2.63333 -0.391667 0.541667
   vertex 3.03333 0 0.541667
  endloop
 endfacet
 facet normal 0 0 -1
  outer loop
   vertex 3.46667 0.433333 0.541667
   vertex 3.9 0 0.541667
   vertex 3.03333 0 0.541667
  endloop
 endfacet
 facet normal 0 -0 -1
  outer loop
   vertex 2.78333 -0.391667 0.541667
   vertex 3.03333 0 0.541667
   vertex 3.71667 -0.391667 0.541667
  endloop
 endfacet
 facet normal -0 0 -1
  outer loop
   vertex 3.03333 0 0.541667
   vertex 3.9 0 0.541667
   vertex 3.71667 -0.391667 0.541667
  endloop
 endfacet
 facet normal 0 0 -1
  outer loop
   vertex 3.86667 -0.391667 0.541667
   vertex 3.71667 -0.391667 0.541667
   vertex 3.9 0 0.541667
  endloop
 endfacet
 facet normal 0 0 -1
  outer loop
   vertex 4.33333 0.433333 0.541667
   vertex 4.76667 0 0.541667
   vertex 3.9 0 0.541667
  endloop
 endfacet
 facet normal 0 0 -1
  outer loop
   vertex 4.76667 0 0.541667
   vertex 4.8 -0.391667 0.541667
   vertex 3.9 0 0.541667
  endloop
 endfacet
 facet normal 0 0 -1
  outer loop
   vertex 3.9 0 0.541667
   vertex 4.8 -0.391667 0.541667
   vertex 3.86667 -0.391667 0.541667
  endloop
 endfacet
 facet normal 0 0 -1
  outer loop
   vertex 4.8 -0.541667 0.541667
   vertex 3.86667 -0.541667 0.541667
   vertex 4.8 -0.391667 0.541667
  endloop
 endfacet
 facet normal -0 0 -1
  outer loop
   vertex 3.86667 -0.391667 0.541667
   vertex 4.8 -0.391667 0.541667
   vertex 3.86667 -0.541667 0.541667
  endloop
 endfacet
 facet normal 0 0 -1
  outer loop
   vertex 5.2 0.433333 0.541667
   vertex 4.95 -0.391667 0.541667
   vertex 4.76667 0 0.541667
  endloop
 endfacet
 facet normal 0 0 -1
  outer loop
   vertex 4.8 -0.391667 0.541667
   vertex 4.76667 0 0.541667
   vertex 4.95 -0.391667 0.541667
  endloop
 endfacet
 facet normal -0 0 -1
  outer loop
   vertex 5.2 0.433333 0.541667
   vertex 5.63333 0 0.541667
   vertex 4.95 -0.391667 0.541667
  endloop
 endfacet
 facet normal 0 0 -1
  outer loop
   vertex 5.63333 0 0.541667
   vertex 5.88333 -0.391667 0.541667
   vertex 4.95 -0.391667 0.541667
  endloop
 endfacet
 facet normal 0 0 -1
  outer loop
   vertex 4.95 -0.541667 0.541667
   vertex 4.95 -0.391667 0.541667
   vertex 5.88333 -0.541667 0.541667
  endloop
 endfacet
 facet normal 0 0 -1
  outer loop
   vertex 5.88333 -0.391667 0.541667
   vertex 5.88333 -0.541667 0.541667
   vertex 4.95 -0.391667 0.541667
  endloop
 endfacet
 facet normal 0 0 -1
  outer loop
   vertex 6.5 0 0.541667
   vertex 6.03333 -0.391667 0.541667
   vertex 6.06667 0.433333 0.541667
  endloop
 endfacet
 facet normal 0 0 -1
  outer loop
   vertex 6.06667 0.433333 0.541667
   vertex 6.03333 -0.391667 0.541667
   vertex 5.63333 0 0.541667
  endloop
 endfacet
 facet normal 0 0 -1
  outer loop
   vertex 5.88333 -0.391667 0.541667
   vertex 5.63333 0 0.541667
   vertex 6.03333 -0.391667 0.541667
  endloop
 endfacet
 facet normal 0 0 -1
  outer loop
   vertex 8.58333 -0.541667 0.541667
   vertex 6.03333 -0.541667 0.541667
   vertex 7.36667 0 0.541667
  endloop
 endfacet
 facet normal 0 0 -1
  outer loop
   vertex 7.36667 0 0.541667
   vertex 6.03333 -0.541667 0.541667
   vertex 6.5 0 0.541667
  endloop
 endfacet
 facet normal 0 0 -1
  outer loop
   vertex 6.03333 -0.391667 0.541667
   vertex 6.5 0 0.541667
   vertex 6.03333 -0.541667 0.541667
  endloop
 endfacet
 facet normal 0 -0 -1
  outer loop
   vertex 6.5 0 0.541667
   vertex 6.93333 0.433333 0.541667
   vertex 7.36667 0 0.541667
  endloop
 endfacet
 facet normal 0 0 -1
  outer loop
   vertex 7.8 0.433333 0.541667
   vertex 8.23333 0 0.541667
   vertex 7.36667 0 0.541667
  endloop
 endfacet
 facet normal 0 0 -1
  outer loop
   vertex 8.58333 -0.541667 0.541667
   vertex 7.36667 0 0.541667
   vertex 8.23333 0 0.541667
  endloop
 endfacet
 facet normal 0 -0 -1
  outer loop
   vertex 8.23333 0 0.541667
   vertex 8.58333 0.35 0.541667
   vertex 8.58333 -0.541667 0.541667
  endloop
 endfacet
 facet normal 0 0 -1
  outer loop
   vertex 3.71667 -0.391667 0.541667
   vertex 3.71667 -0.541667 0.541667
   vertex 2.78333 -0.391667 0.541667
  endloop
 endfacet
 facet normal 0 0 -1
  outer loop
   vertex 2.78333 -0.541667 0.541667
   vertex 2.78333 -0.391667 0.541667
   vertex 3.71667 -0.541667 0.541667
  endloop
 endfacet
 facet normal -0 0 1
  outer loop
   vertex 0.866667 0.433333 -0.541667
   vertex 0.433333 0 -0.541667
   vertex 0.616667 -0.391667 -0.541667
  endloop
 endfacet
 facet normal 0 0 1
  outer loop
   vertex 0.466667 -0.391667 -0.541667
   vertex 0.616667 -0.391667 -0.541667
   vertex 0.433333 0 -0.541667
  endloop
 endfacet
 facet normal 0 0 1
  outer loop
   vertex 0.866667 0.433333 -0.541667
   vertex 0.616667 -0.391667 -0.541667
   vertex 1.3 0 -0.541667
  endloop
 endfacet
 facet normal 0 0 1
  outer loop
   vertex 1.3 0 -0.541667
   vertex 0.616667 -0.391667 -0.541667
   vertex 1.55 -0.391667 -0.541667
  endloop
 endfacet
 facet normal 0 0 1
  outer loop
   vertex 0.616667 -0.541667 -0.541667
   vertex 1.55 -0.541667 -0.541667
   vertex 0.616667 -0.391667 -0.541667
  endloop
 endfacet
 facet normal -0 0 1
  outer loop
   vertex 1.55 -0.391667 -0.541667
   vertex 0.616667 -0.391667 -0.541667
   vertex 1.55 -0.541667 -0.541667
  endloop
 endfacet
 facet normal 0 0 1
  outer loop
   vertex 2.16667 0 -0.541667
   vertex 1.73333 0.433333 -0.541667
   vertex 1.7 -0.391667 -0.541667
  endloop
 endfacet
 facet normal -0 0 1
  outer loop
   vertex 1.73333 0.433333 -0.541667
   vertex 1.3 0 -0.541667
   vertex 1.7 -0.391667 -0.541667
  endloop
 endfacet
 facet normal 0 0 1
  outer loop
   vertex 1.55 -0.391667 -0.541667
   vertex 1.7 -0.391667 -0.541667
   vertex 1.3 0 -0.541667
  endloop
 endfacet
 facet normal 0 0 1
  outer loop
   vertex 2.16667 0 -0.541667
   vertex 1.7 -0.391667 -0.541667
   vertex 2.63333 -0.391667 -0.541667
  endloop
 endfacet
 facet normal 0 0 1
  outer loop
   vertex 2.63333 -0.541667 -0.541667
   vertex 2.63333 -0.391667 -0.541667
   vertex 1.7 -0.541667 -0.541667
  endloop
 endfacet
 facet normal 0 0 1
  outer loop
   vertex 1.7 -0.391667 -0.541667
   vertex 1.7 -0.541667 -0.541667
   vertex 2.63333 -0.391667 -0.541667
  endloop
 endfacet
 facet normal 0 0 1
  outer loop
   vertex 2.16667 0 -0.541667
   vertex 2.63333 -0.391667 -0.541667
   vertex 2.6 0.433333 -0.541667
  endloop
 endfacet
 facet normal 0 -0 1
  outer loop
   vertex 2.6 0.433333 -0.541667
   vertex 2.63333 -0.391667 -0.541667
   vertex 3.03333 0 -0.541667
  endloop
 endfacet
 facet normal 0 0 1
  outer loop
   vertex 2.78333 -0.391667 -0.541667
   vertex 3.03333 0 -0.541667
   vertex 2.63333 -0.391667 -0.541667
  endloop
 endfacet
 facet normal 0 0 1
  outer loop
   vertex 3.03333 0 -0.541667
   vertex 2.78333 -0.391667 -0.541667
   vertex 3.71667 -0.391667 -0.541667
  endloop
 endfacet
 facet normal 0 0 1
  outer loop
   vertex 3.71667 -0.541667 -0.541667
   vertex 3.71667 -0.391667 -0.541667
   vertex 2.78333 -0.541667 -0.541667
  endloop
 endfacet
 facet normal 0 0 1
  outer loop
   vertex 2.78333 -0.391667 -0.541667
   vertex 2.78333 -0.541667 -0.541667
   vertex 3.71667 -0.391667 -0.541667
  endloop
 endfacet
 facet normal 0 0 1
  outer loop
   vertex 3.03333 0 -0.541667
   vertex 3.71667 -0.391667 -0.541667
   vertex 3.46667 0.433333 -0.541667
  endloop
 endfacet
 facet normal 0 -0 1
  outer loop
   vertex 3.46667 0.433333 -0.541667
   vertex 3.71667 -0.391667 -0.541667
   vertex 3.9 0 -0.541667
  endloop
 endfacet
 facet normal 0 0 1
  outer loop
   vertex 3.86667 -0.391667 -0.541667
   vertex 3.9 0 -0.541667
   vertex 3.71667 -0.391667 -0.541667
  endloop
 endfacet
 facet normal 0 0 1
  outer loop
   vertex 4.33333 0.433333 -0.541667
   vertex 3.9 0 -0.541667
   vertex 4.76667 0 -0.541667
  endloop
 endfacet
 facet normal -0 0 1
  outer loop
   vertex 4.76667 0 -0.541667
   vertex 3.9 0 -0.541667
   vertex 4.8 -0.391667 -0.541667
  endloop
 endfacet
 facet normal 0 0 1
  outer loop
   vertex 3.9 0 -0.541667
   vertex 3.86667 -0.391667 -0.541667
   vertex 4.8 -0.391667 -0.541667
  endloop
 endfacet
 facet normal 0 0 1
  outer loop
   vertex 4.8 -0.541667 -0.541667
   vertex 4.8 -0.391667 -0.541667
   vertex 3.86667 -0.541667 -0.541667
  endloop
 endfacet
 facet normal 0 0 1
  outer loop
   vertex 3.86667 -0.391667 -0.541667
   vertex 3.86667 -0.541667 -0.541667
   vertex 4.8 -0.391667 -0.541667
  endloop
 endfacet
 facet normal -0 0 1
  outer loop
   vertex 5.2 0.433333 -0.541667
   vertex 4.76667 0 -0.541667
   vertex 4.95 -0.391667 -0.541667
  endloop
 endfacet
 facet normal 0 0 1
  outer loop
   vertex 4.8 -0.391667 -0.541667
   vertex 4.95 -0.391667 -0.541667
   vertex 4.76667 0 -0.541667
  endloop
 endfacet
 facet normal 0 0 1
  outer loop
   vertex 5.2 0.433333 -0.541667
   vertex 4.95 -0.391667 -0.541667
   vertex 5.63333 0 -0.541667
  endloop
 endfacet
 facet normal 0 0 1
  outer loop
   vertex 5.63333 0 -0.541667
   vertex 4.95 -0.391667 -0.541667
   vertex 5.88333 -0.391667 -0.541667
  endloop
 endfacet
 facet normal 0 0 1
  outer loop
   vertex 4.95 -0.541667 -0.541667
   vertex 5.88333 -0.541667 -0.541667
   vertex 4.95 -0.391667 -0.541667
  endloop
 endfacet
 facet normal -0 0 1
  outer loop
   vertex 5.88333 -0.391667 -0.541667
   vertex 4.95 -0.391667 -0.541667
   vertex 5.88333 -0.541667 -0.541667
  endloop
 endfacet
 facet normal 0 0 1
  outer loop
   vertex 6.5 0 -0.541667
   vertex 6.06667 0.433333 -0.541667
   vertex 6.03333 -0.391667 -0.541667
  endloop
 endfacet
 facet normal -0 0 1
  outer loop
   vertex 6.06667 0.433333 -0.541667
   vertex 5.63333 0 -0.541667
   vertex 6.03333 -0.391667 -0.541667
  endloop
 endfacet
 facet normal 0 0 1
  outer loop
   vertex 5.88333 -0.391667 -0.541667
   vertex 6.03333 -0.391667 -0.541667
   vertex 5.63333 0 -0.541667
  endloop
 endfacet
 facet normal 0 0 1
  outer loop
   vertex 8.58333 -0.541667 -0.541667
   vertex 7.36667 0 -0.541667
   vertex 6.03333 -0.541667 -0.541667
  endloop
 endfacet
 facet normal -0 0 1
  outer loop
   vertex 7.36667 0 -0.541667
   vertex 6.5 0 -0.541667
   vertex 6.03333 -0.541667 -0.541667
  endloop
 endfacet
 facet normal 0 0 1
  outer loop
   vertex 6.03333 -0.391667 -0.541667
   vertex 6.03333 -0.541667 -0.541667
   vertex 6.5 0 -0.541667
  endloop
 endfacet
 facet normal 0 0 1
  outer loop
   vertex 7.8 0.433333 -0.541667
   vertex 7.36667 0 -0.541667
   vertex 8.23333 0 -0.541667
  endloop
 endfacet
 facet normal 0 0 1
  outer loop
   vertex 8.58333 -0.541667 -0.541667
   vertex 8.23333 0 -0.541667
   vertex 7.36667 0 -0.541667
  endloop
 endfacet
 facet normal 0 0 1
  outer loop
   vertex 8.58333 -0.541667 -0.541667
   vertex 8.58333 0.35 -0.541667
   vertex 8.23333 0 -0.541667
  endloop
 endfacet
 facet normal 0 0 1
  outer loop
   vertex 7.36667 0 -0.541667
   vertex 6.93333 0.433333 -0.541667
   vertex 6.5 0 -0.541667
  endloop
 endfacet
 facet normal 1 0 0
  outer loop
   vertex 8.58333 -0.541667 0.541667
   vertex 8.58333 0.35 0.541667
   vertex 8.58333 -0.541667 1.16667
  endloop
 endfacet
 facet normal 1 0 0
  outer loop
   vertex 8.58333 1 0.541667
   vertex 8.58333 -0.541667 1.16667
   vertex 8.58333 0.35 0.541667
  endloop
 endfacet
 facet normal 1 0 0
  outer loop
   vertex 8.58333 -0.541667 -0.541667
   vertex 8.58333 -0.541667 -1.16667
   vertex 8.58333 0.35 -0.541667
  endloop
 endfacet
 facet normal 1 -0 0
  outer loop
   vertex 8.58333 1 -0.541667
   vertex 8.58333 0.35 -0.541667
   vertex 8.58333 -0.541667 -1.16667
  endloop
 endfacet
 facet normal 0.707107 -0.707107 0
  outer loop
   vertex 0.433333 0 -0.541667
   vertex 0.866667 0.433333 -0.541667
   vertex 0.433333 0 0.541667
  endloop
 endfacet
 facet normal 0.707107 -0.707107 0
  outer loop
   vertex 0.866667 0.433333 0.541667
   vertex 0.433333 0 0.541667
   vertex 0.866667 0.433333 -0.541667
  endloop
 endfacet
 facet normal -0.707107 -0.707107 0
  outer loop
   vertex 0.866667 0.433333 -0.541667
   vertex 1.3 0 -0.541667
   vertex 0.866667 0.433333 0.541667
  endloop
 endfacet
 facet normal -0.707107 -0.707107 0
  outer loop
   vertex 1.3 0 0.541667
   vertex 0.866667 0.433333 0.541667
   vertex 1.3 0 -0.541667
  endloop
 endfacet
 facet normal 0.707107 -0.707107 0
  outer loop
   vertex 1.3 0 -0.541667
   vertex 1.73333 0.433333 -0.541667
   vertex 1.3 0 0.541667
  endloop
 endfacet
 facet normal 0.707107 -0.707107 0
  outer loop
   vertex 1.73333 0.433333 0.541667
   vertex 1.3 0 0.541667
   vertex 1.73333 0.433333 -0.541667
  endloop
 endfacet
 facet normal -0.707107 -0.707107 0
  outer loop
   vertex 1.73333 0.433333 -0.541667
   vertex 2.16667 0 -0.541667
   vertex 1.73333 0.433333 0.541667
  endloop
 endfacet
 facet normal -0.707107 -0.707107 0
  outer loop
   vertex 2.16667 0 0.541667
   vertex 1.73333 0.433333 0.541667
   vertex 2.16667 0 -0.541667
  endloop
 endfacet
 facet normal 0.707107 -0.707107 0
  outer loop
   vertex 2.16667 0 -0.541667
   vertex 2.6 0.433333 -0.541667
   vertex 2.16667 0 0.541667
  endloop
 endfacet
 facet normal 0.707107 -0.707107 0
  outer loop
   vertex 2.6 0.433333 0.541667
   vertex 2.16667 0 0.541667
   vertex 2.6 0.433333 -0.541667
  endloop
 endfacet
 facet normal -0.707107 -0.707107 0
  outer loop
   vertex 2.6 0.433333 -0.541667
   vertex 3.03333 0 -0.541667
   vertex 2.6 0.433333 0.541667
  endloop
 endfacet
 facet normal -0.707107 -0.707107 0
  outer loop
   vertex 3.03333 0 0.541667
   vertex 2.6 0.433333 0.541667
   vertex 3.03333 0 -0.541667
  endloop
 endfacet
 facet normal 0.707107 -0.707107 0
  outer loop
   vertex 3.03333 0 -0.541667
   vertex 3.46667 0.433333 -0.541667
   vertex 3.03333 0 0.541667
  endloop
 endfacet
 facet normal 0.707107 -0.707107 0
  outer loop
   vertex 3.46667 0.433333 0.541667
   vertex 3.03333 0 0.541667
   vertex 3.46667 0.433333 -0.541667
  endloop
 endfacet
 facet normal -0.707107 -0.707107 0
  outer loop
   vertex 3.46667 0.433333 -0.541667
   vertex 3.9 0 -0.541667
   vertex 3.46667 0.433333 0.541667
  endloop
 endfacet
 facet normal -0.707107 -0.707107 0
  outer loop
   vertex 3.9 0 0.541667
   vertex 3.46667 0.433333 0.541667
   vertex 3.9 0 -0.541667
  endloop
 endfacet
 facet normal 0.707107 -0.707107 0
  outer loop
   vertex 3.9 0 -0.541667
   vertex 4.33333 0.433333 -0.541667
   vertex 3.9 0 0.541667
  endloop
 endfacet
 facet normal 0.707107 -0.707107 0
  outer loop
   vertex 4.33333 0.433333 0.541667
   vertex 3.9 0 0.541667
   vertex 4.33333 0.433333 -0.541667
  endloop
 endfacet
 facet normal -0.707107 -0.707107 0
  outer loop
   vertex 4.33333 0.433333 -0.541667
   vertex 4.76667 0 -0.541667
   vertex 4.33333 0.433333 0.541667
  endloop
 endfacet
 facet normal -0.707107 -0.707107 0
  outer loop
   vertex 4.76667 0 0.541667
   vertex 4.33333 0.433333 0.541667
   vertex 4.76667 0 -0.541667
  endloop
 endfacet
 facet normal 0.707107 -0.707106 0
  outer loop
   vertex 4.76667 0 -0.541667
   vertex 5.2 0.433333 -0.541667
   vertex 4.76667 0 0.541667
  endloop
 endfacet
 facet normal 0.707107 -0.707106 0
  outer loop
   vertex 5.2 0.433333 0.541667
   vertex 4.76667 0 0.541667
   vertex 5.2 0.433333 -0.541667
  endloop
 endfacet
 facet normal -0.707107 -0.707107 0
  outer loop
   vertex 5.2 0.433333 -0.541667
   vertex 5.63333 0 -0.541667
   vertex 5.2 0.433333 0.541667
  endloop
 endfacet
 facet normal -0.707107 -0.707107 0
  outer loop
   vertex 5.63333 0 0.541667
   vertex 5.2 0.433333 0.541667
   vertex 5.63333 0 -0.541667
  endloop
 endfacet
 facet normal 0.707107 -0.707107 0
  outer loop
   vertex 5.63333 0 -0.541667
   vertex 6.06667 0.433333 -0.541667
   vertex 5.63333 0 0.541667
  endloop
 endfacet
 facet normal 0.707107 -0.707107 0
  outer loop
   vertex 6.06667 0.433333 0.541667
   vertex 5.63333 0 0.541667
   vertex 6.06667 0.433333 -0.541667
  endloop
 endfacet
 facet normal -0.707107 -0.707107 0
  outer loop
   vertex 6.06667 0.433333 -0.541667
   vertex 6.5 0 -0.541667
   vertex 6.06667 0.433333 0.541667
  endloop
 endfacet
 facet normal -0.707107 -0.707107 0
  outer loop
   vertex 6.5 0 0.541667
   vertex 6.06667 0.433333 0.541667
   vertex 6.5 0 -0.541667
  endloop
 endfacet
 facet normal 0.707107 -0.707107 0
  outer loop
   vertex 6.5 0 -0.541667
   vertex 6.93333 0.433333 -0.541667
   vertex 6.5 0 0.541667
  endloop
 endfacet
 facet normal 0.707107 -0.707107 0
  outer loop
   vertex 6.93333 0.433333 0.541667
   vertex 6.5 0 0.541667
   vertex 6.93333 0.433333 -0.541667
  endloop
 endfacet
 facet normal -0.707107 -0.707107 0
  outer loop
   vertex 6.93333 0.433333 -0.541667
   vertex 7.36667 0 -0.541667
   vertex 6.93333 0.433333 0.541667
  endloop
 endfacet
 facet normal -0.707107 -0.707107 0
  outer loop
   vertex 7.36667 0 0.541667
   vertex 6.93333 0.433333 0.541667
   vertex 7.36667 0 -0.541667
  endloop
 endfacet
 facet normal 0.707107 -0.707107 0
  outer loop
   vertex 7.36667 0 -0.541667
   vertex 7.8 0.433333 -0.541667
   vertex 7.36667 0 0.541667
  endloop
 endfacet
 facet normal 0.707107 -0.707107 0
  outer loop
   vertex 7.8 0.433333 0.541667
   vertex 7.36667 0 0.541667
   vertex 7.8 0.433333 -0.541667
  endloop
 endfacet
 facet normal -0.707107 -0.707107 0
  outer loop
   vertex 7.8 0.433333 -0.541667
   vertex 8.23333 0 -0.541667
   vertex 7.8 0.433333 0.541667
  endloop
 endfacet
 facet normal -0.707107 -0.707107 0
  outer loop
   vertex 8.23333 0 0.541667
   vertex 7.8 0.433333 0.541667
   vertex 8.23333 0 -0.541667
  endloop
 endfacet
 facet normal 0.707107 -0.707106 0
  outer loop
   vertex 8.23333 0 -0.541667
   vertex 8.58333 0.35 -0.541667
   vertex 8.23333 0 0.541667
  endloop
 endfacet
 facet normal 0.707107 -0.707106 0
  outer loop
   vertex 8.58333 0.35 0.541667
   vertex 8.23333 0 0.541667
   vertex 8.58333 0.35 -0.541667
  endloop
 endfacet
 facet normal 1 0 0
  outer loop
   vertex 8.58333 0.35 -0.541667
   vertex 8.58333 1 -0.541667
   vertex 8.58333 0.35 0.541667
  endloop
 endfacet
 facet normal 1 -0 0
  outer loop
   vertex 8.58333 1 0.541667
   vertex 8.58333 0.35 0.541667
   vertex 8.58333 1 -0.541667
  endloop
 endfacet
 facet normal 0 -1 0
  outer loop
   vertex -0.224366 -0.541667 0.969992
   vertex -0.224366 -0.541667 0.541667
   vertex 0.466667 -0.541667 0.541667
  endloop
 endfacet
 facet normal 0 -1 -0
  outer loop
   vertex 0.466667 -0.541667 0.541667
   vertex 0.466667 -0.541667 1.16667
   vertex -0.224366 -0.541667 0.969992
  endloop
 endfacet
 facet normal 0 -1 0
  outer loop
   vertex -0.224366 -0.541667 1.16667
   vertex -0.224366 -0.541667 0.969992
   vertex 0.466667 -0.541667 1.16667
  endloop
 endfacet
 facet normal 0 0 1
  outer loop
   vertex -0.224366 -0.541667 1.16667
   vertex 0.466667 -0.541667 1.16667
   vertex -0.0477664 -0.115318 1.16667
  endloop
 endfacet
 facet normal 0 0 1
  outer loop
   vertex 0.466667 -0.391667 1.16667
   vertex -0.0477664 -0.115318 1.16667
   vertex 0.466667 -0.541667 1.16667
  endloop
 endfacet
 facet normal 0 0 1
  outer loop
   vertex -0.0477664 -0.115318 1.16667
   vertex 0.466667 -0.391667 1.16667
   vertex 0.062132 0.15 1.16667
  endloop
 endfacet
 facet normal 0 0 1
  outer loop
   vertex 0.466667 -0.391667 1.16667
   vertex 0.616667 -0.391667 1.16667
   vertex 0.062132 0.15 1.16667
  endloop
 endfacet
 facet normal 0 0 1
  outer loop
   vertex 0.616667 -0.391667 1.16667
   vertex 1.55 -0.391667 1.16667
   vertex 0.062132 0.15 1.16667
  endloop
 endfacet
 facet normal -0 0 1
  outer loop
   vertex 7.73333 0.15 1.16667
   vertex 0.062132 0.15 1.16667
   vertex 6.03333 -0.391667 1.16667
  endloop
 endfacet
 facet normal 0 0 1
  outer loop
   vertex 1.55 -0.391667 1.16667
   vertex 1.7 -0.391667 1.16667
   vertex 0.062132 0.15 1.16667
  endloop
 endfacet
 facet normal 0 0 1
  outer loop
   vertex 1.7 -0.391667 1.16667
   vertex 2.63333 -0.391667 1.16667
   vertex 0.062132 0.15 1.16667
  endloop
 endfacet
 facet normal 0 0 1
  outer loop
   vertex 2.63333 -0.391667 1.16667
   vertex 2.78333 -0.391667 1.16667
   vertex 0.062132 0.15 1.16667
  endloop
 endfacet
 facet normal 0 0 1
  outer loop
   vertex 2.78333 -0.391667 1.16667
   vertex 3.71667 -0.391667 1.16667
   vertex 0.062132 0.15 1.16667
  endloop
 endfacet
 facet normal 0 0 1
  outer loop
   vertex 3.71667 -0.391667 1.16667
   vertex 3.86667 -0.391667 1.16667
   vertex 0.062132 0.15 1.16667
  endloop
 endfacet
 facet normal 0 0 1
  outer loop
   vertex 3.86667 -0.391667 1.16667
   vertex 4.8 -0.391667 1.16667
   vertex 0.062132 0.15 1.16667
  endloop
 endfacet
 facet normal 0 0 1
  outer loop
   vertex 4.8 -0.391667 1.16667
   vertex 4.95 -0.391667 1.16667
   vertex 0.062132 0.15 1.16667
  endloop
 endfacet
 facet normal 0 0 1
  outer loop
   vertex 4.95 -0.391667 1.16667
   vertex 5.88333 -0.391667 1.16667
   vertex 0.062132 0.15 1.16667
  endloop
 endfacet
 facet normal 0 0 1
  outer loop
   vertex 6.03333 -0.391667 1.16667
   vertex 0.062132 0.15 1.16667
   vertex 5.88333 -0.391667 1.16667
  endloop
 endfacet
 facet normal 0 0 1
  outer loop
   vertex 0.062132 0.15 1.31667
   vertex 7.73333 0.15 1.31667
   vertex 0.414214 1 1.31667
  endloop
 endfacet
 facet normal 0 0 1
  outer loop
   vertex 7.73333 0.15 1.31667
   vertex 8.58333 1 1.31667
   vertex 0.414214 1 1.31667
  endloop
 endfacet
 facet normal -0 0 1
  outer loop
   vertex 8.58333 1 1.31667
   vertex 7.73333 0.15 1.31667
   vertex 8.58333 -0.541667 1.31667
  endloop
 endfacet
 facet normal 0 0 1
  outer loop
   vertex 7.73333 -0.541667 1.31667
   vertex 8.58333 -0.541667 1.31667
   vertex 7.73333 0.15 1.31667
  endloop
 endfacet
 facet normal -0 1 0
  outer loop
   vertex 0.414214 1 1.18238
   vertex 0.414214 1 1.31667
   vertex 8.58333 1 1.31667
  endloop
 endfacet
 facet normal 0 -1 -0
  outer loop
   vertex 7.73333 0.15 1.16667
   vertex 7.73333 0.15 1.31667
   vertex 0.062132 0.15 1.30572
  endloop
 endfacet
 facet normal 0 -1 0
  outer loop
   vertex 0.062132 0.15 1.31667
   vertex 0.062132 0.15 1.30572
   vertex 7.73333 0.15 1.31667
  endloop
 endfacet
 facet normal 0 1 -0
  outer loop
   vertex 8.58333 1 1.31667
   vertex 8.58333 1 1.16667
   vertex 0.414214 1 1.18238
  endloop
 endfacet
 facet normal 0 1 0
  outer loop
   vertex 0.414214 1 1.16667
   vertex 0.414214 1 1.18238
   vertex 8.58333 1 1.16667
  endloop
 endfacet
 facet normal 0 -1 0
  outer loop
   vertex 0.062132 0.15 1.30572
   vertex 0.062132 0.15 1.16667
   vertex 7.73333 0.15 1.16667
  endloop
 endfacet
 facet normal 0 -1 0
  outer loop
   vertex -0.224366 -0.541667 -0.541667
   vertex -0.224366 -0.541667 -0.969992
   vertex 0.466667 -0.541667 -0.541667
  endloop
 endfacet
 facet normal 0 -1 0
  outer loop
   vertex 0.466667 -0.541667 -0.541667
   vertex -0.224366 -0.541667 -0.969992
   vertex 0.466667 -0.541667 -1.16667
  endloop
 endfacet
 facet normal 0 -1 0
  outer loop
   vertex -0.224366 -0.541667 -1.16667
   vertex 0.466667 -0.541667 -1.16667
   vertex -0.224366 -0.541667 -0.969992
  endloop
 endfacet
 facet normal 0 -0 -1
  outer loop
   vertex -0.0477664 -0.115318 -1.16667
   vertex 0.062132 0.15 -1.16667
   vertex 0.466667 -0.391667 -1.16667
  endloop
 endfacet
 facet normal 0 0 -1
  outer loop
   vertex 0.466667 -0.391667 -1.16667
   vertex 0.062132 0.15 -1.16667
   vertex 0.616667 -0.391667 -1.16667
  endloop
 endfacet
 facet normal 0 0 -1
  outer loop
   vertex 0.616667 -0.391667 -1.16667
   vertex 0.062132 0.15 -1.16667
   vertex 1.55 -0.391667 -1.16667
  endloop
 endfacet
 facet normal 0 0 -1
  outer loop
   vertex 7.73333 0.15 -1.16667
   vertex 6.03333 -0.391667 -1.16667
   vertex 0.062132 0.15 -1.16667
  endloop
 endfacet
 facet normal 0 0 -1
  outer loop
   vertex 1.55 -0.391667 -1.16667
   vertex 0.062132 0.15 -1.16667
   vertex 1.7 -0.391667 -1.16667
  endloop
 endfacet
 facet normal 0 0 -1
  outer loop
   vertex 1.7 -0.391667 -1.16667
   vertex 0.062132 0.15 -1.16667
   vertex 2.63333 -0.391667 -1.16667
  endloop
 endfacet
 facet normal 0 0 -1
  outer loop
   vertex 2.63333 -0.391667 -1.16667
   vertex 0.062132 0.15 -1.16667
   vertex 2.78333 -0.391667 -1.16667
  endloop
 endfacet
 facet normal 0 0 -1
  outer loop
   vertex 2.78333 -0.391667 -1.16667
   vertex 0.062132 0.15 -1.16667
   vertex 3.71667 -0.391667 -1.16667
  endloop
 endfacet
 facet normal 0 0 -1
  outer loop
   vertex 3.71667 -0.391667 -1.16667
   vertex 0.062132 0.15 -1.16667
   vertex 3.86667 -0.391667 -1.16667
  endloop
 endfacet
 facet normal 0 0 -1
  outer loop
   vertex 3.86667 -0.391667 -1.16667
   vertex 0.062132 0.15 -1.16667
   vertex 4.8 -0.391667 -1.16667
  endloop
 endfacet
 facet normal 0 0 -1
  outer loop
   vertex 4.8 -0.391667 -1.16667
   vertex 0.062132 0.15 -1.16667
   vertex 4.95 -0.391667 -1.16667
  endloop
 endfacet
 facet normal 0 0 -1
  outer loop
   vertex 4.95 -0.391667 -1.16667
   vertex 0.062132 0.15 -1.16667
   vertex 5.88333 -0.391667 -1.16667
  endloop
 endfacet
 facet normal 0 0 -1
  outer loop
   vertex 6.03333 -0.391667 -1.16667
   vertex 5.88333 -0.391667 -1.16667
   vertex 0.062132 0.15 -1.16667
  endloop
 endfacet
 facet normal 0 -0 -1
  outer loop
   vertex -0.224366 -0.541667 -1.16667
   vertex -0.0477664 -0.115318 -1.16667
   vertex 0.466667 -0.541667 -1.16667
  endloop
 endfacet
 facet normal 0 0 -1
  outer loop
   vertex 0.466667 -0.391667 -1.16667
   vertex 0.466667 -0.541667 -1.16667
   vertex -0.0477664 -0.115318 -1.16667
  endloop
 endfacet
 facet normal 0 0 -1
  outer loop
   vertex 8.58333 1 -1.31667
   vertex 8.58333 -0.541667 -1.31667
   vertex 7.73333 0.15 -1.31667
  endloop
 endfacet
 facet normal 0 0 -1
  outer loop
   vertex 7.73333 -0.541667 -1.31667
   vertex 7.73333 0.15 -1.31667
   vertex 8.58333 -0.541667 -1.31667
  endloop
 endfacet
 facet normal 0 -0 -1
  outer loop
   vertex 0.062132 0.15 -1.31667
   vertex 0.414214 1 -1.31667
   vertex 7.73333 0.15 -1.31667
  endloop
 endfacet
 facet normal 0 0 -1
  outer loop
   vertex 7.73333 0.15 -1.31667
   vertex 0.414214 1 -1.31667
   vertex 8.58333 1 -1.31667
  endloop
 endfacet
 facet normal 0 1 0
  outer loop
   vertex 0.414214 1 -1.31667
   vertex 0.414214 1 -1.18238
   vertex 8.58333 1 -1.31667
  endloop
 endfacet
 facet normal 0 -1 0
  outer loop
   vertex 7.73333 0.15 -1.16667
   vertex 0.062132 0.15 -1.30572
   vertex 7.73333 0.15 -1.31667
  endloop
 endfacet
 facet normal 0 -1 0
  outer loop
   vertex 0.062132 0.15 -1.31667
   vertex 7.73333 0.15 -1.31667
   vertex 0.062132 0.15 -1.30572
  endloop
 endfacet
 facet normal -0 1 0
  outer loop
   vertex 8.58333 1 -1.31667
   vertex 0.414214 1 -1.18238
   vertex 8.58333 1 -1.16667
  endloop
 endfacet
 facet normal 0 1 0
  outer loop
   vertex 0.414214 1 -1.16667
   vertex 8.58333 1 -1.16667
   vertex 0.414214 1 -1.18238
  endloop
 endfacet
 facet normal 0 -1 0
  outer loop
   vertex 0.062132 0.15 -1.16667
   vertex 0.062132 0.15 -1.30572
   vertex 7.73333 0.15 -1.16667
  endloop
 endfacet
 facet normal 0 -0 -1
  outer loop
   vertex -0.224366 -0.541667 0.541667
   vertex 0.12692 0.306413 0.541667
   vertex 0.466667 -0.541667 0.541667
  endloop
 endfacet
 facet normal -0 -0 -1
  outer loop
   vertex 0.12692 0.306413 0.541667
   vertex 0.433333 0 0.541667
   vertex 0.466667 -0.541667 0.541667
  endloop
 endfacet
 facet normal 0 0 -1
  outer loop
   vertex 0.466667 -0.391667 0.541667
   vertex 0.466667 -0.541667 0.541667
   vertex 0.433333 0 0.541667
  endloop
 endfacet
 facet normal 0 0 1
  outer loop
   vertex -0.224366 -0.541667 -0.541667
   vertex 0.466667 -0.541667 -0.541667
   vertex 0.12692 0.306413 -0.541667
  endloop
 endfacet
 facet normal 0 0 1
  outer loop
   vertex 0.12692 0.306413 -0.541667
   vertex 0.466667 -0.541667 -0.541667
   vertex 0.433333 0 -0.541667
  endloop
 endfacet
 facet normal 0 0 1
  outer loop
   vertex 0.466667 -0.391667 -0.541667
   vertex 0.433333 0 -0.541667
   vertex 0.466667 -0.541667 -0.541667
  endloop
 endfacet
 facet normal -0.707107 -0.707107 0
  outer loop
   vertex 0.12692 0.306413 0.224366
   vertex 0.12692 0.306413 -0.541667
   vertex 0.433333 0 -0.541667
  endloop
 endfacet
 facet normal -0.707107 -0.707107 0
  outer loop
   vertex 0.12692 0.306413 0.541667
   vertex 0.12692 0.306413 0.224366
   vertex 0.433333 0 0.541667
  endloop
 endfacet
 facet normal -0.707107 -0.707107 -0
  outer loop
   vertex 0.433333 0 -0.541667
   vertex 0.433333 0 0.541667
   vertex 0.12692 0.306413 0.224366
  endloop
 endfacet
 facet normal -0.92388 0.382683 0
  outer loop
   vertex 0.414214 1 1.31667
   vertex 0.12692 0.306413 0.541667
   vertex 0.062132 0.15 1.31667
  endloop
 endfacet
 facet normal -0.92388 0.382683 4.61019e-17
  outer loop
   vertex 0.062132 0.15 1.16667
   vertex 0.062132 0.15 1.30572
   vertex 0.12692 0.306413 0.541667
  endloop
 endfacet
 facet normal -0.92388 0.382683 -5.8572e-16
  outer loop
   vertex 0.12692 0.306413 0.541667
   vertex 0.062132 0.15 1.30572
   vertex 0.062132 0.15 1.31667
  endloop
 endfacet
 facet normal -0.92388 0.382683 9.67562e-17
  outer loop
   vertex 0.12692 0.306413 0.541667
   vertex -0.224366 -0.541667 0.541667
   vertex 0.062132 0.15 1.16667
  endloop
 endfacet
 facet normal -0.92388 0.382683 0
  outer loop
   vertex -0.224366 -0.541667 0.541667
   vertex -0.224366 -0.541667 0.969992
   vertex 0.062132 0.15 1.16667
  endloop
 endfacet
 facet normal -0.92388 0.382683 0
  outer loop
   vertex -0.224366 -0.541667 1.16667
   vertex -0.0477664 -0.115318 1.16667
   vertex -0.224366 -0.541667 0.969992
  endloop
 endfacet
 facet normal -0.92388 0.382683 0
  outer loop
   vertex 0.062132 0.15 1.16667
   vertex -0.224366 -0.541667 0.969992
   vertex -0.0477664 -0.115318 1.16667
  endloop
 endfacet
 facet normal -0.92388 0.382683 0
  outer loop
   vertex 0.12692 0.306413 -0.541667
   vertex 0.12692 0.306413 0.224366
   vertex 0.414214 1 -1.31667
  endloop
 endfacet
 facet normal -0.92388 0.382683 0
  outer loop
   vertex 0.12692 0.306413 0.541667
   vertex 0.414214 1 1.31667
   vertex 0.12692 0.306413 0.224366
  endloop
 endfacet
 facet normal -0.92388 0.382683 0
  outer loop
   vertex 0.414214 1 1.31667
   vertex 0.414214 1 1.18238
   vertex 0.12692 0.306413 0.224366
  endloop
 endfacet
 facet normal -0.92388 0.382683 0
  outer loop
   vertex 0.414214 1 -1.31667
   vertex 0.12692 0.306413 0.224366
   vertex 0.414214 1 -1.18238
  endloop
 endfacet
 facet normal -0.92388 0.382683 0
  outer loop
   vertex 0.414214 1 1.18238
   vertex 0.414214 1 1.16667
   vertex 0.12692 0.306413 0.224366
  endloop
 endfacet
 facet normal -0.92388 0.382683 0
  outer loop
   vertex 0.414214 1 1.16667
   vertex 0.414214 1 0.607138
   vertex 0.12692 0.306413 0.224366
  endloop
 endfacet
 facet normal -0.92388 0.382683 0
  outer loop
   vertex 0.414214 1 0.607138
   vertex 0.414214 1 0.541667
   vertex 0.12692 0.306413 0.224366
  endloop
 endfacet
 facet normal -0.92388 0.382683 0
  outer loop
   vertex 0.414214 1 0.541667
   vertex 0.414214 1 -0.489387
   vertex 0.12692 0.306413 0.224366
  endloop
 endfacet
 facet normal -0.92388 0.382683 0
  outer loop
   vertex 0.414214 1 -0.489387
   vertex 0.414214 1 -0.541667
   vertex 0.12692 0.306413 0.224366
  endloop
 endfacet
 facet normal -0.92388 0.382683 0
  outer loop
   vertex 0.414214 1 -0.541667
   vertex 0.414214 1 -0.607138
   vertex 0.12692 0.306413 0.224366
  endloop
 endfacet
 facet normal -0.92388 0.382683 0
  outer loop
   vertex 0.414214 1 -0.607138
   vertex 0.414214 1 -1.16667
   vertex 0.12692 0.306413 0.224366
  endloop
 endfacet
 facet normal -0.92388 0.382683 0
  outer loop
   vertex 0.414214 1 -1.18238
   vertex 0.12692 0.306413 0.224366
   vertex 0.414214 1 -1.16667
  endloop
 endfacet
 facet normal -0.92388 0.382683 -9.73162e-18
  outer loop
   vertex 0.414214 1 -1.31667
   vertex 0.062132 0.15 -1.31667
   vertex 0.12692 0.306413 -0.541667
  endloop
 endfacet
 facet normal -0.92388 0.382683 0
  outer loop
   vertex 0.062132 0.15 -1.16667
   vertex 0.12692 0.306413 -0.541667
   vertex 0.062132 0.15 -1.30572
  endloop
 endfacet
 facet normal -0.92388 0.382683 5.8572e-16
  outer loop
   vertex 0.12692 0.306413 -0.541667
   vertex 0.062132 0.15 -1.31667
   vertex 0.062132 0.15 -1.30572
  endloop
 endfacet
 facet normal -0.92388 0.382683 0
  outer loop
   vertex 0.12692 0.306413 -0.541667
   vertex 0.062132 0.15 -1.16667
   vertex -0.224366 -0.541667 -0.541667
  endloop
 endfacet
 facet normal -0.92388 0.382683 0
  outer loop
   vertex -0.224366 -0.541667 -0.541667
   vertex 0.062132 0.15 -1.16667
   vertex -0.224366 -0.541667 -0.969992
  endloop
 endfacet
 facet normal -0.92388 0.382683 1.30382e-16
  outer loop
   vertex -0.224366 -0.541667 -1.16667
   vertex -0.224366 -0.541667 -0.969992
   vertex -0.0477664 -0.115318 -1.16667
  endloop
 endfacet
 facet normal -0.92388 0.382683 0
  outer loop
   vertex 0.062132 0.15 -1.16667
   vertex -0.0477664 -0.115318 -1.16667
   vertex -0.224366 -0.541667 -0.969992
  endloop
 endfacet
 facet normal 0 1 -0
  outer loop
   vertex 1.29167 1 0.667237
   vertex 1.29167 1 0.541667
   vertex 0.414214 1 0.607138
  endloop
 endfacet
 facet normal 0 1 0
  outer loop
   vertex 0.414214 1 0.541667
   vertex 0.414214 1 0.607138
   vertex 1.29167 1 0.541667
  endloop
 endfacet
 facet normal 0 1 -0
  outer loop
   vertex 8.58333 1 1.16667
   vertex 8.58333 1 0.541667
   vertex 6.29167 1 0.75
  endloop
 endfacet
 facet normal 0 1 0
  outer loop
   vertex 6.29167 1 0.541667
   vertex 6.29167 1 0.75
   vertex 8.58333 1 0.541667
  endloop
 endfacet
 facet normal 0 1 0
  outer loop
   vertex 6.29167 1 0.75
   vertex 2.5 1 0.75
   vertex 8.58333 1 1.16667
  endloop
 endfacet
 facet normal -0 1 0
  outer loop
   vertex 1.29167 1 -0.667237
   vertex 0.414214 1 -0.607138
   vertex 1.29167 1 -0.541667
  endloop
 endfacet
 facet normal 0 1 0
  outer loop
   vertex 0.414214 1 -0.541667
   vertex 1.29167 1 -0.541667
   vertex 0.414214 1 -0.607138
  endloop
 endfacet
 facet normal 0 1 0
  outer loop
   vertex 6.29167 1 -0.75
   vertex 8.58333 1 -1.16667
   vertex 2.5 1 -0.75
  endloop
 endfacet
 facet normal -0 1 0
  outer loop
   vertex 8.58333 1 -1.16667
   vertex 6.29167 1 -0.75
   vertex 8.58333 1 -0.541667
  endloop
 endfacet
 facet normal 0 1 0
  outer loop
   vertex 6.29167 1 -0.541667
   vertex 8.58333 1 -0.541667
   vertex 6.29167 1 -0.75
  endloop
 endfacet
 facet normal 0 1 -0
  outer loop
   vertex 1.29167 1 -0.378641
   vertex 1.29167 1 -0.541667
   vertex 0.414214 1 -0.489387
  endloop
 endfacet
 facet normal 0 1 0
  outer loop
   vertex 0.414214 1 -0.541667
   vertex 0.414214 1 -0.489387
   vertex 1.29167 1 -0.541667
  endloop
 endfacet
 facet normal 0 1 -0
  outer loop
   vertex 8.58333 1 0.541667
   vertex 8.58333 1 -0.541667
   vertex 6.29167 1 0.252427
  endloop
 endfacet
 facet normal 0 1 0
  outer loop
   vertex 8.58333 1 -0.541667
   vertex 6.29167 1 -0.541667
   vertex 6.29167 1 0.252427
  endloop
 endfacet
 facet normal 0 1 0
  outer loop
   vertex 0.414214 1 -0.489387
   vertex 0.414214 1 0.541667
   vertex 1.29167 1 -0.378641
  endloop
 endfacet
 facet normal 0 1 -0
  outer loop
   vertex 1.29167 1 0.541667
   vertex 1.29167 1 -0.378641
   vertex 0.414214 1 0.541667
  endloop
 endfacet
 facet normal -0 1 0
  outer loop
   vertex 6.29167 1 0.252427
   vertex 6.29167 1 0.541667
   vertex 8.58333 1 0.541667
  endloop
 endfacet
 facet normal 0 1 0
  outer loop
   vertex 0.414214 1 -1.16667
   vertex 0.414214 1 -0.607138
   vertex 1.29167 1 -0.75
  endloop
 endfacet
 facet normal 0 1 -0
  outer loop
   vertex 1.29167 1 -0.667237
   vertex 1.29167 1 -0.75
   vertex 0.414214 1 -0.607138
  endloop
 endfacet
 facet normal 0 1 0
  outer loop
   vertex 1.29167 1 -0.75
   vertex 2.5 1 -0.75
   vertex 0.414214 1 -1.16667
  endloop
 endfacet
 facet normal 0 1 0
  outer loop
   vertex 8.58333 1 -1.16667
   vertex 0.414214 1 -1.16667
   vertex 2.5 1 -0.75
  endloop
 endfacet
 facet normal 0 1 0
  outer loop
   vertex 1.29167 1 0.75
   vertex 0.414214 1 1.16667
   vertex 2.5 1 0.75
  endloop
 endfacet
 facet normal -0 1 0
  outer loop
   vertex 2.5 1 0.75
   vertex 0.414214 1 1.16667
   vertex 8.58333 1 1.16667
  endloop
 endfacet
 facet normal 0 1 0
  outer loop
   vertex 0.414214 1 1.16667
   vertex 1.29167 1 0.75
   vertex 0.414214 1 0.607138
  endloop
 endfacet
 facet normal 0 1 0
  outer loop
   vertex 1.29167 1 0.667237
   vertex 0.414214 1 0.607138
   vertex 1.29167 1 0.75
  endloop
 endfacet
 facet normal 1 0 -0
  outer loop
   vertex 6.29167 1 0.75
   vertex 6.29167 2.5 -0.75
   vertex 6.29167 2.5 0.75
  endloop
 endfacet
 facet normal 0 1 0
  outer loop
   vertex 6.29167 2.5 -0.75
   vertex 1.29167 2.5 -0.75
   vertex 6.29167 2.5 0.75
  endloop
 endfacet
 facet normal 0 1 0
  outer loop
   vertex 6.29167 2.5 0.75
   vertex 1.29167 2.5 -0.75
   vertex 1.29167 2.5 0.75
  endloop
 endfacet
 facet normal -1 0 0
  outer loop
   vertex 1.29167 2.5 -0.75
   vertex 1.29167 1 -0.75
   vertex 1.29167 2.5 0.75
  endloop
 endfacet
 facet normal 1 0 0
  outer loop
   vertex 6.29167 1 -0.75
   vertex 6.29167 2.5 -0.75
   vertex 6.29167 1 -0.541667
  endloop
 endfacet
 facet normal 1 0 0
  outer loop
   vertex 6.29167 1 -0.541667
   vertex 6.29167 2.5 -0.75
   vertex 6.29167 1 0.252427
  endloop
 endfacet
 facet normal 1 0 0
  outer loop
   vertex 6.29167 1 0.252427
   vertex 6.29167 2.5 -0.75
   vertex 6.29167 1 0.541667
  endloop
 endfacet
 facet normal 1 -0 0
  outer loop
   vertex 6.29167 1 0.75
   vertex 6.29167 1 0.541667
   vertex 6.29167 2.5 -0.75
  endloop
 endfacet
 facet normal 0 0 -1
  outer loop
   vertex 1.29167 1 -0.75
   vertex 1.29167 2.5 -0.75
   vertex 2.5 1 -0.75
  endloop
 endfacet
 facet normal 0 0 -1
  outer loop
   vertex 6.29167 1 -0.75
   vertex 2.5 1 -0.75
   vertex 6.29167 2.5 -0.75
  endloop
 endfacet
 facet normal -0 0 -1
  outer loop
   vertex 1.29167 2.5 -0.75
   vertex 6.29167 2.5 -0.75
   vertex 2.5 1 -0.75
  endloop
 endfacet
 facet normal -1 -0 0
  outer loop
   vertex 1.29167 1 0.75
   vertex 1.29167 2.5 0.75
   vertex 1.29167 1 0.667237
  endloop
 endfacet
 facet normal -1 0 0
  outer loop
   vertex 1.29167 1 0.667237
   vertex 1.29167 2.5 0.75
   vertex 1.29167 1 0.541667
  endloop
 endfacet
 facet normal -1 0 0
  outer loop
   vertex 1.29167 1 0.541667
   vertex 1.29167 2.5 0.75
   vertex 1.29167 1 -0.378641
  endloop
 endfacet
 facet normal -1 0 0
  outer loop
   vertex 1.29167 1 -0.378641
   vertex 1.29167 2.5 0.75
   vertex 1.29167 1 -0.541667
  endloop
 endfacet
 facet normal -1 0 0
  outer loop
   vertex 1.29167 1 -0.541667
   vertex 1.29167 2.5 0.75
   vertex 1.29167 1 -0.667237
  endloop
 endfacet
 facet normal -1 0 0
  outer loop
   vertex 1.29167 1 -0.75
   vertex 1.29167 1 -0.667237
   vertex 1.29167 2.5 0.75
  endloop
 endfacet
 facet normal 0 0 1
  outer loop
   vertex 1.29167 1 0.75
   vertex 2.5 1 0.75
   vertex 1.29167 2.5 0.75
  endloop
 endfacet
 facet normal 0 0 1
  outer loop
   vertex 6.29167 1 0.75
   vertex 6.29167 2.5 0.75
   vertex 2.5 1 0.75
  endloop
 endfacet
 facet normal 0 -0 1
  outer loop
   vertex 1.29167 2.5 0.75
   vertex 2.5 1 0.75
   vertex 6.29167 2.5 0.75
  endloop
 endfacet
endsolid
