solid ascii
 facet normal -1 0 0
  outer loop
   vertex 2.08333 1 0.541667
   vertex 2.08333 -0.541667 1.16667
   vertex 2.08333 1 1.16667
  endloop
 endfacet
 facet normal 0 1 -0
  outer loop
   vertex 2.08333 -0.541667 1.16667
   vertex 2.08333 -0.541667 0.541667
   vertex 1.23333 -0.541667 1.16667
  endloop
 endfacet
 facet normal 0 1 0
  outer loop
   vertex -0.541667 -0.541667 1.16667
   vertex 1.23333 -0.541667 1.16667
   vertex 2.08333 -0.541667 0.541667
  endloop
 endfacet
 facet normal 1 0 0
  outer loop
   vertex 1.23333 -0.541667 1.31667
   vertex 1.23333 -0.541667 1.16667
   vertex 1.23333 0.15 1.31667
  endloop
 endfacet
 facet normal 0 1 -0
  outer loop
   vertex 2.08333 -0.541667 1.31667
   vertex 2.08333 -0.541667 1.16667
   vertex 1.23333 -0.541667 1.31667
  endloop
 endfacet
 facet normal -1 0 0
  outer loop
   vertex 2.08333 1 1.31667
   vertex 2.08333 1 1.16667
   vertex 2.08333 -0.541667 1.31667
  endloop
 endfacet
 facet normal 1 0 0
  outer loop
   vertex 1.23333 0.15 1.31667
   vertex 1.23333 -0.541667 1.16667
   vertex 1.23333 0.15 1.16667
  endloop
 endfacet
 facet normal 0 1 0
  outer loop
   vertex 1.23333 -0.541667 1.31667
   vertex 2.08333 -0.541667 1.16667
   vertex 1.23333 -0.541667 1.16667
  endloop
 endfacet
 facet normal -1 0 0
  outer loop
   vertex 2.08333 -0.541667 1.31667
   vertex 2.08333 1 1.16667
   vertex 2.08333 -0.541667 1.16667
  endloop
 endfacet
 facet normal -1 0 0
  outer loop
   vertex 2.08333 1 -0.541667
   vertex 2.08333 1 -1.16667
   vertex 2.08333 -0.541667 -1.16667
  endloop
 endfacet
 facet normal 0 1 0
  outer loop
   vertex 2.08333 -0.541667 -1.16667
   vertex 1.23333 -0.541667 -1.16667
   vertex 2.08333 -0.541667 -0.541667
  endloop
 endfacet
 facet normal 0 1 0
  outer loop
   vertex -0.541667 -0.541667 -1.16667
   vertex 2.08333 -0.541667 -0.541667
   vertex 1.23333 -0.541667 -1.16667
  endloop
 endfacet
 facet normal 1 0 0
  outer loop
   vertex 1.23333 0.15 -1.31667
   vertex 1.23333 -0.541667 -1.16667
   vertex 1.23333 -0.541667 -1.31667
  endloop
 endfacet
 facet normal 0 1 0
  outer loop
   vertex 1.23333 -0.541667 -1.31667
   vertex 2.08333 -0.541667 -1.16667
   vertex 2.08333 -0.541667 -1.31667
  endloop
 endfacet
 facet normal -1 0 -0
  outer loop
   vertex 2.08333 -0.541667 -1.31667
   vertex 2.08333 1 -1.16667
   vertex 2.08333 1 -1.31667
  endloop
 endfacet
 facet normal 1 -0 0
  outer loop
   vertex 1.23333 0.15 -1.16667
   vertex 1.23333 -0.541667 -1.16667
   vertex 1.23333 0.15 -1.31667
  endloop
 endfacet
 facet normal 0 1 0
  outer loop
   vertex 1.23333 -0.541667 -1.16667
   vertex 2.08333 -0.541667 -1.16667
   vertex 1.23333 -0.541667 -1.31667
  endloop
 endfacet
 facet normal -1 -0 0
  outer loop
   vertex 2.08333 -0.541667 -1.16667
   vertex 2.08333 1 -1.16667
   vertex 2.08333 -0.541667 -1.31667
  endloop
 endfacet
 facet normal 0 -1.10039e-07 1
  outer loop
   vertex -0.541667 -0.541667 0.541667
   vertex 2.08333 -0.541667 0.541667
   vertex 0.433333 0 0.541667
  endloop
 endfacet
 facet normal 0 -1.10039e-07 1
  outer loop
   vertex 1.3 0 0.541667
   vertex 0.433333 0 0.541667
   vertex 2.08333 -0.541667 0.541667
  endloop
 endfacet
 facet normal 0 0 1
  outer loop
   vertex 1.3 0 0.541667
   vertex 0.866667 0.433333 0.541667
   vertex 0.433333 0 0.541667
  endloop
 endfacet
 facet normal 1.01455e-08 -9.53674e-08 1
  outer loop
   vertex 2.08333 -0.541667 0.541667
   vertex 2.08333 0.0833333 0.541667
   vertex 1.3 0 0.541667
  endloop
 endfacet
 facet normal 0 0 1
  outer loop
   vertex 1.73333 0.433333 0.541667
   vertex 1.3 0 0.541667
   vertex 2.08333 0.0833333 0.541667
  endloop
 endfacet
 facet normal 0 0 -1
  outer loop
   vertex 2.08333 -0.541667 -0.541667
   vertex 1.3 0 -0.541667
   vertex 2.08333 0.0833333 -0.541667
  endloop
 endfacet
 facet normal -0 0 -1
  outer loop
   vertex 1.73333 0.433333 -0.541667
   vertex 2.08333 0.0833333 -0.541667
   vertex 1.3 0 -0.541667
  endloop
 endfacet
 facet normal 0 -0 -1
  outer loop
   vertex -0.541667 -0.541667 -0.541667
   vertex 0.433333 0 -0.541667
   vertex 2.08333 -0.541667 -0.541667
  endloop
 endfacet
 facet normal 0 0 -1
  outer loop
   vertex 1.3 0 -0.541667
   vertex 2.08333 -0.541667 -0.541667
   vertex 0.433333 0 -0.541667
  endloop
 endfacet
 facet normal 0 -0 -1
  outer loop
   vertex 0.433333 0 -0.541667
   vertex 0.866667 0.433333 -0.541667
   vertex 1.3 0 -0.541667
  endloop
 endfacet
 facet normal -1 0 0
  outer loop
   vertex 2.08333 -0.541667 0.541667
   vertex 2.08333 -0.541667 1.16667
   vertex 2.08333 0.0833333 0.541667
  endloop
 endfacet
 facet normal -1 0 0
  outer loop
   vertex 2.08333 1 0.541667
   vertex 2.08333 0.0833333 0.541667
   vertex 2.08333 -0.541667 1.16667
  endloop
 endfacet
 facet normal -1 -0 0
  outer loop
   vertex 2.08333 -0.541667 -0.541667
   vertex 2.08333 0.0833333 -0.541667
   vertex 2.08333 -0.541667 -1.16667
  endloop
 endfacet
 facet normal -1 0 0
  outer loop
   vertex 2.08333 1 -0.541667
   vertex 2.08333 -0.541667 -1.16667
   vertex 2.08333 0.0833333 -0.541667
  endloop
 endfacet
 facet normal -0.707107 0.707107 0
  outer loop
   vertex 0.433333 0 0.541667
   vertex 0.866667 0.433333 -0.541667
   vertex 0.433333 0 -0.541667
  endloop
 endfacet
 facet normal -0.707107 0.707107 0
  outer loop
   vertex 0.866667 0.433333 -0.541667
   vertex 0.433333 0 0.541667
   vertex 0.866667 0.433333 0.541667
  endloop
 endfacet
 facet normal 0.707107 0.707107 0
  outer loop
   vertex 0.866667 0.433333 0.541667
   vertex 1.3 0 -0.541667
   vertex 0.866667 0.433333 -0.541667
  endloop
 endfacet
 facet normal 0.707107 0.707107 0
  outer loop
   vertex 1.3 0 -0.541667
   vertex 0.866667 0.433333 0.541667
   vertex 1.3 0 0.541667
  endloop
 endfacet
 facet normal -0.707107 0.707107 0
  outer loop
   vertex 1.3 0 0.541667
   vertex 1.73333 0.433333 -0.541667
   vertex 1.3 0 -0.541667
  endloop
 endfacet
 facet normal -0.707107 0.707107 0
  outer loop
   vertex 1.73333 0.433333 -0.541667
   vertex 1.3 0 0.541667
   vertex 1.73333 0.433333 0.541667
  endloop
 endfacet
 facet normal 0.707107 0.707107 0
  outer loop
   vertex 1.73333 0.433333 0.541667
   vertex 2.08333 0.0833333 -0.541667
   vertex 1.73333 0.433333 -0.541667
  endloop
 endfacet
 facet normal 0.707107 0.707107 0
  outer loop
   vertex 2.08333 0.0833333 -0.541667
   vertex 1.73333 0.433333 0.541667
   vertex 2.08333 0.0833333 0.541667
  endloop
 endfacet
 facet normal -1 0 0
  outer loop
   vertex 2.08333 0.0833333 0.541667
   vertex 2.08333 1 -0.541667
   vertex 2.08333 0.0833333 -0.541667
  endloop
 endfacet
 facet normal -1 0 0
  outer loop
   vertex 2.08333 1 -0.541667
   vertex 2.08333 0.0833333 0.541667
   vertex 2.08333 1 0.541667
  endloop
 endfacet
 facet normal 0 1 0
  outer loop
   vertex 2.08333 -0.541667 0.541667
   vertex -0.541667 -0.541667 0.541667
   vertex -0.541667 -0.541667 1.16667
  endloop
 endfacet
 facet normal 0 0 -1
  outer loop
   vertex 1.23333 0.15 1.16667
   vertex 1.23333 -0.541667 1.16667
   vertex 0.15 0.15 1.16667
  endloop
 endfacet
 facet normal 0 -0 -1
  outer loop
   vertex -0.541667 -0.541667 1.16667
   vertex 0.15 0.15 1.16667
   vertex 1.23333 -0.541667 1.16667
  endloop
 endfacet
 facet normal 0 -1 0
  outer loop
   vertex 2.08333 1 1.16667
   vertex 1 1 1.16667
   vertex 1 1 0.90873
  endloop
 endfacet
 facet normal 0 0 -1
  outer loop
   vertex 2.08333 1 1.31667
   vertex 1.23333 0.15 1.31667
   vertex 1 1 1.31667
  endloop
 endfacet
 facet normal 0 -0 -1
  outer loop
   vertex 0.15 0.15 1.31667
   vertex 1 1 1.31667
   vertex 1.23333 0.15 1.31667
  endloop
 endfacet
 facet normal 0 0 -1
  outer loop
   vertex 2.08333 1 1.31667
   vertex 2.08333 -0.541667 1.31667
   vertex 1.23333 0.15 1.31667
  endloop
 endfacet
 facet normal 0 0 -1
  outer loop
   vertex 1.23333 -0.541667 1.31667
   vertex 1.23333 0.15 1.31667
   vertex 2.08333 -0.541667 1.31667
  endloop
 endfacet
 facet normal 0 -1 0
  outer loop
   vertex 2.08333 1 1.31667
   vertex 1 1 1.31667
   vertex 1 1 1.25476
  endloop
 endfacet
 facet normal -0 1 0
  outer loop
   vertex 1.23333 0.15 1.16667
   vertex 0.15 0.15 1.25822
   vertex 1.23333 0.15 1.31667
  endloop
 endfacet
 facet normal 0 1 0
  outer loop
   vertex 0.15 0.15 1.31667
   vertex 1.23333 0.15 1.31667
   vertex 0.15 0.15 1.25822
  endloop
 endfacet
 facet normal 0 -1 0
  outer loop
   vertex 2.08333 1 1.31667
   vertex 1 1 1.25476
   vertex 2.08333 1 1.16667
  endloop
 endfacet
 facet normal 0 -1 0
  outer loop
   vertex 1 1 1.16667
   vertex 2.08333 1 1.16667
   vertex 1 1 1.25476
  endloop
 endfacet
 facet normal 0 1 0
  outer loop
   vertex 1.23333 0.15 1.16667
   vertex 0.15 0.15 1.16667
   vertex 0.15 0.15 1.25822
  endloop
 endfacet
 facet normal 0 1 0
  outer loop
   vertex 2.08333 -0.541667 -0.541667
   vertex -0.541667 -0.541667 -1.16667
   vertex -0.541667 -0.541667 -0.541667
  endloop
 endfacet
 facet normal -0 0 1
  outer loop
   vertex 1.23333 0.15 -1.16667
   vertex 0.15 0.15 -1.16667
   vertex 1.23333 -0.541667 -1.16667
  endloop
 endfacet
 facet normal 0 0 1
  outer loop
   vertex -0.541667 -0.541667 -1.16667
   vertex 1.23333 -0.541667 -1.16667
   vertex 0.15 0.15 -1.16667
  endloop
 endfacet
 facet normal 0 -1 0
  outer loop
   vertex 2.08333 1 -1.16667
   vertex 1 1 -0.90873
   vertex 1 1 -1.16667
  endloop
 endfacet
 facet normal -0 0 1
  outer loop
   vertex 2.08333 1 -1.31667
   vertex 1.23333 0.15 -1.31667
   vertex 2.08333 -0.541667 -1.31667
  endloop
 endfacet
 facet normal 0 0 1
  outer loop
   vertex 1.23333 -0.541667 -1.31667
   vertex 2.08333 -0.541667 -1.31667
   vertex 1.23333 0.15 -1.31667
  endloop
 endfacet
 facet normal -0 0 1
  outer loop
   vertex 2.08333 1 -1.31667
   vertex 1 1 -1.31667
   vertex 1.23333 0.15 -1.31667
  endloop
 endfacet
 facet normal 0 0 1
  outer loop
   vertex 0.15 0.15 -1.31667
   vertex 1.23333 0.15 -1.31667
   vertex 1 1 -1.31667
  endloop
 endfacet
 facet normal 0 -1 0
  outer loop
   vertex 2.08333 1 -1.31667
   vertex 1 1 -1.25476
   vertex 1 1 -1.31667
  endloop
 endfacet
 facet normal 0 1 -0
  outer loop
   vertex 1.23333 0.15 -1.16667
   vertex 1.23333 0.15 -1.31667
   vertex 0.15 0.15 -1.25822
  endloop
 endfacet
 facet normal 0 1 0
  outer loop
   vertex 0.15 0.15 -1.31667
   vertex 0.15 0.15 -1.25822
   vertex 1.23333 0.15 -1.31667
  endloop
 endfacet
 facet normal 0 -1 -0
  outer loop
   vertex 2.08333 1 -1.31667
   vertex 2.08333 1 -1.16667
   vertex 1 1 -1.25476
  endloop
 endfacet
 facet normal 0 -1 0
  outer loop
   vertex 1 1 -1.16667
   vertex 1 1 -1.25476
   vertex 2.08333 1 -1.16667
  endloop
 endfacet
 facet normal 0 1 0
  outer loop
   vertex 1.23333 0.15 -1.16667
   vertex 0.15 0.15 -1.25822
   vertex 0.15 0.15 -1.16667
  endloop
 endfacet
 facet normal -3.92998e-08 -3.92998e-08 1
  outer loop
   vertex 0.433333 0 0.541667
   vertex 0.216667 0.216667 0.541667
   vertex -0.541667 -0.541667 0.541667
  endloop
 endfacet
 facet normal 0 -0 -1
  outer loop
   vertex -0.541667 -0.541667 -0.541667
   vertex 0.216667 0.216667 -0.541667
   vertex 0.433333 0 -0.541667
  endloop
 endfacet
 facet normal 0 -1 0
  outer loop
   vertex 2.08333 1 1.16667
   vertex 1 1 0.90873
   vertex 2.08333 1 0.541667
  endloop
 endfacet
 facet normal 0 -1 0
  outer loop
   vertex 1 1 0.541667
   vertex 2.08333 1 0.541667
   vertex 1 1 0.90873
  endloop
 endfacet
 facet normal 0 -1 -0
  outer loop
   vertex 2.08333 1 -1.16667
   vertex 2.08333 1 -0.541667
   vertex 1 1 -0.90873
  endloop
 endfacet
 facet normal 0 -1 0
  outer loop
   vertex 1 1 -0.541667
   vertex 1 1 -0.90873
   vertex 2.08333 1 -0.541667
  endloop
 endfacet
 facet normal 0.707107 0.707107 -0
  outer loop
   vertex 0.433333 0 -0.541667
   vertex 0.216667 0.216667 -0.541667
   vertex 0.216667 0.216667 2.98023e-08
  endloop
 endfacet
 facet normal 0.707107 0.707107 0
  outer loop
   vertex 0.216667 0.216667 0.541667
   vertex 0.433333 0 0.541667
   vertex 0.216667 0.216667 2.98023e-08
  endloop
 endfacet
 facet normal 0.707107 0.707107 0
  outer loop
   vertex 0.433333 0 -0.541667
   vertex 0.216667 0.216667 2.98023e-08
   vertex 0.433333 0 0.541667
  endloop
 endfacet
 facet normal 0 -1 0
  outer loop
   vertex 2.08333 1 0.541667
   vertex 1 1 -0.0216666
   vertex 2.08333 1 -0.541667
  endloop
 endfacet
 facet normal 0 -1 0
  outer loop
   vertex 2.08333 1 -0.541667
   vertex 1 1 -0.0216666
   vertex 1 1 -0.541667
  endloop
 endfacet
 facet normal 0 -1 0
  outer loop
   vertex 2.08333 1 0.541667
   vertex 1 1 0.541667
   vertex 1 1 -0.0216666
  endloop
 endfacet
 facet normal 0.707107 -0.707107 0
  outer loop
   vertex 1 1 1.31667
   vertex 0.15 0.15 1.31667
   vertex 0.216667 0.216667 0.541667
  endloop
 endfacet
 facet normal 0.707107 -0.707107 0
  outer loop
   vertex 0.15 0.15 1.16667
   vertex 0.216667 0.216667 0.541667
   vertex 0.15 0.15 1.25822
  endloop
 endfacet
 facet normal 0.707107 -0.707107 0
  outer loop
   vertex 0.216667 0.216667 0.541667
   vertex 0.15 0.15 1.31667
   vertex 0.15 0.15 1.25822
  endloop
 endfacet
 facet normal 0.707107 -0.707107 0
  outer loop
   vertex 0.216667 0.216667 0.541667
   vertex 0.15 0.15 1.16667
   vertex -0.541667 -0.541667 0.541667
  endloop
 endfacet
 facet normal 0.707107 -0.707107 0
  outer loop
   vertex -0.541667 -0.541667 1.16667
   vertex -0.541667 -0.541667 0.541667
   vertex 0.15 0.15 1.16667
  endloop
 endfacet
 facet normal 0.707107 -0.707107 0
  outer loop
   vertex 0.216667 0.216667 0.541667
   vertex 0.216667 0.216667 2.98023e-08
   vertex 1 1 1.31667
  endloop
 endfacet
 facet normal 0.707107 -0.707107 0
  outer loop
   vertex 0.216667 0.216667 -0.541667
   vertex 1 1 -1.31667
   vertex 0.216667 0.216667 2.98023e-08
  endloop
 endfacet
 facet normal 0.707107 -0.707107 0
  outer loop
   vertex 1 1 1.31667
   vertex 0.216667 0.216667 2.98023e-08
   vertex 1 1 1.25476
  endloop
 endfacet
 facet normal 0.707107 -0.707107 0
  outer loop
   vertex 1 1 1.25476
   vertex 0.216667 0.216667 2.98023e-08
   vertex 1 1 1.16667
  endloop
 endfacet
 facet normal 0.707107 -0.707107 0
  outer loop
   vertex 1 1 1.16667
   vertex 0.216667 0.216667 2.98023e-08
   vertex 1 1 0.90873
  endloop
 endfacet
 facet normal 0.707107 -0.707107 0
  outer loop
   vertex 1 1 0.90873
   vertex 0.216667 0.216667 2.98023e-08
   vertex 1 1 0.541667
  endloop
 endfacet
 facet normal 0.707107 -0.707107 0
  outer loop
   vertex 1 1 0.541667
   vertex 0.216667 0.216667 2.98023e-08
   vertex 1 1 -0.0216666
  endloop
 endfacet
 facet normal 0.707107 -0.707107 0
  outer loop
   vertex 1 1 -0.0216666
   vertex 0.216667 0.216667 2.98023e-08
   vertex 1 1 -0.541667
  endloop
 endfacet
 facet normal 0.707107 -0.707107 0
  outer loop
   vertex 1 1 -0.541667
   vertex 0.216667 0.216667 2.98023e-08
   vertex 1 1 -0.90873
  endloop
 endfacet
 facet normal 0.707107 -0.707107 0
  outer loop
   vertex 1 1 -0.90873
   vertex 0.216667 0.216667 2.98023e-08
   vertex 1 1 -1.16667
  endloop
 endfacet
 facet normal 0.707107 -0.707107 0
  outer loop
   vertex 1 1 -1.16667
   vertex 0.216667 0.216667 2.98023e-08
   vertex 1 1 -1.25476
  endloop
 endfacet
 facet normal 0.707107 -0.707107 0
  outer loop
   vertex 1 1 -1.31667
   vertex 1 1 -1.25476
   vertex 0.216667 0.216667 2.98023e-08
  endloop
 endfacet
 facet normal 0.707107 -0.707107 0
  outer loop
   vertex 1 1 -1.31667
   vertex 0.216667 0.216667 -0.541667
   vertex 0.15 0.15 -1.31667
  endloop
 endfacet
 facet normal 0.707107 -0.707107 0
  outer loop
   vertex 0.15 0.15 -1.16667
   vertex 0.15 0.15 -1.25822
   vertex 0.216667 0.216667 -0.541667
  endloop
 endfacet
 facet normal 0.707107 -0.707107 0
  outer loop
   vertex 0.15 0.15 -1.31667
   vertex 0.216667 0.216667 -0.541667
   vertex 0.15 0.15 -1.25822
  endloop
 endfacet
 facet normal 0.707107 -0.707107 0
  outer loop
   vertex 0.216667 0.216667 -0.541667
   vertex -0.541667 -0.541667 -0.541667
   vertex 0.15 0.15 -1.16667
  endloop
 endfacet
 facet normal 0.707107 -0.707107 0
  outer loop
   vertex -0.541667 -0.541667 -1.16667
   vertex 0.15 0.15 -1.16667
   vertex -0.541667 -0.541667 -0.541667
  endloop
 endfacet
endsolid
