solid ascii
 facet normal -1 0 0
  outer loop
   vertex -0.466667 -0.541667 1.16667
   vertex -0.466667 -0.391667 0.541667
   vertex -0.466667 -0.541667 0.541667
  endloop
 endfacet
 facet normal -1 0 0
  outer loop
   vertex -0.466667 -0.391667 1.16667
   vertex -0.466667 -0.391667 0.541667
   vertex -0.466667 -0.541667 1.16667
  endloop
 endfacet
 facet normal 0 -1 0
  outer loop
   vertex -0.466667 -0.391667 1.16667
   vertex -0.616667 -0.391667 0.541667
   vertex -0.466667 -0.391667 0.541667
  endloop
 endfacet
 facet normal 0 -1 0
  outer loop
   vertex -0.616667 -0.391667 1.16667
   vertex -0.616667 -0.391667 0.541667
   vertex -0.466667 -0.391667 1.16667
  endloop
 endfacet
 facet normal 1 0 0
  outer loop
   vertex -0.616667 -0.391667 1.16667
   vertex -0.616667 -0.541667 0.541667
   vertex -0.616667 -0.391667 0.541667
  endloop
 endfacet
 facet normal 1 0 0
  outer loop
   vertex -0.616667 -0.541667 1.16667
   vertex -0.616667 -0.541667 0.541667
   vertex -0.616667 -0.391667 1.16667
  endloop
 endfacet
 facet normal 0 -1 0
  outer loop
   vertex -0.616667 -0.541667 1.16667
   vertex -1.55 -0.541667 0.541667
   vertex -0.616667 -0.541667 0.541667
  endloop
 endfacet
 facet normal 0 -1 0
  outer loop
   vertex -1.55 -0.541667 1.16667
   vertex -1.55 -0.541667 0.541667
   vertex -0.616667 -0.541667 1.16667
  endloop
 endfacet
 facet normal -1 0 0
  outer loop
   vertex -1.55 -0.541667 1.16667
   vertex -1.55 -0.391667 0.541667
   vertex -1.55 -0.541667 0.541667
  endloop
 endfacet
 facet normal -1 0 0
  outer loop
   vertex -1.55 -0.391667 1.16667
   vertex -1.55 -0.391667 0.541667
   vertex -1.55 -0.541667 1.16667
  endloop
 endfacet
 facet normal 0 -1 0
  outer loop
   vertex -1.55 -0.391667 1.16667
   vertex -1.7 -0.391667 0.541667
   vertex -1.55 -0.391667 0.541667
  endloop
 endfacet
 facet normal 0 -1 0
  outer loop
   vertex -1.7 -0.391667 1.16667
   vertex -1.7 -0.391667 0.541667
   vertex -1.55 -0.391667 1.16667
  endloop
 endfacet
 facet normal 1 0 0
  outer loop
   vertex -1.7 -0.391667 1.16667
   vertex -1.7 -0.541667 0.541667
   vertex -1.7 -0.391667 0.541667
  endloop
 endfacet
 facet normal 1 0 0
  outer loop
   vertex -1.7 -0.541667 1.16667
   vertex -1.7 -0.541667 0.541667
   vertex -1.7 -0.391667 1.16667
  endloop
 endfacet
 facet normal 0 -1 0
  outer loop
   vertex -1.7 -0.541667 1.16667
   vertex -4.25 -0.541667 0.541667
   vertex -1.7 -0.541667 0.541667
  endloop
 endfacet
 facet normal 0 -1 0
  outer loop
   vertex -0.466667 -0.541667 1.16667
   vertex -0.466667 -0.541667 0.541667
   vertex 0.541667 -0.541667 1.16667
  endloop
 endfacet
 facet normal 0 0 1
  outer loop
   vertex -1.55 -0.391667 1.16667
   vertex -1.55 -0.541667 1.16667
   vertex -0.616667 -0.391667 1.16667
  endloop
 endfacet
 facet normal 0 0 1
  outer loop
   vertex -0.616667 -0.541667 1.16667
   vertex -0.616667 -0.391667 1.16667
   vertex -1.55 -0.541667 1.16667
  endloop
 endfacet
 facet normal 0 0 1
  outer loop
   vertex -3.4 0.15 1.16667
   vertex -3.4 -0.541667 1.16667
   vertex -1.7 -0.391667 1.16667
  endloop
 endfacet
 facet normal 0 0 1
  outer loop
   vertex -1.7 -0.541667 1.16667
   vertex -1.7 -0.391667 1.16667
   vertex -3.4 -0.541667 1.16667
  endloop
 endfacet
 facet normal -1 0 0
  outer loop
   vertex -4.25 1 0.541667
   vertex -4.25 -0.541667 1.16667
   vertex -4.25 1 1.16667
  endloop
 endfacet
 facet normal 0 -1 0
  outer loop
   vertex -4.25 -0.541667 1.16667
   vertex -4.25 -0.541667 0.541667
   vertex -3.4 -0.541667 1.16667
  endloop
 endfacet
 facet normal 0 -1 -0
  outer loop
   vertex -1.7 -0.541667 1.16667
   vertex -3.4 -0.541667 1.16667
   vertex -4.25 -0.541667 0.541667
  endloop
 endfacet
 facet normal 1 0 0
  outer loop
   vertex -3.4 -0.541667 1.31667
   vertex -3.4 -0.541667 1.16667
   vertex -3.4 0.15 1.31667
  endloop
 endfacet
 facet normal 0 -1 0
  outer loop
   vertex -4.25 -0.541667 1.31667
   vertex -4.25 -0.541667 1.16667
   vertex -3.4 -0.541667 1.31667
  endloop
 endfacet
 facet normal -1 0 0
  outer loop
   vertex -4.25 1 1.31667
   vertex -4.25 1 1.16667
   vertex -4.25 -0.541667 1.31667
  endloop
 endfacet
 facet normal 1 0 0
  outer loop
   vertex -3.4 0.15 1.31667
   vertex -3.4 -0.541667 1.16667
   vertex -3.4 0.15 1.16667
  endloop
 endfacet
 facet normal 0 -1 0
  outer loop
   vertex -3.4 -0.541667 1.31667
   vertex -4.25 -0.541667 1.16667
   vertex -3.4 -0.541667 1.16667
  endloop
 endfacet
 facet normal -1 0 0
  outer loop
   vertex -4.25 -0.541667 1.31667
   vertex -4.25 1 1.16667
   vertex -4.25 -0.541667 1.16667
  endloop
 endfacet
 facet normal -1 -0 0
  outer loop
   vertex -0.466667 -0.541667 -0.541667
   vertex -0.466667 -0.391667 -0.541667
   vertex -0.466667 -0.541667 -1.16667
  endloop
 endfacet
 facet normal -1 0 -0
  outer loop
   vertex -0.466667 -0.541667 -1.16667
   vertex -0.466667 -0.391667 -0.541667
   vertex -0.466667 -0.391667 -1.16667
  endloop
 endfacet
 facet normal 0 -1 0
  outer loop
   vertex -0.466667 -0.391667 -0.541667
   vertex -0.616667 -0.391667 -0.541667
   vertex -0.466667 -0.391667 -1.16667
  endloop
 endfacet
 facet normal 0 -1 0
  outer loop
   vertex -0.466667 -0.391667 -1.16667
   vertex -0.616667 -0.391667 -0.541667
   vertex -0.616667 -0.391667 -1.16667
  endloop
 endfacet
 facet normal 1 -0 0
  outer loop
   vertex -0.616667 -0.391667 -0.541667
   vertex -0.616667 -0.541667 -0.541667
   vertex -0.616667 -0.391667 -1.16667
  endloop
 endfacet
 facet normal 1 0 0
  outer loop
   vertex -0.616667 -0.391667 -1.16667
   vertex -0.616667 -0.541667 -0.541667
   vertex -0.616667 -0.541667 -1.16667
  endloop
 endfacet
 facet normal 0 -1 0
  outer loop
   vertex -0.616667 -0.541667 -0.541667
   vertex -1.55 -0.541667 -0.541667
   vertex -0.616667 -0.541667 -1.16667
  endloop
 endfacet
 facet normal 0 -1 0
  outer loop
   vertex -0.616667 -0.541667 -1.16667
   vertex -1.55 -0.541667 -0.541667
   vertex -1.55 -0.541667 -1.16667
  endloop
 endfacet
 facet normal -1 -0 0
  outer loop
   vertex -1.55 -0.541667 -0.541667
   vertex -1.55 -0.391667 -0.541667
   vertex -1.55 -0.541667 -1.16667
  endloop
 endfacet
 facet normal -1 0 -0
  outer loop
   vertex -1.55 -0.541667 -1.16667
   vertex -1.55 -0.391667 -0.541667
   vertex -1.55 -0.391667 -1.16667
  endloop
 endfacet
 facet normal 0 -1 0
  outer loop
   vertex -1.55 -0.391667 -0.541667
   vertex -1.7 -0.391667 -0.541667
   vertex -1.55 -0.391667 -1.16667
  endloop
 endfacet
 facet normal 0 -1 0
  outer loop
   vertex -1.55 -0.391667 -1.16667
   vertex -1.7 -0.391667 -0.541667
   vertex -1.7 -0.391667 -1.16667
  endloop
 endfacet
 facet normal 1 -0 0
  outer loop
   vertex -1.7 -0.391667 -0.541667
   vertex -1.7 -0.541667 -0.541667
   vertex -1.7 -0.391667 -1.16667
  endloop
 endfacet
 facet normal 1 0 0
  outer loop
   vertex -1.7 -0.391667 -1.16667
   vertex -1.7 -0.541667 -0.541667
   vertex -1.7 -0.541667 -1.16667
  endloop
 endfacet
 facet normal 0 -1 0
  outer loop
   vertex -1.7 -0.541667 -0.541667
   vertex -4.25 -0.541667 -0.541667
   vertex -1.7 -0.541667 -1.16667
  endloop
 endfacet
 facet normal 0 -1 0
  outer loop
   vertex 0.541667 -0.541667 -1.16667
   vertex -0.466667 -0.541667 -0.541667
   vertex -0.466667 -0.541667 -1.16667
  endloop
 endfacet
 facet normal -0 0 -1
  outer loop
   vertex -3.4 0.15 -1.16667
   vertex -1.7 -0.391667 -1.16667
   vertex -3.4 -0.541667 -1.16667
  endloop
 endfacet
 facet normal 0 0 -1
  outer loop
   vertex -1.7 -0.541667 -1.16667
   vertex -3.4 -0.541667 -1.16667
   vertex -1.7 -0.391667 -1.16667
  endloop
 endfacet
 facet normal 0 0 -1
  outer loop
   vertex -0.616667 -0.391667 -1.16667
   vertex -0.616667 -0.541667 -1.16667
   vertex -1.55 -0.391667 -1.16667
  endloop
 endfacet
 facet normal 0 0 -1
  outer loop
   vertex -1.55 -0.541667 -1.16667
   vertex -1.55 -0.391667 -1.16667
   vertex -0.616667 -0.541667 -1.16667
  endloop
 endfacet
 facet normal -1 0 0
  outer loop
   vertex -4.25 1 -0.541667
   vertex -4.25 1 -1.16667
   vertex -4.25 -0.541667 -1.16667
  endloop
 endfacet
 facet normal 0 -1 0
  outer loop
   vertex -4.25 -0.541667 -1.16667
   vertex -3.4 -0.541667 -1.16667
   vertex -4.25 -0.541667 -0.541667
  endloop
 endfacet
 facet normal 0 -1 0
  outer loop
   vertex -1.7 -0.541667 -1.16667
   vertex -4.25 -0.541667 -0.541667
   vertex -3.4 -0.541667 -1.16667
  endloop
 endfacet
 facet normal 1 0 0
  outer loop
   vertex -3.4 0.15 -1.31667
   vertex -3.4 -0.541667 -1.16667
   vertex -3.4 -0.541667 -1.31667
  endloop
 endfacet
 facet normal 0 -1 0
  outer loop
   vertex -3.4 -0.541667 -1.31667
   vertex -4.25 -0.541667 -1.16667
   vertex -4.25 -0.541667 -1.31667
  endloop
 endfacet
 facet normal -1 0 -0
  outer loop
   vertex -4.25 -0.541667 -1.31667
   vertex -4.25 1 -1.16667
   vertex -4.25 1 -1.31667
  endloop
 endfacet
 facet normal 1 -0 0
  outer loop
   vertex -3.4 0.15 -1.16667
   vertex -3.4 -0.541667 -1.16667
   vertex -3.4 0.15 -1.31667
  endloop
 endfacet
 facet normal 0 -1 0
  outer loop
   vertex -3.4 -0.541667 -1.16667
   vertex -4.25 -0.541667 -1.16667
   vertex -3.4 -0.541667 -1.31667
  endloop
 endfacet
 facet normal -1 -0 0
  outer loop
   vertex -4.25 -0.541667 -1.16667
   vertex -4.25 1 -1.16667
   vertex -4.25 -0.541667 -1.31667
  endloop
 endfacet
 facet normal -0 0 -1
  outer loop
   vertex -0.866667 0.433333 0.541667
   vertex -0.433333 0 0.541667
   vertex -0.616667 -0.391667 0.541667
  endloop
 endfacet
 facet normal 0 0 -1
  outer loop
   vertex -0.466667 -0.391667 0.541667
   vertex -0.616667 -0.391667 0.541667
   vertex -0.433333 0 0.541667
  endloop
 endfacet
 facet normal 0 0 -1
  outer loop
   vertex -0.866667 0.433333 0.541667
   vertex -0.616667 -0.391667 0.541667
   vertex -1.3 0 0.541667
  endloop
 endfacet
 facet normal 0 0 -1
  outer loop
   vertex -1.3 0 0.541667
   vertex -0.616667 -0.391667 0.541667
   vertex -1.55 -0.391667 0.541667
  endloop
 endfacet
 facet normal 0 0 -1
  outer loop
   vertex -0.616667 -0.541667 0.541667
   vertex -1.55 -0.541667 0.541667
   vertex -0.616667 -0.391667 0.541667
  endloop
 endfacet
 facet normal -0 0 -1
  outer loop
   vertex -1.55 -0.391667 0.541667
   vertex -0.616667 -0.391667 0.541667
   vertex -1.55 -0.541667 0.541667
  endloop
 endfacet
 facet normal 0 -0 -1
  outer loop
   vertex -2.16667 0 0.541667
   vertex -1.73333 0.433333 0.541667
   vertex -1.7 -0.391667 0.541667
  endloop
 endfacet
 facet normal -0 0 -1
  outer loop
   vertex -1.73333 0.433333 0.541667
   vertex -1.3 0 0.541667
   vertex -1.7 -0.391667 0.541667
  endloop
 endfacet
 facet normal 0 0 -1
  outer loop
   vertex -1.55 -0.391667 0.541667
   vertex -1.7 -0.391667 0.541667
   vertex -1.3 0 0.541667
  endloop
 endfacet
 facet normal 0 -0 -1
  outer loop
   vertex -4.25 -0.541667 0.541667
   vertex -3.03333 0 0.541667
   vertex -1.7 -0.541667 0.541667
  endloop
 endfacet
 facet normal -0 -0 -1
  outer loop
   vertex -3.03333 0 0.541667
   vertex -2.16667 0 0.541667
   vertex -1.7 -0.541667 0.541667
  endloop
 endfacet
 facet normal 0 0 -1
  outer loop
   vertex -1.7 -0.391667 0.541667
   vertex -1.7 -0.541667 0.541667
   vertex -2.16667 0 0.541667
  endloop
 endfacet
 facet normal 0 -0 -1
  outer loop
   vertex -3.03333 0 0.541667
   vertex -2.6 0.433333 0.541667
   vertex -2.16667 0 0.541667
  endloop
 endfacet
 facet normal 0 0 -1
  outer loop
   vertex -3.46667 0.433333 0.541667
   vertex -3.03333 0 0.541667
   vertex -3.9 0 0.541667
  endloop
 endfacet
 facet normal 0 -0 -1
  outer loop
   vertex -4.25 -0.541667 0.541667
   vertex -3.9 0 0.541667
   vertex -3.03333 0 0.541667
  endloop
 endfacet
 facet normal 0 0 -1
  outer loop
   vertex -4.25 -0.541667 0.541667
   vertex -4.25 0.35 0.541667
   vertex -3.9 0 0.541667
  endloop
 endfacet
 facet normal 0 -0 1
  outer loop
   vertex -0.866667 0.433333 -0.541667
   vertex -0.616667 -0.391667 -0.541667
   vertex -0.433333 0 -0.541667
  endloop
 endfacet
 facet normal 0 0 1
  outer loop
   vertex -0.466667 -0.391667 -0.541667
   vertex -0.433333 0 -0.541667
   vertex -0.616667 -0.391667 -0.541667
  endloop
 endfacet
 facet normal -0 0 1
  outer loop
   vertex -0.866667 0.433333 -0.541667
   vertex -1.3 0 -0.541667
   vertex -0.616667 -0.391667 -0.541667
  endloop
 endfacet
 facet normal 0 0 1
  outer loop
   vertex -1.3 0 -0.541667
   vertex -1.55 -0.391667 -0.541667
   vertex -0.616667 -0.391667 -0.541667
  endloop
 endfacet
 facet normal 0 0 1
  outer loop
   vertex -0.616667 -0.541667 -0.541667
   vertex -0.616667 -0.391667 -0.541667
   vertex -1.55 -0.541667 -0.541667
  endloop
 endfacet
 facet normal 0 0 1
  outer loop
   vertex -1.55 -0.391667 -0.541667
   vertex -1.55 -0.541667 -0.541667
   vertex -0.616667 -0.391667 -0.541667
  endloop
 endfacet
 facet normal 0 0 1
  outer loop
   vertex -2.16667 0 -0.541667
   vertex -1.7 -0.391667 -0.541667
   vertex -1.73333 0.433333 -0.541667
  endloop
 endfacet
 facet normal 0 -0 1
  outer loop
   vertex -1.73333 0.433333 -0.541667
   vertex -1.7 -0.391667 -0.541667
   vertex -1.3 0 -0.541667
  endloop
 endfacet
 facet normal 0 0 1
  outer loop
   vertex -1.55 -0.391667 -0.541667
   vertex -1.3 0 -0.541667
   vertex -1.7 -0.391667 -0.541667
  endloop
 endfacet
 facet normal 0 0 1
  outer loop
   vertex -4.25 -0.541667 -0.541667
   vertex -1.7 -0.541667 -0.541667
   vertex -3.03333 0 -0.541667
  endloop
 endfacet
 facet normal 0 0 1
  outer loop
   vertex -3.03333 0 -0.541667
   vertex -1.7 -0.541667 -0.541667
   vertex -2.16667 0 -0.541667
  endloop
 endfacet
 facet normal 0 0 1
  outer loop
   vertex -1.7 -0.391667 -0.541667
   vertex -2.16667 0 -0.541667
   vertex -1.7 -0.541667 -0.541667
  endloop
 endfacet
 facet normal 0 0 1
  outer loop
   vertex -3.46667 0.433333 -0.541667
   vertex -3.9 0 -0.541667
   vertex -3.03333 0 -0.541667
  endloop
 endfacet
 facet normal 0 0 1
  outer loop
   vertex -4.25 -0.541667 -0.541667
   vertex -3.03333 0 -0.541667
   vertex -3.9 0 -0.541667
  endloop
 endfacet
 facet normal 0 0 1
  outer loop
   vertex -3.9 0 -0.541667
   vertex -4.25 0.35 -0.541667
   vertex -4.25 -0.541667 -0.541667
  endloop
 endfacet
 facet normal 0 0 1
  outer loop
   vertex -2.16667 0 -0.541667
   vertex -2.6 0.433333 -0.541667
   vertex -3.03333 0 -0.541667
  endloop
 endfacet
 facet normal -1 0 0
  outer loop
   vertex -4.25 -0.541667 0.541667
   vertex -4.25 -0.541667 1.16667
   vertex -4.25 0.35 0.541667
  endloop
 endfacet
 facet normal -1 0 0
  outer loop
   vertex -4.25 1 0.541667
   vertex -4.25 0.35 0.541667
   vertex -4.25 -0.541667 1.16667
  endloop
 endfacet
 facet normal -1 -0 0
  outer loop
   vertex -4.25 -0.541667 -0.541667
   vertex -4.25 0.35 -0.541667
   vertex -4.25 -0.541667 -1.16667
  endloop
 endfacet
 facet normal -1 0 0
  outer loop
   vertex -4.25 1 -0.541667
   vertex -4.25 -0.541667 -1.16667
   vertex -4.25 0.35 -0.541667
  endloop
 endfacet
 facet normal -0.707107 -0.707107 0
  outer loop
   vertex -0.433333 0 0.541667
   vertex -0.866667 0.433333 -0.541667
   vertex -0.433333 0 -0.541667
  endloop
 endfacet
 facet normal -0.707107 -0.707107 0
  outer loop
   vertex -0.866667 0.433333 -0.541667
   vertex -0.433333 0 0.541667
   vertex -0.866667 0.433333 0.541667
  endloop
 endfacet
 facet normal 0.707107 -0.707107 0
  outer loop
   vertex -0.866667 0.433333 0.541667
   vertex -1.3 0 -0.541667
   vertex -0.866667 0.433333 -0.541667
  endloop
 endfacet
 facet normal 0.707107 -0.707107 0
  outer loop
   vertex -1.3 0 -0.541667
   vertex -0.866667 0.433333 0.541667
   vertex -1.3 0 0.541667
  endloop
 endfacet
 facet normal -0.707107 -0.707107 0
  outer loop
   vertex -1.3 0 0.541667
   vertex -1.73333 0.433333 -0.541667
   vertex -1.3 0 -0.541667
  endloop
 endfacet
 facet normal -0.707107 -0.707107 0
  outer loop
   vertex -1.73333 0.433333 -0.541667
   vertex -1.3 0 0.541667
   vertex -1.73333 0.433333 0.541667
  endloop
 endfacet
 facet normal 0.707107 -0.707107 0
  outer loop
   vertex -1.73333 0.433333 0.541667
   vertex -2.16667 0 -0.541667
   vertex -1.73333 0.433333 -0.541667
  endloop
 endfacet
 facet normal 0.707107 -0.707107 0
  outer loop
   vertex -2.16667 0 -0.541667
   vertex -1.73333 0.433333 0.541667
   vertex -2.16667 0 0.541667
  endloop
 endfacet
 facet normal -0.707107 -0.707107 0
  outer loop
   vertex -2.16667 0 0.541667
   vertex -2.6 0.433333 -0.541667
   vertex -2.16667 0 -0.541667
  endloop
 endfacet
 facet normal -0.707107 -0.707107 0
  outer loop
   vertex -2.6 0.433333 -0.541667
   vertex -2.16667 0 0.541667
   vertex -2.6 0.433333 0.541667
  endloop
 endfacet
 facet normal 0.707107 -0.707107 0
  outer loop
   vertex -2.6 0.433333 0.541667
   vertex -3.03333 0 -0.541667
   vertex -2.6 0.433333 -0.541667
  endloop
 endfacet
 facet normal 0.707107 -0.707107 0
  outer loop
   vertex -3.03333 0 -0.541667
   vertex -2.6 0.433333 0.541667
   vertex -3.03333 0 0.541667
  endloop
 endfacet
 facet normal -0.707107 -0.707107 0
  outer loop
   vertex -3.03333 0 0.541667
   vertex -3.46667 0.433333 -0.541667
   vertex -3.03333 0 -0.541667
  endloop
 endfacet
 facet normal -0.707107 -0.707107 0
  outer loop
   vertex -3.46667 0.433333 -0.541667
   vertex -3.03333 0 0.541667
   vertex -3.46667 0.433333 0.541667
  endloop
 endfacet
 facet normal 0.707107 -0.707107 0
  outer loop
   vertex -3.46667 0.433333 0.541667
   vertex -3.9 0 -0.541667
   vertex -3.46667 0.433333 -0.541667
  endloop
 endfacet
 facet normal 0.707107 -0.707107 0
  outer loop
   vertex -3.9 0 -0.541667
   vertex -3.46667 0.433333 0.541667
   vertex -3.9 0 0.541667
  endloop
 endfacet
 facet normal -0.707107 -0.707107 0
  outer loop
   vertex -3.9 0 0.541667
   vertex -4.25 0.35 -0.541667
   vertex -3.9 0 -0.541667
  endloop
 endfacet
 facet normal -0.707107 -0.707107 0
  outer loop
   vertex -4.25 0.35 -0.541667
   vertex -3.9 0 0.541667
   vertex -4.25 0.35 0.541667
  endloop
 endfacet
 facet normal -1 0 0
  outer loop
   vertex -4.25 0.35 0.541667
   vertex -4.25 1 -0.541667
   vertex -4.25 0.35 -0.541667
  endloop
 endfacet
 facet normal -1 0 0
  outer loop
   vertex -4.25 1 -0.541667
   vertex -4.25 0.35 0.541667
   vertex -4.25 1 0.541667
  endloop
 endfacet
 facet normal 0 -1 0
  outer loop
   vertex -0.466667 -0.541667 0.541667
   vertex 0.541667 -0.541667 0.541667
   vertex 0.541667 -0.541667 1.16667
  endloop
 endfacet
 facet normal 0 0 1
  outer loop
   vertex 0.541667 -0.541667 1.16667
   vertex 0.0917115 -0.0917115 1.16667
   vertex -0.466667 -0.541667 1.16667
  endloop
 endfacet
 facet normal 0 0 1
  outer loop
   vertex -0.466667 -0.391667 1.16667
   vertex -0.466667 -0.541667 1.16667
   vertex 0.0917115 -0.0917115 1.16667
  endloop
 endfacet
 facet normal 0 0 1
  outer loop
   vertex 0.0917115 -0.0917115 1.16667
   vertex -0.15 0.15 1.16667
   vertex -0.466667 -0.391667 1.16667
  endloop
 endfacet
 facet normal 0 -0 1
  outer loop
   vertex -3.4 0.15 1.16667
   vertex -1.7 -0.391667 1.16667
   vertex -0.15 0.15 1.16667
  endloop
 endfacet
 facet normal 0 0 1
  outer loop
   vertex -0.466667 -0.391667 1.16667
   vertex -0.15 0.15 1.16667
   vertex -0.616667 -0.391667 1.16667
  endloop
 endfacet
 facet normal 0 0 1
  outer loop
   vertex -0.616667 -0.391667 1.16667
   vertex -0.15 0.15 1.16667
   vertex -1.55 -0.391667 1.16667
  endloop
 endfacet
 facet normal 0 -0 1
  outer loop
   vertex -1.7 -0.391667 1.16667
   vertex -1.55 -0.391667 1.16667
   vertex -0.15 0.15 1.16667
  endloop
 endfacet
 facet normal 0 1 0
  outer loop
   vertex -4.25 1 1.16667
   vertex -1 1 1.16667
   vertex -1 1 0.742754
  endloop
 endfacet
 facet normal 0 -0 1
  outer loop
   vertex -4.25 1 1.31667
   vertex -3.4 0.15 1.31667
   vertex -1 1 1.31667
  endloop
 endfacet
 facet normal 0 0 1
  outer loop
   vertex -0.15 0.15 1.31667
   vertex -1 1 1.31667
   vertex -3.4 0.15 1.31667
  endloop
 endfacet
 facet normal 0 0 1
  outer loop
   vertex -4.25 1 1.31667
   vertex -4.25 -0.541667 1.31667
   vertex -3.4 0.15 1.31667
  endloop
 endfacet
 facet normal 0 0 1
  outer loop
   vertex -3.4 -0.541667 1.31667
   vertex -3.4 0.15 1.31667
   vertex -4.25 -0.541667 1.31667
  endloop
 endfacet
 facet normal 0 1 0
  outer loop
   vertex -4.25 1 1.31667
   vertex -1 1 1.31667
   vertex -1 1 1.21493
  endloop
 endfacet
 facet normal -0 -1 0
  outer loop
   vertex -3.4 0.15 1.16667
   vertex -0.15 0.15 1.29035
   vertex -3.4 0.15 1.31667
  endloop
 endfacet
 facet normal 0 -1 0
  outer loop
   vertex -0.15 0.15 1.31667
   vertex -3.4 0.15 1.31667
   vertex -0.15 0.15 1.29035
  endloop
 endfacet
 facet normal 0 1 0
  outer loop
   vertex -4.25 1 1.31667
   vertex -1 1 1.21493
   vertex -4.25 1 1.16667
  endloop
 endfacet
 facet normal 0 1 0
  outer loop
   vertex -1 1 1.16667
   vertex -4.25 1 1.16667
   vertex -1 1 1.21493
  endloop
 endfacet
 facet normal 0 -1 0
  outer loop
   vertex -3.4 0.15 1.16667
   vertex -0.15 0.15 1.16667
   vertex -0.15 0.15 1.29035
  endloop
 endfacet
 facet normal 0 -1 0
  outer loop
   vertex -0.466667 -0.541667 -0.541667
   vertex 0.541667 -0.541667 -1.16667
   vertex 0.541667 -0.541667 -0.541667
  endloop
 endfacet
 facet normal 0 0 -1
  outer loop
   vertex 0.0917115 -0.0917115 -1.16667
   vertex -0.466667 -0.391667 -1.16667
   vertex -0.15 0.15 -1.16667
  endloop
 endfacet
 facet normal -0 0 -1
  outer loop
   vertex -3.4 0.15 -1.16667
   vertex -0.15 0.15 -1.16667
   vertex -1.7 -0.391667 -1.16667
  endloop
 endfacet
 facet normal 0 0 -1
  outer loop
   vertex -0.466667 -0.391667 -1.16667
   vertex -0.616667 -0.391667 -1.16667
   vertex -0.15 0.15 -1.16667
  endloop
 endfacet
 facet normal 0 0 -1
  outer loop
   vertex -0.616667 -0.391667 -1.16667
   vertex -1.55 -0.391667 -1.16667
   vertex -0.15 0.15 -1.16667
  endloop
 endfacet
 facet normal 0 0 -1
  outer loop
   vertex -1.7 -0.391667 -1.16667
   vertex -0.15 0.15 -1.16667
   vertex -1.55 -0.391667 -1.16667
  endloop
 endfacet
 facet normal 0 0 -1
  outer loop
   vertex 0.541667 -0.541667 -1.16667
   vertex -0.466667 -0.541667 -1.16667
   vertex 0.0917115 -0.0917115 -1.16667
  endloop
 endfacet
 facet normal 0 0 -1
  outer loop
   vertex 0.0917115 -0.0917115 -1.16667
   vertex -0.466667 -0.541667 -1.16667
   vertex -0.466667 -0.391667 -1.16667
  endloop
 endfacet
 facet normal 0 1 0
  outer loop
   vertex -4.25 1 -1.16667
   vertex -1 1 -0.742754
   vertex -1 1 -1.16667
  endloop
 endfacet
 facet normal -0 0 -1
  outer loop
   vertex -4.25 1 -1.31667
   vertex -3.4 0.15 -1.31667
   vertex -4.25 -0.541667 -1.31667
  endloop
 endfacet
 facet normal 0 0 -1
  outer loop
   vertex -3.4 -0.541667 -1.31667
   vertex -4.25 -0.541667 -1.31667
   vertex -3.4 0.15 -1.31667
  endloop
 endfacet
 facet normal -0 0 -1
  outer loop
   vertex -4.25 1 -1.31667
   vertex -1 1 -1.31667
   vertex -3.4 0.15 -1.31667
  endloop
 endfacet
 facet normal 0 0 -1
  outer loop
   vertex -0.15 0.15 -1.31667
   vertex -3.4 0.15 -1.31667
   vertex -1 1 -1.31667
  endloop
 endfacet
 facet normal 0 1 0
  outer loop
   vertex -4.25 1 -1.31667
   vertex -1 1 -1.21493
   vertex -1 1 -1.31667
  endloop
 endfacet
 facet normal 0 -1 0
  outer loop
   vertex -3.4 0.15 -1.16667
   vertex -3.4 0.15 -1.31667
   vertex -0.15 0.15 -1.29035
  endloop
 endfacet
 facet normal 0 -1 -0
  outer loop
   vertex -0.15 0.15 -1.31667
   vertex -0.15 0.15 -1.29035
   vertex -3.4 0.15 -1.31667
  endloop
 endfacet
 facet normal 0 1 0
  outer loop
   vertex -4.25 1 -1.31667
   vertex -4.25 1 -1.16667
   vertex -1 1 -1.21493
  endloop
 endfacet
 facet normal 0 1 -0
  outer loop
   vertex -1 1 -1.16667
   vertex -1 1 -1.21493
   vertex -4.25 1 -1.16667
  endloop
 endfacet
 facet normal 0 -1 0
  outer loop
   vertex -3.4 0.15 -1.16667
   vertex -0.15 0.15 -1.29035
   vertex -0.15 0.15 -1.16667
  endloop
 endfacet
 facet normal 0 0 -1
  outer loop
   vertex 0.541667 -0.541667 0.541667
   vertex -0.466667 -0.541667 0.541667
   vertex -0.216667 0.216667 0.541667
  endloop
 endfacet
 facet normal 0 0 -1
  outer loop
   vertex -0.433333 0 0.541667
   vertex -0.216667 0.216667 0.541667
   vertex -0.466667 -0.391667 0.541667
  endloop
 endfacet
 facet normal 0 0 -1
  outer loop
   vertex -0.466667 -0.541667 0.541667
   vertex -0.466667 -0.391667 0.541667
   vertex -0.216667 0.216667 0.541667
  endloop
 endfacet
 facet normal 0 0 1
  outer loop
   vertex 0.541667 -0.541667 -0.541667
   vertex -0.216667 0.216667 -0.541667
   vertex -0.466667 -0.541667 -0.541667
  endloop
 endfacet
 facet normal 0 0 1
  outer loop
   vertex -0.433333 0 -0.541667
   vertex -0.466667 -0.391667 -0.541667
   vertex -0.216667 0.216667 -0.541667
  endloop
 endfacet
 facet normal 0 0 1
  outer loop
   vertex -0.466667 -0.541667 -0.541667
   vertex -0.216667 0.216667 -0.541667
   vertex -0.466667 -0.391667 -0.541667
  endloop
 endfacet
 facet normal 0 1 0
  outer loop
   vertex -4.25 1 1.16667
   vertex -1 1 0.742754
   vertex -4.25 1 0.541667
  endloop
 endfacet
 facet normal 0 1 0
  outer loop
   vertex -1 1 0.541667
   vertex -4.25 1 0.541667
   vertex -1 1 0.742754
  endloop
 endfacet
 facet normal 0 1 0
  outer loop
   vertex -4.25 1 -1.16667
   vertex -4.25 1 -0.541667
   vertex -1 1 -0.742754
  endloop
 endfacet
 facet normal 0 1 -0
  outer loop
   vertex -1 1 -0.541667
   vertex -1 1 -0.742754
   vertex -4.25 1 -0.541667
  endloop
 endfacet
 facet normal 0.707107 -0.707107 0
  outer loop
   vertex -0.433333 0 -0.541667
   vertex -0.216667 0.216667 -0.541667
   vertex -0.216667 0.216667 -5.72459e-17
  endloop
 endfacet
 facet normal 0.707107 -0.707107 0
  outer loop
   vertex -0.216667 0.216667 0.541667
   vertex -0.433333 0 0.541667
   vertex -0.216667 0.216667 -5.72459e-17
  endloop
 endfacet
 facet normal 0.707107 -0.707107 0
  outer loop
   vertex -0.433333 0 -0.541667
   vertex -0.216667 0.216667 -5.72459e-17
   vertex -0.433333 0 0.541667
  endloop
 endfacet
 facet normal 0 1 0
  outer loop
   vertex -4.25 1 0.541667
   vertex -1 1 -0.286765
   vertex -4.25 1 -0.541667
  endloop
 endfacet
 facet normal 0 1 0
  outer loop
   vertex -1 1 -0.541667
   vertex -4.25 1 -0.541667
   vertex -1 1 -0.286765
  endloop
 endfacet
 facet normal 0 1 0
  outer loop
   vertex -4.25 1 0.541667
   vertex -1 1 0.541667
   vertex -1 1 -0.286765
  endloop
 endfacet
 facet normal 0.707107 0.707107 0
  outer loop
   vertex -1 1 1.31667
   vertex -0.15 0.15 1.31667
   vertex -0.216667 0.216667 0.541667
  endloop
 endfacet
 facet normal 0.707107 0.707107 0
  outer loop
   vertex -0.15 0.15 1.16667
   vertex -0.216667 0.216667 0.541667
   vertex -0.15 0.15 1.29035
  endloop
 endfacet
 facet normal 0.707107 0.707107 0
  outer loop
   vertex -0.216667 0.216667 0.541667
   vertex -0.15 0.15 1.31667
   vertex -0.15 0.15 1.29035
  endloop
 endfacet
 facet normal 0.707107 0.707107 -0
  outer loop
   vertex 0.541667 -0.541667 1.16667
   vertex 0.541667 -0.541667 0.541667
   vertex 0.0917115 -0.0917115 1.16667
  endloop
 endfacet
 facet normal 0.707107 0.707107 0
  outer loop
   vertex 0.541667 -0.541667 0.541667
   vertex -0.216667 0.216667 0.541667
   vertex 0.0917115 -0.0917115 1.16667
  endloop
 endfacet
 facet normal 0.707107 0.707107 0
  outer loop
   vertex -0.15 0.15 1.16667
   vertex 0.0917115 -0.0917115 1.16667
   vertex -0.216667 0.216667 0.541667
  endloop
 endfacet
 facet normal 0.707107 0.707107 -0
  outer loop
   vertex -0.216667 0.216667 0.541667
   vertex -0.216667 0.216667 -5.72459e-17
   vertex -1 1 1.31667
  endloop
 endfacet
 facet normal 0.707107 0.707107 0
  outer loop
   vertex -0.216667 0.216667 -0.541667
   vertex -1 1 -1.31667
   vertex -0.216667 0.216667 -5.72459e-17
  endloop
 endfacet
 facet normal 0.707107 0.707107 0
  outer loop
   vertex -1 1 1.31667
   vertex -0.216667 0.216667 -5.72459e-17
   vertex -1 1 1.21493
  endloop
 endfacet
 facet normal 0.707107 0.707107 0
  outer loop
   vertex -1 1 -1.31667
   vertex -1 1 -1.21493
   vertex -0.216667 0.216667 -5.72459e-17
  endloop
 endfacet
 facet normal 0.707107 0.707107 0
  outer loop
   vertex -1 1 -1.21493
   vertex -1 1 -1.16667
   vertex -0.216667 0.216667 -5.72459e-17
  endloop
 endfacet
 facet normal 0.707107 0.707107 0
  outer loop
   vertex -1 1 -1.16667
   vertex -1 1 -0.742754
   vertex -0.216667 0.216667 -5.72459e-17
  endloop
 endfacet
 facet normal 0.707107 0.707107 0
  outer loop
   vertex -1 1 -0.742754
   vertex -1 1 -0.541667
   vertex -0.216667 0.216667 -5.72459e-17
  endloop
 endfacet
 facet normal 0.707107 0.707107 0
  outer loop
   vertex -1 1 -0.541667
   vertex -1 1 -0.286765
   vertex -0.216667 0.216667 -5.72459e-17
  endloop
 endfacet
 facet normal 0.707107 0.707107 0
  outer loop
   vertex -1 1 -0.286765
   vertex -1 1 0.541667
   vertex -0.216667 0.216667 -5.72459e-17
  endloop
 endfacet
 facet normal 0.707107 0.707107 0
  outer loop
   vertex -1 1 0.541667
   vertex -1 1 0.742754
   vertex -0.216667 0.216667 -5.72459e-17
  endloop
 endfacet
 facet normal 0.707107 0.707107 0
  outer loop
   vertex -1 1 0.742754
   vertex -1 1 1.16667
   vertex -0.216667 0.216667 -5.72459e-17
  endloop
 endfacet
 facet normal 0.707107 0.707107 -0
  outer loop
   vertex -0.216667 0.216667 -5.72459e-17
   vertex -1 1 1.16667
   vertex -1 1 1.21493
  endloop
 endfacet
 facet normal 0.707107 0.707107 0
  outer loop
   vertex -1 1 -1.31667
   vertex -0.216667 0.216667 -0.541667
   vertex -0.15 0.15 -1.31667
  endloop
 endfacet
 facet normal 0.707107 0.707107 -0
  outer loop
   vertex -0.15 0.15 -1.16667
   vertex -0.15 0.15 -1.29035
   vertex -0.216667 0.216667 -0.541667
  endloop
 endfacet
 facet normal 0.707107 0.707107 0
  outer loop
   vertex -0.216667 0.216667 -0.541667
   vertex -0.15 0.15 -1.29035
   vertex -0.15 0.15 -1.31667
  endloop
 endfacet
 facet normal 0.707107 0.707107 0
  outer loop
   vertex 0.541667 -0.541667 -1.16667
   vertex 0.0917115 -0.0917115 -1.16667
   vertex 0.541667 -0.541667 -0.541667
  endloop
 endfacet
 facet normal 0.707107 0.707107 0
  outer loop
   vertex 0.541667 -0.541667 -0.541667
   vertex 0.0917115 -0.0917115 -1.16667
   vertex -0.216667 0.216667 -0.541667
  endloop
 endfacet
 facet normal 0.707107 0.707107 0
  outer loop
   vertex -0.15 0.15 -1.16667
   vertex -0.216667 0.216667 -0.541667
   vertex 0.0917115 -0.0917115 -1.16667
  endloop
 endfacet
endsolid
