solid CATIA STL
  facet normal -2.066293e-006 -1.293444e-003  9.999992e-001
    outer loop
      vertex -1.500000e+000 -9.860820e+001  3.333330e+000
      vertex  5.391000e-001 -9.863450e+001  3.333300e+000
      vertex  0.000000e+000 -9.860820e+001  3.333333e+000
    endloop
  endfacet
  facet normal  -0.000000e+000  0.000000e+000  1.000000e+000
    outer loop
      vertex  5.391000e-001  0.000000e+000  3.333333e+000
      vertex  0.000000e+000  0.000000e+000  3.333333e+000
      vertex  0.000000e+000 -8.289800e+000  3.333333e+000
    endloop
  endfacet
  facet normal  -0.000000e+000  0.000000e+000  1.000000e+000
    outer loop
      vertex  5.391000e-001  0.000000e+000  3.333333e+000
      vertex  0.000000e+000 -8.289800e+000  3.333333e+000
      vertex  0.000000e+000 -1.628980e+001  3.333333e+000
    endloop
  endfacet
  facet normal  -0.000000e+000  0.000000e+000  9.999999e-001
    outer loop
      vertex  5.391000e-001  0.000000e+000  3.333333e+000
      vertex  0.000000e+000 -1.628980e+001  3.333333e+000
      vertex  0.000000e+000 -3.086940e+001  3.333333e+000
    endloop
  endfacet
  facet normal  -0.000000e+000  0.000000e+000  9.999999e-001
    outer loop
      vertex  5.391000e-001  0.000000e+000  3.333333e+000
      vertex  0.000000e+000 -3.086940e+001  3.333333e+000
      vertex  0.000000e+000 -3.886940e+001  3.333333e+000
    endloop
  endfacet
  facet normal  -0.000000e+000  0.000000e+000  9.999999e-001
    outer loop
      vertex  5.391000e-001  0.000000e+000  3.333333e+000
      vertex  0.000000e+000 -3.886940e+001  3.333333e+000
      vertex  0.000000e+000 -5.344900e+001  3.333333e+000
    endloop
  endfacet
  facet normal  -0.000000e+000  0.000000e+000  9.999999e-001
    outer loop
      vertex  5.391000e-001  0.000000e+000  3.333333e+000
      vertex  0.000000e+000 -5.344900e+001  3.333333e+000
      vertex  0.000000e+000 -6.144900e+001  3.333333e+000
    endloop
  endfacet
  facet normal  -0.000000e+000  0.000000e+000  9.999999e-001
    outer loop
      vertex  5.391000e-001  0.000000e+000  3.333333e+000
      vertex  0.000000e+000 -6.144900e+001  3.333333e+000
      vertex  0.000000e+000 -7.602860e+001  3.333333e+000
    endloop
  endfacet
  facet normal  -0.000000e+000  0.000000e+000  9.999999e-001
    outer loop
      vertex  5.391000e-001  0.000000e+000  3.333333e+000
      vertex  0.000000e+000 -7.602860e+001  3.333333e+000
      vertex  0.000000e+000 -8.402860e+001  3.333333e+000
    endloop
  endfacet
  facet normal  -0.000000e+000  0.000000e+000  1.000000e+000
    outer loop
      vertex  5.391000e-001  0.000000e+000  3.333333e+000
      vertex  0.000000e+000 -8.402860e+001  3.333333e+000
      vertex  0.000000e+000 -9.860820e+001  3.333333e+000
    endloop
  endfacet
  facet normal  6.101464e-005 -3.335726e-007  1.000000e+000
    outer loop
      vertex  5.391000e-001  0.000000e+000  3.333333e+000
      vertex  0.000000e+000 -9.860820e+001  3.333333e+000
      vertex  5.391000e-001 -9.863450e+001  3.333300e+000
    endloop
  endfacet
  facet normal  0.000000e+000  2.152976e-006  1.000000e+000
    outer loop
      vertex  5.391000e-001 -1.374775e+002  3.333333e+000
      vertex  5.391000e-001 -1.221955e+002  3.333300e+000
      vertex  0.000000e+000 -1.374775e+002  3.333333e+000
    endloop
  endfacet
  facet normal  6.103091e-005  -0.000000e+000  1.000000e+000
    outer loop
      vertex  0.000000e+000 -1.374775e+002  3.333333e+000
      vertex  5.391000e-001 -1.221955e+002  3.333300e+000
      vertex  0.000000e+000 -1.291878e+002  3.333333e+000
    endloop
  endfacet
  facet normal  1.631903e-005  3.447245e-006  1.000000e+000
    outer loop
      vertex  5.391000e-001 -1.221955e+002  3.333300e+000
      vertex -1.500000e+000 -1.211878e+002  3.333330e+000
      vertex  0.000000e+000 -1.291878e+002  3.333333e+000
    endloop
  endfacet
  facet normal -2.066294e-006  0.000000e+000  1.000000e+000
    outer loop
      vertex  0.000000e+000 -1.291878e+002  3.333333e+000
      vertex -1.500000e+000 -1.211878e+002  3.333330e+000
      vertex -1.500000e+000 -1.291878e+002  3.333330e+000
    endloop
  endfacet
  facet normal  0.000000e+000 -2.957443e-005  1.000000e+000
    outer loop
      vertex -1.500000e+000 -1.211878e+002  3.333330e+000
      vertex  5.391000e-001 -1.221955e+002  3.333300e+000
      vertex  0.000000e+000 -1.211878e+002  3.333330e+000
    endloop
  endfacet
  facet normal  5.528162e-005  0.000000e+000  9.999999e-001
    outer loop
      vertex  0.000000e+000 -1.211878e+002  3.333330e+000
      vertex  5.391000e-001 -1.221955e+002  3.333300e+000
      vertex  5.391000e-001 -9.863450e+001  3.333300e+000
    endloop
  endfacet
  facet normal  5.528163e-005  0.000000e+000  1.000000e+000
    outer loop
      vertex  0.000000e+000 -1.211878e+002  3.333330e+000
      vertex  5.391000e-001 -9.863450e+001  3.333300e+000
      vertex  0.000000e+000 -1.066082e+002  3.333330e+000
    endloop
  endfacet
  facet normal  1.465086e-005  2.747036e-006  1.000000e+000
    outer loop
      vertex  0.000000e+000 -1.066082e+002  3.333330e+000
      vertex  5.391000e-001 -9.863450e+001  3.333300e+000
      vertex -1.500000e+000 -9.860820e+001  3.333330e+000
    endloop
  endfacet
  facet normal  0.000000e+000  0.000000e+000  1.000000e+000
    outer loop
      vertex  0.000000e+000 -1.066082e+002  3.333330e+000
      vertex -1.500000e+000 -9.860820e+001  3.333330e+000
      vertex -1.500000e+000 -1.066082e+002  3.333330e+000
    endloop
  endfacet
  facet normal -1.000000e+000  0.000000e+000  0.000000e+000
    outer loop
      vertex -1.500000e+000 -1.291878e+002 -9.325873e-015
      vertex -1.500000e+000 -1.291878e+002  3.333330e+000
      vertex -1.500000e+000 -1.211878e+002  6.685298e-015
    endloop
  endfacet
  facet normal -1.000000e+000  0.000000e+000  0.000000e+000
    outer loop
      vertex -1.500000e+000 -1.211878e+002  6.685298e-015
      vertex -1.500000e+000 -1.291878e+002  3.333330e+000
      vertex -1.500000e+000 -1.211878e+002  3.333330e+000
    endloop
  endfacet
  facet normal  -0.000000e+000 -1.000000e+000  0.000000e+000
    outer loop
      vertex -1.500000e+000 -1.291878e+002 -9.325873e-015
      vertex  0.000000e+000 -1.291878e+002  0.000000e+000
      vertex -1.500000e+000 -1.291878e+002  3.333330e+000
    endloop
  endfacet
  facet normal  0.000000e+000 -1.000000e+000  0.000000e+000
    outer loop
      vertex -1.500000e+000 -1.291878e+002  3.333330e+000
      vertex  0.000000e+000 -1.291878e+002  0.000000e+000
      vertex  0.000000e+000 -1.291878e+002  3.333333e+000
    endloop
  endfacet
  facet normal -9.999999e-001  0.000000e+000  0.000000e+000
    outer loop
      vertex  0.000000e+000 -1.291878e+002  0.000000e+000
      vertex  0.000000e+000 -1.374775e+002  0.000000e+000
      vertex  0.000000e+000 -1.291878e+002  3.333333e+000
    endloop
  endfacet
  facet normal -9.999999e-001  -0.000000e+000  0.000000e+000
    outer loop
      vertex  0.000000e+000 -1.291878e+002  3.333333e+000
      vertex  0.000000e+000 -1.374775e+002  0.000000e+000
      vertex  0.000000e+000 -1.374775e+002  3.333333e+000
    endloop
  endfacet
  facet normal  4.997859e-013  3.840959e-014 -1.000000e+000
    outer loop
      vertex  1.000000e+000 -8.895390e+001  3.330669e-015
      vertex  0.000000e+000 -7.602860e+001  0.000000e+000
      vertex  0.000000e+000 -6.144900e+001  5.599965e-013
    endloop
  endfacet
  facet normal -2.481996e-012 -6.999956e-014 -1.000000e+000
    outer loop
      vertex  1.000000e+000 -8.895390e+001  3.330669e-015
      vertex  0.000000e+000 -6.144900e+001  5.599965e-013
      vertex  0.000000e+000 -5.344900e+001  0.000000e+000
    endloop
  endfacet
  facet normal  9.323098e-013  2.616482e-014 -1.000000e+000
    outer loop
      vertex  1.000000e+000 -8.895390e+001  3.330669e-015
      vertex  0.000000e+000 -5.344900e+001  0.000000e+000
      vertex  0.000000e+000 -3.886940e+001  3.814726e-013
    endloop
  endfacet
  facet normal -2.766375e-012 -4.768408e-014 -1.000000e+000
    outer loop
      vertex  1.000000e+000 -8.895390e+001  3.330669e-015
      vertex  0.000000e+000 -3.886940e+001  3.814726e-013
      vertex  0.000000e+000 -3.086940e+001  0.000000e+000
    endloop
  endfacet
  facet normal  1.041769e-013  1.736199e-015 -9.999999e-001
    outer loop
      vertex  1.000000e+000 -8.895390e+001  3.330669e-015
      vertex  0.000000e+000 -3.086940e+001  0.000000e+000
      vertex  0.000000e+000 -1.628980e+001  2.531308e-014
    endloop
  endfacet
  facet normal -2.519014e-013 -3.164135e-015 -1.000000e+000
    outer loop
      vertex  1.000000e+000 -8.895390e+001  3.330669e-015
      vertex  0.000000e+000 -1.628980e+001  2.531308e-014
      vertex  0.000000e+000 -8.289800e+000  0.000000e+000
    endloop
  endfacet
  facet normal  0.000000e+000 -4.129061e-017 -1.000000e+000
    outer loop
      vertex  1.000000e+000 -8.895390e+001  3.330669e-015
      vertex  0.000000e+000 -8.289800e+000  0.000000e+000
      vertex  1.540436e+000 -8.895390e+001  3.330669e-015
    endloop
  endfacet
  facet normal -4.108623e-016 -1.268510e-015 -1.000000e+000
    outer loop
      vertex  1.000000e+000 -1.318761e+002 -6.883383e-015
      vertex  1.540436e+000 -1.318761e+002 -7.105427e-015
      vertex  1.540436e+000 -1.374775e+002  0.000000e+000
    endloop
  endfacet
  facet normal  -0.000000e+000 -1.228869e-015 -1.000000e+000
    outer loop
      vertex  1.000000e+000 -1.318761e+002 -6.883383e-015
      vertex  1.540436e+000 -1.374775e+002  0.000000e+000
      vertex  0.000000e+000 -1.374775e+002  0.000000e+000
    endloop
  endfacet
  facet normal -6.883383e-015  0.000000e+000 -1.000000e+000
    outer loop
      vertex  1.000000e+000 -1.318761e+002 -6.883383e-015
      vertex  0.000000e+000 -1.374775e+002  0.000000e+000
      vertex  0.000000e+000 -1.291878e+002  0.000000e+000
    endloop
  endfacet
  facet normal -6.883383e-015  0.000000e+000 -1.000000e+000
    outer loop
      vertex  1.000000e+000 -1.318761e+002 -6.883383e-015
      vertex  0.000000e+000 -1.291878e+002  0.000000e+000
      vertex  0.000000e+000 -1.211878e+002  0.000000e+000
    endloop
  endfacet
  facet normal -6.883383e-015  0.000000e+000 -1.000000e+000
    outer loop
      vertex  1.000000e+000 -1.318761e+002 -6.883383e-015
      vertex  0.000000e+000 -1.211878e+002  0.000000e+000
      vertex  0.000000e+000 -1.066082e+002  0.000000e+000
    endloop
  endfacet
  facet normal -6.883383e-015  0.000000e+000 -1.000000e+000
    outer loop
      vertex  1.000000e+000 -1.318761e+002 -6.883383e-015
      vertex  0.000000e+000 -1.066082e+002  0.000000e+000
      vertex  0.000000e+000 -9.860820e+001  0.000000e+000
    endloop
  endfacet
  facet normal -2.613662e-014 -5.787331e-016 -1.000000e+000
    outer loop
      vertex  1.000000e+000 -1.318761e+002 -6.883383e-015
      vertex  0.000000e+000 -9.860820e+001  0.000000e+000
      vertex  0.000000e+000 -8.402860e+001 -8.437695e-015
    endloop
  endfacet
  facet normal  1.294042e-014  2.379666e-016 -1.000000e+000
    outer loop
      vertex  1.000000e+000 -1.318761e+002 -6.883383e-015
      vertex  0.000000e+000 -8.402860e+001 -8.437695e-015
      vertex  1.000000e+000 -8.895390e+001  3.330669e-015
    endloop
  endfacet
  facet normal  1.696313e-014  1.054712e-015 -1.000000e+000
    outer loop
      vertex  0.000000e+000 -7.602860e+001  0.000000e+000
      vertex  1.000000e+000 -8.895390e+001  3.330669e-015
      vertex  0.000000e+000 -8.402860e+001 -8.437695e-015
    endloop
  endfacet
  facet normal  0.000000e+000  1.054712e-015 -1.000000e+000
    outer loop
      vertex  0.000000e+000 -7.602860e+001  0.000000e+000
      vertex  0.000000e+000 -8.402860e+001 -8.437695e-015
      vertex -1.500000e+000 -8.402860e+001 -8.437695e-015
    endloop
  endfacet
  facet normal -1.676203e-015  1.369000e-015 -1.000000e+000
    outer loop
      vertex  0.000000e+000 -7.602860e+001  0.000000e+000
      vertex -1.500000e+000 -8.402860e+001 -8.437695e-015
      vertex -1.500000e+000 -7.602860e+001  2.514305e-015
    endloop
  endfacet
  facet normal -4.225704e-014  0.000000e+000 -1.000000e+000
    outer loop
      vertex  0.000000e+000 -9.860820e+001  0.000000e+000
      vertex  0.000000e+000 -1.066082e+002  0.000000e+000
      vertex -1.500000e+000 -9.860820e+001  6.338556e-014
    endloop
  endfacet
  facet normal -3.315866e-014  1.705946e-015 -1.000000e+000
    outer loop
      vertex -1.500000e+000 -9.860820e+001  6.338556e-014
      vertex  0.000000e+000 -1.066082e+002  0.000000e+000
      vertex -1.500000e+000 -1.066082e+002  4.973799e-014
    endloop
  endfacet
  facet normal -4.456865e-015  0.000000e+000 -1.000000e+000
    outer loop
      vertex  0.000000e+000 -1.211878e+002  0.000000e+000
      vertex  0.000000e+000 -1.291878e+002  0.000000e+000
      vertex -1.500000e+000 -1.211878e+002  6.685298e-015
    endloop
  endfacet
  facet normal  6.217250e-015  2.001395e-015 -1.000000e+000
    outer loop
      vertex -1.500000e+000 -1.211878e+002  6.685298e-015
      vertex  0.000000e+000 -1.291878e+002  0.000000e+000
      vertex -1.500000e+000 -1.291878e+002 -9.325873e-015
    endloop
  endfacet
  facet normal -1.092303e-015 -3.164135e-015 -1.000000e+000
    outer loop
      vertex  0.000000e+000 -8.289800e+000  0.000000e+000
      vertex  0.000000e+000 -1.628980e+001  2.531308e-014
      vertex -1.500000e+000 -8.289800e+000  1.638454e-015
    endloop
  endfacet
  facet normal  0.000000e+000 -2.959328e-015 -1.000000e+000
    outer loop
      vertex -1.500000e+000 -8.289800e+000  1.638454e-015
      vertex  0.000000e+000 -1.628980e+001  2.531308e-014
      vertex -1.500000e+000 -1.628980e+001  2.531308e-014
    endloop
  endfacet
  facet normal -1.694698e-015 -4.768408e-014 -1.000000e+000
    outer loop
      vertex  0.000000e+000 -3.086940e+001  0.000000e+000
      vertex  0.000000e+000 -3.886940e+001  3.814726e-013
      vertex -1.500000e+000 -3.086940e+001  2.542060e-015
    endloop
  endfacet
  facet normal  0.000000e+000 -4.736632e-014 -1.000000e+000
    outer loop
      vertex -1.500000e+000 -3.086940e+001  2.542060e-015
      vertex  0.000000e+000 -3.886940e+001  3.814726e-013
      vertex -1.500000e+000 -3.886940e+001  3.814726e-013
    endloop
  endfacet
  facet normal -4.456866e-015 -6.999956e-014 -1.000000e+000
    outer loop
      vertex  0.000000e+000 -5.344900e+001  0.000000e+000
      vertex  0.000000e+000 -6.144900e+001  5.599965e-013
      vertex -1.500000e+000 -5.344900e+001  6.685298e-015
    endloop
  endfacet
  facet normal  0.000000e+000 -6.916390e-014 -1.000000e+000
    outer loop
      vertex -1.500000e+000 -5.344900e+001  6.685298e-015
      vertex  0.000000e+000 -6.144900e+001  5.599965e-013
      vertex -1.500000e+000 -6.144900e+001  5.599965e-013
    endloop
  endfacet
  facet normal  0.000000e+000 -3.744264e-017 -1.000000e+000
    outer loop
      vertex  1.540436e+000  0.000000e+000  0.000000e+000
      vertex  1.540436e+000 -8.895390e+001  3.330669e-015
      vertex  0.000000e+000  0.000000e+000  0.000000e+000
    endloop
  endfacet
  facet normal  2.162160e-015  0.000000e+000 -1.000000e+000
    outer loop
      vertex  0.000000e+000  0.000000e+000  0.000000e+000
      vertex  1.540436e+000 -8.895390e+001  3.330669e-015
      vertex  0.000000e+000 -8.289800e+000  0.000000e+000
    endloop
  endfacet
  facet normal -1.000000e+000  0.000000e+000  0.000000e+000
    outer loop
      vertex  0.000000e+000 -8.402860e+001 -8.437695e-015
      vertex  0.000000e+000 -9.860820e+001  0.000000e+000
      vertex  0.000000e+000 -8.402860e+001  3.333333e+000
    endloop
  endfacet
  facet normal -1.000000e+000  -0.000000e+000  0.000000e+000
    outer loop
      vertex  0.000000e+000 -8.402860e+001  3.333333e+000
      vertex  0.000000e+000 -9.860820e+001  0.000000e+000
      vertex  0.000000e+000 -9.860820e+001  3.333333e+000
    endloop
  endfacet
  facet normal  0.000000e+000  1.000000e+000  0.000000e+000
    outer loop
      vertex -1.500000e+000 -9.860820e+001  3.333330e+000
      vertex  0.000000e+000 -9.860820e+001  3.333333e+000
      vertex -1.500000e+000 -9.860820e+001  6.338556e-014
    endloop
  endfacet
  facet normal  -0.000000e+000  1.000000e+000  0.000000e+000
    outer loop
      vertex -1.500000e+000 -9.860820e+001  6.338556e-014
      vertex  0.000000e+000 -9.860820e+001  3.333333e+000
      vertex  0.000000e+000 -9.860820e+001  0.000000e+000
    endloop
  endfacet
  facet normal -1.000000e+000  0.000000e+000  0.000000e+000
    outer loop
      vertex -1.500000e+000 -1.066082e+002  4.973799e-014
      vertex -1.500000e+000 -1.066082e+002  3.333330e+000
      vertex -1.500000e+000 -9.860820e+001  6.338556e-014
    endloop
  endfacet
  facet normal -1.000000e+000  0.000000e+000  0.000000e+000
    outer loop
      vertex -1.500000e+000 -9.860820e+001  6.338556e-014
      vertex -1.500000e+000 -1.066082e+002  3.333330e+000
      vertex -1.500000e+000 -9.860820e+001  3.333330e+000
    endloop
  endfacet
  facet normal  1.000000e+000  0.000000e+000  0.000000e+000
    outer loop
      vertex  1.000000e+000 -1.221955e+002  3.333300e+000
      vertex  1.000000e+000 -1.282332e+002  1.254347e+000
      vertex  1.000000e+000 -9.863450e+001  3.333300e+000
    endloop
  endfacet
  facet normal  1.000000e+000  0.000000e+000  0.000000e+000
    outer loop
      vertex  1.000000e+000 -9.863450e+001  3.333300e+000
      vertex  1.000000e+000 -1.282332e+002  1.254347e+000
      vertex  1.000000e+000 -9.259679e+001  1.254347e+000
    endloop
  endfacet
  facet normal  1.000000e+000  0.000000e+000  0.000000e+000
    outer loop
      vertex  1.000000e+000 -1.282332e+002  1.254347e+000
      vertex  1.000000e+000 -1.318761e+002 -6.883383e-015
      vertex  1.000000e+000 -9.259679e+001  1.254347e+000
    endloop
  endfacet
  facet normal  1.000000e+000  0.000000e+000  0.000000e+000
    outer loop
      vertex  1.000000e+000 -9.259679e+001  1.254347e+000
      vertex  1.000000e+000 -1.318761e+002 -6.883383e-015
      vertex  1.000000e+000 -8.895390e+001  3.330669e-015
    endloop
  endfacet
  facet normal  9.762961e-001  0.000000e+000  2.164395e-001
    outer loop
      vertex  1.040309e+000 -1.287613e+002  1.072524e+000
      vertex  1.000000e+000 -1.282332e+002  1.254347e+000
      vertex  1.040309e+000 -1.374775e+002  1.072524e+000
    endloop
  endfacet
  facet normal  9.762953e-001 -7.466399e-008  2.164431e-001
    outer loop
      vertex  1.040309e+000 -1.374775e+002  1.072524e+000
      vertex  1.000000e+000 -1.282332e+002  1.254347e+000
      vertex  5.391000e-001 -1.221955e+002  3.333300e+000
    endloop
  endfacet
  facet normal  9.762961e-001  4.659894e-007  2.164396e-001
    outer loop
      vertex  1.040309e+000 -1.374775e+002  1.072524e+000
      vertex  5.391000e-001 -1.221955e+002  3.333300e+000
      vertex  5.391000e-001 -1.374775e+002  3.333333e+000
    endloop
  endfacet
  facet normal  0.000000e+000 -1.000000e+000  0.000000e+000
    outer loop
      vertex -1.500000e+000 -1.066082e+002  4.973799e-014
      vertex  0.000000e+000 -1.066082e+002  0.000000e+000
      vertex -1.500000e+000 -1.066082e+002  3.333330e+000
    endloop
  endfacet
  facet normal  0.000000e+000 -1.000000e+000  0.000000e+000
    outer loop
      vertex -1.500000e+000 -1.066082e+002  3.333330e+000
      vertex  0.000000e+000 -1.066082e+002  0.000000e+000
      vertex  0.000000e+000 -1.066082e+002  3.333330e+000
    endloop
  endfacet
  facet normal -1.000000e+000  0.000000e+000  0.000000e+000
    outer loop
      vertex  0.000000e+000  0.000000e+000  0.000000e+000
      vertex  0.000000e+000 -8.289800e+000  0.000000e+000
      vertex  0.000000e+000  0.000000e+000  3.333333e+000
    endloop
  endfacet
  facet normal -1.000000e+000  -0.000000e+000  0.000000e+000
    outer loop
      vertex  0.000000e+000  0.000000e+000  3.333333e+000
      vertex  0.000000e+000 -8.289800e+000  0.000000e+000
      vertex  0.000000e+000 -8.289800e+000  3.333333e+000
    endloop
  endfacet
  facet normal  0.000000e+000 -1.000000e+000  -0.000000e+000
    outer loop
      vertex  1.540436e+000 -1.374775e+002  0.000000e+000
      vertex  1.040309e+000 -1.374775e+002  1.072524e+000
      vertex  0.000000e+000 -1.374775e+002  0.000000e+000
    endloop
  endfacet
  facet normal  0.000000e+000 -9.999999e-001  0.000000e+000
    outer loop
      vertex  0.000000e+000 -1.374775e+002  0.000000e+000
      vertex  1.040309e+000 -1.374775e+002  1.072524e+000
      vertex  5.391000e-001 -1.374775e+002  3.333333e+000
    endloop
  endfacet
  facet normal  -0.000000e+000 -1.000000e+000  0.000000e+000
    outer loop
      vertex  0.000000e+000 -1.374775e+002  0.000000e+000
      vertex  5.391000e-001 -1.374775e+002  3.333333e+000
      vertex  0.000000e+000 -1.374775e+002  3.333333e+000
    endloop
  endfacet
  facet normal  0.000000e+000 -1.000000e+000  0.000000e+000
    outer loop
      vertex -1.500000e+000 -8.402860e+001 -8.437695e-015
      vertex  0.000000e+000 -8.402860e+001 -8.437695e-015
      vertex -1.500000e+000 -8.402860e+001  3.333330e+000
    endloop
  endfacet
  facet normal  0.000000e+000 -1.000000e+000  0.000000e+000
    outer loop
      vertex -1.500000e+000 -8.402860e+001  3.333330e+000
      vertex  0.000000e+000 -8.402860e+001 -8.437695e-015
      vertex  0.000000e+000 -8.402860e+001  3.333333e+000
    endloop
  endfacet
  facet normal -2.066294e-006  0.000000e+000  1.000000e+000
    outer loop
      vertex -1.500000e+000 -8.402860e+001  3.333330e+000
      vertex  0.000000e+000 -8.402860e+001  3.333333e+000
      vertex -1.500000e+000 -7.602860e+001  3.333330e+000
    endloop
  endfacet
  facet normal -2.066294e-006  0.000000e+000  1.000000e+000
    outer loop
      vertex -1.500000e+000 -7.602860e+001  3.333330e+000
      vertex  0.000000e+000 -8.402860e+001  3.333333e+000
      vertex  0.000000e+000 -7.602860e+001  3.333333e+000
    endloop
  endfacet
  facet normal -1.000000e+000  0.000000e+000  0.000000e+000
    outer loop
      vertex  0.000000e+000 -6.144900e+001  5.599965e-013
      vertex  0.000000e+000 -7.602860e+001  0.000000e+000
      vertex  0.000000e+000 -6.144900e+001  3.333333e+000
    endloop
  endfacet
  facet normal -1.000000e+000  -0.000000e+000  0.000000e+000
    outer loop
      vertex  0.000000e+000 -6.144900e+001  3.333333e+000
      vertex  0.000000e+000 -7.602860e+001  0.000000e+000
      vertex  0.000000e+000 -7.602860e+001  3.333333e+000
    endloop
  endfacet
  facet normal -2.066294e-006  0.000000e+000  1.000000e+000
    outer loop
      vertex -1.500000e+000 -6.144900e+001  3.333330e+000
      vertex  0.000000e+000 -6.144900e+001  3.333333e+000
      vertex -1.500000e+000 -5.344900e+001  3.333330e+000
    endloop
  endfacet
  facet normal -2.066294e-006  0.000000e+000  1.000000e+000
    outer loop
      vertex -1.500000e+000 -5.344900e+001  3.333330e+000
      vertex  0.000000e+000 -6.144900e+001  3.333333e+000
      vertex  0.000000e+000 -5.344900e+001  3.333333e+000
    endloop
  endfacet
  facet normal -1.000000e+000  0.000000e+000  0.000000e+000
    outer loop
      vertex  0.000000e+000 -3.886940e+001  3.814726e-013
      vertex  0.000000e+000 -5.344900e+001  0.000000e+000
      vertex  0.000000e+000 -3.886940e+001  3.333333e+000
    endloop
  endfacet
  facet normal -1.000000e+000  -0.000000e+000  0.000000e+000
    outer loop
      vertex  0.000000e+000 -3.886940e+001  3.333333e+000
      vertex  0.000000e+000 -5.344900e+001  0.000000e+000
      vertex  0.000000e+000 -5.344900e+001  3.333333e+000
    endloop
  endfacet
  facet normal -2.066294e-006  0.000000e+000  1.000000e+000
    outer loop
      vertex -1.500000e+000 -3.886940e+001  3.333330e+000
      vertex  0.000000e+000 -3.886940e+001  3.333333e+000
      vertex -1.500000e+000 -3.086940e+001  3.333330e+000
    endloop
  endfacet
  facet normal -2.066294e-006  0.000000e+000  1.000000e+000
    outer loop
      vertex -1.500000e+000 -3.086940e+001  3.333330e+000
      vertex  0.000000e+000 -3.886940e+001  3.333333e+000
      vertex  0.000000e+000 -3.086940e+001  3.333333e+000
    endloop
  endfacet
  facet normal -1.000000e+000  0.000000e+000  0.000000e+000
    outer loop
      vertex  0.000000e+000 -1.628980e+001  2.531308e-014
      vertex  0.000000e+000 -3.086940e+001  0.000000e+000
      vertex  0.000000e+000 -1.628980e+001  3.333333e+000
    endloop
  endfacet
  facet normal -1.000000e+000  -0.000000e+000  0.000000e+000
    outer loop
      vertex  0.000000e+000 -1.628980e+001  3.333333e+000
      vertex  0.000000e+000 -3.086940e+001  0.000000e+000
      vertex  0.000000e+000 -3.086940e+001  3.333333e+000
    endloop
  endfacet
  facet normal -2.066294e-006  0.000000e+000  1.000000e+000
    outer loop
      vertex -1.500000e+000 -1.628980e+001  3.333330e+000
      vertex  0.000000e+000 -1.628980e+001  3.333333e+000
      vertex -1.500000e+000 -8.289800e+000  3.333330e+000
    endloop
  endfacet
  facet normal -2.066294e-006  0.000000e+000  1.000000e+000
    outer loop
      vertex -1.500000e+000 -8.289800e+000  3.333330e+000
      vertex  0.000000e+000 -1.628980e+001  3.333333e+000
      vertex  0.000000e+000 -8.289800e+000  3.333333e+000
    endloop
  endfacet
  facet normal -9.999999e-001  0.000000e+000  0.000000e+000
    outer loop
      vertex -1.500000e+000 -1.628980e+001  2.531308e-014
      vertex -1.500000e+000 -1.628980e+001  3.333330e+000
      vertex -1.500000e+000 -8.289800e+000  1.638454e-015
    endloop
  endfacet
  facet normal -9.999999e-001  0.000000e+000  0.000000e+000
    outer loop
      vertex -1.500000e+000 -8.289800e+000  1.638454e-015
      vertex -1.500000e+000 -1.628980e+001  3.333330e+000
      vertex -1.500000e+000 -8.289800e+000  3.333330e+000
    endloop
  endfacet
  facet normal  0.000000e+000 -1.000000e+000  0.000000e+000
    outer loop
      vertex -1.500000e+000 -1.628980e+001  3.333330e+000
      vertex -1.500000e+000 -1.628980e+001  2.531308e-014
      vertex  0.000000e+000 -1.628980e+001  3.333333e+000
    endloop
  endfacet
  facet normal  0.000000e+000 -1.000000e+000  -0.000000e+000
    outer loop
      vertex  0.000000e+000 -1.628980e+001  3.333333e+000
      vertex -1.500000e+000 -1.628980e+001  2.531308e-014
      vertex  0.000000e+000 -1.628980e+001  2.531308e-014
    endloop
  endfacet
  facet normal -1.000000e+000  0.000000e+000  0.000000e+000
    outer loop
      vertex -1.500000e+000 -3.886940e+001  3.814726e-013
      vertex -1.500000e+000 -3.886940e+001  3.333330e+000
      vertex -1.500000e+000 -3.086940e+001  2.542060e-015
    endloop
  endfacet
  facet normal -1.000000e+000  0.000000e+000  0.000000e+000
    outer loop
      vertex -1.500000e+000 -3.086940e+001  2.542060e-015
      vertex -1.500000e+000 -3.886940e+001  3.333330e+000
      vertex -1.500000e+000 -3.086940e+001  3.333330e+000
    endloop
  endfacet
  facet normal  0.000000e+000 -1.000000e+000  0.000000e+000
    outer loop
      vertex -1.500000e+000 -3.886940e+001  3.814726e-013
      vertex  0.000000e+000 -3.886940e+001  3.814726e-013
      vertex -1.500000e+000 -3.886940e+001  3.333330e+000
    endloop
  endfacet
  facet normal  0.000000e+000 -1.000000e+000  0.000000e+000
    outer loop
      vertex -1.500000e+000 -3.886940e+001  3.333330e+000
      vertex  0.000000e+000 -3.886940e+001  3.814726e-013
      vertex  0.000000e+000 -3.886940e+001  3.333333e+000
    endloop
  endfacet
  facet normal -1.000000e+000  0.000000e+000  0.000000e+000
    outer loop
      vertex -1.500000e+000 -6.144900e+001  5.599965e-013
      vertex -1.500000e+000 -6.144900e+001  3.333330e+000
      vertex -1.500000e+000 -5.344900e+001  6.685298e-015
    endloop
  endfacet
  facet normal -1.000000e+000  0.000000e+000  0.000000e+000
    outer loop
      vertex -1.500000e+000 -5.344900e+001  6.685298e-015
      vertex -1.500000e+000 -6.144900e+001  3.333330e+000
      vertex -1.500000e+000 -5.344900e+001  3.333330e+000
    endloop
  endfacet
  facet normal  0.000000e+000 -1.000000e+000  0.000000e+000
    outer loop
      vertex -1.500000e+000 -6.144900e+001  3.333330e+000
      vertex -1.500000e+000 -6.144900e+001  5.599965e-013
      vertex  0.000000e+000 -6.144900e+001  3.333333e+000
    endloop
  endfacet
  facet normal  0.000000e+000 -1.000000e+000  -0.000000e+000
    outer loop
      vertex  0.000000e+000 -6.144900e+001  3.333333e+000
      vertex -1.500000e+000 -6.144900e+001  5.599965e-013
      vertex  0.000000e+000 -6.144900e+001  5.599965e-013
    endloop
  endfacet
  facet normal -1.000000e+000  0.000000e+000  0.000000e+000
    outer loop
      vertex -1.500000e+000 -8.402860e+001 -8.437695e-015
      vertex -1.500000e+000 -8.402860e+001  3.333330e+000
      vertex -1.500000e+000 -7.602860e+001  2.514305e-015
    endloop
  endfacet
  facet normal -1.000000e+000  0.000000e+000  0.000000e+000
    outer loop
      vertex -1.500000e+000 -7.602860e+001  2.514305e-015
      vertex -1.500000e+000 -8.402860e+001  3.333330e+000
      vertex -1.500000e+000 -7.602860e+001  3.333330e+000
    endloop
  endfacet
  facet normal  0.000000e+000  1.000000e+000  0.000000e+000
    outer loop
      vertex -1.500000e+000 -7.602860e+001  3.333330e+000
      vertex  0.000000e+000 -7.602860e+001  3.333333e+000
      vertex -1.500000e+000 -7.602860e+001  2.514305e-015
    endloop
  endfacet
  facet normal  -0.000000e+000  1.000000e+000  0.000000e+000
    outer loop
      vertex -1.500000e+000 -7.602860e+001  2.514305e-015
      vertex  0.000000e+000 -7.602860e+001  3.333333e+000
      vertex  0.000000e+000 -7.602860e+001  0.000000e+000
    endloop
  endfacet
  facet normal  0.000000e+000  1.000000e+000  0.000000e+000
    outer loop
      vertex -1.500000e+000 -5.344900e+001  6.685298e-015
      vertex -1.500000e+000 -5.344900e+001  3.333330e+000
      vertex  0.000000e+000 -5.344900e+001  0.000000e+000
    endloop
  endfacet
  facet normal  0.000000e+000  1.000000e+000  -0.000000e+000
    outer loop
      vertex  0.000000e+000 -5.344900e+001  0.000000e+000
      vertex -1.500000e+000 -5.344900e+001  3.333330e+000
      vertex  0.000000e+000 -5.344900e+001  3.333333e+000
    endloop
  endfacet
  facet normal  0.000000e+000  1.000000e+000  0.000000e+000
    outer loop
      vertex -1.500000e+000 -3.086940e+001  3.333330e+000
      vertex  0.000000e+000 -3.086940e+001  3.333333e+000
      vertex -1.500000e+000 -3.086940e+001  2.542060e-015
    endloop
  endfacet
  facet normal  -0.000000e+000  1.000000e+000  0.000000e+000
    outer loop
      vertex -1.500000e+000 -3.086940e+001  2.542060e-015
      vertex  0.000000e+000 -3.086940e+001  3.333333e+000
      vertex  0.000000e+000 -3.086940e+001  0.000000e+000
    endloop
  endfacet
  facet normal  0.000000e+000  1.000000e+000  0.000000e+000
    outer loop
      vertex -1.500000e+000 -8.289800e+000  1.638454e-015
      vertex -1.500000e+000 -8.289800e+000  3.333330e+000
      vertex  0.000000e+000 -8.289800e+000  0.000000e+000
    endloop
  endfacet
  facet normal  0.000000e+000  1.000000e+000  -0.000000e+000
    outer loop
      vertex  0.000000e+000 -8.289800e+000  0.000000e+000
      vertex -1.500000e+000 -8.289800e+000  3.333330e+000
      vertex  0.000000e+000 -8.289800e+000  3.333333e+000
    endloop
  endfacet
  facet normal  9.063078e-001  -0.000000e+000  4.226183e-001
    outer loop
      vertex  1.040309e+000 -1.287613e+002  1.072524e+000
      vertex  1.040309e+000 -1.374775e+002  1.072524e+000
      vertex  1.540436e+000 -1.318761e+002 -7.105427e-015
    endloop
  endfacet
  facet normal  9.063078e-001  5.360958e-016  4.226184e-001
    outer loop
      vertex  1.540436e+000 -1.318761e+002 -7.105427e-015
      vertex  1.040309e+000 -1.374775e+002  1.072524e+000
      vertex  1.540436e+000 -1.374775e+002  0.000000e+000
    endloop
  endfacet
  facet normal  0.000000e+000  1.000000e+000  0.000000e+000
    outer loop
      vertex -1.500000e+000 -1.211878e+002  3.333330e+000
      vertex  0.000000e+000 -1.211878e+002  3.333330e+000
      vertex -1.500000e+000 -1.211878e+002  6.685298e-015
    endloop
  endfacet
  facet normal  -0.000000e+000  1.000000e+000  0.000000e+000
    outer loop
      vertex -1.500000e+000 -1.211878e+002  6.685298e-015
      vertex  0.000000e+000 -1.211878e+002  3.333330e+000
      vertex  0.000000e+000 -1.211878e+002  0.000000e+000
    endloop
  endfacet
  facet normal -1.000000e+000  0.000000e+000  0.000000e+000
    outer loop
      vertex  0.000000e+000 -1.066082e+002  0.000000e+000
      vertex  0.000000e+000 -1.211878e+002  0.000000e+000
      vertex  0.000000e+000 -1.066082e+002  3.333330e+000
    endloop
  endfacet
  facet normal -1.000000e+000  -0.000000e+000  0.000000e+000
    outer loop
      vertex  0.000000e+000 -1.066082e+002  3.333330e+000
      vertex  0.000000e+000 -1.211878e+002  0.000000e+000
      vertex  0.000000e+000 -1.211878e+002  3.333330e+000
    endloop
  endfacet
  facet normal  9.063078e-001  -0.000000e+000  4.226183e-001
    outer loop
      vertex  1.040309e+000  0.000000e+000  1.072524e+000
      vertex  1.040309e+000 -9.206873e+001  1.072524e+000
      vertex  1.540436e+000  0.000000e+000  0.000000e+000
    endloop
  endfacet
  facet normal  9.063078e-001  1.582395e-017  4.226184e-001
    outer loop
      vertex  1.540436e+000  0.000000e+000  0.000000e+000
      vertex  1.040309e+000 -9.206873e+001  1.072524e+000
      vertex  1.540436e+000 -8.895390e+001  3.330669e-015
    endloop
  endfacet
  facet normal  0.000000e+000  1.000000e+000  0.000000e+000
    outer loop
      vertex  0.000000e+000  0.000000e+000  3.333333e+000
      vertex  5.391000e-001  0.000000e+000  3.333333e+000
      vertex  0.000000e+000  0.000000e+000  0.000000e+000
    endloop
  endfacet
  facet normal  0.000000e+000  9.999999e-001  0.000000e+000
    outer loop
      vertex  0.000000e+000  0.000000e+000  0.000000e+000
      vertex  5.391000e-001  0.000000e+000  3.333333e+000
      vertex  1.040309e+000  0.000000e+000  1.072524e+000
    endloop
  endfacet
  facet normal  0.000000e+000  1.000000e+000  0.000000e+000
    outer loop
      vertex  0.000000e+000  0.000000e+000  0.000000e+000
      vertex  1.040309e+000  0.000000e+000  1.072524e+000
      vertex  1.540436e+000  0.000000e+000  0.000000e+000
    endloop
  endfacet
  facet normal  7.330508e-005  3.255686e-001 -9.455184e-001
    outer loop
      vertex  1.000000e+000 -1.282332e+002  1.254347e+000
      vertex  1.040309e+000 -1.287613e+002  1.072524e+000
      vertex  1.000000e+000 -1.318761e+002 -6.883383e-015
    endloop
  endfacet
  facet normal -3.884778e-016  3.255695e-001 -9.455181e-001
    outer loop
      vertex  1.040309e+000 -1.287613e+002  1.072524e+000
      vertex  1.540436e+000 -1.318761e+002 -7.105427e-015
      vertex  1.000000e+000 -1.318761e+002 -6.883383e-015
    endloop
  endfacet
  facet normal  0.000000e+000 -3.255681e-001 -9.455187e-001
    outer loop
      vertex  1.540436e+000 -8.895390e+001  3.330669e-015
      vertex  1.040309e+000 -9.206873e+001  1.072524e+000
      vertex  1.000000e+000 -8.895390e+001  3.330669e-015
    endloop
  endfacet
  facet normal  2.686569e-006 -3.255681e-001 -9.455187e-001
    outer loop
      vertex  1.040309e+000 -9.206873e+001  1.072524e+000
      vertex  1.000000e+000 -9.259679e+001  1.254347e+000
      vertex  1.000000e+000 -8.895390e+001  3.330669e-015
    endloop
  endfacet
  facet normal  9.762954e-001 -7.208106e-008  2.164427e-001
    outer loop
      vertex  5.391000e-001 -9.863450e+001  3.333300e+000
      vertex  1.000000e+000 -9.259679e+001  1.254347e+000
      vertex  5.391000e-001  0.000000e+000  3.333333e+000
    endloop
  endfacet
  facet normal  9.762960e-001  0.000000e+000  2.164396e-001
    outer loop
      vertex  5.391000e-001  0.000000e+000  3.333333e+000
      vertex  1.000000e+000 -9.259679e+001  1.254347e+000
      vertex  1.040309e+000 -9.206873e+001  1.072524e+000
    endloop
  endfacet
  facet normal  9.762960e-001  -0.000000e+000  2.164396e-001
    outer loop
      vertex  5.391000e-001  0.000000e+000  3.333333e+000
      vertex  1.040309e+000 -9.206873e+001  1.072524e+000
      vertex  1.040309e+000  0.000000e+000  1.072524e+000
    endloop
  endfacet
  facet normal  0.000000e+000  3.255684e-001  9.455186e-001
    outer loop
      vertex  5.391000e-001 -9.863450e+001  3.333300e+000
      vertex  1.000000e+000 -9.863450e+001  3.333300e+000
      vertex  1.000000e+000 -9.259679e+001  1.254347e+000
    endloop
  endfacet
  facet normal  0.000000e+000  0.000000e+000  1.000000e+000
    outer loop
      vertex  5.391000e-001 -9.863450e+001  3.333300e+000
      vertex  5.391000e-001 -1.221955e+002  3.333300e+000
      vertex  1.000000e+000 -9.863450e+001  3.333300e+000
    endloop
  endfacet
  facet normal  0.000000e+000  0.000000e+000  1.000000e+000
    outer loop
      vertex  1.000000e+000 -9.863450e+001  3.333300e+000
      vertex  5.391000e-001 -1.221955e+002  3.333300e+000
      vertex  1.000000e+000 -1.221955e+002  3.333300e+000
    endloop
  endfacet
  facet normal  0.000000e+000 -3.255684e-001  9.455186e-001
    outer loop
      vertex  1.000000e+000 -1.282332e+002  1.254347e+000
      vertex  1.000000e+000 -1.221955e+002  3.333300e+000
      vertex  5.391000e-001 -1.221955e+002  3.333300e+000
    endloop
  endfacet
endsolid CATIA STL
