solid CATIA STL
  facet normal  9.762960e-001  0.000000e+000  2.164396e-001
    outer loop
      vertex  5.391000e-001  0.000000e+000  3.333333e+000
      vertex  1.040309e+000  0.000000e+000  1.072524e+000
      vertex  5.391000e-001  5.349250e+001  3.333333e+000
    endloop
  endfacet
  facet normal  9.762961e-001  0.000000e+000  2.164396e-001
    outer loop
      vertex  5.391000e-001  5.349250e+001  3.333333e+000
      vertex  1.040309e+000  0.000000e+000  1.072524e+000
      vertex  1.040309e+000  5.338798e+001  1.072524e+000
    endloop
  endfacet
  facet normal  9.762960e-001 -4.284562e-007  2.164396e-001
    outer loop
      vertex  5.391000e-001  5.349250e+001  3.333333e+000
      vertex  1.040309e+000  5.338798e+001  1.072524e+000
      vertex  1.007216e+000  5.349250e+001  1.221800e+000
    endloop
  endfacet
  facet normal  9.063078e-001  0.000000e+000  4.226183e-001
    outer loop
      vertex  1.040309e+000  0.000000e+000  1.072524e+000
      vertex  1.540436e+000  0.000000e+000  0.000000e+000
      vertex  1.040309e+000  5.338798e+001  1.072524e+000
    endloop
  endfacet
  facet normal  9.063078e-001  0.000000e+000  4.226183e-001
    outer loop
      vertex  1.040309e+000  5.338798e+001  1.072524e+000
      vertex  1.540436e+000  0.000000e+000  0.000000e+000
      vertex  1.540436e+000  5.263699e+001  1.065814e-014
    endloop
  endfacet
  facet normal  0.000000e+000  0.000000e+000  1.000000e+000
    outer loop
      vertex  5.391000e-001  0.000000e+000  3.333333e+000
      vertex  5.391000e-001  5.349250e+001  3.333333e+000
      vertex -1.972152e-031  5.349250e+001  3.333333e+000
    endloop
  endfacet
  facet normal  0.000000e+000  0.000000e+000  1.000000e+000
    outer loop
      vertex  5.391000e-001  0.000000e+000  3.333333e+000
      vertex -1.972152e-031  5.349250e+001  3.333333e+000
      vertex  0.000000e+000  4.775880e+001  3.333333e+000
    endloop
  endfacet
  facet normal  0.000000e+000  0.000000e+000  9.999999e-001
    outer loop
      vertex  5.391000e-001  0.000000e+000  3.333333e+000
      vertex  0.000000e+000  4.775880e+001  3.333333e+000
      vertex  0.000000e+000  3.975880e+001  3.333333e+000
    endloop
  endfacet
  facet normal  0.000000e+000  0.000000e+000  1.000000e+000
    outer loop
      vertex  5.391000e-001  0.000000e+000  3.333333e+000
      vertex  0.000000e+000  3.975880e+001  3.333333e+000
      vertex  0.000000e+000  2.719130e+001  3.333333e+000
    endloop
  endfacet
  facet normal  0.000000e+000  0.000000e+000  9.999999e-001
    outer loop
      vertex  5.391000e-001  0.000000e+000  3.333333e+000
      vertex  0.000000e+000  2.719130e+001  3.333333e+000
      vertex  0.000000e+000  1.919130e+001  3.333333e+000
    endloop
  endfacet
  facet normal  0.000000e+000  0.000000e+000  9.999999e-001
    outer loop
      vertex  5.391000e-001  0.000000e+000  3.333333e+000
      vertex  0.000000e+000  1.919130e+001  3.333333e+000
      vertex  0.000000e+000  0.000000e+000  3.333333e+000
    endloop
  endfacet
  facet normal -1.000000e+000  0.000000e+000  0.000000e+000
    outer loop
      vertex  0.000000e+000  4.775880e+001  1.776357e-014
      vertex  0.000000e+000  4.775880e+001  3.333333e+000
      vertex  0.000000e+000  5.263699e+001  0.000000e+000
    endloop
  endfacet
  facet normal -9.999999e-001 -3.439581e-032 -5.033674e-032
    outer loop
      vertex  0.000000e+000  5.263699e+001  0.000000e+000
      vertex  0.000000e+000  4.775880e+001  3.333333e+000
      vertex -1.972152e-031  5.349250e+001  3.333333e+000
    endloop
  endfacet
  facet normal -1.000000e+000  1.333875e-031 -9.339907e-032
    outer loop
      vertex  0.000000e+000  5.263699e+001  0.000000e+000
      vertex -1.972152e-031  5.349250e+001  3.333333e+000
      vertex  0.000000e+000  5.349250e+001  1.221800e+000
    endloop
  endfacet
  facet normal  0.000000e+000  2.024839e-016 -1.000000e+000
    outer loop
      vertex  1.540436e+000  5.263699e+001  1.065814e-014
      vertex  1.540436e+000  0.000000e+000  0.000000e+000
      vertex  0.000000e+000  0.000000e+000  0.000000e+000
    endloop
  endfacet
  facet normal  6.918914e-015  0.000000e+000 -1.000000e+000
    outer loop
      vertex  1.540436e+000  5.263699e+001  1.065814e-014
      vertex  0.000000e+000  0.000000e+000  0.000000e+000
      vertex  0.000000e+000  1.919130e+001  0.000000e+000
    endloop
  endfacet
  facet normal -7.463618e-013  3.469447e-014 -1.000000e+000
    outer loop
      vertex  1.540436e+000  5.263699e+001  1.065814e-014
      vertex  0.000000e+000  1.919130e+001  0.000000e+000
      vertex  0.000000e+000  2.719130e+001  2.775558e-013
    endloop
  endfacet
  facet normal  1.915532e-013 -2.208520e-014 -1.000000e+000
    outer loop
      vertex  1.540436e+000  5.263699e+001  1.065814e-014
      vertex  0.000000e+000  2.719130e+001  2.775558e-013
      vertex  0.000000e+000  3.975880e+001  0.000000e+000
    endloop
  endfacet
  facet normal -1.164422e-014  2.220446e-015 -1.000000e+000
    outer loop
      vertex  1.540436e+000  5.263699e+001  1.065814e-014
      vertex  0.000000e+000  3.975880e+001  0.000000e+000
      vertex  0.000000e+000  4.775880e+001  1.776357e-014
    endloop
  endfacet
  facet normal  6.918914e-015 -3.641430e-015 -1.000000e+000
    outer loop
      vertex  1.540436e+000  5.263699e+001  1.065814e-014
      vertex  0.000000e+000  4.775880e+001  1.776357e-014
      vertex  0.000000e+000  5.263699e+001  0.000000e+000
    endloop
  endfacet
  facet normal  3.113863e-018  3.469447e-014 -1.000000e+000
    outer loop
      vertex  0.000000e+000  1.919130e+001  0.000000e+000
      vertex -1.500000e+000  1.919130e+001 -4.670795e-018
      vertex  0.000000e+000  2.719130e+001  2.775558e-013
    endloop
  endfacet
  facet normal  0.000000e+000  3.469505e-014 -1.000000e+000
    outer loop
      vertex  0.000000e+000  2.719130e+001  2.775558e-013
      vertex -1.500000e+000  1.919130e+001 -4.670795e-018
      vertex -1.500000e+000  2.719130e+001  2.775558e-013
    endloop
  endfacet
  facet normal  3.113863e-018  2.220446e-015 -1.000000e+000
    outer loop
      vertex  0.000000e+000  3.975880e+001  0.000000e+000
      vertex -1.500000e+000  3.975880e+001 -4.670795e-018
      vertex  0.000000e+000  4.775880e+001  1.776357e-014
    endloop
  endfacet
  facet normal  0.000000e+000  2.221030e-015 -1.000000e+000
    outer loop
      vertex  0.000000e+000  4.775880e+001  1.776357e-014
      vertex -1.500000e+000  3.975880e+001 -4.670795e-018
      vertex -1.500000e+000  4.775880e+001  1.776357e-014
    endloop
  endfacet
  facet normal  0.000000e+000  1.000000e+000  0.000000e+000
    outer loop
      vertex  0.000000e+000  5.349250e+001  1.221800e+000
      vertex -1.972152e-031  5.349250e+001  3.333333e+000
      vertex  1.007216e+000  5.349250e+001  1.221800e+000
    endloop
  endfacet
  facet normal  0.000000e+000  1.000000e+000  0.000000e+000
    outer loop
      vertex  1.007216e+000  5.349250e+001  1.221800e+000
      vertex -1.972152e-031  5.349250e+001  3.333333e+000
      vertex  5.391000e-001  5.349250e+001  3.333333e+000
    endloop
  endfacet
  facet normal  0.000000e+000  8.191518e-001 -5.735769e-001
    outer loop
      vertex  0.000000e+000  5.349250e+001  1.221800e+000
      vertex  1.007216e+000  5.349250e+001  1.221800e+000
      vertex  0.000000e+000  5.263699e+001  0.000000e+000
    endloop
  endfacet
  facet normal -7.165662e-006  8.191545e-001 -5.735729e-001
    outer loop
      vertex  0.000000e+000  5.263699e+001  0.000000e+000
      vertex  1.007216e+000  5.349250e+001  1.221800e+000
      vertex  1.040309e+000  5.338798e+001  1.072524e+000
    endloop
  endfacet
  facet normal  0.000000e+000  8.191512e-001 -5.735776e-001
    outer loop
      vertex  0.000000e+000  5.263699e+001  0.000000e+000
      vertex  1.040309e+000  5.338798e+001  1.072524e+000
      vertex  1.540436e+000  5.263699e+001  1.065814e-014
    endloop
  endfacet
  facet normal  -0.000000e+000 -1.000000e+000  0.000000e+000
    outer loop
      vertex -1.500000e+000  3.975880e+001 -4.670795e-018
      vertex  0.000000e+000  3.975880e+001  0.000000e+000
      vertex -1.500000e+000  3.975880e+001  3.333330e+000
    endloop
  endfacet
  facet normal  0.000000e+000 -1.000000e+000  0.000000e+000
    outer loop
      vertex -1.500000e+000  3.975880e+001  3.333330e+000
      vertex  0.000000e+000  3.975880e+001  0.000000e+000
      vertex  0.000000e+000  3.975880e+001  3.333333e+000
    endloop
  endfacet
  facet normal -2.066294e-006  0.000000e+000  1.000000e+000
    outer loop
      vertex -1.500000e+000  4.775880e+001  3.333330e+000
      vertex -1.500000e+000  3.975880e+001  3.333330e+000
      vertex  0.000000e+000  4.775880e+001  3.333333e+000
    endloop
  endfacet
  facet normal -2.066294e-006  0.000000e+000  1.000000e+000
    outer loop
      vertex  0.000000e+000  4.775880e+001  3.333333e+000
      vertex -1.500000e+000  3.975880e+001  3.333330e+000
      vertex  0.000000e+000  3.975880e+001  3.333333e+000
    endloop
  endfacet
  facet normal  0.000000e+000  1.000000e+000  0.000000e+000
    outer loop
      vertex -1.500000e+000  4.775880e+001  3.333330e+000
      vertex  0.000000e+000  4.775880e+001  3.333333e+000
      vertex -1.500000e+000  4.775880e+001  1.776357e-014
    endloop
  endfacet
  facet normal  0.000000e+000  1.000000e+000  0.000000e+000
    outer loop
      vertex -1.500000e+000  4.775880e+001  1.776357e-014
      vertex  0.000000e+000  4.775880e+001  3.333333e+000
      vertex  0.000000e+000  4.775880e+001  1.776357e-014
    endloop
  endfacet
  facet normal  -0.000000e+000 -1.000000e+000  0.000000e+000
    outer loop
      vertex -1.500000e+000  1.919130e+001 -4.670795e-018
      vertex  0.000000e+000  1.919130e+001  0.000000e+000
      vertex -1.500000e+000  1.919130e+001  3.333330e+000
    endloop
  endfacet
  facet normal  0.000000e+000 -1.000000e+000  0.000000e+000
    outer loop
      vertex -1.500000e+000  1.919130e+001  3.333330e+000
      vertex  0.000000e+000  1.919130e+001  0.000000e+000
      vertex  0.000000e+000  1.919130e+001  3.333333e+000
    endloop
  endfacet
  facet normal -2.066294e-006  0.000000e+000  1.000000e+000
    outer loop
      vertex -1.500000e+000  2.719130e+001  3.333330e+000
      vertex -1.500000e+000  1.919130e+001  3.333330e+000
      vertex  0.000000e+000  2.719130e+001  3.333333e+000
    endloop
  endfacet
  facet normal -2.066294e-006  0.000000e+000  1.000000e+000
    outer loop
      vertex  0.000000e+000  2.719130e+001  3.333333e+000
      vertex -1.500000e+000  1.919130e+001  3.333330e+000
      vertex  0.000000e+000  1.919130e+001  3.333333e+000
    endloop
  endfacet
  facet normal  0.000000e+000  1.000000e+000  0.000000e+000
    outer loop
      vertex -1.500000e+000  2.719130e+001  3.333330e+000
      vertex  0.000000e+000  2.719130e+001  3.333333e+000
      vertex -1.500000e+000  2.719130e+001  2.775558e-013
    endloop
  endfacet
  facet normal  0.000000e+000  1.000000e+000  0.000000e+000
    outer loop
      vertex -1.500000e+000  2.719130e+001  2.775558e-013
      vertex  0.000000e+000  2.719130e+001  3.333333e+000
      vertex  0.000000e+000  2.719130e+001  2.775558e-013
    endloop
  endfacet
  facet normal -1.000000e+000  0.000000e+000  0.000000e+000
    outer loop
      vertex  0.000000e+000  0.000000e+000  0.000000e+000
      vertex  0.000000e+000  0.000000e+000  3.333333e+000
      vertex  0.000000e+000  1.919130e+001  0.000000e+000
    endloop
  endfacet
  facet normal -1.000000e+000  0.000000e+000  0.000000e+000
    outer loop
      vertex  0.000000e+000  1.919130e+001  0.000000e+000
      vertex  0.000000e+000  0.000000e+000  3.333333e+000
      vertex  0.000000e+000  1.919130e+001  3.333333e+000
    endloop
  endfacet
  facet normal -1.000000e+000  0.000000e+000  0.000000e+000
    outer loop
      vertex  0.000000e+000  2.719130e+001  2.775558e-013
      vertex  0.000000e+000  2.719130e+001  3.333333e+000
      vertex  0.000000e+000  3.975880e+001  0.000000e+000
    endloop
  endfacet
  facet normal -1.000000e+000  0.000000e+000  0.000000e+000
    outer loop
      vertex  0.000000e+000  3.975880e+001  0.000000e+000
      vertex  0.000000e+000  2.719130e+001  3.333333e+000
      vertex  0.000000e+000  3.975880e+001  3.333333e+000
    endloop
  endfacet
  facet normal -1.000000e+000  0.000000e+000  0.000000e+000
    outer loop
      vertex -1.500000e+000  4.775880e+001  1.776357e-014
      vertex -1.500000e+000  3.975880e+001 -4.670795e-018
      vertex -1.500000e+000  4.775880e+001  3.333330e+000
    endloop
  endfacet
  facet normal -1.000000e+000  -0.000000e+000  0.000000e+000
    outer loop
      vertex -1.500000e+000  4.775880e+001  3.333330e+000
      vertex -1.500000e+000  3.975880e+001 -4.670795e-018
      vertex -1.500000e+000  3.975880e+001  3.333330e+000
    endloop
  endfacet
  facet normal -1.000000e+000  0.000000e+000  0.000000e+000
    outer loop
      vertex -1.500000e+000  2.719130e+001  2.775558e-013
      vertex -1.500000e+000  1.919130e+001 -4.670795e-018
      vertex -1.500000e+000  2.719130e+001  3.333330e+000
    endloop
  endfacet
  facet normal -1.000000e+000  -0.000000e+000  0.000000e+000
    outer loop
      vertex -1.500000e+000  2.719130e+001  3.333330e+000
      vertex -1.500000e+000  1.919130e+001 -4.670795e-018
      vertex -1.500000e+000  1.919130e+001  3.333330e+000
    endloop
  endfacet
  facet normal  0.000000e+000 -1.000000e+000  -0.000000e+000
    outer loop
      vertex  1.540436e+000  0.000000e+000  0.000000e+000
      vertex  1.040309e+000  0.000000e+000  1.072524e+000
      vertex  0.000000e+000  0.000000e+000  0.000000e+000
    endloop
  endfacet
  facet normal  0.000000e+000 -9.999999e-001  0.000000e+000
    outer loop
      vertex  0.000000e+000  0.000000e+000  0.000000e+000
      vertex  1.040309e+000  0.000000e+000  1.072524e+000
      vertex  5.391000e-001  0.000000e+000  3.333333e+000
    endloop
  endfacet
  facet normal  -0.000000e+000 -1.000000e+000  0.000000e+000
    outer loop
      vertex  0.000000e+000  0.000000e+000  0.000000e+000
      vertex  5.391000e-001  0.000000e+000  3.333333e+000
      vertex  0.000000e+000  0.000000e+000  3.333333e+000
    endloop
  endfacet
endsolid CATIA STL
