solid CATIA STL
  facet normal  0.000000e+000  8.191510e-001  5.735778e-001
    outer loop
      vertex -4.330000e+000  5.516300e+001  1.221781e+000
      vertex  1.007220e+000  5.516300e+001  1.221781e+000
      vertex -4.330000e+000  5.601850e+001 -3.197442e-014
    endloop
  endfacet
  facet normal -5.833060e-007  8.191497e-001  5.735797e-001
    outer loop
      vertex -4.330000e+000  5.601850e+001 -3.197442e-014
      vertex  1.007220e+000  5.516300e+001  1.221781e+000
      vertex  1.040309e+000  5.526751e+001  1.072524e+000
    endloop
  endfacet
  facet normal  0.000000e+000  8.191512e-001  5.735776e-001
    outer loop
      vertex -4.330000e+000  5.601850e+001 -3.197442e-014
      vertex  1.040309e+000  5.526751e+001  1.072524e+000
      vertex  1.540436e+000  5.601850e+001 -3.197442e-014
    endloop
  endfacet
  facet normal  0.000000e+000  1.000000e+000  0.000000e+000
    outer loop
      vertex  5.391006e-001  5.516300e+001  3.333330e+000
      vertex  1.007220e+000  5.516300e+001  1.221781e+000
      vertex  1.776357e-015  5.516300e+001  3.333330e+000
    endloop
  endfacet
  facet normal  0.000000e+000  1.000000e+000  0.000000e+000
    outer loop
      vertex  1.776357e-015  5.516300e+001  3.333330e+000
      vertex  1.007220e+000  5.516300e+001  1.221781e+000
      vertex -4.330000e+000  5.516300e+001  1.221781e+000
    endloop
  endfacet
  facet normal  0.000000e+000  1.000000e+000  0.000000e+000
    outer loop
      vertex  1.776357e-015  5.516300e+001  3.333330e+000
      vertex -4.330000e+000  5.516300e+001  1.221781e+000
      vertex -4.330000e+000  5.516300e+001  3.333330e+000
    endloop
  endfacet
  facet normal  9.063078e-001  0.000000e+000  4.226183e-001
    outer loop
      vertex  1.040309e+000  7.509896e-001  1.072524e+000
      vertex  1.540436e+000 -3.330669e-016 -4.440892e-016
      vertex  1.040309e+000  5.526751e+001  1.072524e+000
    endloop
  endfacet
  facet normal  9.063078e-001  0.000000e+000  4.226183e-001
    outer loop
      vertex  1.040309e+000  5.526751e+001  1.072524e+000
      vertex  1.540436e+000 -3.330669e-016 -4.440892e-016
      vertex  1.540436e+000  5.601850e+001 -3.197442e-014
    endloop
  endfacet
  facet normal -1.000000e+000  0.000000e+000  0.000000e+000
    outer loop
      vertex -4.330000e+000  5.601850e+001 -3.197442e-014
      vertex -4.330000e+000  5.461300e+001  1.737990e-014
      vertex -4.330000e+000  5.516300e+001  1.221781e+000
    endloop
  endfacet
  facet normal -1.000000e+000  -0.000000e+000  0.000000e+000
    outer loop
      vertex -4.330000e+000  5.516300e+001  1.221781e+000
      vertex -4.330000e+000  5.461300e+001  1.737990e-014
      vertex -4.330000e+000  5.461300e+001  3.333330e+000
    endloop
  endfacet
  facet normal -1.000000e+000  0.000000e+000  0.000000e+000
    outer loop
      vertex -4.330000e+000  5.516300e+001  1.221781e+000
      vertex -4.330000e+000  5.461300e+001  3.333330e+000
      vertex -4.330000e+000  5.516300e+001  3.333330e+000
    endloop
  endfacet
  facet normal  0.000000e+000  5.635356e-006  1.000000e+000
    outer loop
      vertex  0.000000e+000  5.461300e+001  3.333333e+000
      vertex  5.391006e-001  5.516300e+001  3.333330e+000
      vertex  1.776357e-015  5.516300e+001  3.333330e+000
    endloop
  endfacet
  facet normal  5.749282e-006 -6.941072e-014  1.000000e+000
    outer loop
      vertex  5.391000e-001  8.555000e-001  3.333330e+000
      vertex  5.391006e-001  5.516300e+001  3.333330e+000
      vertex  0.000000e+000  5.461300e+001  3.333333e+000
    endloop
  endfacet
  facet normal  5.749289e-006  0.000000e+000  1.000000e+000
    outer loop
      vertex  5.391000e-001  8.555000e-001  3.333330e+000
      vertex  0.000000e+000  5.461300e+001  3.333333e+000
      vertex  0.000000e+000  4.974505e+001  3.333333e+000
    endloop
  endfacet
  facet normal  5.749288e-006  0.000000e+000  9.999999e-001
    outer loop
      vertex  5.391000e-001  8.555000e-001  3.333330e+000
      vertex  0.000000e+000  4.974505e+001  3.333333e+000
      vertex  0.000000e+000  4.174505e+001  3.333333e+000
    endloop
  endfacet
  facet normal  5.749288e-006  0.000000e+000  1.000000e+000
    outer loop
      vertex  5.391000e-001  8.555000e-001  3.333330e+000
      vertex  0.000000e+000  4.174505e+001  3.333333e+000
      vertex  0.000000e+000  3.200925e+001  3.333333e+000
    endloop
  endfacet
  facet normal  5.749288e-006  0.000000e+000  9.999999e-001
    outer loop
      vertex  5.391000e-001  8.555000e-001  3.333330e+000
      vertex  0.000000e+000  3.200925e+001  3.333333e+000
      vertex  0.000000e+000  2.400925e+001  3.333333e+000
    endloop
  endfacet
  facet normal  5.749289e-006  0.000000e+000  1.000000e+000
    outer loop
      vertex  5.391000e-001  8.555000e-001  3.333330e+000
      vertex  0.000000e+000  2.400925e+001  3.333333e+000
      vertex  0.000000e+000  1.427345e+001  3.333333e+000
    endloop
  endfacet
  facet normal  5.749288e-006  0.000000e+000  9.999999e-001
    outer loop
      vertex  5.391000e-001  8.555000e-001  3.333330e+000
      vertex  0.000000e+000  1.427345e+001  3.333333e+000
      vertex  0.000000e+000  6.273450e+000  3.333333e+000
    endloop
  endfacet
  facet normal  5.749288e-006  0.000000e+000  9.999999e-001
    outer loop
      vertex  5.391000e-001  8.555000e-001  3.333330e+000
      vertex  0.000000e+000  6.273450e+000  3.333333e+000
      vertex  0.000000e+000  1.405500e+000  3.333333e+000
    endloop
  endfacet
  facet normal  0.000000e+000 -5.635347e-006  9.999999e-001
    outer loop
      vertex  5.391000e-001  8.555000e-001  3.333330e+000
      vertex  0.000000e+000  1.405500e+000  3.333333e+000
      vertex  1.776357e-015  8.555000e-001  3.333330e+000
    endloop
  endfacet
  facet normal  0.000000e+000  0.000000e+000  1.000000e+000
    outer loop
      vertex -4.330000e+000  5.516300e+001  3.333330e+000
      vertex -4.330000e+000  5.461300e+001  3.333330e+000
      vertex  1.776357e-015  5.516300e+001  3.333330e+000
    endloop
  endfacet
  facet normal -7.158064e-007  5.635357e-006  1.000000e+000
    outer loop
      vertex  1.776357e-015  5.516300e+001  3.333330e+000
      vertex -4.330000e+000  5.461300e+001  3.333330e+000
      vertex  0.000000e+000  5.461300e+001  3.333333e+000
    endloop
  endfacet
  facet normal  9.762959e-001 -1.178676e-008  2.164399e-001
    outer loop
      vertex  5.391006e-001  5.516300e+001  3.333330e+000
      vertex  5.391000e-001  8.555000e-001  3.333330e+000
      vertex  1.007220e+000  8.555000e-001  1.221781e+000
    endloop
  endfacet
  facet normal  9.762961e-001  -0.000000e+000  2.164396e-001
    outer loop
      vertex  5.391006e-001  5.516300e+001  3.333330e+000
      vertex  1.007220e+000  8.555000e-001  1.221781e+000
      vertex  1.007220e+000  5.516300e+001  1.221781e+000
    endloop
  endfacet
  facet normal  9.762962e-001  0.000000e+000  2.164393e-001
    outer loop
      vertex  1.007220e+000  5.516300e+001  1.221781e+000
      vertex  1.007220e+000  8.555000e-001  1.221781e+000
      vertex  1.040309e+000  7.509896e-001  1.072524e+000
    endloop
  endfacet
  facet normal  9.762961e-001  -0.000000e+000  2.164393e-001
    outer loop
      vertex  1.007220e+000  5.516300e+001  1.221781e+000
      vertex  1.040309e+000  7.509896e-001  1.072524e+000
      vertex  1.040309e+000  5.526751e+001  1.072524e+000
    endloop
  endfacet
  facet normal -4.013832e-015 -3.511508e-014 -1.000000e+000
    outer loop
      vertex -4.330000e+000  5.461300e+001  1.737990e-014
      vertex -4.330000e+000  5.601850e+001 -3.197442e-014
      vertex  0.000000e+000  5.461300e+001  0.000000e+000
    endloop
  endfacet
  facet normal -8.018401e-016 -5.628557e-016 -1.000000e+000
    outer loop
      vertex  1.540436e+000  5.601850e+001 -3.197442e-014
      vertex  1.540436e+000 -3.330669e-016 -4.440892e-016
      vertex  0.000000e+000  1.405500e+000  0.000000e+000
    endloop
  endfacet
  facet normal -2.075674e-014  0.000000e+000 -9.999999e-001
    outer loop
      vertex  1.540436e+000  5.601850e+001 -3.197442e-014
      vertex  0.000000e+000  1.405500e+000  0.000000e+000
      vertex  0.000000e+000  6.273450e+000  0.000000e+000
    endloop
  endfacet
  facet normal -1.179368e-014 -2.775558e-016 -1.000000e+000
    outer loop
      vertex  1.540436e+000  5.601850e+001 -3.197442e-014
      vertex  0.000000e+000  6.273450e+000  0.000000e+000
      vertex  0.000000e+000  1.427345e+001 -2.220446e-015
    endloop
  endfacet
  facet normal -2.549590e-014  2.280702e-016 -1.000000e+000
    outer loop
      vertex  1.540436e+000  5.601850e+001 -3.197442e-014
      vertex  0.000000e+000  1.427345e+001 -2.220446e-015
      vertex  0.000000e+000  2.400925e+001  0.000000e+000
    endloop
  endfacet
  facet normal -6.458920e-014  2.109424e-015 -1.000000e+000
    outer loop
      vertex  1.540436e+000  5.601850e+001 -3.197442e-014
      vertex  0.000000e+000  2.400925e+001  0.000000e+000
      vertex  0.000000e+000  3.200925e+001  1.687539e-014
    endloop
  endfacet
  facet normal -4.695919e-015 -1.733334e-015 -9.999999e-001
    outer loop
      vertex  1.540436e+000  5.601850e+001 -3.197442e-014
      vertex  0.000000e+000  3.200925e+001  1.687539e-014
      vertex  0.000000e+000  4.174505e+001  0.000000e+000
    endloop
  endfacet
  facet normal -7.785051e-014  6.161738e-015 -1.000000e+000
    outer loop
      vertex  1.540436e+000  5.601850e+001 -3.197442e-014
      vertex  0.000000e+000  4.174505e+001  0.000000e+000
      vertex  0.000000e+000  4.974505e+001  4.929390e-014
    endloop
  endfacet
  facet normal -1.151753e-014 -1.012621e-014 -9.999999e-001
    outer loop
      vertex  1.540436e+000  5.601850e+001 -3.197442e-014
      vertex  0.000000e+000  4.974505e+001  4.929390e-014
      vertex  0.000000e+000  5.461300e+001  0.000000e+000
    endloop
  endfacet
  facet normal  0.000000e+000 -2.274947e-014 -1.000000e+000
    outer loop
      vertex  1.540436e+000  5.601850e+001 -3.197442e-014
      vertex  0.000000e+000  5.461300e+001  0.000000e+000
      vertex -4.330000e+000  5.601850e+001 -3.197442e-014
    endloop
  endfacet
  facet normal  0.000000e+000 -2.775558e-016 -1.000000e+000
    outer loop
      vertex  0.000000e+000  6.273450e+000  0.000000e+000
      vertex -1.500000e+000  6.273450e+000  0.000000e+000
      vertex  0.000000e+000  1.427345e+001 -2.220446e-015
    endloop
  endfacet
  facet normal  -0.000000e+000 -2.775558e-016 -1.000000e+000
    outer loop
      vertex  0.000000e+000  1.427345e+001 -2.220446e-015
      vertex -1.500000e+000  6.273450e+000  0.000000e+000
      vertex -1.500000e+000  1.427345e+001 -2.220446e-015
    endloop
  endfacet
  facet normal  0.000000e+000  2.109424e-015 -1.000000e+000
    outer loop
      vertex  0.000000e+000  2.400925e+001  0.000000e+000
      vertex -1.500000e+000  2.400925e+001  0.000000e+000
      vertex  0.000000e+000  3.200925e+001  1.687539e-014
    endloop
  endfacet
  facet normal  0.000000e+000  2.109424e-015 -1.000000e+000
    outer loop
      vertex  0.000000e+000  3.200925e+001  1.687539e-014
      vertex -1.500000e+000  2.400925e+001  0.000000e+000
      vertex -1.500000e+000  3.200925e+001  1.687539e-014
    endloop
  endfacet
  facet normal  0.000000e+000  6.161738e-015 -1.000000e+000
    outer loop
      vertex  0.000000e+000  4.174505e+001  0.000000e+000
      vertex -1.500000e+000  4.174505e+001  0.000000e+000
      vertex  0.000000e+000  4.974505e+001  4.929390e-014
    endloop
  endfacet
  facet normal  0.000000e+000  6.161738e-015 -1.000000e+000
    outer loop
      vertex  0.000000e+000  4.974505e+001  4.929390e-014
      vertex -1.500000e+000  4.174505e+001  0.000000e+000
      vertex -1.500000e+000  4.974505e+001  4.929390e-014
    endloop
  endfacet
  facet normal -7.564843e-017  2.330542e-016 -1.000000e+000
    outer loop
      vertex  1.540436e+000 -3.330669e-016 -4.440892e-016
      vertex -4.330000e+000 -5.551115e-017  0.000000e+000
      vertex  0.000000e+000  1.405500e+000  0.000000e+000
    endloop
  endfacet
  facet normal  -0.000000e+000  0.000000e+000 -1.000000e+000
    outer loop
      vertex  0.000000e+000  1.405500e+000  0.000000e+000
      vertex -4.330000e+000 -5.551115e-017  0.000000e+000
      vertex -4.330000e+000  1.405500e+000  0.000000e+000
    endloop
  endfacet
  facet normal  0.000000e+000 -1.000000e+000  -0.000000e+000
    outer loop
      vertex  1.007220e+000  8.555000e-001  1.221781e+000
      vertex  5.391000e-001  8.555000e-001  3.333330e+000
      vertex -4.330000e+000  8.555000e-001  1.221781e+000
    endloop
  endfacet
  facet normal  0.000000e+000 -1.000000e+000  0.000000e+000
    outer loop
      vertex -4.330000e+000  8.555000e-001  1.221781e+000
      vertex  5.391000e-001  8.555000e-001  3.333330e+000
      vertex  1.776357e-015  8.555000e-001  3.333330e+000
    endloop
  endfacet
  facet normal  -0.000000e+000 -1.000000e+000  0.000000e+000
    outer loop
      vertex -4.330000e+000  8.555000e-001  1.221781e+000
      vertex  1.776357e-015  8.555000e-001  3.333330e+000
      vertex -4.330000e+000  8.555000e-001  3.333330e+000
    endloop
  endfacet
  facet normal  0.000000e+000 -8.191522e-001  5.735762e-001
    outer loop
      vertex  1.007220e+000  8.555000e-001  1.221781e+000
      vertex -4.330000e+000  8.555000e-001  1.221781e+000
      vertex  1.040309e+000  7.509896e-001  1.072524e+000
    endloop
  endfacet
  facet normal  7.441357e-009 -8.191521e-001  5.735765e-001
    outer loop
      vertex  1.040309e+000  7.509896e-001  1.072524e+000
      vertex -4.330000e+000  8.555000e-001  1.221781e+000
      vertex -4.330000e+000 -5.551115e-017  0.000000e+000
    endloop
  endfacet
  facet normal  4.660430e-018 -8.191521e-001  5.735764e-001
    outer loop
      vertex  1.040309e+000  7.509896e-001  1.072524e+000
      vertex -4.330000e+000 -5.551115e-017  0.000000e+000
      vertex  1.540436e+000 -3.330669e-016 -4.440892e-016
    endloop
  endfacet
  facet normal -7.158064e-007  0.000000e+000  1.000000e+000
    outer loop
      vertex -4.330000e+000  1.405500e+000  3.333330e+000
      vertex -4.330000e+000  8.555000e-001  3.333330e+000
      vertex  0.000000e+000  1.405500e+000  3.333333e+000
    endloop
  endfacet
  facet normal  0.000000e+000 -5.635347e-006  1.000000e+000
    outer loop
      vertex  0.000000e+000  1.405500e+000  3.333333e+000
      vertex -4.330000e+000  8.555000e-001  3.333330e+000
      vertex  1.776357e-015  8.555000e-001  3.333330e+000
    endloop
  endfacet
  facet normal -9.999999e-001  0.000000e+000  -0.000000e+000
    outer loop
      vertex -4.330000e+000 -5.551115e-017  0.000000e+000
      vertex -4.330000e+000  8.555000e-001  1.221781e+000
      vertex -4.330000e+000  1.405500e+000  0.000000e+000
    endloop
  endfacet
  facet normal -1.000000e+000  0.000000e+000  0.000000e+000
    outer loop
      vertex -4.330000e+000  1.405500e+000  0.000000e+000
      vertex -4.330000e+000  8.555000e-001  1.221781e+000
      vertex -4.330000e+000  8.555000e-001  3.333330e+000
    endloop
  endfacet
  facet normal -1.000000e+000  0.000000e+000  0.000000e+000
    outer loop
      vertex -4.330000e+000  1.405500e+000  0.000000e+000
      vertex -4.330000e+000  8.555000e-001  3.333330e+000
      vertex -4.330000e+000  1.405500e+000  3.333330e+000
    endloop
  endfacet
  facet normal  0.000000e+000 -1.000000e+000  -0.000000e+000
    outer loop
      vertex  0.000000e+000  5.461300e+001  0.000000e+000
      vertex  0.000000e+000  5.461300e+001  3.333333e+000
      vertex -4.330000e+000  5.461300e+001  1.737990e-014
    endloop
  endfacet
  facet normal  0.000000e+000 -1.000000e+000  0.000000e+000
    outer loop
      vertex -4.330000e+000  5.461300e+001  1.737990e-014
      vertex  0.000000e+000  5.461300e+001  3.333333e+000
      vertex -4.330000e+000  5.461300e+001  3.333330e+000
    endloop
  endfacet
  facet normal  0.000000e+000  1.000000e+000  0.000000e+000
    outer loop
      vertex  0.000000e+000  1.405500e+000  0.000000e+000
      vertex -4.330000e+000  1.405500e+000  0.000000e+000
      vertex  0.000000e+000  1.405500e+000  3.333333e+000
    endloop
  endfacet
  facet normal  0.000000e+000  1.000000e+000  0.000000e+000
    outer loop
      vertex  0.000000e+000  1.405500e+000  3.333333e+000
      vertex -4.330000e+000  1.405500e+000  0.000000e+000
      vertex -4.330000e+000  1.405500e+000  3.333330e+000
    endloop
  endfacet
  facet normal -1.000000e+000  0.000000e+000  0.000000e+000
    outer loop
      vertex  0.000000e+000  1.405500e+000  0.000000e+000
      vertex  0.000000e+000  1.405500e+000  3.333333e+000
      vertex  0.000000e+000  6.273450e+000  0.000000e+000
    endloop
  endfacet
  facet normal -1.000000e+000  0.000000e+000  0.000000e+000
    outer loop
      vertex  0.000000e+000  6.273450e+000  0.000000e+000
      vertex  0.000000e+000  1.405500e+000  3.333333e+000
      vertex  0.000000e+000  6.273450e+000  3.333333e+000
    endloop
  endfacet
  facet normal -1.000000e+000  0.000000e+000  0.000000e+000
    outer loop
      vertex  0.000000e+000  4.974505e+001  4.929390e-014
      vertex  0.000000e+000  4.974505e+001  3.333333e+000
      vertex  0.000000e+000  5.461300e+001  0.000000e+000
    endloop
  endfacet
  facet normal -1.000000e+000  0.000000e+000  0.000000e+000
    outer loop
      vertex  0.000000e+000  5.461300e+001  0.000000e+000
      vertex  0.000000e+000  4.974505e+001  3.333333e+000
      vertex  0.000000e+000  5.461300e+001  3.333333e+000
    endloop
  endfacet
  facet normal  0.000000e+000 -1.000000e+000  0.000000e+000
    outer loop
      vertex -1.500000e+000  6.273450e+000  3.333330e+000
      vertex -1.500000e+000  6.273450e+000  0.000000e+000
      vertex  0.000000e+000  6.273450e+000  3.333333e+000
    endloop
  endfacet
  facet normal  0.000000e+000 -1.000000e+000  -0.000000e+000
    outer loop
      vertex  0.000000e+000  6.273450e+000  3.333333e+000
      vertex -1.500000e+000  6.273450e+000  0.000000e+000
      vertex  0.000000e+000  6.273450e+000  0.000000e+000
    endloop
  endfacet
  facet normal  0.000000e+000  1.000000e+000  0.000000e+000
    outer loop
      vertex -1.500000e+000  1.427345e+001 -2.220446e-015
      vertex -1.500000e+000  1.427345e+001  3.333330e+000
      vertex  0.000000e+000  1.427345e+001 -2.220446e-015
    endloop
  endfacet
  facet normal  0.000000e+000  1.000000e+000  -0.000000e+000
    outer loop
      vertex  0.000000e+000  1.427345e+001 -2.220446e-015
      vertex -1.500000e+000  1.427345e+001  3.333330e+000
      vertex  0.000000e+000  1.427345e+001  3.333333e+000
    endloop
  endfacet
  facet normal -2.066294e-006  0.000000e+000  1.000000e+000
    outer loop
      vertex -1.500000e+000  1.427345e+001  3.333330e+000
      vertex -1.500000e+000  6.273450e+000  3.333330e+000
      vertex  0.000000e+000  1.427345e+001  3.333333e+000
    endloop
  endfacet
  facet normal -2.066294e-006  0.000000e+000  1.000000e+000
    outer loop
      vertex  0.000000e+000  1.427345e+001  3.333333e+000
      vertex -1.500000e+000  6.273450e+000  3.333330e+000
      vertex  0.000000e+000  6.273450e+000  3.333333e+000
    endloop
  endfacet
  facet normal  0.000000e+000 -1.000000e+000  0.000000e+000
    outer loop
      vertex -1.500000e+000  2.400925e+001  0.000000e+000
      vertex  0.000000e+000  2.400925e+001  0.000000e+000
      vertex -1.500000e+000  2.400925e+001  3.333330e+000
    endloop
  endfacet
  facet normal  0.000000e+000 -1.000000e+000  0.000000e+000
    outer loop
      vertex -1.500000e+000  2.400925e+001  3.333330e+000
      vertex  0.000000e+000  2.400925e+001  0.000000e+000
      vertex  0.000000e+000  2.400925e+001  3.333333e+000
    endloop
  endfacet
  facet normal -2.066294e-006  0.000000e+000  1.000000e+000
    outer loop
      vertex -1.500000e+000  3.200925e+001  3.333330e+000
      vertex -1.500000e+000  2.400925e+001  3.333330e+000
      vertex  0.000000e+000  3.200925e+001  3.333333e+000
    endloop
  endfacet
  facet normal -2.066294e-006  0.000000e+000  1.000000e+000
    outer loop
      vertex  0.000000e+000  3.200925e+001  3.333333e+000
      vertex -1.500000e+000  2.400925e+001  3.333330e+000
      vertex  0.000000e+000  2.400925e+001  3.333333e+000
    endloop
  endfacet
  facet normal  0.000000e+000  1.000000e+000  0.000000e+000
    outer loop
      vertex -1.500000e+000  3.200925e+001  3.333330e+000
      vertex  0.000000e+000  3.200925e+001  3.333333e+000
      vertex -1.500000e+000  3.200925e+001  1.687539e-014
    endloop
  endfacet
  facet normal  0.000000e+000  1.000000e+000  0.000000e+000
    outer loop
      vertex -1.500000e+000  3.200925e+001  1.687539e-014
      vertex  0.000000e+000  3.200925e+001  3.333333e+000
      vertex  0.000000e+000  3.200925e+001  1.687539e-014
    endloop
  endfacet
  facet normal  0.000000e+000 -1.000000e+000  0.000000e+000
    outer loop
      vertex -1.500000e+000  4.174505e+001  0.000000e+000
      vertex  0.000000e+000  4.174505e+001  0.000000e+000
      vertex -1.500000e+000  4.174505e+001  3.333330e+000
    endloop
  endfacet
  facet normal  0.000000e+000 -1.000000e+000  0.000000e+000
    outer loop
      vertex -1.500000e+000  4.174505e+001  3.333330e+000
      vertex  0.000000e+000  4.174505e+001  0.000000e+000
      vertex  0.000000e+000  4.174505e+001  3.333333e+000
    endloop
  endfacet
  facet normal -2.066294e-006  0.000000e+000  1.000000e+000
    outer loop
      vertex -1.500000e+000  4.974505e+001  3.333330e+000
      vertex -1.500000e+000  4.174505e+001  3.333330e+000
      vertex  0.000000e+000  4.974505e+001  3.333333e+000
    endloop
  endfacet
  facet normal -2.066294e-006  0.000000e+000  1.000000e+000
    outer loop
      vertex  0.000000e+000  4.974505e+001  3.333333e+000
      vertex -1.500000e+000  4.174505e+001  3.333330e+000
      vertex  0.000000e+000  4.174505e+001  3.333333e+000
    endloop
  endfacet
  facet normal  0.000000e+000  1.000000e+000  0.000000e+000
    outer loop
      vertex -1.500000e+000  4.974505e+001  3.333330e+000
      vertex  0.000000e+000  4.974505e+001  3.333333e+000
      vertex -1.500000e+000  4.974505e+001  4.929390e-014
    endloop
  endfacet
  facet normal  0.000000e+000  1.000000e+000  0.000000e+000
    outer loop
      vertex -1.500000e+000  4.974505e+001  4.929390e-014
      vertex  0.000000e+000  4.974505e+001  3.333333e+000
      vertex  0.000000e+000  4.974505e+001  4.929390e-014
    endloop
  endfacet
  facet normal -1.000000e+000  0.000000e+000  0.000000e+000
    outer loop
      vertex  0.000000e+000  1.427345e+001 -2.220446e-015
      vertex  0.000000e+000  1.427345e+001  3.333333e+000
      vertex  0.000000e+000  2.400925e+001  0.000000e+000
    endloop
  endfacet
  facet normal -1.000000e+000  0.000000e+000  0.000000e+000
    outer loop
      vertex  0.000000e+000  2.400925e+001  0.000000e+000
      vertex  0.000000e+000  1.427345e+001  3.333333e+000
      vertex  0.000000e+000  2.400925e+001  3.333333e+000
    endloop
  endfacet
  facet normal -1.000000e+000  0.000000e+000  0.000000e+000
    outer loop
      vertex  0.000000e+000  3.200925e+001  1.687539e-014
      vertex  0.000000e+000  3.200925e+001  3.333333e+000
      vertex  0.000000e+000  4.174505e+001  0.000000e+000
    endloop
  endfacet
  facet normal -1.000000e+000  0.000000e+000  0.000000e+000
    outer loop
      vertex  0.000000e+000  4.174505e+001  0.000000e+000
      vertex  0.000000e+000  3.200925e+001  3.333333e+000
      vertex  0.000000e+000  4.174505e+001  3.333333e+000
    endloop
  endfacet
  facet normal -1.000000e+000  0.000000e+000  0.000000e+000
    outer loop
      vertex -1.500000e+000  1.427345e+001 -2.220446e-015
      vertex -1.500000e+000  6.273450e+000  0.000000e+000
      vertex -1.500000e+000  1.427345e+001  3.333330e+000
    endloop
  endfacet
  facet normal -1.000000e+000  -0.000000e+000  0.000000e+000
    outer loop
      vertex -1.500000e+000  1.427345e+001  3.333330e+000
      vertex -1.500000e+000  6.273450e+000  0.000000e+000
      vertex -1.500000e+000  6.273450e+000  3.333330e+000
    endloop
  endfacet
  facet normal -1.000000e+000  0.000000e+000  0.000000e+000
    outer loop
      vertex -1.500000e+000  3.200925e+001  1.687539e-014
      vertex -1.500000e+000  2.400925e+001  0.000000e+000
      vertex -1.500000e+000  3.200925e+001  3.333330e+000
    endloop
  endfacet
  facet normal -1.000000e+000  -0.000000e+000  0.000000e+000
    outer loop
      vertex -1.500000e+000  3.200925e+001  3.333330e+000
      vertex -1.500000e+000  2.400925e+001  0.000000e+000
      vertex -1.500000e+000  2.400925e+001  3.333330e+000
    endloop
  endfacet
  facet normal -1.000000e+000  0.000000e+000  0.000000e+000
    outer loop
      vertex -1.500000e+000  4.974505e+001  4.929390e-014
      vertex -1.500000e+000  4.174505e+001  0.000000e+000
      vertex -1.500000e+000  4.974505e+001  3.333330e+000
    endloop
  endfacet
  facet normal -1.000000e+000  -0.000000e+000  0.000000e+000
    outer loop
      vertex -1.500000e+000  4.974505e+001  3.333330e+000
      vertex -1.500000e+000  4.174505e+001  0.000000e+000
      vertex -1.500000e+000  4.174505e+001  3.333330e+000
    endloop
  endfacet
endsolid CATIA STL
