solid CATIA STL
  facet normal  6.800838e-015  5.980987e-014 -1.000000e+000
    outer loop
      vertex  1.540436e+000 -4.072948e+001  1.047625e-014
      vertex  0.000000e+000 -4.072948e+001  0.000000e+000
      vertex  0.000000e+000 -3.585125e+001  2.917666e-013
    endloop
  endfacet
  facet normal -2.980998e-013 -3.647083e-014 -1.000000e+000
    outer loop
      vertex  1.540436e+000 -4.072948e+001  1.047625e-014
      vertex  0.000000e+000 -3.585125e+001  2.917666e-013
      vertex  0.000000e+000 -2.785125e+001  0.000000e+000
    endloop
  endfacet
  facet normal  1.441693e-013  1.643139e-014 -1.000000e+000
    outer loop
      vertex  1.540436e+000 -4.072948e+001  1.047625e-014
      vertex  0.000000e+000 -2.785125e+001  0.000000e+000
      vertex  0.000000e+000 -1.528375e+001  2.065015e-013
    endloop
  endfacet
  facet normal -5.536409e-013 -2.581269e-014 -1.000000e+000
    outer loop
      vertex  1.540436e+000 -4.072948e+001  1.047625e-014
      vertex  0.000000e+000 -1.528375e+001  2.065015e-013
      vertex  0.000000e+000 -7.283750e+000  0.000000e+000
    endloop
  endfacet
  facet normal  6.800838e-015  0.000000e+000 -9.999999e-001
    outer loop
      vertex  1.540436e+000 -4.072948e+001  1.047625e-014
      vertex  0.000000e+000 -7.283750e+000  0.000000e+000
      vertex  0.000000e+000  0.000000e+000  0.000000e+000
    endloop
  endfacet
  facet normal  0.000000e+000 -2.572155e-016 -1.000000e+000
    outer loop
      vertex  1.540436e+000 -4.072948e+001  1.047625e-014
      vertex  0.000000e+000  0.000000e+000  0.000000e+000
      vertex  1.540436e+000  0.000000e+000  0.000000e+000
    endloop
  endfacet
  facet normal -1.564594e-015 -2.581269e-014 -1.000000e+000
    outer loop
      vertex  0.000000e+000 -7.283750e+000  0.000000e+000
      vertex  0.000000e+000 -1.528375e+001  2.065015e-013
      vertex -1.500000e+000 -7.283750e+000  2.346896e-015
    endloop
  endfacet
  facet normal  0.000000e+000 -2.551933e-014 -1.000000e+000
    outer loop
      vertex -1.500000e+000 -7.283750e+000  2.346896e-015
      vertex  0.000000e+000 -1.528375e+001  2.065015e-013
      vertex -1.500000e+000 -1.528375e+001  2.065015e-013
    endloop
  endfacet
  facet normal  3.108046e-018 -3.647083e-014 -1.000000e+000
    outer loop
      vertex  0.000000e+000 -2.785125e+001  0.000000e+000
      vertex  0.000000e+000 -3.585125e+001  2.917666e-013
      vertex -1.500000e+000 -2.785125e+001 -4.670795e-018
    endloop
  endfacet
  facet normal  0.000000e+000 -3.647141e-014 -1.000000e+000
    outer loop
      vertex -1.500000e+000 -2.785125e+001 -4.670795e-018
      vertex  0.000000e+000 -3.585125e+001  2.917666e-013
      vertex -1.500000e+000 -3.585125e+001  2.917666e-013
    endloop
  endfacet
  facet normal -1.000000e+000 -1.333875e-031 -9.339907e-032
    outer loop
      vertex  0.000000e+000 -4.158500e+001  1.221800e+000
      vertex -1.972152e-031 -4.158500e+001  3.333333e+000
      vertex  0.000000e+000 -4.072948e+001  0.000000e+000
    endloop
  endfacet
  facet normal -1.000000e+000  3.439551e-032 -5.033681e-032
    outer loop
      vertex  0.000000e+000 -4.072948e+001  0.000000e+000
      vertex -1.972152e-031 -4.158500e+001  3.333333e+000
      vertex  0.000000e+000 -3.585125e+001  3.333333e+000
    endloop
  endfacet
  facet normal -1.000000e+000  0.000000e+000  -0.000000e+000
    outer loop
      vertex  0.000000e+000 -4.072948e+001  0.000000e+000
      vertex  0.000000e+000 -3.585125e+001  3.333333e+000
      vertex  0.000000e+000 -3.585125e+001  2.917666e-013
    endloop
  endfacet
  facet normal  9.063077e-001  -0.000000e+000  4.226183e-001
    outer loop
      vertex  1.040309e+000  0.000000e+000  1.072524e+000
      vertex  1.040309e+000 -4.148048e+001  1.072524e+000
      vertex  1.540436e+000  0.000000e+000  0.000000e+000
    endloop
  endfacet
  facet normal  9.063078e-001  1.087040e-016  4.226183e-001
    outer loop
      vertex  1.540436e+000  0.000000e+000  0.000000e+000
      vertex  1.040309e+000 -4.148048e+001  1.072524e+000
      vertex  1.540436e+000 -4.072948e+001  1.047625e-014
    endloop
  endfacet
  facet normal -2.066294e-006  0.000000e+000  1.000000e+000
    outer loop
      vertex -1.500000e+000 -3.585125e+001  3.333330e+000
      vertex  0.000000e+000 -3.585125e+001  3.333333e+000
      vertex -1.500000e+000 -2.785125e+001  3.333330e+000
    endloop
  endfacet
  facet normal -2.066294e-006  0.000000e+000  1.000000e+000
    outer loop
      vertex -1.500000e+000 -2.785125e+001  3.333330e+000
      vertex  0.000000e+000 -3.585125e+001  3.333333e+000
      vertex  0.000000e+000 -2.785125e+001  3.333333e+000
    endloop
  endfacet
  facet normal -1.000000e+000  0.000000e+000  0.000000e+000
    outer loop
      vertex  0.000000e+000 -1.528375e+001  2.065015e-013
      vertex  0.000000e+000 -2.785125e+001  0.000000e+000
      vertex  0.000000e+000 -1.528375e+001  3.333333e+000
    endloop
  endfacet
  facet normal -1.000000e+000  -0.000000e+000  0.000000e+000
    outer loop
      vertex  0.000000e+000 -1.528375e+001  3.333333e+000
      vertex  0.000000e+000 -2.785125e+001  0.000000e+000
      vertex  0.000000e+000 -2.785125e+001  3.333333e+000
    endloop
  endfacet
  facet normal -2.066294e-006  0.000000e+000  1.000000e+000
    outer loop
      vertex -1.500000e+000 -1.528375e+001  3.333330e+000
      vertex  0.000000e+000 -1.528375e+001  3.333333e+000
      vertex -1.500000e+000 -7.283750e+000  3.333330e+000
    endloop
  endfacet
  facet normal -2.066294e-006  0.000000e+000  1.000000e+000
    outer loop
      vertex -1.500000e+000 -7.283750e+000  3.333330e+000
      vertex  0.000000e+000 -1.528375e+001  3.333333e+000
      vertex  0.000000e+000 -7.283750e+000  3.333333e+000
    endloop
  endfacet
  facet normal -1.000000e+000  0.000000e+000  0.000000e+000
    outer loop
      vertex  0.000000e+000  0.000000e+000  0.000000e+000
      vertex  0.000000e+000 -7.283750e+000  0.000000e+000
      vertex  0.000000e+000  0.000000e+000  3.333333e+000
    endloop
  endfacet
  facet normal -1.000000e+000  -0.000000e+000  0.000000e+000
    outer loop
      vertex  0.000000e+000  0.000000e+000  3.333333e+000
      vertex  0.000000e+000 -7.283750e+000  0.000000e+000
      vertex  0.000000e+000 -7.283750e+000  3.333333e+000
    endloop
  endfacet
  facet normal -1.000000e+000  0.000000e+000  0.000000e+000
    outer loop
      vertex -1.500000e+000 -1.528375e+001  2.065015e-013
      vertex -1.500000e+000 -1.528375e+001  3.333330e+000
      vertex -1.500000e+000 -7.283750e+000  2.346896e-015
    endloop
  endfacet
  facet normal -1.000000e+000  0.000000e+000  0.000000e+000
    outer loop
      vertex -1.500000e+000 -7.283750e+000  2.346896e-015
      vertex -1.500000e+000 -1.528375e+001  3.333330e+000
      vertex -1.500000e+000 -7.283750e+000  3.333330e+000
    endloop
  endfacet
  facet normal  0.000000e+000 -1.000000e+000  0.000000e+000
    outer loop
      vertex -1.500000e+000 -1.528375e+001  2.065015e-013
      vertex  0.000000e+000 -1.528375e+001  2.065015e-013
      vertex -1.500000e+000 -1.528375e+001  3.333330e+000
    endloop
  endfacet
  facet normal  0.000000e+000 -1.000000e+000  0.000000e+000
    outer loop
      vertex -1.500000e+000 -1.528375e+001  3.333330e+000
      vertex  0.000000e+000 -1.528375e+001  2.065015e-013
      vertex  0.000000e+000 -1.528375e+001  3.333333e+000
    endloop
  endfacet
  facet normal -1.000000e+000  0.000000e+000  0.000000e+000
    outer loop
      vertex -1.500000e+000 -3.585125e+001  2.917666e-013
      vertex -1.500000e+000 -3.585125e+001  3.333330e+000
      vertex -1.500000e+000 -2.785125e+001 -4.670795e-018
    endloop
  endfacet
  facet normal -1.000000e+000  0.000000e+000  0.000000e+000
    outer loop
      vertex -1.500000e+000 -2.785125e+001 -4.670795e-018
      vertex -1.500000e+000 -3.585125e+001  3.333330e+000
      vertex -1.500000e+000 -2.785125e+001  3.333330e+000
    endloop
  endfacet
  facet normal  0.000000e+000 -1.000000e+000  0.000000e+000
    outer loop
      vertex -1.500000e+000 -3.585125e+001  3.333330e+000
      vertex -1.500000e+000 -3.585125e+001  2.917666e-013
      vertex  0.000000e+000 -3.585125e+001  3.333333e+000
    endloop
  endfacet
  facet normal  0.000000e+000 -1.000000e+000  -0.000000e+000
    outer loop
      vertex  0.000000e+000 -3.585125e+001  3.333333e+000
      vertex -1.500000e+000 -3.585125e+001  2.917666e-013
      vertex  0.000000e+000 -3.585125e+001  2.917666e-013
    endloop
  endfacet
  facet normal  0.000000e+000  1.000000e+000  0.000000e+000
    outer loop
      vertex -1.500000e+000 -2.785125e+001 -4.670795e-018
      vertex -1.500000e+000 -2.785125e+001  3.333330e+000
      vertex  0.000000e+000 -2.785125e+001  0.000000e+000
    endloop
  endfacet
  facet normal  0.000000e+000  1.000000e+000  -0.000000e+000
    outer loop
      vertex  0.000000e+000 -2.785125e+001  0.000000e+000
      vertex -1.500000e+000 -2.785125e+001  3.333330e+000
      vertex  0.000000e+000 -2.785125e+001  3.333333e+000
    endloop
  endfacet
  facet normal  0.000000e+000  1.000000e+000  0.000000e+000
    outer loop
      vertex -1.500000e+000 -7.283750e+000  3.333330e+000
      vertex  0.000000e+000 -7.283750e+000  3.333333e+000
      vertex -1.500000e+000 -7.283750e+000  2.346896e-015
    endloop
  endfacet
  facet normal  -0.000000e+000  1.000000e+000  0.000000e+000
    outer loop
      vertex -1.500000e+000 -7.283750e+000  2.346896e-015
      vertex  0.000000e+000 -7.283750e+000  3.333333e+000
      vertex  0.000000e+000 -7.283750e+000  0.000000e+000
    endloop
  endfacet
  facet normal  0.000000e+000  1.000000e+000  0.000000e+000
    outer loop
      vertex  0.000000e+000  0.000000e+000  3.333333e+000
      vertex  5.391000e-001  0.000000e+000  3.333333e+000
      vertex  0.000000e+000  0.000000e+000  0.000000e+000
    endloop
  endfacet
  facet normal  0.000000e+000  9.999999e-001  0.000000e+000
    outer loop
      vertex  0.000000e+000  0.000000e+000  0.000000e+000
      vertex  5.391000e-001  0.000000e+000  3.333333e+000
      vertex  1.040309e+000  0.000000e+000  1.072524e+000
    endloop
  endfacet
  facet normal  0.000000e+000  1.000000e+000  0.000000e+000
    outer loop
      vertex  0.000000e+000  0.000000e+000  0.000000e+000
      vertex  1.040309e+000  0.000000e+000  1.072524e+000
      vertex  1.540436e+000  0.000000e+000  0.000000e+000
    endloop
  endfacet
  facet normal  -0.000000e+000  0.000000e+000  1.000000e+000
    outer loop
      vertex  5.391000e-001  0.000000e+000  3.333333e+000
      vertex  0.000000e+000  0.000000e+000  3.333333e+000
      vertex  0.000000e+000 -7.283750e+000  3.333333e+000
    endloop
  endfacet
  facet normal  -0.000000e+000  0.000000e+000  1.000000e+000
    outer loop
      vertex  5.391000e-001  0.000000e+000  3.333333e+000
      vertex  0.000000e+000 -7.283750e+000  3.333333e+000
      vertex  0.000000e+000 -1.528375e+001  3.333333e+000
    endloop
  endfacet
  facet normal  -0.000000e+000  0.000000e+000  1.000000e+000
    outer loop
      vertex  5.391000e-001  0.000000e+000  3.333333e+000
      vertex  0.000000e+000 -1.528375e+001  3.333333e+000
      vertex  0.000000e+000 -2.785125e+001  3.333333e+000
    endloop
  endfacet
  facet normal  -0.000000e+000  0.000000e+000  9.999999e-001
    outer loop
      vertex  5.391000e-001  0.000000e+000  3.333333e+000
      vertex  0.000000e+000 -2.785125e+001  3.333333e+000
      vertex  0.000000e+000 -3.585125e+001  3.333333e+000
    endloop
  endfacet
  facet normal  -0.000000e+000  0.000000e+000  1.000000e+000
    outer loop
      vertex  5.391000e-001  0.000000e+000  3.333333e+000
      vertex  0.000000e+000 -3.585125e+001  3.333333e+000
      vertex -1.972152e-031 -4.158500e+001  3.333333e+000
    endloop
  endfacet
  facet normal  0.000000e+000  0.000000e+000  9.999999e-001
    outer loop
      vertex  5.391000e-001  0.000000e+000  3.333333e+000
      vertex -1.972152e-031 -4.158500e+001  3.333333e+000
      vertex  5.391000e-001 -4.158500e+001  3.333333e+000
    endloop
  endfacet
  facet normal  9.762960e-001  4.284562e-007  2.164396e-001
    outer loop
      vertex  1.007216e+000 -4.158500e+001  1.221800e+000
      vertex  1.040309e+000 -4.148048e+001  1.072524e+000
      vertex  5.391000e-001 -4.158500e+001  3.333333e+000
    endloop
  endfacet
  facet normal  9.762960e-001  0.000000e+000  2.164396e-001
    outer loop
      vertex  5.391000e-001 -4.158500e+001  3.333333e+000
      vertex  1.040309e+000 -4.148048e+001  1.072524e+000
      vertex  1.040309e+000  0.000000e+000  1.072524e+000
    endloop
  endfacet
  facet normal  9.762961e-001  0.000000e+000  2.164396e-001
    outer loop
      vertex  5.391000e-001 -4.158500e+001  3.333333e+000
      vertex  1.040309e+000  0.000000e+000  1.072524e+000
      vertex  5.391000e-001  0.000000e+000  3.333333e+000
    endloop
  endfacet
  facet normal  0.000000e+000 -1.000000e+000  0.000000e+000
    outer loop
      vertex  0.000000e+000 -4.158500e+001  1.221800e+000
      vertex  1.007216e+000 -4.158500e+001  1.221800e+000
      vertex -1.972152e-031 -4.158500e+001  3.333333e+000
    endloop
  endfacet
  facet normal  0.000000e+000 -1.000000e+000  0.000000e+000
    outer loop
      vertex -1.972152e-031 -4.158500e+001  3.333333e+000
      vertex  1.007216e+000 -4.158500e+001  1.221800e+000
      vertex  5.391000e-001 -4.158500e+001  3.333333e+000
    endloop
  endfacet
  facet normal  0.000000e+000 -8.191512e-001 -5.735776e-001
    outer loop
      vertex  1.540436e+000 -4.072948e+001  1.047625e-014
      vertex  1.040309e+000 -4.148048e+001  1.072524e+000
      vertex  0.000000e+000 -4.072948e+001  0.000000e+000
    endloop
  endfacet
  facet normal -7.165662e-006 -8.191545e-001 -5.735729e-001
    outer loop
      vertex  0.000000e+000 -4.072948e+001  0.000000e+000
      vertex  1.040309e+000 -4.148048e+001  1.072524e+000
      vertex  1.007216e+000 -4.158500e+001  1.221800e+000
    endloop
  endfacet
  facet normal  -0.000000e+000 -8.191518e-001 -5.735769e-001
    outer loop
      vertex  0.000000e+000 -4.072948e+001  0.000000e+000
      vertex  1.007216e+000 -4.158500e+001  1.221800e+000
      vertex  0.000000e+000 -4.158500e+001  1.221800e+000
    endloop
  endfacet
endsolid CATIA STL
